<?xml version="1.0" standalone="no"?>
<!DOCTYPE svg PUBLIC "-//W3C//DTD SVG 1.1//EN" "http://www.w3.org/Graphics/SVG/1.1/DTD/svg11.dtd" >
<svg>
<metadata>
Created by FontForge 20120731 at Tue May  7 12:48:06 2013
 By Michael Sachs
Copyright URW Software, Copyright 1992 by URW
</metadata>
<defs>
<font id="FuturaT-BoldOblique" horiz-adv-x="600" >
  <font-face 
    font-family="FuturTBolObl"
    font-weight="700"
    font-style="oblique"
    font-stretch="normal"
    units-per-em="1000"
    panose-1="2 0 8 3 0 0 0 0 0 0"
    ascent="800"
    descent="-200"
    x-height="447"
    cap-height="667"
    bbox="-148 -254 1159 917"
    underline-thickness="110"
    underline-position="-104"
    slope="-7"
    stemh="127"
    stemv="168"
    unicode-range="U+0020-FB02"
  />
    <missing-glyph />
    <glyph glyph-name="space" unicode=" " horiz-adv-x="250" 
 />
    <glyph glyph-name="Adieresis" unicode="&#xc4;" horiz-adv-x="695" 
d="M228 122l-56 -122h-187l330 667h190l162 -667h-177l-30 122h-232zM290 255h137l-26 116c-13 59 -13 64 -18 101c-12 -35 -20 -57 -30 -79zM525 895c47 0 85 -38 85 -85s-37 -84 -84 -84s-85 39 -85 88c0 43 39 81 84 81zM314 896c46 0 84 -38 84 -85s-37 -84 -85 -84
c-47 0 -84 38 -84 86c0 46 38 83 85 83z" />
    <glyph glyph-name="Aring" unicode="&#xc5;" horiz-adv-x="695" 
d="M228 122l-56 -122h-187l330 667h190l162 -667h-177l-30 122h-232zM290 255h137l-26 116c-13 59 -13 64 -18 101c-12 -35 -20 -57 -30 -79zM423 917c80 0 132 -40 132 -102s-51 -102 -132 -102c-87 0 -139 38 -139 101c0 64 52 103 139 103zM420 854
c-32 0 -52 -15 -52 -38c0 -24 20 -39 52 -39s51 14 51 39c0 23 -19 38 -51 38z" />
    <glyph glyph-name="Eacute" unicode="&#xc9;" horiz-adv-x="483" 
d="M489 667l-18 -147h-196l-14 -115h190l-18 -147h-190l-14 -111h204l-18 -147h-373l82 667h365zM296 892h172l-130 -165h-121z" />
    <glyph glyph-name="Ntilde" unicode="&#xd1;" horiz-adv-x="798" 
d="M782 667l-82 -667h-185l-177 299c-28 47 -54 99 -82 165v-30c0 -50 -2 -83 -7 -126l-38 -308h-169l82 667h182l190 -322c10 -16 19 -34 29 -53l9 -18l8 -17l9 -17c1 -3 6 -13 13 -25c1 42 3 75 8 115l41 337h169zM574 897h110c-12 -117 -50 -171 -120 -171
c-33 0 -34 0 -115 40c-19 10 -31 14 -41 14c-24 0 -34 -13 -36 -50h-114c21 121 56 164 131 164c28 0 55 -9 96 -30c26 -14 37 -18 49 -18c26 0 37 14 40 51z" />
    <glyph glyph-name="Odieresis" unicode="&#xd6;" horiz-adv-x="805" 
d="M430 681c207 0 348 -133 348 -328c0 -217 -147 -366 -362 -366c-217 0 -364 136 -364 338c0 209 156 356 378 356zM421 521c-113 0 -196 -81 -196 -190c0 -110 75 -184 187 -184c113 0 193 78 193 188c0 112 -73 186 -184 186zM580 895c47 0 85 -38 85 -85
s-37 -84 -84 -84s-85 39 -85 88c0 43 39 81 84 81zM369 896c46 0 84 -38 84 -85s-37 -84 -85 -84c-47 0 -84 38 -84 86c0 46 38 83 85 83z" />
    <glyph glyph-name="Udieresis" unicode="&#xdc;" horiz-adv-x="717" 
d="M701 667l-47 -386c-16 -126 -33 -177 -76 -219c-48 -48 -130 -75 -228 -75c-173 0 -278 86 -278 228c0 18 3 54 8 92l44 360h168l-44 -360c-2 -19 -3 -35 -3 -55c0 -70 37 -105 111 -105c84 0 117 35 130 140l46 380h169zM536 895c47 0 85 -38 85 -85s-37 -84 -84 -84
s-85 39 -85 88c0 43 39 81 84 81zM325 896c46 0 84 -38 84 -85s-37 -84 -85 -84c-47 0 -84 38 -84 86c0 46 38 83 85 83z" />
    <glyph glyph-name="aacute" unicode="&#xe1;" horiz-adv-x="612" 
d="M579 447l-55 -447h-165l12 49c-50 -46 -90 -62 -152 -62c-113 0 -186 83 -186 213c0 149 100 260 235 260c63 0 96 -15 146 -64v51h165zM307 330c-60 0 -106 -51 -106 -119c0 -58 35 -94 90 -94c60 0 104 51 104 121c0 56 -34 92 -88 92zM529 698l-132 -172h-113l80 172
h165z" />
    <glyph glyph-name="agrave" unicode="&#xe0;" horiz-adv-x="612" 
d="M579 447l-55 -447h-165l12 49c-50 -46 -90 -62 -152 -62c-113 0 -186 83 -186 213c0 149 100 260 235 260c63 0 96 -15 146 -64v51h165zM307 330c-60 0 -106 -51 -106 -119c0 -58 35 -94 90 -94c60 0 104 51 104 121c0 56 -34 92 -88 92zM199 698h165l37 -172h-112z" />
    <glyph glyph-name="acircumflex" unicode="&#xe2;" horiz-adv-x="612" 
d="M579 447l-55 -447h-165l12 49c-50 -46 -90 -62 -152 -62c-113 0 -186 83 -186 213c0 149 100 260 235 260c63 0 96 -15 146 -64v51h165zM307 330c-60 0 -106 -51 -106 -119c0 -58 35 -94 90 -94c60 0 104 51 104 121c0 56 -34 92 -88 92zM355 613l-56 -86h-132l111 173
h182l59 -173h-127z" />
    <glyph glyph-name="adieresis" unicode="&#xe4;" horiz-adv-x="612" 
d="M579 447l-55 -447h-165l12 49c-50 -46 -90 -62 -152 -62c-113 0 -186 83 -186 213c0 149 100 260 235 260c63 0 96 -15 146 -64v51h165zM307 330c-60 0 -106 -51 -106 -119c0 -58 35 -94 90 -94c60 0 104 51 104 121c0 56 -34 92 -88 92zM452 687c45 0 81 -36 81 -81
c0 -44 -35 -79 -79 -79c-45 0 -81 37 -81 83c0 41 37 77 79 77zM252 688c44 0 80 -36 80 -81s-35 -80 -81 -80c-45 0 -80 36 -80 82c0 44 36 79 81 79z" />
    <glyph glyph-name="atilde" unicode="&#xe3;" horiz-adv-x="612" 
d="M579 447l-55 -447h-165l12 49c-50 -46 -90 -62 -152 -62c-113 0 -186 83 -186 213c0 149 100 260 235 260c63 0 96 -15 146 -64v51h165zM307 330c-60 0 -106 -51 -106 -119c0 -58 35 -94 90 -94c60 0 104 51 104 121c0 56 -34 92 -88 92zM450 689h105
c-12 -115 -45 -162 -114 -162c-31 0 -35 1 -109 38c-19 9 -30 13 -40 13c-22 0 -32 -13 -34 -48h-108c10 62 18 88 33 109c22 31 53 47 91 47c26 0 53 -8 91 -28c26 -13 36 -17 47 -17c25 0 36 13 38 48z" />
    <glyph glyph-name="aring" unicode="&#xe5;" horiz-adv-x="612" 
d="M579 447l-55 -447h-165l12 49c-50 -46 -90 -62 -152 -62c-113 0 -186 83 -186 213c0 149 100 260 235 260c63 0 96 -15 146 -64v51h165zM307 330c-60 0 -106 -51 -106 -119c0 -58 35 -94 90 -94c60 0 104 51 104 121c0 56 -34 92 -88 92zM358 724c78 0 128 -39 128 -98
c0 -61 -50 -99 -128 -99c-85 0 -135 37 -135 98c0 62 51 99 135 99zM354 662c-30 0 -50 -14 -50 -37c0 -22 19 -36 50 -36s50 14 50 36c0 23 -19 37 -50 37z" />
    <glyph glyph-name="eacute" unicode="&#xe9;" horiz-adv-x="561" 
d="M525 190h-334c0 -60 24 -87 77 -87c37 0 57 14 64 46h180c-44 -113 -118 -162 -246 -162c-145 0 -232 82 -232 219c0 150 108 254 264 254c140 0 229 -87 229 -224c0 -11 -1 -26 -2 -46zM202 283h156c-3 45 -29 69 -73 69c-45 0 -73 -23 -83 -69zM504 698l-132 -172h-113
l80 172h165z" />
    <glyph glyph-name="egrave" unicode="&#xe8;" horiz-adv-x="561" 
d="M525 190h-334c0 -60 24 -87 77 -87c37 0 57 14 64 46h180c-44 -113 -118 -162 -246 -162c-145 0 -232 82 -232 219c0 150 108 254 264 254c140 0 229 -87 229 -224c0 -11 -1 -26 -2 -46zM202 283h156c-3 45 -29 69 -73 69c-45 0 -73 -23 -83 -69zM173 698h165l37 -172
h-112z" />
    <glyph glyph-name="ecircumflex" unicode="&#xea;" horiz-adv-x="561" 
d="M525 190h-334c0 -60 24 -87 77 -87c37 0 57 14 64 46h180c-44 -113 -118 -162 -246 -162c-145 0 -232 82 -232 219c0 150 108 254 264 254c140 0 229 -87 229 -224c0 -11 -1 -26 -2 -46zM202 283h156c-3 45 -29 69 -73 69c-45 0 -73 -23 -83 -69zM329 613l-56 -86h-132
l111 173h182l59 -173h-127z" />
    <glyph glyph-name="edieresis" unicode="&#xeb;" horiz-adv-x="561" 
d="M525 190h-334c0 -60 24 -87 77 -87c37 0 57 14 64 46h180c-44 -113 -118 -162 -246 -162c-145 0 -232 82 -232 219c0 150 108 254 264 254c140 0 229 -87 229 -224c0 -11 -1 -26 -2 -46zM202 283h156c-3 45 -29 69 -73 69c-45 0 -73 -23 -83 -69zM427 687
c45 0 81 -36 81 -81c0 -44 -35 -79 -79 -79c-45 0 -81 37 -81 83c0 41 37 77 79 77zM227 688c44 0 80 -36 80 -81s-35 -80 -81 -80c-45 0 -80 36 -80 82c0 44 36 79 81 79z" />
    <glyph glyph-name="iacute" unicode="&#xed;" horiz-adv-x="285" 
d="M252 447l-55 -447h-165l55 447h165zM366 698l-132 -172h-113l80 172h165z" />
    <glyph glyph-name="igrave" unicode="&#xec;" horiz-adv-x="285" 
d="M252 447l-55 -447h-165l55 447h165zM35 698h165l37 -172h-112z" />
    <glyph glyph-name="icircumflex" unicode="&#xee;" horiz-adv-x="285" 
d="M252 447l-55 -447h-165l55 447h165zM191 613l-56 -86h-132l111 173h182l59 -173h-127z" />
    <glyph glyph-name="idieresis" unicode="&#xef;" horiz-adv-x="285" 
d="M252 447l-55 -447h-165l55 447h165zM282 687c45 0 81 -36 81 -80c0 -45 -35 -80 -79 -80c-45 0 -81 37 -81 83c0 41 37 77 79 77zM96 688c44 0 80 -36 80 -81s-35 -80 -81 -80c-45 0 -80 36 -80 82c0 44 36 79 81 79z" />
    <glyph glyph-name="ntilde" unicode="&#xf1;" horiz-adv-x="593" 
d="M252 447l-14 -58c61 53 101 71 162 71c90 0 141 -49 141 -136c0 -19 -2 -48 -5 -72l-31 -252h-165l25 197c2 17 3 39 3 55c0 46 -21 71 -61 71c-51 0 -74 -32 -85 -121l-25 -202h-165l55 447h165zM441 689h105c-12 -115 -45 -162 -114 -162c-31 0 -35 1 -109 38
c-19 9 -30 13 -40 13c-22 0 -32 -13 -34 -48h-108c10 62 18 88 33 109c22 31 53 47 91 47c26 0 53 -8 91 -28c26 -13 36 -17 47 -17c25 0 36 13 38 48z" />
    <glyph glyph-name="oacute" unicode="&#xf3;" horiz-adv-x="603" 
d="M308 460c155 0 258 -90 258 -227c0 -145 -107 -246 -262 -246c-161 0 -269 94 -269 235c0 139 113 238 273 238zM310 330c-61 0 -107 -51 -107 -119c0 -58 35 -94 90 -94c61 0 105 51 105 121c0 56 -34 92 -88 92zM524 698l-132 -172h-113l80 172h165z" />
    <glyph glyph-name="ograve" unicode="&#xf2;" horiz-adv-x="603" 
d="M308 460c155 0 258 -90 258 -227c0 -145 -107 -246 -262 -246c-161 0 -269 94 -269 235c0 139 113 238 273 238zM310 330c-61 0 -107 -51 -107 -119c0 -58 35 -94 90 -94c61 0 105 51 105 121c0 56 -34 92 -88 92zM194 698h165l37 -172h-112z" />
    <glyph glyph-name="ocircumflex" unicode="&#xf4;" horiz-adv-x="603" 
d="M308 460c155 0 258 -90 258 -227c0 -145 -107 -246 -262 -246c-161 0 -269 94 -269 235c0 139 113 238 273 238zM310 330c-61 0 -107 -51 -107 -119c0 -58 35 -94 90 -94c61 0 105 51 105 121c0 56 -34 92 -88 92zM350 613l-56 -86h-132l111 173h182l59 -173h-127z" />
    <glyph glyph-name="odieresis" unicode="&#xf6;" horiz-adv-x="603" 
d="M308 460c155 0 258 -90 258 -227c0 -145 -107 -246 -262 -246c-161 0 -269 94 -269 235c0 139 113 238 273 238zM310 330c-61 0 -107 -51 -107 -119c0 -58 35 -94 90 -94c61 0 105 51 105 121c0 56 -34 92 -88 92zM448 687c45 0 81 -36 81 -81c0 -44 -35 -79 -79 -79
c-45 0 -81 37 -81 83c0 41 37 77 79 77zM248 688c44 0 80 -36 80 -81s-35 -80 -81 -80c-45 0 -80 36 -80 82c0 44 36 79 81 79z" />
    <glyph glyph-name="otilde" unicode="&#xf5;" horiz-adv-x="603" 
d="M308 460c155 0 258 -90 258 -227c0 -145 -107 -246 -262 -246c-161 0 -269 94 -269 235c0 139 113 238 273 238zM310 330c-61 0 -107 -51 -107 -119c0 -58 35 -94 90 -94c61 0 105 51 105 121c0 56 -34 92 -88 92zM446 689h105c-12 -115 -45 -162 -114 -162
c-31 0 -35 1 -109 38c-19 9 -30 13 -40 13c-22 0 -32 -13 -34 -48h-108c10 62 18 88 33 109c22 31 53 47 91 47c26 0 53 -8 91 -28c26 -13 36 -17 47 -17c25 0 36 13 38 48z" />
    <glyph glyph-name="uacute" unicode="&#xfa;" horiz-adv-x="597" 
d="M564 447l-29 -236c-11 -91 -29 -138 -66 -170c-40 -34 -109 -54 -191 -54c-142 0 -223 64 -223 175c0 16 2 39 5 62l27 223h165l-26 -213c-4 -26 -6 -49 -6 -55c0 -35 25 -55 68 -55c51 0 74 25 82 90l29 233h165zM522 698l-132 -172h-113l80 172h165z" />
    <glyph glyph-name="ugrave" unicode="&#xf9;" horiz-adv-x="597" 
d="M564 447l-29 -236c-11 -91 -29 -138 -66 -170c-40 -34 -109 -54 -191 -54c-142 0 -223 64 -223 175c0 16 2 39 5 62l27 223h165l-26 -213c-4 -26 -6 -49 -6 -55c0 -35 25 -55 68 -55c51 0 74 25 82 90l29 233h165zM191 698h165l37 -172h-112z" />
    <glyph glyph-name="ucircumflex" unicode="&#xfb;" horiz-adv-x="597" 
d="M564 447l-29 -236c-11 -91 -29 -138 -66 -170c-40 -34 -109 -54 -191 -54c-142 0 -223 64 -223 175c0 16 2 39 5 62l27 223h165l-26 -213c-4 -26 -6 -49 -6 -55c0 -35 25 -55 68 -55c51 0 74 25 82 90l29 233h165zM347 613l-56 -86h-132l111 173h182l59 -173h-127z" />
    <glyph glyph-name="udieresis" unicode="&#xfc;" horiz-adv-x="597" 
d="M564 447l-29 -236c-11 -91 -29 -138 -66 -170c-40 -34 -109 -54 -191 -54c-142 0 -223 64 -223 175c0 16 2 39 5 62l27 223h165l-26 -213c-4 -26 -6 -49 -6 -55c0 -35 25 -55 68 -55c51 0 74 25 82 90l29 233h165zM445 687c45 0 81 -36 81 -81c0 -44 -35 -79 -79 -79
c-45 0 -81 37 -81 83c0 41 37 77 79 77zM245 688c44 0 80 -36 80 -81s-35 -80 -81 -80c-45 0 -80 36 -80 82c0 44 36 79 81 79z" />
    <glyph glyph-name="Aacute" unicode="&#xc1;" horiz-adv-x="695" 
d="M228 122l-56 -122h-187l330 667h190l162 -667h-177l-30 122h-232zM290 255h137l-26 116c-13 59 -13 64 -18 101c-12 -35 -20 -57 -30 -79zM429 892h172l-130 -165h-121z" />
    <glyph glyph-name="Agrave" unicode="&#xc0;" horiz-adv-x="695" 
d="M228 122l-56 -122h-187l330 667h190l162 -667h-177l-30 122h-232zM290 255h137l-26 116c-13 59 -13 64 -18 101c-12 -35 -20 -57 -30 -79zM435 892l38 -165h-121l-89 165h172z" />
    <glyph glyph-name="Atilde" unicode="&#xc3;" horiz-adv-x="695" 
d="M228 122l-56 -122h-187l330 667h190l162 -667h-177l-30 122h-232zM290 255h137l-26 116c-13 59 -13 64 -18 101c-12 -35 -20 -57 -30 -79zM522 897h110c-12 -117 -50 -171 -120 -171c-33 0 -34 0 -115 40c-19 10 -31 14 -41 14c-24 0 -34 -13 -36 -50h-114
c21 121 56 164 131 164c28 0 55 -9 96 -30c26 -14 37 -18 49 -18c26 0 37 14 40 51z" />
    <glyph glyph-name="Edieresis" unicode="&#xcb;" horiz-adv-x="483" 
d="M489 667l-18 -147h-196l-14 -115h190l-18 -147h-190l-14 -111h204l-18 -147h-373l82 667h365zM432 895c47 0 85 -38 85 -85s-37 -84 -84 -84s-85 39 -85 88c0 43 39 81 84 81zM221 896c46 0 84 -38 84 -85s-37 -84 -85 -84c-47 0 -84 38 -84 86c0 46 38 83 85 83z" />
    <glyph glyph-name="Egrave" unicode="&#xc8;" horiz-adv-x="483" 
d="M489 667l-18 -147h-196l-14 -115h190l-18 -147h-190l-14 -111h204l-18 -147h-373l82 667h365zM330 892l38 -165h-121l-89 165h172z" />
    <glyph glyph-name="Iacute" unicode="&#xcd;" horiz-adv-x="309" 
d="M293 667l-82 -667h-169l82 667h169zM236 892h172l-130 -165h-121z" />
    <glyph glyph-name="Icircumflex" unicode="&#xce;" horiz-adv-x="309" 
d="M293 667l-82 -667h-169l82 667h169zM229 814l-58 -87h-136l117 173h183l62 -173h-134z" />
    <glyph glyph-name="ydieresis" unicode="&#xff;" horiz-adv-x="601" 
d="M628 447l-431 -694h-185l173 282l-158 412h183l48 -121c18 -45 26 -73 37 -128c11 26 15 32 28 55c10 18 25 44 30 53l87 141h188zM447 687c45 0 81 -36 81 -81c0 -44 -35 -79 -79 -79c-45 0 -81 37 -81 83c0 41 37 77 79 77zM247 688c44 0 80 -36 80 -81
s-35 -80 -81 -80c-45 0 -80 36 -80 82c0 44 36 79 81 79z" />
    <glyph glyph-name="Ydieresis" unicode="&#x178;" horiz-adv-x="623" 
d="M385 292l-36 -292h-169l37 297l-170 370h187l46 -107c32 -77 32 -75 43 -112c9 17 18 32 33 53l114 166h206zM488 895c47 0 85 -38 85 -85s-37 -84 -84 -84s-85 39 -85 88c0 43 39 81 84 81zM277 896c46 0 84 -38 84 -85s-37 -84 -85 -84c-47 0 -84 38 -84 86
c0 46 38 83 85 83z" />
    <glyph glyph-name="Ograve" unicode="&#xd2;" horiz-adv-x="805" 
d="M430 681c207 0 348 -133 348 -328c0 -217 -147 -366 -362 -366c-217 0 -364 136 -364 338c0 209 156 356 378 356zM421 521c-113 0 -196 -81 -196 -190c0 -110 75 -184 187 -184c113 0 193 78 193 188c0 112 -73 186 -184 186zM491 892l38 -165h-121l-89 165h172z" />
    <glyph glyph-name="Otilde" unicode="&#xd5;" horiz-adv-x="805" 
d="M430 681c207 0 348 -133 348 -328c0 -217 -147 -366 -362 -366c-217 0 -364 136 -364 338c0 209 156 356 378 356zM421 521c-113 0 -196 -81 -196 -190c0 -110 75 -184 187 -184c113 0 193 78 193 188c0 112 -73 186 -184 186zM577 897h110c-12 -117 -50 -171 -120 -171
c-33 0 -34 0 -115 40c-19 10 -31 14 -41 14c-24 0 -34 -13 -36 -50h-114c21 121 56 164 131 164c28 0 55 -9 96 -30c26 -14 37 -18 49 -18c26 0 37 14 40 51z" />
    <glyph glyph-name="Scaron" unicode="&#x160;" horiz-adv-x="529" 
d="M529 619l-74 -128c-44 33 -81 49 -116 49c-46 0 -76 -22 -76 -57c0 -33 16 -49 85 -81c111 -51 148 -98 148 -187c0 -133 -106 -228 -255 -228c-80 0 -135 18 -225 73l76 128c59 -40 96 -54 139 -54c55 0 91 26 91 67c0 30 -16 45 -78 76c-118 59 -154 104 -154 190
c0 124 102 213 245 213c68 0 128 -19 194 -61zM347 813l58 87h136l-116 -173h-183l-63 173h134z" />
    <glyph glyph-name="Zcaron" unicode="&#x17d;" horiz-adv-x="631" 
d="M597 147l-18 -147h-577l362 520h-263l18 147h536l-357 -520h299zM385 813l58 87h136l-116 -173h-183l-63 173h134z" />
    <glyph glyph-name="scaron" unicode="&#x161;" horiz-adv-x="470" 
d="M446 409l-43 -112c-47 32 -76 43 -114 43c-35 0 -53 -9 -52 -27c0 -9 4 -13 17 -18c5 -3 -15 3 62 -20c79 -24 115 -62 115 -123c0 -101 -78 -165 -204 -165c-76 0 -136 21 -213 76l64 106c63 -43 97 -57 141 -57c39 0 59 10 59 30c0 10 -5 16 -18 21c-4 2 15 -4 -60 17
c-81 22 -116 61 -116 129c0 91 74 152 186 152c60 0 113 -16 176 -52zM281 614l56 86h132l-111 -173h-181l-59 173h127z" />
    <glyph glyph-name="zcaron" unicode="&#x17e;" horiz-adv-x="559" 
d="M509 127l-21 -127h-496l276 320h-195l21 127h472l-273 -320h216zM326 614l56 86h132l-111 -173h-182l-59 173h127z" />
    <glyph glyph-name="Acircumflex" unicode="&#xc2;" horiz-adv-x="695" 
d="M228 122l-56 -122h-187l330 667h190l162 -667h-177l-30 122h-232zM290 255h137l-26 116c-13 59 -13 64 -18 101c-12 -35 -20 -57 -30 -79zM421 814l-58 -87h-136l117 173h183l62 -173h-134z" />
    <glyph glyph-name="Ecircumflex" unicode="&#xca;" horiz-adv-x="483" 
d="M489 667l-18 -147h-196l-14 -115h190l-18 -147h-190l-14 -111h204l-18 -147h-373l82 667h365zM329 814l-58 -87h-136l117 173h183l62 -173h-134z" />
    <glyph glyph-name="Idieresis" unicode="&#xcf;" horiz-adv-x="309" 
d="M293 667l-82 -667h-169l82 667h169zM324 895c47 0 85 -38 85 -85s-37 -84 -84 -84s-85 39 -85 88c0 43 39 81 84 81zM129 896c46 0 84 -38 84 -85s-37 -84 -85 -84c-47 0 -84 38 -84 86c0 46 38 83 85 83z" />
    <glyph glyph-name="Igrave" unicode="&#xcc;" horiz-adv-x="309" 
d="M293 667l-82 -667h-169l82 667h169zM243 892l38 -165h-121l-89 165h172z" />
    <glyph glyph-name="Oacute" unicode="&#xd3;" horiz-adv-x="805" 
d="M430 681c207 0 348 -133 348 -328c0 -217 -147 -366 -362 -366c-217 0 -364 136 -364 338c0 209 156 356 378 356zM421 521c-113 0 -196 -81 -196 -190c0 -110 75 -184 187 -184c113 0 193 78 193 188c0 112 -73 186 -184 186zM471 892h172l-130 -165h-121z" />
    <glyph glyph-name="Ocircumflex" unicode="&#xd4;" horiz-adv-x="805" 
d="M430 681c207 0 348 -133 348 -328c0 -217 -147 -366 -362 -366c-217 0 -364 136 -364 338c0 209 156 356 378 356zM421 521c-113 0 -196 -81 -196 -190c0 -110 75 -184 187 -184c113 0 193 78 193 188c0 112 -73 186 -184 186zM477 814l-58 -87h-136l117 173h183l62 -173
h-134z" />
    <glyph glyph-name="Uacute" unicode="&#xda;" horiz-adv-x="717" 
d="M701 667l-47 -386c-16 -126 -33 -177 -76 -219c-48 -48 -130 -75 -228 -75c-173 0 -278 86 -278 228c0 18 3 54 8 92l44 360h168l-44 -360c-2 -19 -3 -35 -3 -55c0 -70 37 -105 111 -105c84 0 117 35 130 140l46 380h169zM427 892h172l-130 -165h-121z" />
    <glyph glyph-name="Ucircumflex" unicode="&#xdb;" horiz-adv-x="717" 
d="M701 667l-47 -386c-16 -126 -33 -177 -76 -219c-48 -48 -130 -75 -228 -75c-173 0 -278 86 -278 228c0 18 3 54 8 92l44 360h168l-44 -360c-2 -19 -3 -35 -3 -55c0 -70 37 -105 111 -105c84 0 117 35 130 140l46 380h169zM433 814l-58 -87h-136l117 173h183l62 -173h-134
z" />
    <glyph glyph-name="Ugrave" unicode="&#xd9;" horiz-adv-x="717" 
d="M701 667l-47 -386c-16 -126 -33 -177 -76 -219c-48 -48 -130 -75 -228 -75c-173 0 -278 86 -278 228c0 18 3 54 8 92l44 360h168l-44 -360c-2 -19 -3 -35 -3 -55c0 -70 37 -105 111 -105c84 0 117 35 130 140l46 380h169zM447 892l38 -165h-121l-89 165h172z" />
    <glyph glyph-name="exclam" unicode="!" horiz-adv-x="336" 
d="M154 189c57 0 98 -41 98 -98c0 -61 -43 -104 -103 -104c-57 0 -99 44 -99 105c0 56 44 97 104 97zM307 667l-55 -451h-169l56 451h168z" />
    <glyph glyph-name="quotedbl" unicode="&#x22;" horiz-adv-x="407" 
d="M177 399h-91l9 268h139zM363 399h-91l9 268h139z" />
    <glyph glyph-name="numbersign" unicode="#" 
d="M565 298l-14 -115h-99l-35 -183h-132l35 183h-72l-36 -183h-130l36 183h-92l14 115h99l16 84h-90l14 115h98l33 170h130l-33 -170h73l32 170h132l-33 -170h90l-14 -115h-97l-16 -84h91zM358 382h-72l-17 -84h73z" />
    <glyph glyph-name="dollar" unicode="$" 
d="M319 -5l-14 -118h-102l14 116c-57 9 -101 27 -171 70l75 126c59 -39 95 -53 138 -53c54 0 90 26 90 65c0 30 -15 44 -77 76c-121 62 -153 102 -153 188c0 106 66 180 182 206l14 119h102l-14 -116c61 -9 90 -20 151 -58l-73 -127c-44 33 -81 49 -115 49
c-47 0 -75 -21 -75 -56c0 -34 17 -50 84 -80c108 -50 146 -99 146 -188c0 -114 -76 -196 -202 -219z" />
    <glyph glyph-name="percent" unicode="%" horiz-adv-x="829" 
d="M223 675c86 0 140 -58 140 -151c0 -116 -66 -198 -160 -198c-88 0 -143 60 -143 155c0 113 68 194 163 194zM225 600c-42 0 -74 -52 -74 -119c0 -50 19 -80 51 -80c41 0 70 52 70 126c0 46 -17 73 -47 73zM660 667l-383 -667h-83l383 667h83zM654 341
c86 0 140 -58 140 -151c0 -116 -66 -198 -160 -198c-88 0 -143 60 -143 155c0 113 68 194 163 194zM656 266c-42 0 -74 -52 -74 -119c0 -50 19 -80 51 -80c41 0 70 52 70 126c0 46 -17 73 -47 73z" />
    <glyph glyph-name="ampersand" unicode="&#x26;" horiz-adv-x="746" 
d="M619 139l99 -139h-181l-39 56c-76 -50 -153 -75 -235 -75c-132 0 -217 74 -217 190c0 74 38 129 115 169c25 12 49 21 106 39c-44 63 -57 96 -57 145c0 91 84 156 201 156c121 0 201 -68 201 -172c0 -73 -29 -108 -141 -166l76 -104l78 58l71 -96zM399 437l3 -5
c58 27 77 46 77 78s-25 54 -62 54c-34 0 -59 -22 -59 -52c0 -17 6 -28 33 -65zM420 165l-81 114c-90 -41 -125 -70 -125 -104c0 -32 30 -55 73 -55c38 0 71 11 133 45z" />
    <glyph glyph-name="quoteright" unicode="&#x2019;" horiz-adv-x="312" 
d="M334 680l-163 -284h-110l136 284h137z" />
    <glyph glyph-name="parenleft" unicode="(" horiz-adv-x="377" 
d="M268 -123l-125 -54c-53 130 -75 236 -75 366c0 196 57 359 196 560l109 -65c-105 -154 -161 -327 -161 -502c0 -119 17 -214 56 -305z" />
    <glyph glyph-name="parenright" unicode=")" horiz-adv-x="377" 
d="M123 696l124 53c54 -129 76 -236 76 -365c0 -196 -57 -360 -196 -561l-109 66c105 153 161 327 161 502c0 119 -18 215 -56 305z" />
    <glyph glyph-name="asterisk" unicode="*" 
d="M304 623l6 120l104 -12l-23 -119l116 32l20 -103l-119 -14l66 -101l-92 -51l-51 109l-75 -93l-77 71l89 82l-113 43l44 95z" />
    <glyph glyph-name="plus" unicode="+" 
d="M64 274v131h183v178h134v-178h183v-131h-183v-180h-134v180h-183z" />
    <glyph glyph-name="comma" unicode="," horiz-adv-x="307" 
d="M274 167l-182 -316h-122l151 316h153z" />
    <glyph glyph-name="hyphen" unicode="-" horiz-adv-x="254" 
d="M263 300l-17 -140h-254l17 140h254z" />
    <glyph glyph-name="period" unicode="." horiz-adv-x="307" 
d="M136 190c58 0 103 -44 103 -101s-45 -102 -100 -102c-57 0 -103 47 -103 103c0 55 46 100 100 100z" />
    <glyph glyph-name="slash" unicode="/" horiz-adv-x="485" 
d="M543 729l-461 -882h-135l461 882h135z" />
    <glyph glyph-name="zero" unicode="0" 
d="M337 682c164 0 265 -115 265 -300c0 -100 -31 -204 -84 -282c-52 -77 -126 -115 -223 -115c-167 0 -271 118 -271 306c0 228 130 391 313 391zM340 535c-82 0 -146 -106 -146 -243c0 -99 38 -160 100 -160c80 0 137 106 137 254c0 96 -33 149 -91 149z" />
    <glyph glyph-name="one" unicode="1" 
d="M449 667l-82 -667h-169l64 520h-95l18 147h264z" />
    <glyph glyph-name="two" unicode="2" 
d="M528 147l-18 -147h-509c136 125 218 209 291 297c65 78 90 123 90 164c0 45 -31 74 -79 74c-55 0 -79 -35 -86 -125h-173c8 83 21 128 50 170c45 64 125 102 218 102c149 0 243 -84 243 -217c0 -110 -54 -183 -233 -318h206z" />
    <glyph glyph-name="three" unicode="3" 
d="M19 227h174v-15c0 -53 35 -85 94 -85c55 0 91 33 91 83c0 46 -34 76 -88 76c-5 0 -12 0 -20 -1l15 126c14 -2 26 -3 34 -3c43 0 75 30 75 71c0 38 -29 66 -68 66c-46 0 -69 -22 -76 -74h-174c31 150 102 211 248 211c147 0 237 -74 237 -193c0 -69 -24 -109 -87 -143
c55 -30 77 -70 77 -141c0 -129 -110 -220 -267 -220c-168 0 -263 87 -265 242z" />
    <glyph glyph-name="four" unicode="4" 
d="M482 125l-16 -125h-154l15 125h-316l9 134l326 408h202l-50 -409h67l-17 -133h-66zM343 258l13 100c6 51 16 112 26 160c-19 -29 -46 -67 -60 -84l-138 -176h159z" />
    <glyph glyph-name="five" unicode="5" 
d="M557 667l-18 -147h-235l-27 -82c23 3 42 4 52 4c141 0 224 -74 224 -201c0 -148 -126 -256 -298 -256c-91 0 -142 15 -252 72l48 153c61 -52 129 -79 198 -79c77 0 131 43 131 105c0 63 -51 99 -138 99c-57 0 -94 -7 -163 -32l118 364h360z" />
    <glyph glyph-name="six" unicode="6" 
d="M539 667l-209 -234c20 3 38 4 49 4c119 0 204 -87 204 -208c0 -143 -118 -244 -284 -244c-154 0 -268 97 -268 227c0 77 34 143 130 252l179 203h199zM309 320c-65 0 -111 -42 -111 -101c0 -56 45 -97 106 -97s106 43 106 102c0 56 -42 96 -101 96z" />
    <glyph glyph-name="seven" unicode="7" 
d="M630 667l-369 -667h-185l204 367c24 43 64 109 92 153h-272l18 147h512z" />
    <glyph glyph-name="eight" unicode="8" 
d="M436 361c93 -35 130 -85 130 -172c0 -122 -104 -204 -259 -204c-168 0 -269 75 -269 199c0 92 46 146 152 177c-61 34 -86 75 -86 140c0 104 101 181 238 181c135 0 218 -67 218 -176c0 -75 -33 -114 -124 -145zM334 566c-42 0 -74 -29 -74 -69c0 -37 30 -65 71 -65
s72 29 72 68s-28 66 -69 66zM301 278c-52 0 -90 -32 -90 -76s39 -76 91 -76s91 33 91 78c0 44 -37 74 -92 74z" />
    <glyph glyph-name="nine" unicode="9" 
d="M88 0l210 234c-17 -3 -33 -5 -42 -5c-119 0 -211 93 -211 214c0 141 118 239 287 239c155 0 264 -94 264 -227c0 -71 -34 -143 -102 -221l-207 -234h-199zM328 545c-62 0 -110 -45 -110 -103c0 -53 45 -95 100 -95c65 0 111 43 111 103c0 55 -43 95 -101 95z" />
    <glyph glyph-name="colon" unicode=":" horiz-adv-x="307" 
d="M135 190c58 0 103 -44 103 -101s-45 -102 -100 -102c-57 0 -103 47 -103 103c0 55 46 100 100 100zM168 460c58 0 103 -44 103 -101s-45 -102 -100 -102c-57 0 -103 47 -103 103c0 55 45 100 100 100z" />
    <glyph glyph-name="semicolon" unicode=";" horiz-adv-x="307" 
d="M186 460c58 0 103 -44 103 -101s-45 -102 -100 -102c-57 0 -103 47 -103 103c0 55 46 100 100 100zM269 167l-182 -316h-122l151 316h153z" />
    <glyph glyph-name="less" unicode="&#x3c;" horiz-adv-x="500" 
d="M478 658v-189l-233 -131l233 -132v-187l-433 241v158z" />
    <glyph glyph-name="equal" unicode="=" 
d="M64 373v118h500v-118h-500zM64 189v118h500v-118h-500z" />
    <glyph glyph-name="greater" unicode="&#x3e;" horiz-adv-x="500" 
d="M45 19v189l233 131l-232 132l-1 187l433 -241v-158z" />
    <glyph glyph-name="question" unicode="?" horiz-adv-x="548" 
d="M244 189c57 0 98 -41 98 -98c0 -61 -43 -104 -103 -104c-57 0 -99 44 -99 105c0 56 44 97 104 97zM345 220h-155l21 171c23 -1 34 -2 46 -2c76 0 123 33 123 86c0 41 -28 69 -71 69c-47 0 -70 -22 -75 -72h-157c10 74 24 109 56 143c42 44 99 65 174 65
c138 0 227 -80 227 -204c0 -113 -71 -194 -183 -209z" />
    <glyph glyph-name="at" unicode="@" horiz-adv-x="733" 
d="M569 502l-27 -220c-1 -12 -2 -28 -2 -43c0 -14 2 -18 11 -18c48 0 98 78 98 153c0 135 -106 232 -256 232c-151 0 -269 -121 -269 -275c0 -161 114 -270 282 -270c72 0 122 13 202 54c1 0 3 1 6 3l32 -81c-2 -1 -4 -2 -5 -2c-80 -41 -150 -59 -236 -59
c-220 0 -376 147 -376 355c0 201 160 356 366 356c192 0 340 -134 340 -308c0 -130 -88 -241 -193 -241c-34 0 -57 13 -76 43c-41 -34 -64 -44 -104 -44c-94 0 -162 77 -162 183c0 110 76 190 181 190c33 0 54 -7 90 -29l6 21h92zM381 416c-46 0 -80 -42 -80 -101
c0 -49 27 -84 65 -84c50 0 95 51 95 109c0 44 -33 76 -80 76z" />
    <glyph glyph-name="A" unicode="A" horiz-adv-x="695" 
d="M228 122l-56 -122h-187l330 667h190l162 -667h-177l-30 122h-232zM290 255h137l-26 116c-13 59 -13 64 -18 101c-12 -35 -20 -57 -30 -79z" />
    <glyph glyph-name="B" unicode="B" horiz-adv-x="599" 
d="M124 667h213c71 0 110 -6 139 -21c46 -25 72 -73 72 -133c0 -79 -35 -133 -109 -166c85 -19 124 -65 124 -143c0 -75 -36 -138 -101 -175c-39 -22 -78 -29 -155 -29h-265zM276 534l-16 -134h24c73 0 104 22 104 74c0 46 -19 60 -81 60h-31zM245 279l-18 -146h46
c84 0 117 24 117 84c0 48 -21 62 -94 62h-51z" />
    <glyph glyph-name="C" unicode="C" horiz-adv-x="607" 
d="M616 625l-20 -166c-49 41 -103 61 -164 61c-122 0 -209 -81 -209 -194c0 -107 76 -179 187 -179c52 0 101 13 153 42l-21 -170c-73 -25 -106 -32 -156 -32c-198 0 -336 137 -336 332c0 201 161 361 363 361c73 0 132 -16 203 -55z" />
    <glyph glyph-name="D" unicode="D" horiz-adv-x="687" 
d="M124 667h206c110 0 172 -15 223 -55c70 -53 111 -148 111 -254c0 -141 -69 -267 -174 -319c-57 -28 -121 -39 -228 -39h-220zM275 520l-46 -373h58c74 0 112 12 147 49c36 38 56 95 56 162c0 112 -47 162 -154 162h-61z" />
    <glyph glyph-name="E" unicode="E" horiz-adv-x="483" 
d="M489 667l-18 -147h-196l-14 -115h190l-18 -147h-190l-14 -111h204l-18 -147h-373l82 667h365z" />
    <glyph glyph-name="F" unicode="F" horiz-adv-x="474" 
d="M504 667l-18 -147h-211l-14 -113h192l-18 -147h-192l-32 -260h-169l82 667h380z" />
    <glyph glyph-name="G" unicode="G" horiz-adv-x="752" 
d="M405 371h320c-1 -73 -11 -129 -32 -185c-48 -124 -166 -199 -313 -199c-193 0 -330 135 -330 327c0 212 153 366 364 366c145 0 244 -65 299 -195l-146 -57c-34 75 -84 109 -159 109c-104 0 -185 -95 -185 -217c0 -109 73 -186 176 -186c73 0 130 41 144 104h-154z" />
    <glyph glyph-name="H" unicode="H" horiz-adv-x="724" 
d="M708 667l-82 -667h-169l35 277h-247l-34 -277h-169l82 667h169l-30 -243h247l29 243h169z" />
    <glyph glyph-name="I" unicode="I" horiz-adv-x="309" 
d="M293 667l-82 -667h-169l82 667h169z" />
    <glyph glyph-name="J" unicode="J" horiz-adv-x="490" 
d="M474 667l-56 -459c-11 -83 -24 -122 -54 -157c-34 -41 -92 -64 -160 -64c-116 0 -175 43 -211 154l134 70c11 -45 29 -64 62 -64c40 0 55 22 63 89l53 431h169z" />
    <glyph glyph-name="K" unicode="K" horiz-adv-x="672" 
d="M293 667l-36 -292l220 292h194l-255 -339l228 -328h-203l-143 213c-17 27 -38 63 -50 88l-37 -301h-169l82 667h169z" />
    <glyph glyph-name="L" unicode="L" horiz-adv-x="472" 
d="M293 667l-64 -520h213l-19 -147h-381l82 667h169z" />
    <glyph glyph-name="M" unicode="M" horiz-adv-x="939" 
d="M850 667l21 -667h-169l-8 299v22c0 36 2 63 8 111c-16 -44 -29 -74 -47 -110l-164 -322h-89l-57 258c-14 63 -19 98 -28 184c-16 -81 -24 -114 -35 -153l-86 -289h-174l211 667h167l50 -225c13 -55 22 -111 30 -175c10 30 26 69 38 91l157 309h175z" />
    <glyph glyph-name="N" unicode="N" horiz-adv-x="798" 
d="M782 667l-82 -667h-185l-177 299c-28 47 -54 99 -82 165v-30c0 -50 -2 -83 -7 -126l-38 -308h-169l82 667h182l190 -322c10 -16 19 -34 29 -53l9 -18l8 -17l9 -17c1 -3 6 -13 13 -25c1 42 3 75 8 115l41 337h169z" />
    <glyph glyph-name="O" unicode="O" horiz-adv-x="805" 
d="M430 681c207 0 348 -133 348 -328c0 -217 -147 -366 -362 -366c-217 0 -364 136 -364 338c0 209 156 356 378 356zM421 521c-113 0 -196 -81 -196 -190c0 -110 75 -184 187 -184c113 0 193 78 193 188c0 112 -73 186 -184 186z" />
    <glyph glyph-name="P" unicode="P" horiz-adv-x="599" 
d="M124 667h225c92 0 132 -8 171 -34c47 -33 77 -99 77 -170c0 -73 -23 -138 -64 -181c-45 -47 -103 -65 -213 -65h-82l-27 -217h-169zM276 534l-20 -170h53c75 0 115 32 115 92c0 55 -30 78 -101 78h-47z" />
    <glyph glyph-name="Q" unicode="Q" horiz-adv-x="805" 
d="M668 79l78 -103l-148 -30l-46 62c-47 -15 -86 -21 -142 -21c-210 0 -358 139 -358 338c0 209 156 356 378 356c207 0 348 -133 348 -328c0 -109 -37 -203 -110 -274zM501 302l62 -89c29 36 42 74 42 122c0 112 -73 186 -184 186c-113 0 -196 -81 -196 -190
c0 -110 75 -184 187 -184c13 0 21 1 39 3l-98 127z" />
    <glyph glyph-name="R" unicode="R" horiz-adv-x="628" 
d="M435 259l164 -259h-196l-160 265l-32 -265h-169l82 667h217c161 0 236 -66 236 -207c0 -102 -46 -167 -142 -201zM276 534l-21 -172h30c81 0 119 30 119 94c0 58 -25 78 -96 78h-32z" />
    <glyph glyph-name="S" unicode="S" horiz-adv-x="529" 
d="M529 619l-74 -128c-44 33 -81 49 -116 49c-46 0 -76 -22 -76 -57c0 -33 16 -49 85 -81c111 -51 148 -98 148 -187c0 -133 -106 -228 -255 -228c-80 0 -135 18 -225 73l76 128c59 -40 96 -54 139 -54c55 0 91 26 91 67c0 30 -16 45 -78 76c-118 59 -154 104 -154 190
c0 124 102 213 245 213c68 0 128 -19 194 -61z" />
    <glyph glyph-name="T" unicode="T" horiz-adv-x="465" 
d="M355 520l-64 -520h-169l64 520h-143l18 147h452l-18 -147h-140z" />
    <glyph glyph-name="U" unicode="U" horiz-adv-x="717" 
d="M701 667l-47 -386c-16 -126 -33 -177 -76 -219c-48 -48 -130 -75 -228 -75c-173 0 -278 86 -278 228c0 18 3 54 8 92l44 360h168l-44 -360c-2 -19 -3 -35 -3 -55c0 -70 37 -105 111 -105c84 0 117 35 130 140l46 380h169z" />
    <glyph glyph-name="V" unicode="V" horiz-adv-x="675" 
d="M729 667l-358 -667h-142l-175 667h180l77 -304c12 -50 15 -68 20 -122c11 35 22 61 38 91l171 335h189z" />
    <glyph glyph-name="W" unicode="W" horiz-adv-x="1006" 
d="M1060 667l-287 -667h-190l-45 266c-10 57 -14 101 -15 173c-22 -74 -30 -99 -55 -159l-114 -280h-181l-119 667h170l42 -250c14 -80 18 -118 24 -219c20 72 18 65 54 156l127 313h159l50 -286c7 -41 13 -100 18 -183c19 65 19 65 53 149l127 320h182z" />
    <glyph glyph-name="X" unicode="X" horiz-adv-x="687" 
d="M461 342l207 -342h-195l-60 100c-20 32 -40 74 -62 126c-23 -38 -43 -67 -66 -96l-104 -130h-210l291 351l-191 316h196l44 -78c28 -50 40 -73 61 -123c34 52 49 74 67 97l82 104h204z" />
    <glyph glyph-name="Y" unicode="Y" horiz-adv-x="623" 
d="M385 292l-36 -292h-169l37 297l-170 370h187l46 -107c32 -77 32 -75 43 -112c9 17 18 32 33 53l114 166h206z" />
    <glyph glyph-name="Z" unicode="Z" horiz-adv-x="631" 
d="M597 147l-18 -147h-577l362 520h-263l18 147h536l-357 -520h299z" />
    <glyph glyph-name="bracketleft" unicode="[" horiz-adv-x="379" 
d="M33 -153l108 882h259l-11 -93h-120l-86 -696h120l-11 -93h-259z" />
    <glyph glyph-name="backslash" unicode="\" horiz-adv-x="485" 
d="M66 729h135l244 -882h-135z" />
    <glyph glyph-name="bracketright" unicode="]" horiz-adv-x="379" 
d="M360 729l-108 -882h-259l11 93h120l86 696h-120l11 93h259z" />
    <glyph glyph-name="asciicircum" unicode="^" horiz-adv-x="500" 
d="M183 337h-165l139 335h209l140 -335h-165l-79 207z" />
    <glyph glyph-name="underscore" unicode="_" horiz-adv-x="500" 
d="M12 -49h500v-110h-500v110z" />
    <glyph glyph-name="quoteleft" unicode="&#x2018;" horiz-adv-x="312" 
d="M61 396l164 284h109l-135 -284h-138z" />
    <glyph glyph-name="a" unicode="a" horiz-adv-x="612" 
d="M579 447l-55 -447h-165l12 49c-50 -46 -90 -62 -152 -62c-113 0 -186 83 -186 213c0 149 100 260 235 260c63 0 96 -15 146 -64v51h165zM307 330c-60 0 -106 -51 -106 -119c0 -58 35 -94 90 -94c60 0 104 51 104 121c0 56 -34 92 -88 92z" />
    <glyph glyph-name="b" unicode="b" horiz-adv-x="617" 
d="M287 729l-42 -337c54 49 96 68 153 68c110 0 185 -87 185 -214c0 -152 -96 -260 -230 -260c-68 0 -105 18 -154 74l-2 -60h-165l90 729h165zM327 330c-60 0 -106 -52 -106 -120c0 -58 35 -94 90 -94c60 0 104 51 104 121c0 57 -34 93 -88 93z" />
    <glyph glyph-name="c" unicode="c" horiz-adv-x="423" 
d="M417 429l-17 -139c-32 30 -56 40 -93 40c-59 0 -104 -51 -104 -117c0 -58 36 -96 90 -96c33 0 54 8 90 34l-17 -140c-56 -19 -80 -24 -117 -24c-126 0 -214 92 -214 225c0 142 105 248 246 248c50 0 93 -10 136 -31z" />
    <glyph glyph-name="d" unicode="d" horiz-adv-x="612" 
d="M613 729l-90 -729h-164l12 53c-52 -47 -96 -66 -157 -66c-109 0 -182 81 -182 203c0 153 99 270 228 270c61 0 101 -19 147 -71l41 340h165zM306 330c-60 0 -106 -51 -106 -119c0 -58 35 -94 90 -94c60 0 104 51 104 121c0 56 -34 92 -88 92z" />
    <glyph glyph-name="e" unicode="e" horiz-adv-x="561" 
d="M525 190h-334c0 -60 24 -87 77 -87c37 0 57 14 64 46h180c-44 -113 -118 -162 -246 -162c-145 0 -232 82 -232 219c0 150 108 254 264 254c140 0 229 -87 229 -224c0 -11 -1 -26 -2 -46zM202 283h156c-3 45 -29 69 -73 69c-45 0 -73 -23 -83 -69z" />
    <glyph glyph-name="f" unicode="f" horiz-adv-x="359" 
d="M255 320l-40 -320h-164l39 320h-69l16 127h69l13 107c15 121 83 187 193 187c36 0 65 -6 104 -21l-17 -141c-20 16 -35 22 -55 22c-39 0 -57 -22 -64 -75l-9 -79h112l-16 -127h-112z" />
    <glyph glyph-name="g" unicode="g" horiz-adv-x="611" 
d="M578 447l-50 -414c-28 -221 -91 -287 -278 -287c-152 0 -222 56 -239 191h157c6 -38 36 -61 82 -61c65 0 95 30 104 102l9 69c-48 -45 -80 -60 -132 -60c-120 0 -197 86 -197 221c0 148 93 252 225 252c64 0 106 -21 152 -77l3 64h164zM301 330c-58 0 -99 -47 -99 -114
c0 -60 36 -99 90 -99c57 0 96 48 96 118c0 59 -33 95 -87 95z" />
    <glyph glyph-name="h" unicode="h" horiz-adv-x="593" 
d="M287 729l-40 -322c55 39 94 53 144 53c95 0 148 -55 148 -153c0 -19 -2 -50 -6 -79l-28 -228h-165l22 179c6 44 7 56 7 73c0 49 -19 71 -60 71c-53 0 -76 -29 -86 -111l-26 -212h-165l90 729h165z" />
    <glyph glyph-name="i" unicode="i" horiz-adv-x="285" 
d="M193 713c53 0 96 -43 96 -97c0 -55 -43 -99 -97 -99c-55 0 -99 44 -99 99c0 53 45 97 100 97zM252 447l-55 -447h-165l55 447h165z" />
    <glyph glyph-name="j" unicode="j" horiz-adv-x="285" 
d="M189 713c53 0 96 -43 96 -97c0 -55 -43 -99 -97 -99c-55 0 -99 44 -99 99c0 53 45 97 100 97zM252 447l-85 -694h-165l85 694h165z" />
    <glyph glyph-name="k" unicode="k" horiz-adv-x="605" 
d="M287 729l-55 -442l143 160h208l-195 -204l209 -243h-201l-66 75c-39 45 -66 78 -107 135l-26 -210h-165l90 729h165z" />
    <glyph glyph-name="l" unicode="l" horiz-adv-x="285" 
d="M287 729l-90 -729h-165l90 729h165z" />
    <glyph glyph-name="m" unicode="m" horiz-adv-x="881" 
d="M252 447l-13 -59c49 53 90 72 154 72c66 0 101 -20 130 -77c55 56 102 77 166 77c86 0 141 -51 141 -130c0 -19 -3 -50 -8 -95l-30 -235h-164l27 218c2 19 4 39 4 47c0 37 -20 58 -56 58c-51 0 -74 -30 -84 -110l-26 -213h-165l29 233c3 22 3 28 3 39c0 31 -21 51 -54 51
c-48 0 -74 -34 -83 -110l-26 -213h-165l55 447h165z" />
    <glyph glyph-name="n" unicode="n" horiz-adv-x="593" 
d="M252 447l-14 -58c61 53 101 71 162 71c90 0 141 -49 141 -136c0 -19 -2 -48 -5 -72l-31 -252h-165l25 197c2 17 3 39 3 55c0 46 -21 71 -61 71c-51 0 -74 -32 -85 -121l-25 -202h-165l55 447h165z" />
    <glyph glyph-name="o" unicode="o" horiz-adv-x="603" 
d="M308 460c155 0 258 -90 258 -227c0 -145 -107 -246 -262 -246c-161 0 -269 94 -269 235c0 139 113 238 273 238zM310 330c-61 0 -107 -51 -107 -119c0 -58 35 -94 90 -94c61 0 105 51 105 121c0 56 -34 92 -88 92z" />
    <glyph glyph-name="p" unicode="p" horiz-adv-x="617" 
d="M252 447l-12 -56c58 51 98 69 156 69c113 0 184 -83 184 -215c0 -155 -85 -258 -212 -258c-68 0 -118 27 -162 89l-39 -323h-165l85 694h165zM324 330c-60 0 -106 -51 -106 -119c0 -58 35 -94 90 -94c60 0 104 51 104 121c0 56 -34 92 -88 92z" />
    <glyph glyph-name="q" unicode="q" horiz-adv-x="613" 
d="M580 447l-85 -694h-165l36 288c-50 -41 -83 -54 -137 -54c-117 0 -194 87 -194 217c0 153 91 256 227 256c63 0 101 -16 153 -62v49h165zM308 330c-60 0 -105 -51 -105 -119c0 -58 34 -94 88 -94c60 0 103 51 103 121c0 56 -33 92 -86 92z" />
    <glyph glyph-name="r" unicode="r" horiz-adv-x="407" 
d="M252 447l-13 -61c50 46 86 61 148 61c8 0 19 0 33 -1l-18 -153c-26 14 -46 20 -75 20c-68 0 -95 -31 -107 -123l-23 -190h-165l55 447h165z" />
    <glyph glyph-name="s" unicode="s" horiz-adv-x="470" 
d="M439 416l-40 -113c-46 30 -73 39 -109 39c-37 0 -56 -9 -56 -27c0 -10 4 -14 17 -20c6 -2 -15 4 63 -17c81 -22 118 -60 118 -125c0 -101 -81 -166 -208 -166c-73 0 -129 18 -205 68l60 109c66 -43 94 -53 143 -53c34 0 57 12 57 31c0 10 -6 17 -19 22c-4 1 16 -4 -60 14
c-83 20 -119 60 -119 130c0 93 77 154 191 154c56 0 106 -14 167 -46z" />
    <glyph glyph-name="t" unicode="t" horiz-adv-x="333" 
d="M256 320l-39 -320h-165l40 320h-71l16 127h70l18 143h164l-17 -143h88l-16 -127h-88z" />
    <glyph glyph-name="u" unicode="u" horiz-adv-x="597" 
d="M564 447l-29 -236c-11 -91 -29 -138 -66 -170c-40 -34 -109 -54 -191 -54c-142 0 -223 64 -223 175c0 16 2 39 5 62l27 223h165l-26 -213c-4 -26 -6 -49 -6 -55c0 -35 25 -55 68 -55c51 0 74 25 82 90l29 233h165z" />
    <glyph glyph-name="v" unicode="v" horiz-adv-x="583" 
d="M610 447l-301 -447h-112l-175 447h172l50 -136c10 -26 19 -56 33 -111c23 47 43 82 65 116l85 131h183z" />
    <glyph glyph-name="w" unicode="w" horiz-adv-x="833" 
d="M860 447l-258 -447h-118l-44 160c-10 35 -14 60 -19 100c-13 -34 -28 -68 -42 -92l-91 -168h-120l-146 447h167l45 -139c11 -32 18 -62 26 -103c14 40 19 50 44 96l78 146h111l42 -135c13 -41 20 -66 25 -97c12 31 22 52 36 78l88 154h176z" />
    <glyph glyph-name="x" unicode="x" horiz-adv-x="625" 
d="M417 232l179 -232h-204l-43 60c-21 31 -30 44 -44 69c-21 -28 -41 -50 -63 -74l-52 -55h-211l230 236l-162 211h206l33 -52c20 -30 26 -41 36 -63c20 33 20 32 47 63l46 52h215z" />
    <glyph glyph-name="y" unicode="y" horiz-adv-x="601" 
d="M628 447l-431 -694h-185l173 282l-158 412h183l48 -121c18 -45 26 -73 37 -128c11 26 15 32 28 55c10 18 25 44 30 53l87 141h188z" />
    <glyph glyph-name="z" unicode="z" horiz-adv-x="559" 
d="M509 127l-21 -127h-496l276 320h-195l21 127h472l-273 -320h216z" />
    <glyph glyph-name="braceleft" unicode="{" horiz-adv-x="383" 
d="M304 551l-17 -136c-8 -68 -24 -93 -75 -126c35 -26 46 -47 46 -92c0 -11 -1 -23 -2 -35l-17 -136c-3 -26 -3 -27 -3 -39c0 -23 13 -30 59 -30h15l-14 -113c-14 0 -26 0 -33 -1c-22 -1 -38 -1 -41 -1c-84 0 -118 30 -118 106c0 13 1 25 2 38l21 167c1 7 1 16 1 28
c0 34 -14 52 -46 58l13 109c40 8 59 31 65 76l21 167c12 105 54 145 151 145c3 0 19 -1 40 -2c8 0 19 -1 33 -1l-14 -113c-6 1 -13 1 -15 1c-58 0 -64 -6 -72 -70z" />
    <glyph glyph-name="bar" unicode="|" horiz-adv-x="500" 
d="M167 667h191v-834h-191v834z" />
    <glyph glyph-name="braceright" unicode="}" horiz-adv-x="383" 
d="M95 26l16 137c9 67 24 93 76 126c-36 25 -47 46 -47 92c0 9 1 22 2 34l17 136c1 4 1 8 2 12c1 11 2 19 2 27c0 24 -13 31 -60 31c-1 0 -8 0 -15 -1l14 113c15 1 26 1 33 1c22 1 38 2 42 2c84 0 118 -30 118 -106c0 -10 -1 -24 -3 -39l-20 -167c-1 -8 -2 -18 -2 -28
c0 -34 14 -51 46 -58l-13 -108c-40 -8 -59 -31 -65 -77l-20 -167c-13 -104 -55 -144 -151 -144c-5 0 -20 1 -41 1c-7 1 -18 1 -33 1l14 113h15c59 0 65 6 73 69z" />
    <glyph glyph-name="asciitilde" unicode="~" horiz-adv-x="667" 
d="M173 561l-71 46c6 12 3 7 20 45c27 61 73 94 131 94c24 0 53 -7 104 -27c61 -23 66 -24 88 -24c31 0 48 12 71 52l73 -42c-22 -44 -31 -61 -48 -81c-27 -32 -69 -52 -111 -52c-21 0 -42 6 -102 28c-54 20 -66 23 -82 23c-34 0 -48 -12 -73 -62z" />
    <glyph glyph-name="exclamdown" unicode="&#xa1;" horiz-adv-x="336" 
d="M193 527c58 0 100 -44 100 -105c0 -55 -44 -97 -104 -97c-57 0 -98 41 -98 98c0 61 43 104 102 104zM37 -153l55 450h169l-56 -450h-168z" />
    <glyph glyph-name="cent" unicode="&#xa2;" 
d="M348 101l-14 -114h-101l15 127c-87 36 -136 113 -136 215c0 125 79 222 200 246l14 118h102l-15 -117c39 -7 55 -12 87 -28l-17 -141c-32 25 -58 35 -92 35c-63 0 -108 -47 -108 -113c0 -54 37 -92 91 -92c31 0 58 8 92 29l-18 -141c-38 -15 -66 -22 -100 -24z" />
    <glyph glyph-name="sterling" unicode="&#xa3;" 
d="M429 168h123c-11 -125 -63 -183 -163 -183c-28 0 -53 5 -85 16c-10 4 10 -4 -62 25c-22 9 -46 14 -63 14c-23 0 -35 -10 -45 -40h-122c31 114 59 151 132 171c12 32 16 53 16 78c0 6 -1 17 -3 31h-105l13 101h80c-9 39 -12 61 -12 90c0 131 91 211 242 211
c140 0 212 -68 214 -201v-10h-156c-3 57 -23 85 -61 85c-53 0 -78 -34 -78 -107c0 -19 2 -38 7 -68h184l-12 -101h-162c-3 -46 -11 -78 -29 -121c16 -5 10 -3 42 -15c35 -12 54 -18 64 -18c23 0 35 12 41 42z" />
    <glyph glyph-name="fraction" unicode="&#x2044;" horiz-adv-x="153" 
d="M327 667l-383 -667h-92l383 667h92z" />
    <glyph glyph-name="yen" unicode="&#xa5;" 
d="M63 667h168l84 -228l144 228h185l-170 -240h74l-12 -98h-132l-27 -37l-4 -31h154l-12 -98h-154l-20 -163h-167l21 163h-139l12 98h139l4 36l-13 32h-122l12 98h71z" />
    <glyph glyph-name="florin" unicode="&#x192;" 
d="M408 467h109l-20 -101h-111l-54 -250c-25 -115 -55 -178 -105 -219c-37 -30 -103 -49 -168 -49c-17 0 -39 1 -69 5l27 129c19 -2 35 -3 46 -3c73 0 101 34 127 159l49 228h-63l19 101h66l21 95c26 123 96 185 206 185c39 0 59 -5 97 -23l-28 -126c-27 15 -42 20 -63 20
c-37 0 -57 -24 -72 -87z" />
    <glyph glyph-name="section" unicode="&#xa7;" 
d="M55 74h128v-11c1 -75 28 -107 88 -107c46 0 77 24 77 61c0 27 -16 41 -78 69c-146 67 -186 110 -186 203c0 75 32 122 107 156c-40 35 -53 64 -53 120c0 107 79 174 205 174c91 0 160 -34 196 -99c19 -33 26 -66 28 -136h-136c-2 49 -4 63 -13 81c-11 22 -38 36 -70 36
c-41 0 -68 -24 -68 -60c0 -25 18 -39 101 -83c63 -32 80 -43 104 -64c34 -29 52 -71 52 -120c0 -71 -32 -121 -99 -155c34 -38 47 -70 47 -116c0 -111 -87 -187 -213 -187c-86 0 -154 35 -190 99c-20 37 -27 71 -27 139zM308 358c-46 0 -76 -28 -76 -70c0 -43 28 -67 77 -67
c51 0 81 26 81 70c0 41 -32 67 -82 67z" />
    <glyph glyph-name="currency" unicode="&#xa4;" horiz-adv-x="667" 
d="M20 137l103 103c-29 43 -44 89 -44 137c0 51 13 92 44 138l-104 104l71 71l104 -104c48 31 88 44 142 44c48 0 90 -13 135 -43l103 102l70 -70l-102 -102c33 -52 45 -90 45 -139c0 -50 -13 -90 -43 -137l103 -103l-70 -71l-103 103c-45 -31 -91 -45 -141 -45
s-89 12 -140 44l-103 -102zM333 514c-75 0 -136 -61 -136 -136c0 -76 61 -137 136 -137s136 61 136 137c0 75 -61 136 -136 136z" />
    <glyph glyph-name="quotesingle" unicode="'" horiz-adv-x="221" 
d="M177 399h-91l9 268h139z" />
    <glyph glyph-name="quotedblleft" unicode="&#x201c;" horiz-adv-x="525" 
d="M274 396l164 284h110l-136 -284h-138zM61 396l164 284h109l-135 -284h-138z" />
    <glyph glyph-name="guillemotleft" unicode="&#xab;" horiz-adv-x="517" 
d="M183 39l-145 224l184 178l62 -64l-125 -122l105 -161zM379 39l-145 224l184 178l62 -64l-125 -122l105 -161z" />
    <glyph glyph-name="guilsinglleft" unicode="&#x2039;" horiz-adv-x="320" 
d="M183 39l-145 224l184 178l62 -64l-125 -122l105 -161z" />
    <glyph glyph-name="guilsinglright" unicode="&#x203a;" horiz-adv-x="320" 
d="M142 455l145 -225l-184 -178l-62 64l125 122l-105 162z" />
    <glyph glyph-name="uniFB01" unicode="&#xfb01;" horiz-adv-x="603" 
d="M255 320l-40 -320h-164l39 320h-69l16 127h69l13 107c15 120 83 187 190 187c27 0 52 -3 82 -11l-18 -141c-12 9 -20 12 -32 12c-36 0 -54 -22 -61 -75l-9 -79h69l-16 -127h-69zM512 713c53 0 96 -43 96 -97c0 -55 -43 -99 -97 -99c-55 0 -99 44 -99 99
c0 53 45 97 100 97zM571 447l-56 -447h-164l55 447h165z" />
    <glyph glyph-name="uniFB02" unicode="&#xfb02;" horiz-adv-x="603" 
d="M255 320l-40 -320h-164l39 320h-69l16 127h69l13 107c15 120 83 187 191 187c31 0 57 -4 90 -15l-17 -140c-15 11 -27 15 -42 15c-36 0 -54 -22 -61 -75l-9 -79h69l-16 -127h-69zM605 729l-90 -729h-164l90 729h164z" />
    <glyph glyph-name="endash" unicode="&#x2013;" 
d="M545 300l-17 -140h-473l17 140h473z" />
    <glyph glyph-name="dagger" unicode="&#x2020;" 
d="M286 729h152l-20 -166h145l-17 -140h-145l-71 -576h-153l71 576h-145l17 140h145z" />
    <glyph glyph-name="daggerdbl" unicode="&#x2021;" 
d="M285 729h153l-21 -166h145l-17 -140h-145l-21 -174h145l-17 -140h-145l-33 -262h-152l32 262h-145l17 140h145l21 174h-145l18 140h145z" />
    <glyph glyph-name="periodcentered" unicode="&#xb7;" horiz-adv-x="302" 
d="M150 331c58 0 103 -44 103 -101s-45 -102 -100 -102c-57 0 -103 47 -103 103c0 55 46 100 100 100z" />
    <glyph glyph-name="paragraph" unicode="&#xb6;" 
d="M169 -92l51 413h-11c-87 0 -144 65 -144 166c0 122 76 180 237 180h321l-12 -99h-74l-81 -660h-108l81 660h-70l-81 -660h-109z" />
    <glyph glyph-name="bullet" unicode="&#x2022;" horiz-adv-x="667" 
d="M348 477c75 0 137 -62 137 -138s-62 -139 -137 -139c-78 0 -140 62 -140 139c0 76 62 138 140 138z" />
    <glyph glyph-name="quotesinglbase" unicode="&#x201a;" horiz-adv-x="312" 
d="M261 147l-163 -284h-110l136 284h137z" />
    <glyph glyph-name="quotedblbase" unicode="&#x201e;" horiz-adv-x="525" 
d="M261 147l-163 -284h-110l136 284h137zM475 147l-164 -284h-110l136 284h138z" />
    <glyph glyph-name="quotedblright" unicode="&#x201d;" horiz-adv-x="525" 
d="M334 680l-163 -284h-110l136 284h137zM548 680l-164 -284h-110l136 284h138z" />
    <glyph glyph-name="guillemotright" unicode="&#xbb;" horiz-adv-x="517" 
d="M338 455l145 -225l-184 -178l-62 64l126 122l-106 162zM142 455l145 -225l-184 -178l-62 64l125 122l-105 162z" />
    <glyph glyph-name="ellipsis" unicode="&#x2026;" horiz-adv-x="895" 
d="M131 190c58 0 103 -44 103 -101s-45 -102 -100 -102c-57 0 -103 47 -103 103c0 55 46 100 100 100zM429 190c58 0 103 -44 103 -101s-45 -102 -100 -102c-57 0 -103 47 -103 103c0 55 46 100 100 100zM728 190c58 0 103 -44 103 -101s-45 -102 -100 -102
c-57 0 -103 47 -103 103c0 55 46 100 100 100z" />
    <glyph glyph-name="perthousand" unicode="&#x2030;" horiz-adv-x="1194" 
d="M223 675c86 0 140 -58 140 -151c0 -116 -66 -198 -160 -198c-88 0 -143 60 -143 155c0 113 68 194 163 194zM225 600c-42 0 -74 -52 -74 -119c0 -50 19 -80 51 -80c41 0 70 52 70 126c0 46 -17 73 -47 73zM660 667l-383 -667h-83l383 667h83zM654 341
c86 0 140 -58 140 -151c0 -116 -66 -198 -160 -198c-88 0 -143 60 -143 155c0 113 68 194 163 194zM656 266c-42 0 -74 -52 -74 -119c0 -50 19 -80 51 -80c41 0 70 52 70 126c0 46 -17 73 -47 73zM1019 341c86 0 140 -58 140 -151c0 -116 -66 -198 -160 -198
c-88 0 -143 60 -143 155c0 113 68 194 163 194zM1021 266c-42 0 -74 -52 -74 -119c0 -50 19 -80 51 -80c41 0 70 52 70 126c0 46 -17 73 -47 73z" />
    <glyph glyph-name="questiondown" unicode="&#xbf;" horiz-adv-x="548" 
d="M316 527c57 0 99 -44 99 -105c0 -56 -44 -97 -104 -97c-57 0 -98 41 -98 98c0 61 43 104 103 104zM211 293h155l-21 -171c-23 1 -34 2 -46 2c-76 0 -123 -33 -123 -86c0 -41 28 -69 71 -69c47 0 70 22 75 72h157c-10 -74 -23 -109 -56 -143c-42 -44 -99 -65 -174 -65
c-138 0 -227 80 -227 204c0 113 71 194 183 209z" />
    <glyph glyph-name="grave" unicode="`" horiz-adv-x="500" 
d="M143 698h165l37 -172h-112z" />
    <glyph glyph-name="acute" unicode="&#xb4;" horiz-adv-x="500" 
d="M473 698l-132 -172h-113l80 172h165z" />
    <glyph glyph-name="circumflex" unicode="&#x2c6;" horiz-adv-x="500" 
d="M299 613l-56 -86h-132l111 173h182l59 -173h-127z" />
    <glyph glyph-name="tilde" unicode="&#x2dc;" horiz-adv-x="500" 
d="M395 689h105c-12 -115 -45 -162 -114 -162c-31 0 -35 1 -109 38c-19 9 -30 13 -40 13c-22 0 -32 -13 -34 -48h-108c10 62 18 88 33 109c22 31 53 47 91 47c26 0 53 -8 91 -28c26 -13 36 -17 47 -17c25 0 36 13 38 48z" />
    <glyph glyph-name="macron" unicode="&#xaf;" horiz-adv-x="500" 
d="M101 631h397l-12 -98h-397z" />
    <glyph glyph-name="breve" unicode="&#x2d8;" horiz-adv-x="500" 
d="M132 681h99c3 -41 24 -61 65 -61s67 20 81 61h102c-17 -99 -84 -154 -186 -154c-94 0 -162 56 -162 134c0 5 0 11 1 20z" />
    <glyph glyph-name="dotaccent" unicode="&#x2d9;" horiz-adv-x="500" 
d="M297 696c47 0 85 -38 85 -85c0 -48 -37 -84 -85 -84c-47 0 -84 38 -84 86c0 46 38 83 84 83z" />
    <glyph glyph-name="dieresis" unicode="&#xa8;" horiz-adv-x="500" 
d="M397 687c45 0 81 -36 81 -81c0 -44 -35 -79 -79 -79c-45 0 -81 37 -81 83c0 41 37 77 79 77zM197 688c44 0 80 -36 80 -81s-35 -80 -81 -80c-45 0 -80 36 -80 82c0 44 36 79 81 79z" />
    <glyph glyph-name="ring" unicode="&#x2da;" horiz-adv-x="500" 
d="M302 724c78 0 128 -39 128 -98c0 -61 -50 -99 -128 -99c-85 0 -135 37 -135 98c0 62 51 99 135 99zM298 662c-30 0 -50 -14 -50 -37c0 -22 19 -36 50 -36s50 14 50 36c0 23 -19 37 -50 37z" />
    <glyph glyph-name="cedilla" unicode="&#xb8;" horiz-adv-x="500" 
d="M295 -107l-117 -109l-61 60l105 116z" />
    <glyph glyph-name="hungarumlaut" unicode="&#x2dd;" horiz-adv-x="500" 
d="M338 698l-117 -172h-99l65 172h151zM538 698l-117 -172h-99l65 172h151z" />
    <glyph glyph-name="ogonek" unicode="&#x2db;" horiz-adv-x="500" 
d="M227 0h74c-47 -28 -66 -50 -66 -73c0 -20 15 -34 36 -34c13 0 27 5 51 18l-32 -86c-21 -12 -47 -18 -73 -18c-45 0 -79 35 -79 80s29 81 89 113z" />
    <glyph glyph-name="caron" unicode="&#x2c7;" horiz-adv-x="500" 
d="M296 614l56 86h132l-111 -173h-182l-59 173h127z" />
    <glyph glyph-name="emdash" unicode="&#x2014;" horiz-adv-x="761" 
d="M770 300l-17 -140h-761l17 140h761z" />
    <glyph glyph-name="AE" unicode="&#xc6;" horiz-adv-x="923" 
d="M728 667l37 -147h-212l31 -113h203l37 -147h-202l30 -113h207l36 -147h-373l-29 120h-273l-57 -120h-178l325 667h418zM282 253h181l-43 178c-10 38 -14 58 -18 93c-20 -51 -30 -76 -42 -102z" />
    <glyph glyph-name="ordfeminine" unicode="&#xaa;" horiz-adv-x="367" 
d="M36 343h328l-7 -60h-328zM404 667l-34 -273h-116l5 21c-18 -17 -53 -29 -87 -29c-71 0 -120 53 -120 130c0 91 64 159 151 159c36 0 56 -8 84 -32v24h117zM226 586c-32 0 -56 -27 -56 -62c0 -30 19 -49 50 -49c33 0 56 26 56 63c0 30 -19 48 -50 48z" />
    <glyph glyph-name="Lslash" unicode="&#x141;" horiz-adv-x="472" 
d="M292 667l-21 -169l111 72l-17 -141l-111 -69l-26 -213h213l-18 -147h-381l32 263l-78 -52l17 138l78 52l33 266h168z" />
    <glyph glyph-name="Oslash" unicode="&#xd8;" horiz-adv-x="843" 
d="M202 54l-104 -90l-79 91l102 88c-35 60 -50 113 -50 181c0 210 156 357 378 357c88 0 152 -19 221 -66l102 87l78 -92l-98 -84c32 -57 45 -109 45 -174c0 -216 -148 -365 -361 -365c-94 0 -166 21 -234 67zM613 402l-279 -233c34 -16 60 -22 97 -22c113 0 193 78 193 187
c0 23 -3 40 -11 68zM256 261l282 236c-31 17 -61 24 -98 24c-113 0 -196 -81 -196 -191c0 -25 3 -41 12 -69z" />
    <glyph glyph-name="OE" unicode="&#x152;" horiz-adv-x="985" 
d="M999 667l-18 -147h-207l-14 -115h186l-18 -147h-186l-14 -111h207l-18 -147h-356l9 75c-63 -61 -127 -88 -210 -88c-177 0 -309 141 -309 329c0 211 145 364 344 364c101 0 176 -38 230 -116l13 103h361zM415 520c-109 0 -191 -86 -191 -200c0 -104 74 -173 186 -173
c110 0 184 74 184 185c0 110 -74 188 -179 188z" />
    <glyph glyph-name="ordmasculine" unicode="&#xba;" horiz-adv-x="367" 
d="M36 343h328l-7 -60h-328zM221 675c104 0 171 -54 171 -138c0 -89 -69 -150 -169 -150c-103 0 -173 58 -173 144c0 83 73 144 171 144zM224 586c-32 0 -56 -27 -56 -61c0 -30 20 -49 50 -49c33 0 56 26 56 62c0 30 -19 48 -50 48z" />
    <glyph glyph-name="ae" unicode="&#xe6;" horiz-adv-x="863" 
d="M826 197h-334c0 -60 31 -94 85 -94c35 0 65 16 77 40h159c-32 -104 -111 -156 -236 -156c-82 0 -129 17 -171 61c-57 -43 -115 -61 -193 -61c-113 0 -185 57 -185 146c0 87 70 143 176 143c56 0 99 -13 138 -42c1 17 1 25 2 38c1 7 1 12 1 17c0 40 -37 63 -99 63
c-41 0 -68 -6 -136 -32l9 118c67 15 116 22 162 22c69 0 120 -17 163 -56c48 39 97 56 163 56c142 0 219 -86 219 -243v-20zM248 176c-45 0 -73 -17 -73 -44c0 -29 29 -47 75 -47c41 0 69 18 69 45c0 28 -29 46 -71 46zM508 290h169c-8 45 -34 66 -81 66
c-50 0 -76 -20 -88 -66z" />
    <glyph glyph-name="dotlessi" unicode="&#x131;" horiz-adv-x="285" 
d="M252 447l-55 -447h-165l55 447h165z" />
    <glyph glyph-name="lslash" unicode="&#x142;" horiz-adv-x="285" 
d="M287 729l-32 -264l83 53l-18 -142l-83 -50l-40 -326h-165l30 239l-80 -52l17 141l80 49l43 352h165z" />
    <glyph glyph-name="oslash" unicode="&#xf8;" horiz-adv-x="667" 
d="M173 27l-94 -75l-66 83l85 68c-23 41 -32 74 -32 119c0 139 113 238 273 238c60 0 107 -11 155 -37l92 74l67 -83l-84 -68c20 -40 29 -74 29 -113c0 -145 -107 -246 -262 -246c-67 0 -114 12 -163 40zM429 250l-153 -121c19 -9 30 -12 49 -12c61 0 105 50 105 121
c0 1 0 7 -1 12zM235 198l154 121c-17 8 -30 11 -47 11c-62 0 -108 -51 -108 -119c0 -2 0 -8 1 -13z" />
    <glyph glyph-name="oe" unicode="&#x153;" horiz-adv-x="908" 
d="M872 192h-326c6 -63 33 -89 93 -89c33 0 56 11 71 33h151c-54 -114 -105 -149 -220 -149c-85 0 -147 23 -194 73c-60 -53 -111 -73 -189 -73c-133 0 -223 93 -223 229c0 146 100 244 249 244c73 0 124 -19 176 -67c57 46 113 67 182 67c147 0 230 -84 230 -233v-35z
M309 329c-60 0 -106 -51 -106 -119c0 -57 35 -93 89 -93c60 0 104 51 104 120c0 56 -34 92 -87 92zM563 285h169c-9 49 -33 71 -81 71s-79 -25 -88 -71z" />
    <glyph glyph-name="germandbls" unicode="&#xdf;" horiz-adv-x="608" 
d="M32 0l61 491c11 95 25 136 55 174c40 50 102 76 179 76c143 0 233 -76 233 -197c0 -81 -39 -136 -118 -165c92 -36 126 -83 126 -174c0 -81 -39 -147 -105 -181c-39 -20 -71 -24 -176 -24h-43l18 142c18 -2 25 -2 36 -2c65 0 102 32 102 88c0 52 -30 80 -85 80
c-7 0 -20 0 -33 -1l18 149c11 -1 20 -2 27 -2c45 0 78 33 78 78s-27 72 -72 72c-43 0 -65 -26 -72 -87l-64 -517h-165z" />
    <glyph glyph-name="Ccedilla" unicode="&#xc7;" horiz-adv-x="607" 
d="M616 625l-20 -166c-49 41 -103 61 -164 61c-122 0 -209 -81 -209 -194c0 -107 76 -179 187 -179c52 0 101 13 153 42l-21 -170c-73 -25 -106 -32 -156 -32c-198 0 -336 137 -336 332c0 201 161 361 363 361c73 0 132 -16 203 -55zM356 -114l-128 -120l-67 66l116 128z
" />
    <glyph glyph-name="ccedilla" unicode="&#xe7;" horiz-adv-x="423" 
d="M417 429l-17 -139c-32 30 -56 40 -93 40c-59 0 -104 -51 -104 -117c0 -58 36 -96 90 -96c33 0 54 8 90 34l-17 -140c-56 -19 -80 -24 -117 -24c-126 0 -214 92 -214 225c0 142 105 248 246 248c50 0 93 -10 136 -31zM260 -107l-117 -109l-61 60l105 116z" />
    <glyph glyph-name="infinity" unicode="&#x221e;" horiz-adv-x="713" 
d="M357 303c56 74 119 111 189 111c83 0 143 -61 143 -146c0 -92 -56 -153 -141 -153c-63 0 -133 42 -191 112c-17 -20 -22 -26 -30 -35c-44 -49 -103 -77 -158 -77c-86 0 -144 60 -144 149c0 86 61 150 145 150c64 0 129 -39 187 -111zM391 264c71 -76 104 -97 159 -97
c54 0 89 39 89 99c0 56 -39 96 -95 96c-31 0 -70 -16 -103 -44c-17 -13 -32 -29 -44 -46c-4 -5 -6 -8 -6 -8zM324 266c-65 71 -106 96 -156 96c-57 0 -93 -38 -93 -98c0 -57 36 -97 88 -97c44 0 87 22 134 68c9 9 16 17 22 24c3 4 5 7 5 7z" />
    <glyph glyph-name="mu" unicode="&#x3bc;" horiz-adv-x="576" 
d="M442 500v-369c0 -54 20 -90 49 -90c24 0 46 30 49 68l27 -1c-14 -78 -56 -121 -120 -121c-50 0 -77 27 -93 93c-53 -62 -104 -93 -155 -93c-34 0 -56 11 -98 46c0 -37 1 -48 12 -86c17 -59 19 -71 19 -92c0 -45 -20 -74 -50 -74c-28 0 -49 30 -49 69c0 27 0 30 17 94
c8 30 12 54 12 76v480h88v-331c0 -70 34 -111 91 -111c43 0 77 22 112 73v369h89z" />
    <glyph glyph-name="apple" horiz-adv-x="790" 
d="M570 698v-11c0 -87 -86 -165 -181 -164c2 97 70 163 181 175zM714 461c-59 -45 -81 -84 -81 -141c0 -67 37 -123 100 -150c-59 -122 -134 -197 -198 -197c-18 0 -39 5 -65 17c-25 11 -30 12 -66 12c-25 0 -35 -2 -56 -12c-31 -13 -47 -17 -67 -17
c-102 0 -225 185 -225 339c0 122 93 221 207 221c25 0 52 -6 90 -20c23 -8 41 -12 51 -12s23 3 41 10c48 18 63 22 92 22c76 0 133 -23 177 -72z" />
    <glyph glyph-name="Eth" unicode="&#xd0;" horiz-adv-x="703" 
d="M140 667h206c110 0 172 -15 223 -55c70 -53 111 -148 111 -254c0 -142 -68 -267 -174 -319c-57 -28 -121 -39 -228 -39h-220l35 280h-47l15 120h46zM291 520l-15 -120h130l-14 -120h-130l-17 -133h58c75 0 112 12 147 49c36 38 56 94 56 162c0 112 -47 162 -153 162h-62z
" />
    <glyph glyph-name="eth" unicode="&#xf0;" horiz-adv-x="602" 
d="M90 669l71 60c59 -19 100 -36 145 -61l148 67l33 -74l-100 -44c124 -99 183 -214 183 -356c0 -170 -101 -274 -265 -274c-161 0 -269 94 -269 235s105 235 262 235c20 0 33 -1 57 -5c-19 37 -44 69 -82 104l-141 -64l-34 73l104 46c-32 21 -36 24 -112 58zM311 330
c-61 0 -107 -51 -107 -119c0 -58 35 -94 91 -94c61 0 105 51 105 121c0 56 -34 92 -89 92z" />
    <glyph glyph-name="Thorn" unicode="&#xde;" horiz-adv-x="599" 
d="M124 667h169l-12 -94h57c92 0 132 -8 170 -34c48 -32 78 -99 78 -170c0 -74 -23 -138 -64 -181c-46 -47 -103 -65 -213 -65h-83l-15 -123h-169zM265 440l-21 -170h54c75 0 115 32 115 91c0 56 -30 79 -101 79h-47z" />
    <glyph glyph-name="thorn" unicode="&#xfe;" horiz-adv-x="617" 
d="M286 729l-30 -245c-4 -35 -9 -61 -16 -93c58 51 98 69 156 69c113 0 184 -83 184 -215c0 -155 -85 -258 -212 -258c-68 0 -118 27 -162 89l-39 -323h-165l120 976h164zM324 330c-60 0 -106 -51 -106 -119c0 -58 35 -94 90 -94c60 0 104 51 104 121c0 56 -34 92 -88 92z
" />
    <glyph glyph-name="Yacute" unicode="&#xdd;" horiz-adv-x="623" 
d="M385 292l-36 -292h-169l37 297l-170 370h187l46 -107c32 -77 32 -75 43 -112c9 17 18 32 33 53l114 166h206zM380 892h171l-129 -165h-122z" />
    <glyph glyph-name="yacute" unicode="&#xfd;" horiz-adv-x="601" 
d="M628 447l-431 -694h-185l173 282l-158 412h183l48 -121c18 -45 26 -73 37 -128c11 26 15 32 28 55c10 18 25 44 30 53l87 141h188zM523 698l-132 -172h-112l80 172h164z" />
    <glyph glyph-name="trademark" unicode="&#x2122;" horiz-adv-x="842" 
d="M241 573l-36 -286h-114l35 286h-86l12 94h284l-11 -94h-84zM817 667l17 -380h-115l-7 203l-109 -203h-63l-37 146c-6 25 -8 36 -13 64c-5 -20 -7 -31 -12 -46l-51 -164h-118l126 380h111l32 -128c5 -19 9 -37 16 -73l108 201h115z" />
    <glyph glyph-name="copyright" unicode="&#xa9;" horiz-adv-x="733" 
d="M541 507l-14 -113c-41 32 -65 41 -107 41c-72 0 -121 -43 -121 -105c0 -58 45 -98 111 -98c35 0 58 6 101 29l-14 -115c-51 -16 -70 -20 -103 -20c-127 0 -216 83 -216 200c0 120 102 215 231 215c47 0 83 -9 132 -34zM382 682c189 0 344 -157 344 -348
c0 -192 -155 -349 -344 -349c-193 0 -349 155 -349 349c0 193 155 348 349 348zM381 619c-155 0 -279 -127 -279 -286c0 -158 125 -286 279 -286c151 0 275 129 275 286s-124 286 -275 286z" />
    <glyph glyph-name="registered" unicode="&#xae;" horiz-adv-x="733" 
d="M459 287l106 -154h-139l-92 141l-17 -141h-118l49 400h141c103 0 153 -41 153 -127c0 -58 -29 -100 -83 -119zM355 442l-11 -86h12c45 0 65 14 65 46c0 31 -12 40 -53 40h-13zM382 682c189 0 344 -157 344 -348c0 -192 -155 -349 -344 -349c-193 0 -349 155 -349 349
c0 193 155 348 349 348zM381 619c-155 0 -279 -127 -279 -286c0 -158 125 -286 279 -286c151 0 275 129 275 286s-124 286 -275 286z" />
    <glyph glyph-name="onequarter" unicode="&#xbc;" horiz-adv-x="980" 
d="M321 667l-49 -400h-109l38 309h-59l11 91h168zM740 667l-383 -667h-92l383 667h92zM876 74l-9 -74h-100l9 74h-195l5 82l202 244h128l-29 -243h41l-10 -83h-42zM786 157l8 57c4 35 9 66 14 87c-10 -14 -25 -35 -32 -43l-82 -101h92z" />
    <glyph glyph-name="onehalf" unicode="&#xbd;" horiz-adv-x="980" 
d="M321 667l-49 -400h-109l38 309h-59l11 91h168zM740 667l-383 -667h-92l383 667h92zM906 91l-12 -91h-322c87 78 136 126 183 180c39 47 54 73 54 97c0 25 -19 42 -47 42c-33 0 -46 -19 -50 -75h-111c9 112 63 166 167 166c93 0 153 -51 153 -131
c0 -66 -31 -108 -139 -188h124z" />
    <glyph glyph-name="threequarters" unicode="&#xbe;" horiz-adv-x="980" 
d="M52 405h112v-11c0 -30 22 -49 57 -49c33 0 54 19 54 47c0 27 -21 45 -53 45c-3 0 -9 0 -15 -1l10 79c9 -1 17 -2 23 -2c25 0 44 17 44 40c0 22 -17 38 -41 38c-28 0 -41 -12 -45 -44h-112c20 92 64 129 155 129c92 0 150 -45 150 -116c0 -41 -15 -65 -51 -85
c32 -18 46 -43 46 -85c0 -78 -68 -133 -167 -133c-107 0 -166 53 -167 148zM740 667l-383 -667h-92l383 667h92zM877 74l-10 -74h-100l10 74h-196l5 82l202 244h129l-30 -243h41l-10 -83h-41zM786 157l8 57c4 35 10 66 14 87c-10 -14 -25 -35 -32 -43l-82 -101h92z" />
    <glyph glyph-name="minus" unicode="&#x2212;" 
d="M64 274v131h500v-131h-500z" />
    <glyph glyph-name="multiply" unicode="&#xd7;" 
d="M82 484l90 88l140 -140l139 141l95 -95l-139 -140l140 -141l-91 -88l-138 139l-139 -141l-95 95l139 140z" />
    <glyph glyph-name="plusminus" unicode="&#xb1;" horiz-adv-x="549" 
d="M302 662v-245h237v-55h-237v-233h-55v233h-237v55h237v245h55zM11 55h524v-55h-524v55z" />
    <glyph glyph-name="divide" unicode="&#xf7;" horiz-adv-x="549" 
d="M273 120c34 0 62 -28 62 -62s-28 -62 -62 -62s-62 28 -62 62s28 62 62 62zM273 519c34 0 62 -28 62 -62s-28 -62 -62 -62s-62 28 -62 62s28 62 62 62zM10 288h526v-55h-526v55z" />
    <glyph glyph-name="logicalnot" unicode="&#xac;" horiz-adv-x="500" 
d="M293 0v132h-248v166h433v-298h-185z" />
    <glyph glyph-name="degree" unicode="&#xb0;" horiz-adv-x="400" 
d="M201 686c85 0 149 -65 149 -152c0 -86 -66 -153 -150 -153s-150 67 -150 154c0 83 68 151 151 151zM199 629c-52 0 -93 -43 -93 -98c0 -49 43 -93 91 -93c55 0 96 41 96 94c0 55 -40 97 -94 97z" />
    <glyph glyph-name="brokenbar" unicode="&#xa6;" horiz-adv-x="500" 
d="M167 667h191v-362h-191v362zM167 153h191v-320h-191v320z" />
    <glyph glyph-name="uni00B9" unicode="&#xb9;" horiz-adv-x="400" 
d="M315 667l-49 -400h-109l38 309h-59l11 91h168z" />
    <glyph glyph-name="uni00B2" unicode="&#xb2;" horiz-adv-x="400" 
d="M366 358l-12 -91h-322c88 78 136 125 182 179c40 46 55 72 55 96c0 25 -19 42 -47 42c-33 0 -46 -19 -50 -74h-111c9 112 63 166 167 166c94 0 153 -51 153 -132c0 -64 -33 -109 -139 -186h124z" />
    <glyph glyph-name="uni00B3" unicode="&#xb3;" horiz-adv-x="400" 
d="M46 405h112v-11c0 -30 22 -49 57 -49c33 0 54 19 54 47c0 27 -21 45 -53 45c-3 0 -9 0 -15 -1l10 79c9 -1 17 -2 23 -2c25 0 44 17 44 40c0 22 -17 38 -41 38c-28 0 -41 -12 -45 -44h-112c20 92 64 129 155 129c92 0 150 -45 150 -116c0 -41 -15 -65 -51 -85
c32 -18 46 -43 46 -85c0 -78 -68 -133 -167 -133c-107 0 -166 53 -167 148z" />
    <glyph glyph-name="notequal" unicode="&#x2260;" horiz-adv-x="549" 
d="M187 141h-172v55h199l70 139h-269v55h297l80 159l47 -24l-68 -135h169v-55h-197l-70 -139h267v-55h-295l-84 -166l-46 24z" />
    <glyph glyph-name="lessequal" unicode="&#x2264;" horiz-adv-x="549" 
d="M526 55v-55h-497v55h497zM526 639v-62l-418 -199l418 -199v-62l-497 233v55z" />
    <glyph glyph-name="greaterequal" unicode="&#x2265;" horiz-adv-x="549" 
d="M526 55v-55h-497v55h497zM29 639l497 -234v-55l-497 -233v62l418 199l-418 199v62z" />
    <glyph glyph-name="partialdiff" unicode="&#x2202;" horiz-adv-x="494" 
d="M107 674l-41 51c56 21 89 28 129 28c153 0 267 -150 267 -351c0 -122 -36 -259 -85 -325c-41 -57 -98 -87 -163 -87c-107 0 -188 85 -188 198c0 117 92 224 193 224c53 0 88 -15 153 -66c6 50 7 72 7 105c0 162 -59 255 -162 255c-33 0 -66 -10 -110 -32zM366 312
c-42 42 -67 55 -105 55c-81 0 -148 -94 -148 -208c0 -87 33 -138 90 -138c41 0 85 34 111 86c16 33 28 68 35 105c12 57 18 98 17 100z" />
    <glyph glyph-name="summation" unicode="&#x2211;" horiz-adv-x="713" 
d="M176 711l188 -370l-201 -352h328c116 0 146 17 178 98h26l-54 -210h-627l242 408l-233 467h599l10 -165h-26c-17 101 -47 124 -162 124h-268z" />
    <glyph glyph-name="product" unicode="&#x220f;" horiz-adv-x="823" 
d="M25 -124v26h3c33 0 60 12 74 31c11 17 14 33 14 85v591c0 52 -3 68 -14 85c-14 19 -41 31 -74 31h-3v26h778v-26h-3c-33 0 -60 -12 -74 -31c-11 -17 -14 -33 -14 -85v-591c0 -52 3 -68 14 -85c14 -19 41 -31 74 -31h3v-26h-290v26h3c33 0 60 12 74 31c11 17 14 33 14 85
v576c0 62 -4 83 -18 96c-11 10 -28 15 -59 17c-9 1 -19 1 -48 1h-67c-106 0 -116 0 -139 -4c-41 -7 -49 -26 -49 -110v-576c0 -52 3 -68 14 -85c14 -19 41 -31 74 -31h3v-26h-290z" />
    <glyph glyph-name="pi" unicode="&#x3c0;" horiz-adv-x="549" 
d="M30 348h-20c17 60 33 89 61 117c29 28 48 35 102 35h350v-89h-126c-7 -54 -12 -147 -12 -221c0 -68 22 -105 64 -105c33 0 52 25 57 73h24c-3 -51 -7 -72 -23 -101c-24 -45 -58 -70 -96 -70c-63 0 -99 67 -99 184c0 55 9 161 21 240h-109l-12 -129c-3 -36 -2 -27 -9 -79
c-10 -86 -14 -116 -18 -133c-13 -55 -38 -83 -74 -83c-30 0 -54 24 -54 56c0 21 10 37 40 65c34 32 48 53 51 81l26 222h-46c-48 0 -64 -11 -98 -63z" />
    <glyph glyph-name="integral" unicode="&#x222b;" horiz-adv-x="274" 
d="M180 576v-344c0 -107 -10 -207 -25 -261c-14 -49 -48 -78 -92 -78c-37 0 -61 17 -61 44c0 19 15 33 36 33c13 0 21 -6 30 -22c6 -13 13 -18 21 -18c19 0 31 23 31 60c0 14 -1 45 -3 73c-3 62 -4 100 -4 169v345c0 105 10 207 25 261c14 49 49 78 92 78
c38 0 61 -17 61 -46c0 -18 -16 -31 -36 -31c-16 0 -23 6 -40 33c-2 4 -7 6 -13 6c-19 0 -29 -23 -29 -65c0 -13 1 -39 3 -67c3 -51 4 -101 4 -170z" />
    <glyph glyph-name="Omega" unicode="&#x3a9;" horiz-adv-x="768" 
d="M326 0h-292v153h24c7 -44 29 -63 69 -63h146l-3 38c-129 46 -202 138 -202 254c0 165 145 304 317 304s317 -139 317 -304c0 -116 -73 -208 -202 -254l-3 -38h146c40 0 62 19 69 63h24v-153h-292l18 155c78 44 128 133 128 227c0 146 -90 260 -205 260
s-205 -114 -205 -260c0 -94 50 -183 128 -227z" />
    <glyph glyph-name="radical" unicode="&#x221a;" horiz-adv-x="549" 
d="M363 -35l-242 496l-95 -47l-16 35l146 71l195 -394l127 787l37 -5z" />
    <glyph glyph-name="approxequal" unicode="&#x2248;" horiz-adv-x="549" 
d="M489 251l38 -34c-30 -56 -78 -85 -141 -85c-23 0 -43 3 -66 10l-16 5c-44 14 -17 6 -81 25c-35 10 -46 12 -63 12c-41 0 -56 -10 -103 -63l-43 34c40 57 87 84 146 84c28 0 53 -5 125 -28c72 -22 80 -24 101 -24c37 0 59 13 103 64zM489 408l38 -33
c-30 -57 -78 -86 -141 -86c-23 0 -43 3 -66 10c-65 20 -33 11 -97 30c-35 10 -46 12 -63 12c-41 0 -56 -10 -103 -63l-43 34c40 57 87 84 146 84c28 0 53 -5 125 -28c72 -22 80 -24 101 -24c37 0 58 13 103 64z" />
    <glyph glyph-name="Delta" unicode="&#x394;" horiz-adv-x="612" 
d="M6 0l321 688l281 -688h-602zM77 51h402l-189 458z" />
    <glyph glyph-name="lozenge" unicode="&#x25ca;" horiz-adv-x="494" 
d="M209 0l-191 377l196 363h63l189 -366l-197 -374h-60zM240 58l162 316l-157 309l-164 -306z" />
  </font>
</defs>
</svg>
