<?xml version="1.0" standalone="no"?>
<!DOCTYPE svg PUBLIC "-//W3C//DTD SVG 1.1//EN" "http://www.w3.org/Graphics/SVG/1.1/DTD/svg11.dtd" >
<svg>
<metadata>
Created by FontForge 20120731 at Tue May  7 12:52:53 2013
 By Michael Sachs
Copyright URW Software, Copyright 1992 by URW
</metadata>
<defs>
<font id="FuturaT-ExtraBold" horiz-adv-x="707" >
  <font-face 
    font-family="FuturTExtBol"
    font-weight="700"
    font-stretch="normal"
    units-per-em="1000"
    panose-1="2 0 8 3 0 0 0 0 0 0"
    ascent="800"
    descent="-200"
    x-height="467"
    cap-height="667"
    bbox="-139 -250 1476 933"
    underline-thickness="117"
    underline-position="-104"
    stemh="180"
    stemv="225"
    unicode-range="U+0020-FB02"
  />
    <missing-glyph />
    <glyph glyph-name="space" unicode=" " horiz-adv-x="250" 
 />
    <glyph glyph-name="Adieresis" unicode="&#xc4;" horiz-adv-x="737" 
d="M274 83l-18 -83h-256l231 667h268l238 -667h-257l-22 83h-184zM319 241h97l-31 128c-9 40 -10 44 -13 75h-9c-5 -41 -7 -59 -11 -75zM249 896c48 0 86 -38 86 -86s-39 -87 -86 -87c-48 0 -87 39 -87 87c0 47 39 86 87 86zM489 896c48 0 86 -38 86 -86s-39 -87 -86 -87
c-48 0 -87 39 -87 87c0 47 39 86 87 86z" />
    <glyph glyph-name="Aring" unicode="&#xc5;" horiz-adv-x="737" 
d="M274 83l-18 -83h-256l231 667h268l238 -667h-257l-22 83h-184zM319 241h97l-31 128c-9 40 -10 44 -13 75h-9c-5 -41 -7 -59 -11 -75zM369 933c74 0 124 -42 124 -105c0 -67 -50 -111 -125 -111c-73 0 -123 44 -123 110c0 65 48 106 124 106zM368 863
c-21 0 -38 -17 -38 -37c0 -21 17 -38 38 -38s38 17 38 38c0 20 -17 37 -38 37z" />
    <glyph glyph-name="Eacute" unicode="&#xc9;" horiz-adv-x="560" 
d="M67 0v667h450v-183h-207v-62h188v-175h-188v-64h214v-183h-457zM195 755l136 136l141 -47l-162 -127z" />
    <glyph glyph-name="Ntilde" unicode="&#xd1;" horiz-adv-x="801" 
d="M67 0v667h232l154 -251c33 -54 40 -67 63 -119h7c-14 66 -16 82 -17 159l-4 211h232v-667h-232l-166 263c-18 28 -28 47 -46 87h-7c10 -61 13 -90 13 -123l3 -227h-232zM296 725l-95 38c40 70 92 108 148 108c16 0 33 -4 49 -10l23 -10c19 -8 38 -13 50 -13
c20 0 32 9 49 36l101 -29l-15 -24c-35 -56 -87 -88 -145 -88c-13 0 -23 1 -30 4l-62 22c-10 4 -18 5 -25 6c-19 1 -33 -11 -48 -40z" />
    <glyph glyph-name="Odieresis" unicode="&#xd6;" horiz-adv-x="810" 
d="M409 677c215 0 365 -141 365 -344c0 -199 -156 -343 -370 -343c-215 0 -367 141 -367 341c0 203 153 346 372 346zM403 462c-69 0 -121 -55 -121 -129c0 -75 52 -128 125 -128c72 0 122 52 122 126c0 78 -51 131 -126 131zM286 896c48 0 86 -38 86 -86s-39 -87 -86 -87
c-48 0 -87 39 -87 87c0 47 39 86 87 86zM526 896c48 0 86 -38 86 -86s-39 -87 -86 -87c-48 0 -87 39 -87 87c0 47 39 86 87 86z" />
    <glyph glyph-name="Udieresis" unicode="&#xdc;" horiz-adv-x="751" 
d="M67 667h241v-382c0 -57 23 -86 68 -86c49 0 67 23 67 86v382h241v-404c0 -170 -114 -273 -302 -273c-198 0 -315 95 -315 256v421zM256 896c48 0 86 -38 86 -86s-39 -87 -86 -87c-48 0 -87 39 -87 87c0 47 39 86 87 86zM496 896c48 0 86 -38 86 -86s-39 -87 -86 -87
c-48 0 -87 39 -87 87c0 47 39 86 87 86z" />
    <glyph glyph-name="aacute" unicode="&#xe1;" horiz-adv-x="639" 
d="M368 411l6 3c-8 24 -8 29 -8 53h225v-467h-224l2 22c1 8 3 17 8 37h-7c-54 -55 -88 -72 -142 -72c-114 0 -200 105 -200 243c0 141 89 250 204 250c59 0 96 -18 136 -69zM313 300c-34 0 -59 -28 -59 -65s26 -65 60 -65c33 0 60 30 60 67s-25 63 -61 63zM366 742l117 -73
l-147 -128l-86 55z" />
    <glyph glyph-name="agrave" unicode="&#xe0;" horiz-adv-x="639" 
d="M368 411l6 3c-8 24 -8 29 -8 53h225v-467h-224l2 22c1 8 3 17 8 37h-7c-54 -55 -88 -72 -142 -72c-114 0 -200 105 -200 243c0 141 89 250 204 250c59 0 96 -18 136 -69zM313 300c-34 0 -59 -28 -59 -65s26 -65 60 -65c33 0 60 30 60 67s-25 63 -61 63zM307 742l116 -146
l-87 -55l-146 128z" />
    <glyph glyph-name="acircumflex" unicode="&#xe2;" horiz-adv-x="639" 
d="M368 411l6 3c-8 24 -8 29 -8 53h225v-467h-224l2 22c1 8 3 17 8 37h-7c-54 -55 -88 -72 -142 -72c-114 0 -200 105 -200 243c0 141 89 250 204 250c59 0 96 -18 136 -69zM313 300c-34 0 -59 -28 -59 -65s26 -65 60 -65c33 0 60 30 60 67s-25 63 -61 63zM180 543l-47 89
l195 101l191 -103l-46 -89l-145 72z" />
    <glyph glyph-name="adieresis" unicode="&#xe4;" horiz-adv-x="639" 
d="M368 411l6 3c-8 24 -8 29 -8 53h225v-467h-224l2 22c1 8 3 17 8 37h-7c-54 -55 -88 -72 -142 -72c-114 0 -200 105 -200 243c0 141 89 250 204 250c59 0 96 -18 136 -69zM313 300c-34 0 -59 -28 -59 -65s26 -65 60 -65c33 0 60 30 60 67s-25 63 -61 63zM223 705
c43 0 77 -34 77 -77c0 -42 -35 -77 -77 -77s-77 35 -77 77s35 77 77 77zM436 705c43 0 77 -34 77 -77c0 -42 -35 -77 -77 -77s-77 35 -77 77s35 77 77 77z" />
    <glyph glyph-name="atilde" unicode="&#xe3;" horiz-adv-x="639" 
d="M368 411l6 3c-8 24 -8 29 -8 53h225v-467h-224l2 22c1 8 3 17 8 37h-7c-54 -55 -88 -72 -142 -72c-114 0 -200 105 -200 243c0 141 89 250 204 250c59 0 96 -18 136 -69zM313 300c-34 0 -59 -28 -59 -65s26 -65 60 -65c33 0 60 30 60 67s-25 63 -61 63zM209 555l-76 48
c43 63 85 91 137 91c14 0 40 -5 48 -10l33 -18c14 -7 27 -11 39 -11c14 0 23 6 48 36l88 -40c-37 -65 -81 -98 -130 -98c-16 0 -34 3 -45 7l-65 26c-11 5 -21 7 -28 7c-16 0 -30 -11 -49 -38z" />
    <glyph glyph-name="aring" unicode="&#xe5;" horiz-adv-x="639" 
d="M368 411l6 3c-8 24 -8 29 -8 53h225v-467h-224l2 22c1 8 3 17 8 37h-7c-54 -55 -88 -72 -142 -72c-114 0 -200 105 -200 243c0 141 89 250 204 250c59 0 96 -18 136 -69zM313 300c-34 0 -59 -28 -59 -65s26 -65 60 -65c33 0 60 30 60 67s-25 63 -61 63zM329 748
c68 0 114 -39 114 -97c0 -61 -46 -102 -114 -102s-113 40 -113 101c0 60 44 98 113 98zM329 688c-21 0 -39 -18 -39 -39c0 -22 18 -40 39 -40c22 0 39 18 39 40c0 21 -17 39 -39 39z" />
    <glyph glyph-name="eacute" unicode="&#xe9;" horiz-adv-x="613" 
d="M354 155h222c-36 -106 -135 -168 -271 -168c-163 0 -277 99 -277 240c0 150 112 253 276 253c100 0 176 -34 226 -101c35 -47 55 -106 55 -163v-20h-331c1 -57 16 -80 51 -80c26 0 40 11 49 39zM256 293h107c-4 39 -24 60 -56 60c-31 0 -48 -20 -51 -60zM353 742l117 -73
l-147 -128l-86 55z" />
    <glyph glyph-name="egrave" unicode="&#xe8;" horiz-adv-x="613" 
d="M354 155h222c-36 -106 -135 -168 -271 -168c-163 0 -277 99 -277 240c0 150 112 253 276 253c100 0 176 -34 226 -101c35 -47 55 -106 55 -163v-20h-331c1 -57 16 -80 51 -80c26 0 40 11 49 39zM256 293h107c-4 39 -24 60 -56 60c-31 0 -48 -20 -51 -60zM280 742
l116 -146l-87 -55l-146 128z" />
    <glyph glyph-name="ecircumflex" unicode="&#xea;" horiz-adv-x="613" 
d="M354 155h222c-36 -106 -135 -168 -271 -168c-163 0 -277 99 -277 240c0 150 112 253 276 253c100 0 176 -34 226 -101c35 -47 55 -106 55 -163v-20h-331c1 -57 16 -80 51 -80c26 0 40 11 49 39zM256 293h107c-4 39 -24 60 -56 60c-31 0 -48 -20 -51 -60zM167 543l-47 89
l195 101l191 -103l-46 -89l-145 72z" />
    <glyph glyph-name="edieresis" unicode="&#xeb;" horiz-adv-x="613" 
d="M354 155h222c-36 -106 -135 -168 -271 -168c-163 0 -277 99 -277 240c0 150 112 253 276 253c100 0 176 -34 226 -101c35 -47 55 -106 55 -163v-20h-331c1 -57 16 -80 51 -80c26 0 40 11 49 39zM256 293h107c-4 39 -24 60 -56 60c-31 0 -48 -20 -51 -60zM206 705
c43 0 77 -34 77 -77c0 -42 -35 -77 -77 -77s-77 35 -77 77s35 77 77 77zM419 705c43 0 77 -34 77 -77c0 -42 -35 -77 -77 -77s-77 35 -77 77s35 77 77 77z" />
    <glyph glyph-name="iacute" unicode="&#xed;" horiz-adv-x="323" 
d="M48 0v467h227v-467h-227zM201 742l117 -73l-147 -128l-86 55z" />
    <glyph glyph-name="igrave" unicode="&#xec;" horiz-adv-x="323" 
d="M48 0v467h227v-467h-227zM123 742l116 -146l-87 -55l-146 128z" />
    <glyph glyph-name="icircumflex" unicode="&#xee;" horiz-adv-x="323" 
d="M49 0v467h227v-467h-227zM36 543l-47 89l175 101l171 -103l-46 -89l-125 72z" />
    <glyph glyph-name="idieresis" unicode="&#xef;" horiz-adv-x="323" 
d="M49 0v467h227v-467h-227zM67 698c41 0 74 -33 74 -73c0 -41 -33 -74 -73 -74c-41 0 -74 33 -74 74c0 40 33 73 73 73zM257 698c40 0 73 -33 73 -73c0 -41 -33 -74 -73 -74c-41 0 -74 33 -74 74c0 40 33 73 74 73z" />
    <glyph glyph-name="ntilde" unicode="&#xf1;" horiz-adv-x="629" 
d="M48 0v467h222l-2 -29c-1 -12 -2 -22 -7 -43l6 -1c24 27 36 40 46 49c28 24 64 37 105 37c99 0 163 -71 163 -180v-300h-227v243c0 43 -9 57 -37 57c-29 0 -42 -18 -42 -57v-243h-227zM201 555l-76 48c43 63 85 91 137 91c14 0 40 -5 48 -10l33 -18c14 -7 27 -11 39 -11
c14 0 23 6 48 36l88 -40c-37 -65 -81 -98 -130 -98c-16 0 -34 3 -45 7l-65 26c-11 5 -21 7 -28 7c-16 0 -30 -11 -49 -38z" />
    <glyph glyph-name="oacute" unicode="&#xf3;" horiz-adv-x="626" 
d="M310 480c175 0 288 -99 288 -252c0 -143 -116 -241 -286 -241c-165 0 -284 102 -284 243c0 149 114 250 282 250zM314 300c-38 0 -65 -28 -65 -66c0 -39 27 -67 65 -67s63 26 63 66s-26 67 -63 67zM353 742l117 -73l-147 -128l-86 55z" />
    <glyph glyph-name="ograve" unicode="&#xf2;" horiz-adv-x="626" 
d="M310 480c175 0 288 -99 288 -252c0 -143 -116 -241 -286 -241c-165 0 -284 102 -284 243c0 149 114 250 282 250zM314 300c-38 0 -65 -28 -65 -66c0 -39 27 -67 65 -67s63 26 63 66s-26 67 -63 67zM280 742l116 -146l-87 -55l-146 128z" />
    <glyph glyph-name="ocircumflex" unicode="&#xf4;" horiz-adv-x="626" 
d="M310 480c175 0 288 -99 288 -252c0 -143 -116 -241 -286 -241c-165 0 -284 102 -284 243c0 149 114 250 282 250zM314 300c-38 0 -65 -28 -65 -66c0 -39 27 -67 65 -67s63 26 63 66s-26 67 -63 67zM167 543l-47 89l195 101l191 -103l-46 -89l-145 72z" />
    <glyph glyph-name="odieresis" unicode="&#xf6;" horiz-adv-x="626" 
d="M310 480c175 0 288 -99 288 -252c0 -143 -116 -241 -286 -241c-165 0 -284 102 -284 243c0 149 114 250 282 250zM314 300c-38 0 -65 -28 -65 -66c0 -39 27 -67 65 -67s63 26 63 66s-26 67 -63 67zM206 705c43 0 77 -34 77 -77c0 -42 -35 -77 -77 -77s-77 35 -77 77
s35 77 77 77zM419 705c43 0 77 -34 77 -77c0 -42 -35 -77 -77 -77s-77 35 -77 77s35 77 77 77z" />
    <glyph glyph-name="otilde" unicode="&#xf5;" horiz-adv-x="626" 
d="M310 480c175 0 288 -99 288 -252c0 -143 -116 -241 -286 -241c-165 0 -284 102 -284 243c0 149 114 250 282 250zM314 300c-38 0 -65 -28 -65 -66c0 -39 27 -67 65 -67s63 26 63 66s-26 67 -63 67zM199 555l-76 48c43 63 85 91 137 91c14 0 40 -5 48 -10l33 -18
c14 -7 27 -11 39 -11c14 0 23 6 48 36l88 -40c-37 -65 -81 -98 -130 -98c-16 0 -34 3 -45 7l-65 26c-11 5 -21 7 -28 7c-16 0 -30 -11 -49 -38z" />
    <glyph glyph-name="uacute" unicode="&#xfa;" horiz-adv-x="628" 
d="M48 467h227v-253c0 -31 13 -47 38 -47s40 18 40 47v253h227v-269c0 -122 -112 -211 -267 -211c-153 0 -265 86 -265 204v276zM354 742l117 -73l-147 -128l-86 55z" />
    <glyph glyph-name="ugrave" unicode="&#xf9;" horiz-adv-x="628" 
d="M48 467h227v-253c0 -31 13 -47 38 -47s40 18 40 47v253h227v-269c0 -122 -112 -211 -267 -211c-153 0 -265 86 -265 204v276zM275 742l116 -146l-87 -55l-146 128z" />
    <glyph glyph-name="ucircumflex" unicode="&#xfb;" horiz-adv-x="628" 
d="M48 467h227v-253c0 -31 13 -47 38 -47s40 18 40 47v253h227v-269c0 -122 -112 -211 -267 -211c-153 0 -265 86 -265 204v276zM168 543l-47 89l195 101l191 -103l-46 -89l-145 72z" />
    <glyph glyph-name="udieresis" unicode="&#xfc;" horiz-adv-x="628" 
d="M48 467h227v-253c0 -31 13 -47 38 -47s40 18 40 47v253h227v-269c0 -122 -112 -211 -267 -211c-153 0 -265 86 -265 204v276zM207 705c43 0 77 -34 77 -77c0 -42 -35 -77 -77 -77s-77 35 -77 77s35 77 77 77zM420 705c43 0 77 -34 77 -77c0 -42 -35 -77 -77 -77
s-77 35 -77 77s35 77 77 77z" />
    <glyph glyph-name="Aacute" unicode="&#xc1;" horiz-adv-x="737" 
d="M274 83l-18 -83h-256l231 667h268l238 -667h-257l-22 83h-184zM319 241h97l-31 128c-9 40 -10 44 -13 75h-9c-5 -41 -7 -59 -11 -75zM270 755l136 136l141 -47l-162 -127z" />
    <glyph glyph-name="Agrave" unicode="&#xc0;" horiz-adv-x="737" 
d="M274 83l-18 -83h-256l231 667h268l238 -667h-257l-22 83h-184zM319 241h97l-31 128c-9 40 -10 44 -13 75h-9c-5 -41 -7 -59 -11 -75zM467 755l-115 -38l-162 127l141 47z" />
    <glyph glyph-name="Atilde" unicode="&#xc3;" horiz-adv-x="737" 
d="M274 83l-18 -83h-256l231 667h268l238 -667h-257l-22 83h-184zM319 241h97l-31 128c-9 40 -10 44 -13 75h-9c-5 -41 -7 -59 -11 -75zM254 725l-95 38c40 70 92 108 148 108c16 0 33 -4 49 -10l23 -10c19 -8 38 -13 50 -13c20 0 32 9 49 36l101 -29l-15 -24
c-35 -56 -87 -88 -145 -88c-13 0 -23 1 -30 4l-62 22c-10 4 -18 5 -25 6c-19 1 -33 -11 -48 -40z" />
    <glyph glyph-name="Edieresis" unicode="&#xcb;" horiz-adv-x="560" 
d="M67 0v667h450v-183h-207v-62h188v-175h-188v-64h214v-183h-457zM176 896c48 0 86 -38 86 -86s-39 -87 -86 -87c-48 0 -87 39 -87 87c0 47 39 86 87 86zM416 896c48 0 86 -38 86 -86s-39 -87 -86 -87c-48 0 -87 39 -87 87c0 47 39 86 87 86z" />
    <glyph glyph-name="Egrave" unicode="&#xc8;" horiz-adv-x="560" 
d="M67 0v667h450v-183h-207v-62h188v-175h-188v-64h214v-183h-457zM422 755l-115 -38l-162 127l141 47z" />
    <glyph glyph-name="Iacute" unicode="&#xcd;" horiz-adv-x="376" 
d="M67 0v667h243v-667h-243zM89 755l136 136l141 -47l-162 -127z" />
    <glyph glyph-name="Icircumflex" unicode="&#xce;" horiz-adv-x="376" 
d="M67 0v667h243v-667h-243zM18 717l-23 104l193 69l193 -69l-23 -104l-170 64z" />
    <glyph glyph-name="ydieresis" unicode="&#xff;" horiz-adv-x="601" 
d="M-10 467h245l56 -192c6 -17 8 -31 10 -61h6c3 32 5 46 9 61l55 192h240l-301 -660h-241l122 240zM200 705c43 0 77 -34 77 -77c0 -42 -35 -77 -77 -77s-77 35 -77 77s35 77 77 77zM413 705c43 0 77 -34 77 -77c0 -42 -35 -77 -77 -77s-77 35 -77 77s35 77 77 77z" />
    <glyph glyph-name="Ydieresis" unicode="&#x178;" horiz-adv-x="685" 
d="M-7 667h274l57 -122c5 -11 8 -21 18 -53h7c6 24 7 29 18 53l52 122h272l-227 -380v-287h-239v287zM222 896c48 0 86 -38 86 -86s-39 -87 -86 -87c-48 0 -87 39 -87 87c0 47 39 86 87 86zM462 896c48 0 86 -38 86 -86s-39 -87 -86 -87c-48 0 -87 39 -87 87
c0 47 39 86 87 86z" />
    <glyph glyph-name="Ograve" unicode="&#xd2;" horiz-adv-x="810" 
d="M409 677c215 0 365 -141 365 -344c0 -199 -156 -343 -370 -343c-215 0 -367 141 -367 341c0 203 153 346 372 346zM403 462c-69 0 -121 -55 -121 -129c0 -75 52 -128 125 -128c72 0 122 52 122 126c0 78 -51 131 -126 131zM507 755l-115 -38l-162 127l141 47z" />
    <glyph glyph-name="Otilde" unicode="&#xd5;" horiz-adv-x="810" 
d="M409 677c215 0 365 -141 365 -344c0 -199 -156 -343 -370 -343c-215 0 -367 141 -367 341c0 203 153 346 372 346zM403 462c-69 0 -121 -55 -121 -129c0 -75 52 -128 125 -128c72 0 122 52 122 126c0 78 -51 131 -126 131zM301 725l-95 38c40 70 92 108 148 108
c16 0 33 -4 49 -10l23 -10c19 -8 38 -13 50 -13c20 0 32 9 49 36l101 -29l-15 -24c-35 -56 -87 -88 -145 -88c-13 0 -23 1 -30 4l-62 22c-10 4 -18 5 -25 6c-19 1 -33 -11 -48 -40z" />
    <glyph glyph-name="Scaron" unicode="&#x160;" horiz-adv-x="618" 
d="M37 51l74 189l26 -20c39 -30 95 -50 140 -50c35 0 60 16 60 39c0 19 -13 30 -44 35l-70 13c-101 18 -163 85 -163 178c0 140 123 242 294 242c74 0 134 -17 205 -57l-65 -171c-55 37 -94 51 -140 51c-32 0 -53 -14 -53 -36c0 -15 12 -25 38 -31l78 -16
c107 -24 165 -90 165 -189c0 -139 -120 -238 -289 -238c-86 0 -173 21 -256 61zM143 890l183 -64l183 64l23 -104l-206 -69l-206 69z" />
    <glyph glyph-name="Zcaron" unicode="&#x17d;" horiz-adv-x="705" 
d="M71 667h621l-253 -412c-8 -12 -16 -23 -37 -50l2 -3c23 2 34 3 46 3h212v-205h-649l246 400c21 33 28 43 54 71l-2 4c-31 -7 -39 -9 -48 -9h-192v201zM189 890l183 -64l183 64l23 -104l-206 -69l-206 69z" />
    <glyph glyph-name="scaron" unicode="&#x161;" horiz-adv-x="487" 
d="M23 39l59 142l31 -20c24 -15 74 -32 97 -32c21 0 36 11 36 27c0 12 -10 23 -24 25l-50 8c-72 11 -119 62 -119 128c0 96 90 163 220 163c70 0 128 -13 181 -40l-55 -130c-42 27 -74 40 -104 40c-21 0 -34 -10 -34 -25c0 -13 7 -18 33 -23l46 -10c84 -18 125 -60 125 -132
c0 -103 -92 -173 -227 -173c-66 0 -122 13 -215 52zM407 731l47 -88l-195 -102l-191 104l46 88l145 -71z" />
    <glyph glyph-name="zcaron" unicode="&#x17e;" horiz-adv-x="549" 
d="M515 0h-494v31l144 220c6 9 13 17 41 44v3c-18 -5 -25 -6 -41 -6h-121v175h483v-24l-146 -216c-20 -30 -21 -31 -42 -50v-5c18 4 27 5 35 5h141v-177zM430 731l47 -88l-195 -102l-191 104l46 88l145 -71z" />
    <glyph glyph-name="Acircumflex" unicode="&#xc2;" horiz-adv-x="737" 
d="M274 83l-18 -83h-256l231 667h268l238 -667h-257l-22 83h-184zM319 241h97l-31 128c-9 40 -10 44 -13 75h-9c-5 -41 -7 -59 -11 -75zM185 717l-23 104l206 69l206 -69l-23 -104l-183 64z" />
    <glyph glyph-name="Ecircumflex" unicode="&#xca;" horiz-adv-x="560" 
d="M67 0v667h450v-183h-207v-62h188v-175h-188v-64h214v-183h-457zM112 717l-23 104l206 69l206 -69l-23 -104l-183 64z" />
    <glyph glyph-name="Idieresis" unicode="&#xcf;" horiz-adv-x="376" 
d="M67 0v667h243v-667h-243zM80 879c43 0 78 -35 78 -78s-35 -78 -78 -78s-78 35 -78 78s35 78 78 78zM296 879c43 0 78 -35 78 -78s-35 -78 -78 -78s-78 35 -78 78s35 78 78 78z" />
    <glyph glyph-name="Igrave" unicode="&#xcc;" horiz-adv-x="376" 
d="M66 0v667h243v-667h-243zM286 755l-115 -38l-162 127l141 47z" />
    <glyph glyph-name="Oacute" unicode="&#xd3;" horiz-adv-x="810" 
d="M409 677c215 0 365 -141 365 -344c0 -199 -156 -343 -370 -343c-215 0 -367 141 -367 341c0 203 153 346 372 346zM403 462c-69 0 -121 -55 -121 -129c0 -75 52 -128 125 -128c72 0 122 52 122 126c0 78 -51 131 -126 131zM316 755l136 136l141 -47l-162 -127z" />
    <glyph glyph-name="Ocircumflex" unicode="&#xd4;" horiz-adv-x="810" 
d="M409 677c215 0 365 -141 365 -344c0 -199 -156 -343 -370 -343c-215 0 -367 141 -367 341c0 203 153 346 372 346zM403 462c-69 0 -121 -55 -121 -129c0 -75 52 -128 125 -128c72 0 122 52 122 126c0 78 -51 131 -126 131zM222 717l-23 104l206 69l206 -69l-23 -104
l-183 64z" />
    <glyph glyph-name="Uacute" unicode="&#xda;" horiz-adv-x="751" 
d="M67 667h241v-382c0 -57 23 -86 68 -86c49 0 67 23 67 86v382h241v-404c0 -170 -114 -273 -302 -273c-198 0 -315 95 -315 256v421zM277 755l136 136l141 -47l-162 -127z" />
    <glyph glyph-name="Ucircumflex" unicode="&#xdb;" horiz-adv-x="751" 
d="M67 667h241v-382c0 -57 23 -86 68 -86c49 0 67 23 67 86v382h241v-404c0 -170 -114 -273 -302 -273c-198 0 -315 95 -315 256v421zM192 717l-23 104l206 69l206 -69l-23 -104l-183 64z" />
    <glyph glyph-name="Ugrave" unicode="&#xd9;" horiz-adv-x="751" 
d="M67 667h241v-382c0 -57 23 -86 68 -86c49 0 67 23 67 86v382h241v-404c0 -170 -114 -273 -302 -273c-198 0 -315 95 -315 256v421zM474 755l-115 -38l-162 127l141 47z" />
    <glyph glyph-name="exclam" unicode="!" horiz-adv-x="410" 
d="M320 255h-233v454h233v-454zM205 210c74 0 132 -48 132 -109c0 -64 -60 -115 -134 -115s-130 49 -130 113s56 111 132 111z" />
    <glyph glyph-name="quotedbl" unicode="&#x22;" horiz-adv-x="441" 
d="M169 392h-102l-24 275h151zM373 392h-102l-24 275h151z" />
    <glyph glyph-name="numbersign" unicode="#" 
d="M585 308v-107h-101l-25 -201h-109l25 201h-65l-25 -201h-107l25 201h-100v107h113l8 63h-99v108h112l23 188h108l-23 -188h64l23 188h109l-23 -188h86v-108h-99l-8 -63h88zM396 371h-65l-8 -63h65z" />
    <glyph glyph-name="dollar" unicode="$" 
d="M80 81l68 175c75 -61 127 -84 191 -84c50 0 76 14 76 41c0 21 -17 35 -49 40l-60 11c-136 23 -203 85 -203 188c0 109 72 191 187 213v108h131v-102c67 -7 108 -19 170 -52l-66 -168c-50 39 -98 57 -153 57c-38 0 -62 -15 -62 -40c0 -22 13 -32 48 -37l54 -7
c145 -18 214 -83 214 -198c0 -117 -78 -198 -208 -218v-123h-124v121c-72 3 -133 24 -214 75z" />
    <glyph glyph-name="percent" unicode="%" horiz-adv-x="1027" 
d="M234 677c128 0 212 -72 212 -183c0 -110 -85 -184 -212 -184c-125 0 -211 75 -211 185c0 114 79 182 211 182zM238 544c-24 0 -42 -21 -42 -47c0 -30 15 -48 40 -48s41 20 41 49c0 27 -16 46 -39 46zM302 21l338 667l84 -42l-338 -667zM791 357c128 0 212 -72 212 -183
c0 -110 -85 -184 -212 -184c-125 0 -211 75 -211 185c0 114 79 182 211 182zM795 224c-24 0 -42 -21 -42 -47c0 -30 15 -48 40 -48s41 20 41 49c0 27 -16 46 -39 46z" />
    <glyph glyph-name="ampersand" unicode="&#x26;" horiz-adv-x="843" 
d="M561 0l-43 52c-80 -49 -126 -62 -217 -62c-157 0 -261 84 -261 211c0 86 53 139 167 166c-48 46 -65 78 -65 124c0 113 98 186 248 186c138 0 241 -79 241 -185c0 -76 -46 -133 -129 -165l59 -61c42 30 50 38 103 101l126 -144c-29 -26 -36 -32 -71 -55
c-7 -5 -19 -13 -33 -23l154 -145h-279zM391 174l-85 84c-31 -21 -39 -32 -39 -52c0 -29 25 -49 61 -49c17 0 25 2 63 17zM393 438c31 18 45 36 45 56c0 21 -17 39 -36 39c-23 0 -42 -19 -42 -43c0 -8 3 -17 9 -28c4 -6 7 -10 11 -14c6 -6 12 -11 13 -10z" />
    <glyph glyph-name="quoteright" unicode="&#x2019;" horiz-adv-x="436" 
d="M231 337h-178l107 330h229z" />
    <glyph glyph-name="parenleft" unicode="(" horiz-adv-x="404" 
d="M182 779l170 -99c-35 -84 -45 -112 -57 -158c-19 -71 -31 -159 -31 -231v-8c0 -82 15 -193 38 -276c10 -38 20 -67 50 -147l-170 -99c-6 16 6 -11 -45 104c-54 119 -85 276 -85 427c0 96 13 184 39 273c14 46 29 86 46 119l13 27l13 28l14 27c0 1 2 6 5 13z" />
    <glyph glyph-name="parenright" unicode=")" horiz-adv-x="404" 
d="M221 -239l-170 99c35 84 46 112 58 158c18 71 30 160 30 231c0 68 -9 156 -24 228c-13 63 -24 98 -64 203l170 99c6 -16 -6 11 46 -104c53 -119 84 -276 84 -427c0 -96 -13 -185 -39 -273c-14 -46 -29 -86 -45 -119l-14 -27l-13 -28l-13 -27c-1 -1 -3 -6 -6 -13z" />
    <glyph glyph-name="asterisk" unicode="*" 
d="M304 619l-11 110h120l-10 -110l102 43l37 -114l-108 -24l73 -83l-97 -71l-56 95l-57 -95l-97 71l73 83l-108 24l37 114z" />
    <glyph glyph-name="plus" unicode="+" 
d="M103 266v147h177v170h147v-170h176v-147h-176v-169h-147v169h-177z" />
    <glyph glyph-name="comma" unicode="," horiz-adv-x="356" 
d="M168 -160h-178l107 330h229z" />
    <glyph glyph-name="hyphen" unicode="-" horiz-adv-x="315" 
d="M0 150v181h315v-181h-315z" />
    <glyph glyph-name="period" unicode="." horiz-adv-x="355" 
d="M177 210c74 0 132 -49 132 -111c0 -63 -58 -112 -132 -112c-73 0 -131 49 -131 112c0 62 58 111 131 111z" />
    <glyph glyph-name="slash" unicode="/" horiz-adv-x="545" 
d="M364 729h173l-377 -922h-173z" />
    <glyph glyph-name="zero" unicode="0" 
d="M352 677c195 0 318 -137 318 -356c0 -197 -129 -331 -320 -331c-189 0 -314 136 -314 341c0 210 124 346 316 346zM351 480c-49 0 -84 -61 -84 -150c0 -83 32 -134 84 -134c55 0 87 49 87 135c0 89 -35 149 -87 149z" />
    <glyph glyph-name="one" unicode="1" 
d="M270 0v453l-103 -8v211l343 11v-667h-240z" />
    <glyph glyph-name="two" unicode="2" 
d="M665 0h-661c36 33 28 26 90 80l183 163c91 81 139 144 139 183c0 29 -24 53 -54 53c-41 0 -57 -23 -60 -84h-237c8 112 29 165 82 211c54 47 130 71 223 71c165 0 286 -99 286 -235c0 -116 -78 -200 -234 -254v-7c37 8 42 9 91 14c77 8 78 8 152 10v-205z" />
    <glyph glyph-name="three" unicode="3" 
d="M41 235h244c2 -48 28 -76 69 -76c36 0 65 29 65 64c0 32 -30 59 -64 59c-7 0 -18 -1 -30 -3v138c7 -1 15 -2 19 -2c28 0 51 21 51 47s-19 45 -46 45s-44 -19 -43 -51h-238c18 152 107 221 285 221c89 0 153 -17 201 -54s76 -87 76 -136c0 -59 -28 -103 -82 -129v-5
c75 -25 110 -74 110 -151c0 -69 -47 -141 -115 -176c-43 -22 -115 -36 -186 -36c-100 0 -186 25 -238 70c-49 43 -70 89 -78 175z" />
    <glyph glyph-name="four" unicode="4" 
d="M591 0h-229l8 133l-338 -6v174l273 366h286v-359l84 6v-187l-90 6zM371 308l3 111c0 18 1 25 6 43l-5 4c-11 -21 -16 -29 -30 -47l-63 -80c-10 -12 -15 -19 -29 -33l2 -5c21 4 28 4 48 5z" />
    <glyph glyph-name="five" unicode="5" 
d="M165 667h453v-186h-285c-3 -27 -13 -59 -21 -77h6c20 23 59 35 111 35c133 0 230 -88 230 -208c0 -136 -139 -241 -318 -241c-76 0 -212 28 -267 54l27 181c56 -30 147 -55 201 -55c15 0 37 3 56 9c39 10 59 30 59 57c0 38 -56 66 -129 66c-64 0 -132 -11 -181 -29z" />
    <glyph glyph-name="six" unicode="6" 
d="M287 667h317l-195 -173c-4 -3 -8 -6 -18 -14l1 -5c27 5 53 9 67 9c112 0 198 -99 198 -228c0 -153 -132 -266 -313 -266c-185 0 -319 119 -319 284c0 81 38 164 105 233zM338 346c-44 0 -80 -38 -80 -84c0 -47 35 -81 82 -81s83 34 83 79c0 48 -38 86 -85 86z" />
    <glyph glyph-name="seven" unicode="7" 
d="M340 0h-268l256 430c11 20 13 22 24 32l-1 5c-36 -5 -47 -6 -87 -8l-192 -6v214h647z" />
    <glyph glyph-name="eight" unicode="8" 
d="M169 342l1 6c-66 22 -100 67 -100 131c0 117 117 198 283 198c170 0 283 -80 283 -201c0 -62 -33 -104 -103 -128l1 -6c81 -21 123 -70 123 -146c0 -124 -119 -206 -301 -206c-185 0 -307 80 -307 202c0 73 39 122 120 150zM354 510c-29 0 -51 -22 -51 -52
c0 -26 24 -48 51 -48s50 22 50 48c0 30 -22 52 -50 52zM355 281c-37 0 -67 -29 -67 -65c0 -35 30 -65 66 -65c37 0 66 29 66 66c0 35 -30 64 -65 64z" />
    <glyph glyph-name="nine" unicode="9" 
d="M410 0h-322l175 155c18 16 19 16 33 23v5c-15 -2 -29 -3 -36 -3c-31 0 -73 10 -107 25c-72 33 -117 112 -117 207c0 158 125 265 309 265c198 0 326 -108 326 -276c0 -87 -31 -159 -99 -231zM358 481c-45 0 -82 -35 -82 -78c0 -46 36 -82 82 -82c42 0 78 36 78 80
s-35 80 -78 80z" />
    <glyph glyph-name="colon" unicode=":" horiz-adv-x="355" 
d="M177 210c74 0 132 -49 132 -111c0 -63 -58 -112 -132 -112c-73 0 -131 49 -131 112c0 62 58 111 131 111zM177 481c74 0 132 -49 132 -111c0 -63 -58 -112 -132 -112c-73 0 -131 49 -131 112c0 62 58 111 131 111z" />
    <glyph glyph-name="semicolon" unicode=";" horiz-adv-x="356" 
d="M168 -160h-178l107 330h229zM217 481c74 0 132 -49 132 -111c0 -63 -58 -112 -132 -112c-73 0 -131 49 -131 112c0 62 58 111 131 111z" />
    <glyph glyph-name="less" unicode="&#x3c;" horiz-adv-x="500" 
d="M467 667v-201l-220 -128l220 -128v-199l-433 244v168z" />
    <glyph glyph-name="equal" unicode="=" 
d="M103 377v113h500v-113h-500zM103 190v113h500v-113h-500z" />
    <glyph glyph-name="greater" unicode="&#x3e;" horiz-adv-x="500" 
d="M33 11v200l220 128l-220 129v199l433 -245v-167z" />
    <glyph glyph-name="question" unicode="?" horiz-adv-x="616" 
d="M267 481h-227c4 48 9 68 24 97c45 89 135 141 243 141c161 0 269 -97 269 -242c0 -136 -105 -226 -265 -226c-33 0 -43 1 -79 8v172c22 -7 34 -9 45 -9c46 0 78 28 78 70c0 27 -16 44 -42 44s-42 -19 -46 -55zM312 209c74 0 128 -47 128 -112c0 -63 -56 -110 -131 -110
c-77 0 -134 48 -134 113c0 64 57 109 137 109z" />
    <glyph glyph-name="at" unicode="@" horiz-adv-x="668" 
d="M542 133h84c-86 -108 -159 -145 -286 -145c-208 0 -356 143 -356 345c0 199 153 346 360 346c186 0 321 -120 321 -284c0 -100 -46 -180 -130 -228c-35 -20 -72 -32 -97 -32c-34 0 -51 16 -53 47c-25 -27 -58 -43 -92 -43c-88 0 -148 66 -148 162c0 118 82 211 185 211
c49 0 83 -18 111 -58l9 46h86l-43 -257c-4 -20 -4 -22 -4 -24c0 -8 6 -13 12 -13c50 2 103 90 103 171c0 138 -106 237 -254 237c-159 0 -281 -122 -281 -281c0 -160 120 -279 281 -279c75 0 127 21 192 79zM344 413c-50 0 -91 -46 -91 -103c0 -47 30 -78 73 -78
c52 0 89 43 89 103c0 46 -29 78 -71 78z" />
    <glyph glyph-name="A" unicode="A" horiz-adv-x="737" 
d="M274 83l-18 -83h-256l231 667h268l238 -667h-257l-22 83h-184zM319 241h97l-31 128c-9 40 -10 44 -13 75h-9c-5 -41 -7 -59 -11 -75z" />
    <glyph glyph-name="B" unicode="B" horiz-adv-x="677" 
d="M67 667h291c107 0 176 -24 214 -74c23 -30 36 -68 36 -105c0 -74 -25 -115 -86 -141v-5c83 -35 118 -82 118 -156c0 -112 -93 -186 -234 -186h-339v667zM291 411h39c36 0 58 19 58 50c0 32 -18 46 -59 46h-38v-96zM291 161h49c48 0 74 20 74 55c0 33 -27 54 -70 54h-53
v-109z" />
    <glyph glyph-name="C" unicode="C" horiz-adv-x="591" 
d="M555 266l-7 -249c-37 -16 -109 -27 -171 -27c-191 0 -340 148 -340 338c0 196 152 349 348 349c57 0 116 -9 163 -26l7 -254c-54 47 -95 67 -141 67c-74 0 -132 -57 -132 -129s60 -131 134 -131c52 0 89 17 139 62z" />
    <glyph glyph-name="D" unicode="D" horiz-adv-x="745" 
d="M67 0v667h257c240 0 385 -127 385 -337c0 -115 -33 -192 -108 -253c-61 -50 -137 -77 -216 -77h-318zM308 204h34c73 0 125 53 125 128c0 78 -50 131 -125 131h-34v-259z" />
    <glyph glyph-name="E" unicode="E" horiz-adv-x="560" 
d="M67 0v667h450v-183h-207v-62h188v-175h-188v-64h214v-183h-457z" />
    <glyph glyph-name="F" unicode="F" horiz-adv-x="542" 
d="M67 0v667h445v-190h-202v-68h178v-175h-178v-234h-243z" />
    <glyph glyph-name="G" unicode="G" horiz-adv-x="804" 
d="M394 393h374c1 -149 -21 -223 -85 -290c-69 -71 -173 -113 -282 -113c-215 0 -364 140 -364 341c0 206 149 346 369 346c146 0 273 -66 328 -170l-226 -84c-24 36 -50 51 -92 51c-78 0 -134 -64 -134 -153c0 -84 51 -143 126 -143c48 0 84 21 96 57h-110v158z" />
    <glyph glyph-name="H" unicode="H" horiz-adv-x="748" 
d="M67 0v667h233v-226h149v226h233v-667h-233v232h-149v-232h-233z" />
    <glyph glyph-name="I" unicode="I" horiz-adv-x="376" 
d="M67 0v667h243v-667h-243z" />
    <glyph glyph-name="J" unicode="J" horiz-adv-x="482" 
d="M178 667h238v-459c0 -124 -98 -218 -227 -218c-66 0 -132 24 -199 73l88 206c12 -49 29 -70 58 -70c27 0 42 22 42 61v407z" />
    <glyph glyph-name="K" unicode="K" horiz-adv-x="744" 
d="M67 0v667h233v-183c0 -55 0 -63 -5 -106h5c5 22 12 38 28 65c18 29 30 50 33 57l90 167h264l-209 -325l231 -342h-281l-110 191c-18 34 -8 16 -32 58c-11 20 -9 16 -14 30h-5c4 -26 5 -40 5 -95v-184h-233z" />
    <glyph glyph-name="L" unicode="L" horiz-adv-x="527" 
d="M67 0v667h243v-452h204v-215h-447z" />
    <glyph glyph-name="M" unicode="M" horiz-adv-x="983" 
d="M40 0l108 667h249l78 -273c6 -19 9 -37 15 -77h6c3 36 5 51 13 77l78 273h247l109 -667h-233l-30 299c-3 24 -3 37 -4 66h-4c-7 -35 -9 -46 -13 -56l-99 -309h-142l-89 293c-6 18 -9 34 -13 72h-7c0 -32 0 -41 -1 -52l-33 -313h-235z" />
    <glyph glyph-name="N" unicode="N" horiz-adv-x="801" 
d="M67 0v667h232l154 -251c33 -54 40 -67 63 -119h7c-14 66 -16 82 -17 159l-4 211h232v-667h-232l-166 263c-18 28 -28 47 -46 87h-7c10 -61 13 -90 13 -123l3 -227h-232z" />
    <glyph glyph-name="O" unicode="O" horiz-adv-x="810" 
d="M409 677c215 0 365 -141 365 -344c0 -199 -156 -343 -370 -343c-215 0 -367 141 -367 341c0 203 153 346 372 346zM403 462c-69 0 -121 -55 -121 -129c0 -75 52 -128 125 -128c72 0 122 52 122 126c0 78 -51 131 -126 131z" />
    <glyph glyph-name="P" unicode="P" horiz-adv-x="667" 
d="M67 0v667h320c157 0 263 -97 263 -240c0 -136 -85 -226 -213 -226h-134v-201h-236zM303 369h42c42 0 69 23 69 60c0 34 -25 55 -66 55h-45v-115z" />
    <glyph glyph-name="Q" unicode="Q" horiz-adv-x="809" 
d="M711 130l98 -109l-189 -79l-48 81c-56 -23 -109 -33 -177 -33c-211 0 -358 141 -358 343c0 201 153 344 369 344c219 0 366 -138 366 -345c0 -80 -16 -133 -61 -202zM372 268l151 29c3 17 4 24 4 37c0 76 -51 129 -124 129s-121 -51 -121 -127c0 -75 52 -132 120 -132
c11 0 15 1 27 3z" />
    <glyph glyph-name="R" unicode="R" horiz-adv-x="711" 
d="M67 0v667h301c72 0 116 -10 160 -38c72 -44 107 -108 107 -192c0 -52 -15 -99 -42 -129c-17 -20 -41 -32 -87 -46v-6c19 -12 27 -19 35 -31l150 -225h-279l-96 195c-5 10 -6 12 -9 21l-4 -2v-214h-236zM303 370h33c39 0 64 22 64 56s-23 58 -55 58h-42v-114z" />
    <glyph glyph-name="S" unicode="S" horiz-adv-x="618" 
d="M37 51l74 189l26 -20c39 -30 95 -50 140 -50c35 0 60 16 60 39c0 19 -13 30 -44 35l-70 13c-101 18 -163 85 -163 178c0 140 123 242 294 242c74 0 134 -17 205 -57l-65 -171c-55 37 -94 51 -140 51c-32 0 -53 -14 -53 -36c0 -15 12 -25 38 -31l78 -16
c107 -24 165 -90 165 -189c0 -139 -120 -238 -289 -238c-86 0 -173 21 -256 61z" />
    <glyph glyph-name="T" unicode="T" horiz-adv-x="522" 
d="M144 0v457l-137 -7v217h509v-217l-134 7v-457h-238z" />
    <glyph glyph-name="U" unicode="U" horiz-adv-x="751" 
d="M67 667h241v-382c0 -57 23 -86 68 -86c49 0 67 23 67 86v382h241v-404c0 -170 -114 -273 -302 -273c-198 0 -315 95 -315 256v421z" />
    <glyph glyph-name="V" unicode="V" horiz-adv-x="725" 
d="M0 667h253l93 -314c10 -32 12 -47 15 -89h6c2 42 4 58 14 89l91 314h253l-258 -667h-208z" />
    <glyph glyph-name="W" unicode="W" horiz-adv-x="1049" 
d="M0 667h251l73 -316c4 -17 6 -33 11 -82h6c5 55 9 80 17 112l73 286h186l77 -304c5 -18 8 -41 14 -94h5c4 53 8 77 15 107l69 291h252l-235 -667h-211l-63 272c-7 30 -10 48 -13 91h-8c-2 -48 -4 -69 -10 -91l-69 -272h-206z" />
    <glyph glyph-name="X" unicode="X" horiz-adv-x="742" 
d="M23 667h274l55 -104c4 -8 5 -11 15 -46h5c6 23 10 33 16 46l51 104h274l-209 -312l238 -355h-276l-81 151c-3 6 -4 11 -9 32h-7c-7 -23 -10 -30 -14 -37l-79 -146h-276l233 355z" />
    <glyph glyph-name="Y" unicode="Y" horiz-adv-x="685" 
d="M-7 667h274l57 -122c5 -11 8 -21 18 -53h7c6 24 7 29 18 53l52 122h272l-227 -380v-287h-239v287z" />
    <glyph glyph-name="Z" unicode="Z" horiz-adv-x="705" 
d="M71 667h621l-253 -412c-8 -12 -16 -23 -37 -50l2 -3c23 2 34 3 46 3h212v-205h-649l246 400c21 33 28 43 54 71l-2 4c-31 -7 -39 -9 -48 -9h-192v201z" />
    <glyph glyph-name="bracketleft" unicode="[" horiz-adv-x="430" 
d="M273 -103h117v-90h-317v922h317v-90h-117v-742z" />
    <glyph glyph-name="backslash" unicode="\" horiz-adv-x="545" 
d="M182 729l377 -922h-173l-377 922h173z" />
    <glyph glyph-name="bracketright" unicode="]" horiz-adv-x="430" 
d="M157 639h-117v90h317v-922h-317v90h117v742z" />
    <glyph glyph-name="asciicircum" unicode="^" horiz-adv-x="457" 
d="M158 333h-176l135 339h223l135 -339h-175l-71 203z" />
    <glyph glyph-name="underscore" unicode="_" horiz-adv-x="500" 
d="M0 -46h500v-117h-500v117z" />
    <glyph glyph-name="quoteleft" unicode="&#x2018;" horiz-adv-x="436" 
d="M205 667h178l-107 -330h-229z" />
    <glyph glyph-name="a" unicode="a" horiz-adv-x="639" 
d="M368 411l6 3c-8 24 -8 29 -8 53h225v-467h-224l2 22c1 8 3 17 8 37h-7c-54 -55 -88 -72 -142 -72c-114 0 -200 105 -200 243c0 141 89 250 204 250c59 0 96 -18 136 -69zM313 300c-34 0 -59 -28 -59 -65s26 -65 60 -65c33 0 60 30 60 67s-25 63 -61 63z" />
    <glyph glyph-name="b" unicode="b" horiz-adv-x="637" 
d="M48 729h229l-2 -262c0 -19 -3 -33 -10 -64h8c33 50 82 77 139 77c108 0 197 -113 197 -252c0 -141 -81 -241 -197 -241c-64 0 -112 27 -147 85l-7 -3c5 -12 5 -15 6 -30l1 -39h-217v729zM326 307c-36 0 -61 -28 -61 -70c0 -43 24 -72 60 -72c35 0 63 32 63 72
s-26 70 -62 70z" />
    <glyph glyph-name="c" unicode="c" horiz-adv-x="444" 
d="M416 204l-10 -193c-43 -18 -72 -24 -120 -24c-156 0 -258 97 -258 246c0 141 104 247 242 247c45 0 100 -9 143 -24v-190c-35 28 -55 37 -87 37c-39 0 -67 -29 -67 -68c0 -37 30 -68 66 -68c33 0 57 10 91 37z" />
    <glyph glyph-name="d" unicode="d" horiz-adv-x="637" 
d="M362 729h227v-729h-220c-1 9 -1 15 -1 21c0 16 2 28 8 53l-7 1c-33 -58 -85 -88 -151 -88c-107 0 -190 107 -190 246c0 138 85 247 193 247c59 0 101 -22 143 -75h7c-7 36 -9 51 -9 68v256zM309 311c-35 0 -60 -29 -60 -70c0 -42 27 -74 62 -74s60 29 60 70
c0 43 -26 74 -62 74z" />
    <glyph glyph-name="e" unicode="e" horiz-adv-x="613" 
d="M354 155h222c-36 -106 -135 -168 -271 -168c-163 0 -277 99 -277 240c0 150 112 253 276 253c100 0 176 -34 226 -101c35 -47 55 -106 55 -163v-20h-331c1 -57 16 -80 51 -80c26 0 40 11 49 39zM256 293h107c-4 39 -24 60 -56 60c-31 0 -48 -20 -51 -60z" />
    <glyph glyph-name="f" unicode="f" horiz-adv-x="380" 
d="M70 0v293l-62 -7v181l62 -6v73c0 130 71 202 201 202c30 0 54 -2 103 -10l-2 -181c-15 6 -22 8 -30 8c-27 0 -48 -20 -48 -45v-49l77 8v-181l-74 7v-293h-227z" />
    <glyph glyph-name="g" unicode="g" horiz-adv-x="635" 
d="M48 -185l51 158c50 -38 104 -57 162 -57c55 0 99 39 105 93l5 59h-5c-28 -51 -74 -76 -138 -76c-112 0 -200 107 -200 243c0 137 88 245 200 245c61 0 96 -19 138 -77h5c-4 19 -6 31 -6 43c0 9 0 11 1 21h221v-450c0 -148 -125 -246 -315 -246c-60 0 -134 12 -184 30z
M314 300c-37 0 -65 -28 -65 -66s28 -66 65 -66c36 0 59 25 59 64c0 40 -24 68 -59 68z" />
    <glyph glyph-name="h" unicode="h" horiz-adv-x="625" 
d="M48 0v729h227v-262c0 -17 -2 -33 -8 -73l4 -3c57 67 93 89 148 89c98 0 158 -69 158 -181v-299h-223v253c0 27 -14 44 -36 44c-25 0 -43 -19 -43 -44v-253h-227z" />
    <glyph glyph-name="i" unicode="i" horiz-adv-x="323" 
d="M48 0v467h227v-467h-227zM159 723c75 0 127 -45 127 -110c0 -66 -48 -110 -121 -110c-80 0 -130 42 -130 111c0 66 50 109 124 109z" />
    <glyph glyph-name="j" unicode="j" horiz-adv-x="323" 
d="M48 -193v660h227v-660h-227zM159 723c75 0 127 -45 127 -110c0 -66 -48 -110 -121 -110c-80 0 -130 42 -130 111c0 66 50 109 124 109z" />
    <glyph glyph-name="k" unicode="k" horiz-adv-x="646" 
d="M48 0v729h227v-434h5c4 7 6 12 7 16c4 7 6 13 7 15l76 141h266l-145 -191c-19 -26 -17 -23 -28 -36c32 -37 41 -47 49 -58l132 -182h-268l-86 149c-1 2 -3 6 -5 11c-2 3 -4 7 -6 12h-4v-172h-227z" />
    <glyph glyph-name="l" unicode="l" horiz-adv-x="323" 
d="M48 0v729h227v-729h-227z" />
    <glyph glyph-name="m" unicode="m" horiz-adv-x="889" 
d="M48 0v467h214l-1 -39c-1 -11 -2 -20 -7 -39l7 -2c25 60 73 93 137 93c67 0 106 -29 134 -100h6c33 74 70 100 141 100c96 0 161 -71 161 -177v-303h-220v257c0 26 -13 43 -31 43c-20 0 -35 -18 -35 -43v-257h-220v263c0 24 -11 37 -31 37c-23 0 -35 -17 -35 -51v-249
h-220z" />
    <glyph glyph-name="n" unicode="n" horiz-adv-x="629" 
d="M48 0v467h222l-2 -29c-1 -12 -2 -22 -7 -43l6 -1c24 27 36 40 46 49c28 24 64 37 105 37c99 0 163 -71 163 -180v-300h-227v243c0 43 -9 57 -37 57c-29 0 -42 -18 -42 -57v-243h-227z" />
    <glyph glyph-name="o" unicode="o" horiz-adv-x="626" 
d="M310 480c175 0 288 -99 288 -252c0 -143 -116 -241 -286 -241c-165 0 -284 102 -284 243c0 149 114 250 282 250zM314 300c-38 0 -65 -28 -65 -66c0 -39 27 -67 65 -67s63 26 63 66s-26 67 -63 67z" />
    <glyph glyph-name="p" unicode="p" horiz-adv-x="637" 
d="M48 -193v660h217l-1 -39c-1 -15 -1 -18 -6 -30l7 -3c35 58 83 85 147 85c116 0 197 -100 197 -241c0 -139 -89 -252 -197 -252c-57 0 -106 27 -139 77h-8c7 -31 9 -45 10 -64l2 -193h-229zM325 303c-36 0 -60 -29 -60 -72c0 -42 25 -71 61 -71s62 30 62 71
c0 40 -28 72 -63 72z" />
    <glyph glyph-name="q" unicode="q" horiz-adv-x="639" 
d="M364 -193v187c0 17 2 32 9 68h-7c-42 -53 -84 -75 -143 -75c-109 0 -195 109 -195 247c0 139 83 246 192 246c66 0 118 -30 151 -88l7 1c-6 25 -8 37 -8 53c0 6 0 12 1 21h220v-660h-227zM312 300c-36 0 -63 -32 -63 -74c0 -41 26 -70 62 -70s62 31 62 74
c0 41 -25 70 -61 70z" />
    <glyph glyph-name="r" unicode="r" horiz-adv-x="443" 
d="M48 0v467h229l-2 -32c0 -1 -1 -6 -2 -13c-1 -3 -1 -8 -2 -15h4c45 66 73 80 161 79v-238c-36 22 -48 26 -71 26c-52 0 -90 -35 -90 -83v-191h-227z" />
    <glyph glyph-name="s" unicode="s" horiz-adv-x="487" 
d="M23 39l59 142l31 -20c24 -15 74 -32 97 -32c21 0 36 11 36 27c0 12 -10 23 -24 25l-50 8c-72 11 -119 62 -119 128c0 96 90 163 220 163c70 0 128 -13 181 -40l-55 -130c-42 27 -74 40 -104 40c-21 0 -34 -10 -34 -25c0 -13 7 -18 33 -23l46 -10c84 -18 125 -60 125 -132
c0 -103 -92 -173 -227 -173c-66 0 -122 13 -215 52z" />
    <glyph glyph-name="t" unicode="t" horiz-adv-x="367" 
d="M65 0v292l-57 -4v179l57 -4v170h227v-170l77 4v-179l-77 4v-292h-227z" />
    <glyph glyph-name="u" unicode="u" horiz-adv-x="628" 
d="M48 467h227v-253c0 -31 13 -47 38 -47s40 18 40 47v253h227v-269c0 -122 -112 -211 -267 -211c-153 0 -265 86 -265 204v276z" />
    <glyph glyph-name="v" unicode="v" horiz-adv-x="596" 
d="M-10 467h245l51 -172c2 -8 4 -19 9 -48h7c2 24 4 34 8 48l52 172h244l-203 -467h-207z" />
    <glyph glyph-name="w" unicode="w" horiz-adv-x="845" 
d="M-10 467h240l45 -191c3 -14 5 -29 9 -67h7c2 32 4 43 9 67l48 191h149l50 -191c4 -14 6 -30 11 -67h6c3 35 5 50 9 67l43 191h239l-192 -467h-184l-45 169c-2 8 -4 16 -7 38h-6c-4 -20 -6 -28 -8 -38l-46 -169h-187z" />
    <glyph glyph-name="x" unicode="x" horiz-adv-x="646" 
d="M17 467h262l34 -66c6 -11 7 -16 10 -30h6c4 15 7 22 11 30l34 66h261l-177 -224l190 -243h-268l-42 76c-1 3 -3 8 -6 14c-1 3 -2 8 -4 13h-5c-4 -14 -6 -22 -9 -27l-41 -76h-275l197 243z" />
    <glyph glyph-name="y" unicode="y" horiz-adv-x="601" 
d="M-10 467h245l56 -192c6 -17 8 -31 10 -61h6c3 32 5 46 9 61l55 192h240l-301 -660h-241l122 240z" />
    <glyph glyph-name="z" unicode="z" horiz-adv-x="549" 
d="M515 0h-494v31l144 220c6 9 13 17 41 44v3c-18 -5 -25 -6 -41 -6h-121v175h483v-24l-146 -216c-20 -30 -21 -31 -42 -50v-5c18 4 27 5 35 5h141v-177z" />
    <glyph glyph-name="braceleft" unicode="{" horiz-adv-x="417" 
d="M288 548v-153c0 -68 -12 -93 -60 -127c46 -29 60 -60 60 -126v-153c0 -64 7 -69 84 -69h15v-114c-15 -1 -26 -1 -33 -1c-38 -1 -65 -2 -70 -2c-135 0 -176 34 -176 145v184c0 55 -15 78 -55 86v110c39 8 55 31 55 76v185c0 104 42 144 152 144c47 0 57 0 127 -2v-115
c-9 1 -17 1 -21 1c-70 0 -78 -7 -78 -69z" />
    <glyph glyph-name="bar" unicode="|" horiz-adv-x="500" 
d="M148 667h203v-834h-203v834z" />
    <glyph glyph-name="braceright" unicode="}" horiz-adv-x="417" 
d="M130 -11v153c0 68 12 93 60 126c-46 30 -60 60 -60 127v153c0 64 -7 69 -85 69c-1 0 -8 0 -15 -1v115c15 0 26 1 34 1c38 1 67 2 70 2c135 0 176 -34 176 -145v-185c0 -55 15 -78 54 -86v-110c-38 -8 -54 -30 -54 -76v-184c0 -105 -42 -144 -152 -144c-41 0 -53 0 -128 2
v114h21c71 0 79 7 79 69z" />
    <glyph glyph-name="asciitilde" unicode="~" horiz-adv-x="667" 
d="M186 532l-96 81c41 108 89 154 159 154c25 0 38 -4 144 -43c13 -5 23 -7 31 -7c23 0 36 12 57 52l96 -81c-45 -110 -89 -153 -159 -153c-24 0 -45 6 -111 31c-43 16 -52 19 -67 19c-20 0 -34 -14 -54 -53z" />
    <glyph glyph-name="exclamdown" unicode="&#xa1;" horiz-adv-x="410" 
d="M90 261h233v-454h-233v454zM208 529c73 0 129 -49 129 -113s-56 -111 -132 -111c-74 0 -132 48 -132 109c0 64 60 115 135 115z" />
    <glyph glyph-name="cent" unicode="&#xa2;" 
d="M334 4v108c-110 13 -189 112 -189 235c0 114 76 208 189 232v92h103v-91c41 -5 47 -7 83 -17l4 -186c-38 27 -57 35 -86 35c-38 0 -66 -26 -66 -63c0 -40 27 -68 67 -68c27 0 56 12 86 37l-2 -187c-39 -12 -57 -16 -86 -20v-107h-103z" />
    <glyph glyph-name="sterling" unicode="&#xa3;" 
d="M544 176l66 -123c-74 -44 -138 -66 -194 -66c-20 0 -67 7 -91 13l-73 20c-10 3 -20 4 -33 4c-29 0 -32 -1 -117 -34l-51 138c77 35 88 39 138 48c11 25 15 35 25 74h-83v125h83c-3 20 -1 6 -6 41c-6 39 -8 58 -8 76c0 115 87 189 224 189c58 0 110 -18 144 -48
c33 -31 45 -61 49 -126l-150 -30c-2 44 -10 56 -38 56c-25 0 -43 -23 -43 -54c0 -10 1 -17 2 -26l4 -33c4 -22 4 -26 4 -34v-11h132v-125h-138c-3 -31 -6 -40 -29 -86c16 -4 10 -2 43 -14c13 -5 39 -9 53 -9c29 0 55 10 87 35z" />
    <glyph glyph-name="fraction" unicode="&#x2044;" horiz-adv-x="129" 
d="M-139 17l334 669l73 -36l-334 -669z" />
    <glyph glyph-name="yen" unicode="&#xa5;" 
d="M18 667h274l65 -181l61 181h271l-119 -213h90v-118h-156l-28 -49v-36h184v-118h-184v-133h-239v133h-190v118h190v36l-28 49h-162v118h93z" />
    <glyph glyph-name="florin" unicode="&#x192;" 
d="M104 -128l27 169h12c58 0 84 20 93 72l35 207h-60l22 125h60l21 125c16 95 88 163 172 163c42 0 73 -7 125 -29l-28 -166c-11 14 -20 19 -35 19c-22 0 -37 -15 -41 -41l-11 -71h69l-22 -125h-69l-37 -236c-24 -155 -101 -218 -266 -218c-27 0 -45 2 -67 6z" />
    <glyph glyph-name="section" unicode="&#xa7;" 
d="M86 -2h185c9 -50 28 -70 70 -70c41 0 62 19 62 57c0 20 -10 39 -26 48c-14 8 -27 12 -90 29c-78 21 -95 27 -122 46c-49 34 -72 81 -72 146c0 66 27 116 86 157c-50 37 -70 77 -70 138c0 116 100 187 264 187c150 0 229 -67 242 -206h-178c-8 58 -24 76 -68 76
c-42 0 -66 -18 -66 -49c0 -22 11 -37 34 -47c20 -9 16 -8 98 -32c136 -39 187 -91 187 -190c0 -65 -29 -115 -92 -157c48 -38 68 -80 68 -142c0 -124 -84 -189 -245 -189c-170 0 -256 64 -267 198zM355 336c-36 0 -65 -29 -65 -66c0 -36 29 -65 65 -65c37 0 66 29 66 65
c0 37 -29 66 -66 66z" />
    <glyph glyph-name="currency" unicode="&#xa4;" horiz-adv-x="733" 
d="M27 107l106 106c-20 40 -30 84 -30 127c0 40 12 84 34 127l-109 108l103 104l111 -111c47 22 80 30 125 30c44 0 79 -8 123 -29l110 108l102 -102l-106 -106c25 -45 36 -84 36 -130s-8 -80 -31 -125l105 -106l-101 -103l-105 105c-45 -25 -86 -36 -135 -36
c-46 0 -82 10 -131 35l-105 -103zM367 429c-49 0 -89 -40 -89 -90s40 -91 89 -91c50 0 90 41 90 91s-40 90 -90 90z" />
    <glyph glyph-name="quotesingle" unicode="'" horiz-adv-x="224" 
d="M163 392h-102l-24 275h151z" />
    <glyph glyph-name="quotedblleft" unicode="&#x201c;" horiz-adv-x="702" 
d="M471 667h178l-107 -330h-218zM195 667h178l-107 -330h-219z" />
    <glyph glyph-name="guillemotleft" unicode="&#xab;" horiz-adv-x="534" 
d="M180 27l-147 213l147 207l92 -64l-101 -143l101 -149zM400 27l-147 213l147 207l92 -64l-101 -143l101 -149z" />
    <glyph glyph-name="guilsinglleft" unicode="&#x2039;" horiz-adv-x="314" 
d="M180 27l-147 213l147 207l92 -64l-101 -143l101 -149z" />
    <glyph glyph-name="guilsinglright" unicode="&#x203a;" horiz-adv-x="314" 
d="M134 27l-92 64l101 149l-101 143l92 64l147 -207z" />
    <glyph glyph-name="uniFB01" unicode="&#xfb01;" horiz-adv-x="705" 
d="M70 0v293l-62 -7v181l62 -6v73c0 130 71 202 201 202c30 0 54 -2 103 -10l-2 -181c-15 6 -22 8 -30 8c-27 0 -48 -20 -48 -45v-49l77 8v-181l-74 7v-293h-227zM430 0v467h227v-467h-227zM541 723c75 0 127 -45 127 -110c0 -66 -48 -110 -121 -110c-80 0 -130 42 -130 111
c0 66 50 109 124 109z" />
    <glyph glyph-name="uniFB02" unicode="&#xfb02;" horiz-adv-x="705" 
d="M70 0v293l-62 -7v181l62 -6v73c0 130 71 202 201 202c30 0 54 -2 103 -10l-2 -181c-15 6 -22 8 -30 8c-27 0 -48 -20 -48 -45v-49l77 8v-181l-74 7v-293h-227zM430 0v729h227v-729h-227z" />
    <glyph glyph-name="endash" unicode="&#x2013;" 
d="M36 150v181h635v-181h-635z" />
    <glyph glyph-name="dagger" unicode="&#x2020;" 
d="M253 -193v560h-171v175h171v187h201v-187h171v-175h-171v-560h-201z" />
    <glyph glyph-name="daggerdbl" unicode="&#x2021;" 
d="M253 387h-164v175h164v167h201v-167h164v-175h-164v-175h164v-175h-164v-230h-201v230h-164v175h164v175z" />
    <glyph glyph-name="periodcentered" unicode="&#xb7;" horiz-adv-x="355" 
d="M177 352c74 0 132 -49 132 -111c0 -63 -58 -112 -132 -112c-73 0 -131 49 -131 112c0 62 58 111 131 111z" />
    <glyph glyph-name="paragraph" unicode="&#xb6;" 
d="M237 -92v427h-10c-96 0 -160 65 -160 163c0 113 70 169 211 169h375v-133h-73v-626h-130v626h-83v-626h-130z" />
    <glyph glyph-name="bullet" unicode="&#x2022;" horiz-adv-x="667" 
d="M336 478c75 0 137 -62 137 -138s-62 -139 -137 -139c-78 0 -140 62 -140 139c0 76 62 138 140 138z" />
    <glyph glyph-name="quotesinglbase" unicode="&#x201a;" horiz-adv-x="426" 
d="M231 -160h-178l107 330h219z" />
    <glyph glyph-name="quotedblbase" unicode="&#x201e;" horiz-adv-x="702" 
d="M231 -160h-178l107 330h219zM508 -160h-178l107 330h218z" />
    <glyph glyph-name="quotedblright" unicode="&#x201d;" horiz-adv-x="702" 
d="M231 337h-178l107 330h219zM508 337h-178l107 330h218z" />
    <glyph glyph-name="guillemotright" unicode="&#xbb;" horiz-adv-x="534" 
d="M354 27l-92 64l101 149l-101 143l92 64l147 -207zM134 27l-92 64l101 149l-101 143l92 64l147 -207z" />
    <glyph glyph-name="ellipsis" unicode="&#x2026;" horiz-adv-x="1103" 
d="M183 210c74 0 132 -49 132 -111c0 -63 -58 -112 -132 -112c-73 0 -131 49 -131 112c0 62 58 111 131 111zM551 210c74 0 132 -49 132 -111c0 -63 -58 -112 -132 -112c-73 0 -131 49 -131 112c0 62 58 111 131 111zM918 210c74 0 132 -49 132 -111
c0 -63 -58 -112 -132 -112c-73 0 -131 49 -131 112c0 62 58 111 131 111z" />
    <glyph glyph-name="perthousand" unicode="&#x2030;" horiz-adv-x="1499" 
d="M234 677c128 0 212 -72 212 -183c0 -110 -85 -184 -212 -184c-125 0 -211 75 -211 185c0 114 79 182 211 182zM238 544c-24 0 -42 -21 -42 -47c0 -30 15 -48 40 -48s41 20 41 49c0 27 -16 46 -39 46zM302 21l338 667l84 -42l-338 -667zM791 357c128 0 212 -72 212 -183
c0 -110 -85 -184 -212 -184c-125 0 -211 75 -211 185c0 114 79 182 211 182zM795 224c-24 0 -42 -21 -42 -47c0 -30 15 -48 40 -48s41 20 41 49c0 27 -16 46 -39 46zM1264 357c128 0 212 -72 212 -183c0 -110 -85 -184 -212 -184c-125 0 -211 75 -211 185
c0 114 79 182 211 182zM1268 224c-24 0 -42 -21 -42 -47c0 -30 15 -48 40 -48s41 20 41 49c0 27 -16 46 -39 46z" />
    <glyph glyph-name="questiondown" unicode="&#xbf;" horiz-adv-x="616" 
d="M349 44h227c-4 -47 -9 -67 -24 -96c-45 -89 -135 -141 -243 -141c-160 0 -269 97 -269 241c0 136 105 226 265 226c32 0 43 -1 79 -8v-172c-22 7 -34 9 -45 9c-46 0 -78 -29 -78 -70c0 -27 16 -44 42 -44s42 19 46 55zM307 540c77 0 134 -48 134 -114
c0 -64 -56 -109 -138 -109c-73 0 -127 48 -127 112s56 111 131 111z" />
    <glyph glyph-name="grave" unicode="`" horiz-adv-x="500" 
d="M211 742l116 -146l-87 -55l-146 128z" />
    <glyph glyph-name="acute" unicode="&#xb4;" horiz-adv-x="500" 
d="M296 742l117 -73l-147 -128l-86 55z" />
    <glyph glyph-name="circumflex" unicode="&#x2c6;" horiz-adv-x="500" 
d="M104 543l-47 89l195 101l191 -103l-46 -89l-145 72z" />
    <glyph glyph-name="tilde" unicode="&#x2dc;" horiz-adv-x="500" 
d="M130 555l-76 48c43 63 85 91 137 91c14 0 40 -5 48 -10l33 -18c14 -7 27 -11 39 -11c14 0 23 6 48 36l88 -40c-37 -65 -81 -98 -130 -98c-16 0 -34 3 -45 7l-65 26c-11 5 -21 7 -28 7c-16 0 -30 -11 -49 -38z" />
    <glyph glyph-name="macron" unicode="&#xaf;" horiz-adv-x="500" 
d="M80 558v87h340v-87h-340z" />
    <glyph glyph-name="breve" unicode="&#x2d8;" horiz-adv-x="500" 
d="M67 705h82c5 -33 42 -52 102 -52c59 0 84 13 99 52h83c-9 -89 -85 -153 -180 -153c-101 0 -171 57 -186 153z" />
    <glyph glyph-name="dotaccent" unicode="&#x2d9;" horiz-adv-x="500" 
d="M250 705c43 0 77 -34 77 -77c0 -42 -35 -77 -77 -77s-77 35 -77 77s35 77 77 77z" />
    <glyph glyph-name="dieresis" unicode="&#xa8;" horiz-adv-x="500" 
d="M143 705c43 0 77 -34 77 -77c0 -42 -35 -77 -77 -77s-77 35 -77 77s35 77 77 77zM356 705c43 0 77 -34 77 -77c0 -42 -35 -77 -77 -77s-77 35 -77 77s35 77 77 77z" />
    <glyph glyph-name="ring" unicode="&#x2da;" horiz-adv-x="500" 
d="M249 748c68 0 114 -39 114 -97c0 -61 -46 -102 -114 -102s-113 40 -113 101c0 60 44 98 113 98zM249 688c-21 0 -39 -18 -39 -39c0 -22 18 -40 39 -40c22 0 39 18 39 40c0 21 -17 39 -39 39z" />
    <glyph glyph-name="cedilla" unicode="&#xb8;" horiz-adv-x="500" 
d="M247 -250l-89 77l140 130l85 -72z" />
    <glyph glyph-name="hungarumlaut" unicode="&#x2dd;" horiz-adv-x="500" 
d="M174 742l112 -73l-133 -128l-79 55zM367 742l112 -73l-133 -128l-79 55z" />
    <glyph glyph-name="ogonek" unicode="&#x2db;" horiz-adv-x="500" 
d="M274 0h66c-42 -25 -60 -44 -60 -61c0 -24 18 -38 49 -38c17 0 29 6 47 23l-22 -87c-22 -14 -45 -21 -69 -21c-53 0 -94 36 -94 83c0 39 23 67 83 101z" />
    <glyph glyph-name="caron" unicode="&#x2c7;" horiz-adv-x="500" 
d="M396 731l47 -88l-195 -102l-191 104l46 88l145 -71z" />
    <glyph glyph-name="emdash" unicode="&#x2014;" horiz-adv-x="793" 
d="M0 150v181h793v-181h-793z" />
    <glyph glyph-name="AE" unicode="&#xc6;" horiz-adv-x="947" 
d="M7 0l232 667h469l61 -183h-198l21 -62h199l62 -175h-197l21 -64h200l64 -183h-454l-23 83h-182l-20 -83h-255zM324 241h99l-39 147c-3 11 -5 20 -8 56h-6c-2 -31 -4 -39 -11 -66z" />
    <glyph glyph-name="ordfeminine" unicode="&#xaa;" horiz-adv-x="363" 
d="M216 427h-5c-30 -31 -50 -41 -78 -41c-67 0 -116 59 -116 138c0 80 51 143 116 143c32 0 48 -8 79 -39c0 7 0 6 -2 15c-1 3 -1 9 -1 16h128v-266h-127l1 13c0 5 2 9 5 21zM180 563c-20 0 -34 -16 -34 -37c0 -20 15 -36 34 -36s34 17 34 37c0 21 -14 36 -34 36zM22 274v67
h315v-67h-315z" />
    <glyph glyph-name="Lslash" unicode="&#x141;" horiz-adv-x="527" 
d="M67 218l-60 -38v128l60 38v321h243v-198l110 69v-129l-110 -69v-125h204v-215h-447v218z" />
    <glyph glyph-name="Oslash" unicode="&#xd8;" horiz-adv-x="810" 
d="M626 619l89 82l82 -89l-85 -80c42 -56 61 -118 61 -199c0 -199 -156 -343 -369 -343c-90 0 -118 7 -218 55l-93 -86l-80 88l88 86c-45 60 -64 121 -64 198c0 203 153 346 371 346c87 0 126 -10 218 -58zM403 462c-69 0 -121 -55 -121 -129c0 -75 52 -128 125 -128
c71 0 121 52 121 126c0 78 -51 131 -125 131z" />
    <glyph glyph-name="OE" unicode="&#x152;" horiz-adv-x="1039" 
d="M548 574v93h447v-183h-206v-62h189v-175h-189v-64h214v-183h-455v84c-29 -34 -43 -47 -71 -61c-41 -21 -91 -33 -136 -33c-169 0 -304 152 -304 343c0 190 137 344 306 344c90 0 154 -32 205 -103zM416 460c-75 0 -127 -53 -127 -129c0 -69 54 -124 121 -124
c74 0 121 50 121 128c0 75 -46 125 -115 125z" />
    <glyph glyph-name="ordmasculine" unicode="&#xba;" horiz-adv-x="357" 
d="M177 667c100 0 164 -56 164 -144c0 -81 -66 -137 -163 -137c-94 0 -162 58 -162 139c0 84 65 142 161 142zM177 564c-19 0 -34 -17 -34 -38s15 -37 35 -37c22 0 36 14 36 37s-14 38 -37 38zM21 274v67h315v-67h-315z" />
    <glyph glyph-name="ae" unicode="&#xe6;" horiz-adv-x="1004" 
d="M47 331v113c117 30 152 36 227 36c100 0 146 -18 206 -82c73 62 126 82 212 82c127 0 219 -55 262 -156c16 -38 21 -65 22 -125h-333c-1 -55 15 -79 55 -79c24 0 39 13 44 37h222c-15 -47 -29 -69 -62 -98c-54 -46 -127 -72 -201 -72c-91 0 -162 25 -221 80
c-79 -58 -144 -80 -231 -80c-133 0 -221 67 -221 167c0 97 81 157 211 157c45 0 74 -5 138 -22c-2 61 -36 87 -113 87c-61 0 -115 -11 -217 -45zM646 296h107c0 35 -24 60 -55 60s-51 -24 -52 -60zM324 200c-57 0 -87 -17 -87 -48c0 -30 29 -46 80 -46c61 0 110 23 110 52
c0 25 -43 42 -103 42z" />
    <glyph glyph-name="dotlessi" unicode="&#x131;" horiz-adv-x="346" 
d="M60 0v467h227v-467h-227z" />
    <glyph glyph-name="lslash" unicode="&#x142;" horiz-adv-x="324" 
d="M48 262l-61 -35v125l61 35v342h227v-243l62 35v-125l-62 -36v-360h-227v262z" />
    <glyph glyph-name="oslash" unicode="&#xf8;" horiz-adv-x="713" 
d="M200 23l-82 -75l-75 84l71 65c-29 45 -41 83 -41 133c0 149 114 250 282 250c60 0 114 -12 161 -34l88 75l73 -86l-76 -66c30 -47 42 -87 42 -141c0 -143 -116 -241 -286 -241c-55 0 -109 13 -157 36zM359 300c-38 0 -65 -28 -65 -66c0 -39 27 -67 65 -67s63 26 63 66
s-26 67 -63 67z" />
    <glyph glyph-name="oe" unicode="&#x153;" horiz-adv-x="933" 
d="M674 157h221c-27 -99 -135 -170 -261 -170c-74 0 -136 23 -170 64c-42 -38 -118 -65 -186 -65c-141 0 -250 105 -250 242c0 143 114 252 265 252c69 0 141 -27 175 -66c43 41 112 67 180 67c152 0 252 -110 257 -281h-331v-16c0 -44 18 -66 56 -66c28 0 42 13 44 39z
M313 301c-35 0 -64 -30 -64 -65c0 -40 28 -70 64 -70s65 30 65 68s-28 67 -65 67zM578 297h106c0 37 -21 61 -52 61c-34 0 -54 -23 -54 -61z" />
    <glyph glyph-name="germandbls" unicode="&#xdf;" horiz-adv-x="643" 
d="M48 1v476c0 118 17 169 70 206c48 35 129 58 199 58c146 0 247 -77 247 -187c0 -67 -16 -98 -73 -139c83 -35 125 -102 125 -198c0 -135 -96 -217 -252 -217c-9 0 -20 0 -36 1v129c40 8 57 34 57 89c0 79 -12 102 -57 107v128c34 1 53 18 53 48c0 26 -22 45 -52 45
c-21 0 -38 -11 -47 -30c-6 -16 -7 -22 -7 -68v-448h-227z" />
    <glyph glyph-name="Ccedilla" unicode="&#xc7;" horiz-adv-x="591" 
d="M555 266l-7 -249c-37 -16 -109 -27 -171 -27c-191 0 -340 148 -340 338c0 196 152 349 348 349c57 0 116 -9 163 -26l7 -254c-54 47 -95 67 -141 67c-74 0 -132 -57 -132 -129s60 -131 134 -131c52 0 89 17 139 62zM327 -250l-93 87l128 122l82 -78z" />
    <glyph glyph-name="ccedilla" unicode="&#xe7;" horiz-adv-x="444" 
d="M416 204l-10 -193c-43 -18 -72 -24 -120 -24c-156 0 -258 97 -258 246c0 141 104 247 242 247c45 0 100 -9 143 -24v-190c-35 28 -55 37 -87 37c-39 0 -67 -29 -67 -68c0 -37 30 -68 66 -68c33 0 57 10 91 37zM212 -250l-89 77l140 130l85 -72z" />
    <glyph glyph-name="infinity" unicode="&#x221e;" horiz-adv-x="713" 
d="M357 303c56 74 119 111 189 111c83 0 143 -61 143 -146c0 -92 -56 -153 -141 -153c-63 0 -133 42 -191 112c-17 -20 -22 -26 -30 -35c-44 -49 -103 -77 -158 -77c-86 0 -144 60 -144 149c0 86 61 150 145 150c64 0 129 -39 187 -111zM391 264c71 -76 104 -97 159 -97
c54 0 89 39 89 99c0 56 -39 96 -95 96c-31 0 -70 -16 -103 -44c-17 -13 -32 -29 -44 -46c-4 -5 -6 -8 -6 -8zM324 266c-65 71 -106 96 -156 96c-57 0 -93 -38 -93 -98c0 -57 36 -97 88 -97c44 0 87 22 134 68c9 9 16 17 22 24c3 4 5 7 5 7z" />
    <glyph glyph-name="mu" unicode="&#x3bc;" horiz-adv-x="576" 
d="M442 500v-369c0 -54 20 -90 49 -90c24 0 46 30 49 68l27 -1c-14 -78 -56 -121 -120 -121c-50 0 -77 27 -93 93c-53 -62 -104 -93 -155 -93c-34 0 -56 11 -98 46c0 -37 1 -48 12 -86c17 -59 19 -71 19 -92c0 -45 -20 -74 -50 -74c-28 0 -49 30 -49 69c0 27 0 30 17 94
c8 30 12 54 12 76v480h88v-331c0 -70 34 -111 91 -111c43 0 77 22 112 73v369h89z" />
    <glyph glyph-name="apple" horiz-adv-x="790" 
d="M570 698v-11c0 -87 -86 -165 -181 -164c2 97 70 163 181 175zM714 461c-59 -45 -81 -84 -81 -141c0 -67 37 -123 100 -150c-59 -122 -134 -197 -198 -197c-18 0 -39 5 -65 17c-25 11 -30 12 -66 12c-25 0 -35 -2 -56 -12c-31 -13 -47 -17 -67 -17
c-102 0 -225 185 -225 339c0 122 93 221 207 221c25 0 52 -6 90 -20c23 -8 41 -12 51 -12s23 3 41 10c48 18 63 22 92 22c76 0 133 -23 177 -72z" />
    <glyph glyph-name="Eth" unicode="&#xd0;" horiz-adv-x="745" 
d="M67 0v284h-60v113h60v270h257c240 0 385 -127 385 -336c0 -116 -33 -193 -108 -254c-61 -50 -138 -77 -216 -77h-318zM308 204h34c73 0 125 54 125 128c0 78 -51 131 -125 131h-34v-66h73v-113h-73v-80z" />
    <glyph glyph-name="eth" unicode="&#xf0;" horiz-adv-x="628" 
d="M33 629l48 98c64 -4 143 -19 174 -32l129 82l60 -85l-77 -49c153 -108 233 -246 233 -402c0 -152 -115 -254 -288 -254c-164 0 -284 103 -284 243c0 146 100 232 277 237c-23 40 -40 59 -79 88l-127 -79l-49 91l69 44c-27 8 -23 7 -68 15c-3 0 -9 1 -18 3zM313 301
c-37 0 -64 -28 -64 -67s26 -67 64 -67c37 0 62 26 62 67c0 39 -26 67 -62 67z" />
    <glyph glyph-name="Thorn" unicode="&#xde;" horiz-adv-x="667" 
d="M67 0v667h236v-87h84c157 0 263 -97 263 -240c0 -136 -85 -226 -213 -226h-134v-114h-236zM303 282h42c42 0 69 23 69 60c0 34 -25 55 -66 55h-45v-115z" />
    <glyph glyph-name="thorn" unicode="&#xfe;" horiz-adv-x="637" 
d="M48 -193v922h228l-2 -229c0 -32 0 -33 -16 -102l7 -3c34 57 81 85 147 85c115 0 196 -100 196 -241c0 -139 -89 -252 -197 -252c-57 0 -106 27 -139 77h-7c7 -30 9 -45 9 -64l2 -193h-228zM324 303c-36 0 -59 -28 -59 -72c0 -43 24 -71 60 -71s62 30 62 71
c0 40 -28 72 -63 72z" />
    <glyph glyph-name="Yacute" unicode="&#xdd;" horiz-adv-x="685" 
d="M-7 667h274l57 -122c5 -11 8 -21 18 -53h7c6 24 7 29 18 53l52 122h272l-227 -380v-287h-239v287zM250 755l136 136l141 -47l-162 -127z" />
    <glyph glyph-name="yacute" unicode="&#xfd;" horiz-adv-x="601" 
d="M-10 467h245l56 -192c6 -17 8 -31 10 -61h6c3 32 5 46 9 61l55 192h240l-301 -660h-241l122 240zM340 742l117 -73l-146 -128l-87 55z" />
    <glyph glyph-name="trademark" unicode="&#x2122;" horiz-adv-x="828" 
d="M72 287v251l-75 -4v133h293v-133l-74 4v-251h-144zM302 287l60 380h150l46 -170l45 170h149l61 -380h-142l-17 171l-52 -171h-91l-50 168l-16 -168h-143z" />
    <glyph glyph-name="copyright" unicode="&#xa9;" horiz-adv-x="760" 
d="M513 303l-3 -158c-26 -11 -70 -18 -113 -18c-118 0 -211 89 -211 203c0 117 95 209 216 209c40 0 69 -5 108 -17l3 -160c-43 32 -61 40 -90 40c-40 0 -71 -30 -71 -68c0 -39 33 -70 73 -70c33 0 47 6 88 39zM382 682c189 0 344 -157 344 -348c0 -192 -155 -349 -344 -349
c-193 0 -349 155 -349 349c0 193 155 348 349 348zM381 609c-149 0 -269 -123 -269 -276s120 -276 269 -276c146 0 265 124 265 276s-119 276 -265 276z" />
    <glyph glyph-name="registered" unicode="&#xae;" horiz-adv-x="760" 
d="M207 153v360h164c96 0 155 -48 155 -125c0 -46 -16 -74 -53 -90l-13 -6l103 -139h-171l-51 98v-98h-134zM341 353h12c24 0 36 10 36 30c0 16 -13 29 -31 29h-17v-59zM382 682c189 0 344 -157 344 -348c0 -192 -155 -349 -344 -349c-193 0 -349 155 -349 349
c0 193 155 348 349 348zM381 609c-149 0 -269 -123 -269 -276s120 -276 269 -276c146 0 265 124 265 276s-119 276 -265 276z" />
    <glyph glyph-name="onequarter" unicode="&#xbc;" horiz-adv-x="1089" 
d="M186 267v272l-67 -5v127l223 6v-400h-156zM341 17l334 669l73 -36l-334 -669zM1003 0h-149l5 80l-219 -4v105l177 219h186v-215l55 3v-112l-59 4zM860 185l2 66c0 11 1 15 4 26l-3 2c-7 -12 -11 -17 -20 -28l-41 -48c-11 -14 -10 -13 -18 -21c28 1 28 1 32 1z" />
    <glyph glyph-name="onehalf" unicode="&#xbd;" horiz-adv-x="1089" 
d="M186 267v272l-67 -5v127l223 6v-400h-156zM341 17l334 669l73 -36l-334 -669zM1037 0h-430c23 19 18 15 59 48l119 98c62 51 91 86 91 109c0 18 -16 32 -36 32c-26 0 -37 -14 -39 -50h-154c5 67 19 99 53 127c36 28 85 42 145 42c107 0 186 -60 186 -141
c0 -69 -51 -120 -152 -152v-4c39 8 92 12 158 14v-123z" />
    <glyph glyph-name="threequarters" unicode="&#xbe;" horiz-adv-x="1089" 
d="M37 407h159c1 -30 18 -46 47 -46c22 0 41 18 41 39c0 19 -19 36 -42 36c-4 0 -12 -1 -20 -3v84c5 0 10 -1 12 -1c19 0 33 13 33 29s-12 27 -29 27c-18 0 -29 -12 -29 -31h-154c12 91 70 132 185 132c107 0 180 -46 180 -114c0 -34 -15 -57 -53 -79c51 -20 72 -47 72 -93
c0 -77 -77 -127 -196 -127c-129 0 -196 47 -206 147zM341 17l335 669l72 -36l-334 -669zM1004 0h-149l5 80l-220 -4v105l178 219h186v-215l54 3v-112l-58 4zM861 185l2 66c0 11 1 15 4 26l-4 2c-7 -12 -10 -17 -19 -28l-42 -48c-10 -14 -9 -13 -18 -21c28 1 28 1 33 1z" />
    <glyph glyph-name="minus" unicode="&#x2212;" 
d="M103 266v147h500v-147h-500z" />
    <glyph glyph-name="multiply" unicode="&#xd7;" 
d="M120 474l99 99l134 -134l135 134l99 -99l-135 -134l135 -134l-99 -99l-135 134l-134 -134l-99 99l134 134z" />
    <glyph glyph-name="plusminus" unicode="&#xb1;" horiz-adv-x="549" 
d="M302 662v-245h237v-55h-237v-233h-55v233h-237v55h237v245h55zM11 55h524v-55h-524v55z" />
    <glyph glyph-name="divide" unicode="&#xf7;" horiz-adv-x="549" 
d="M273 120c34 0 62 -28 62 -62s-28 -62 -62 -62s-62 28 -62 62s28 62 62 62zM273 519c34 0 62 -28 62 -62s-28 -62 -62 -62s-62 28 -62 62s28 62 62 62zM10 288h526v-55h-526v55z" />
    <glyph glyph-name="logicalnot" unicode="&#xac;" horiz-adv-x="500" 
d="M269 0v123h-236v177h433v-300h-197z" />
    <glyph glyph-name="degree" unicode="&#xb0;" horiz-adv-x="400" 
d="M201 686c85 0 149 -65 149 -152c0 -86 -66 -153 -150 -153s-150 67 -150 154c0 83 68 151 151 151zM199 629c-52 0 -93 -43 -93 -98c0 -49 43 -93 91 -93c55 0 96 41 96 94c0 55 -40 97 -94 97z" />
    <glyph glyph-name="brokenbar" unicode="&#xa6;" horiz-adv-x="500" 
d="M148 667h203v-364h-203v364zM148 153h203v-320h-203v320z" />
    <glyph glyph-name="uni00B9" unicode="&#xb9;" horiz-adv-x="480" 
d="M186 267v272l-67 -5v127l223 6v-400h-156z" />
    <glyph glyph-name="uni00B2" unicode="&#xb2;" horiz-adv-x="480" 
d="M428 267h-430c23 19 18 15 59 48l119 97c61 50 91 86 91 110c0 18 -16 32 -36 32c-26 0 -37 -14 -39 -51h-154c5 68 19 100 53 127c36 29 85 43 145 43c107 0 186 -60 186 -141c0 -70 -50 -120 -152 -153v-4c39 8 91 13 158 14v-122z" />
    <glyph glyph-name="uni00B3" unicode="&#xb3;" horiz-adv-x="480" 
d="M37 407h159c1 -30 18 -46 47 -46c22 0 41 18 41 39c0 19 -19 36 -42 36c-4 0 -12 -1 -20 -3v84c5 0 10 -1 12 -1c19 0 33 13 33 29s-12 27 -29 27c-18 0 -29 -12 -29 -31h-154c12 91 70 132 185 132c107 0 180 -46 180 -114c0 -34 -15 -57 -53 -79c51 -20 72 -47 72 -93
c0 -77 -77 -127 -196 -127c-129 0 -196 47 -206 147z" />
    <glyph glyph-name="notequal" unicode="&#x2260;" horiz-adv-x="549" 
d="M187 141h-172v55h199l70 139h-269v55h297l80 159l47 -24l-68 -135h169v-55h-197l-70 -139h267v-55h-295l-84 -166l-46 24z" />
    <glyph glyph-name="lessequal" unicode="&#x2264;" horiz-adv-x="549" 
d="M526 55v-55h-497v55h497zM526 639v-62l-418 -199l418 -199v-62l-497 233v55z" />
    <glyph glyph-name="greaterequal" unicode="&#x2265;" horiz-adv-x="549" 
d="M526 55v-55h-497v55h497zM29 639l497 -234v-55l-497 -233v62l418 199l-418 199v62z" />
    <glyph glyph-name="partialdiff" unicode="&#x2202;" horiz-adv-x="494" 
d="M107 674l-41 51c56 21 89 28 129 28c153 0 267 -150 267 -351c0 -122 -36 -259 -85 -325c-41 -57 -98 -87 -163 -87c-107 0 -188 85 -188 198c0 117 92 224 193 224c53 0 88 -15 153 -66c6 50 7 72 7 105c0 162 -59 255 -162 255c-33 0 -66 -10 -110 -32zM366 312
c-42 42 -67 55 -105 55c-81 0 -148 -94 -148 -208c0 -87 33 -138 90 -138c41 0 85 34 111 86c16 33 28 68 35 105c12 57 18 98 17 100z" />
    <glyph glyph-name="summation" unicode="&#x2211;" horiz-adv-x="713" 
d="M176 711l188 -370l-201 -352h328c116 0 146 17 178 98h26l-54 -210h-627l242 408l-233 467h599l10 -165h-26c-17 101 -47 124 -162 124h-268z" />
    <glyph glyph-name="product" unicode="&#x220f;" horiz-adv-x="823" 
d="M25 -124v26h3c33 0 60 12 74 31c11 17 14 33 14 85v591c0 52 -3 68 -14 85c-14 19 -41 31 -74 31h-3v26h778v-26h-3c-33 0 -60 -12 -74 -31c-11 -17 -14 -33 -14 -85v-591c0 -52 3 -68 14 -85c14 -19 41 -31 74 -31h3v-26h-290v26h3c33 0 60 12 74 31c11 17 14 33 14 85
v576c0 62 -4 83 -18 96c-11 10 -28 15 -59 17c-9 1 -19 1 -48 1h-67c-106 0 -116 0 -139 -4c-41 -7 -49 -26 -49 -110v-576c0 -52 3 -68 14 -85c14 -19 41 -31 74 -31h3v-26h-290z" />
    <glyph glyph-name="pi" unicode="&#x3c0;" horiz-adv-x="549" 
d="M30 348h-20c17 60 33 89 61 117c29 28 48 35 102 35h350v-89h-126c-7 -54 -12 -147 -12 -221c0 -68 22 -105 64 -105c33 0 52 25 57 73h24c-3 -51 -7 -72 -23 -101c-24 -45 -58 -70 -96 -70c-63 0 -99 67 -99 184c0 55 9 161 21 240h-109l-12 -129c-3 -36 -2 -27 -9 -79
c-10 -86 -14 -116 -18 -133c-13 -55 -38 -83 -74 -83c-30 0 -54 24 -54 56c0 21 10 37 40 65c34 32 48 53 51 81l26 222h-46c-48 0 -64 -11 -98 -63z" />
    <glyph glyph-name="integral" unicode="&#x222b;" horiz-adv-x="274" 
d="M180 576v-344c0 -107 -10 -207 -25 -261c-14 -49 -48 -78 -92 -78c-37 0 -61 17 -61 44c0 19 15 33 36 33c13 0 21 -6 30 -22c6 -13 13 -18 21 -18c19 0 31 23 31 60c0 14 -1 45 -3 73c-3 62 -4 100 -4 169v345c0 105 10 207 25 261c14 49 49 78 92 78
c38 0 61 -17 61 -46c0 -18 -16 -31 -36 -31c-16 0 -23 6 -40 33c-2 4 -7 6 -13 6c-19 0 -29 -23 -29 -65c0 -13 1 -39 3 -67c3 -51 4 -101 4 -170z" />
    <glyph glyph-name="Omega" unicode="&#x3a9;" horiz-adv-x="768" 
d="M326 0h-292v153h24c7 -44 29 -63 69 -63h146l-3 38c-129 46 -202 138 -202 254c0 165 145 304 317 304s317 -139 317 -304c0 -116 -73 -208 -202 -254l-3 -38h146c40 0 62 19 69 63h24v-153h-292l18 155c78 44 128 133 128 227c0 146 -90 260 -205 260
s-205 -114 -205 -260c0 -94 50 -183 128 -227z" />
    <glyph glyph-name="radical" unicode="&#x221a;" horiz-adv-x="549" 
d="M363 -35l-242 496l-95 -47l-16 35l146 71l195 -394l127 787l37 -5z" />
    <glyph glyph-name="approxequal" unicode="&#x2248;" horiz-adv-x="549" 
d="M489 251l38 -34c-30 -56 -78 -85 -141 -85c-23 0 -43 3 -66 10l-16 5c-44 14 -17 6 -81 25c-35 10 -46 12 -63 12c-41 0 -56 -10 -103 -63l-43 34c40 57 87 84 146 84c28 0 53 -5 125 -28c72 -22 80 -24 101 -24c37 0 59 13 103 64zM489 408l38 -33
c-30 -57 -78 -86 -141 -86c-23 0 -43 3 -66 10c-65 20 -33 11 -97 30c-35 10 -46 12 -63 12c-41 0 -56 -10 -103 -63l-43 34c40 57 87 84 146 84c28 0 53 -5 125 -28c72 -22 80 -24 101 -24c37 0 58 13 103 64z" />
    <glyph glyph-name="Delta" unicode="&#x394;" horiz-adv-x="612" 
d="M6 0l321 688l281 -688h-602zM77 51h402l-189 458z" />
    <glyph glyph-name="lozenge" unicode="&#x25ca;" horiz-adv-x="494" 
d="M209 0l-191 377l196 363h63l189 -366l-197 -374h-60zM240 58l162 316l-157 309l-164 -306z" />
  </font>
</defs>
</svg>
