<?xml version="1.0" standalone="no"?>
<!DOCTYPE svg PUBLIC "-//W3C//DTD SVG 1.1//EN" "http://www.w3.org/Graphics/SVG/1.1/DTD/svg11.dtd" >
<svg>
<metadata>
Created by FontForge 20120731 at Tue May  7 12:49:17 2013
 By Michael Sachs
Copyright URW Software, Copyright 1992 by URW
</metadata>
<defs>
<font id="FuturaT-Book" horiz-adv-x="567" >
  <font-face 
    font-family="FuturTBoo"
    font-weight="400"
    font-stretch="normal"
    units-per-em="1000"
    panose-1="2 0 5 3 0 0 0 0 0 0"
    ascent="800"
    descent="-200"
    x-height="415"
    cap-height="667"
    bbox="-143 -234 1044 916"
    underline-thickness="69"
    underline-position="-98"
    stemh="67"
    stemv="73"
    unicode-range="U+0020-FB02"
  />
    <missing-glyph />
    <glyph glyph-name="space" unicode=" " horiz-adv-x="250" 
 />
    <glyph glyph-name="Adieresis" unicode="&#xc4;" horiz-adv-x="620" 
d="M453 189h-285l-80 -189h-81l307 699l300 -699h-82zM424 258l-111 267l-114 -267h225zM222 835c28 0 51 -23 51 -51s-23 -51 -51 -51s-51 23 -51 51s23 51 51 51zM412 835c28 0 51 -23 51 -51s-23 -51 -51 -51s-51 23 -51 51s23 51 51 51z" />
    <glyph glyph-name="Aring" unicode="&#xc5;" horiz-adv-x="620" 
d="M453 189h-285l-80 -189h-81l307 699l300 -699h-82zM424 258l-111 267l-114 -267h225zM316 906c48 0 87 -39 87 -87c0 -49 -39 -88 -87 -88c-49 0 -88 39 -88 88c0 48 39 87 88 87zM315 861c-23 0 -42 -19 -42 -43c0 -23 19 -42 42 -42c24 0 43 19 43 42
c0 24 -19 43 -43 43z" />
    <glyph glyph-name="Eacute" unicode="&#xc9;" horiz-adv-x="482" 
d="M432 598h-270v-199h263v-69h-263v-261h270v-69h-345v667h345v-69zM379 837l-153 -117l-43 32l126 130z" />
    <glyph glyph-name="Ntilde" unicode="&#xd1;" horiz-adv-x="767" 
d="M87 0v695l519 -545v517h75v-697l-519 544v-514h-75zM273 733l-44 36c33 55 55 72 91 72c22 0 40 -5 72 -20c36 -18 45 -21 56 -21c19 0 32 11 49 42l43 -35c-21 -47 -53 -72 -95 -72c-19 0 -29 3 -68 21c-29 13 -48 19 -60 19c-19 0 -29 -10 -44 -42z" />
    <glyph glyph-name="Odieresis" unicode="&#xd6;" horiz-adv-x="794" 
d="M398 678c189 0 346 -156 346 -345s-157 -345 -346 -345c-192 0 -348 154 -348 344s157 346 348 346zM397 608c-151 0 -272 -122 -272 -276c0 -151 122 -274 272 -274s272 123 272 274c0 153 -121 276 -272 276zM302 835c28 0 51 -23 51 -51s-23 -51 -51 -51
s-51 23 -51 51s23 51 51 51zM492 835c28 0 51 -23 51 -51s-23 -51 -51 -51s-51 23 -51 51s23 51 51 51z" />
    <glyph glyph-name="Udieresis" unicode="&#xdc;" horiz-adv-x="649" 
d="M162 667v-409c0 -69 5 -99 22 -128c26 -42 83 -72 141 -72c57 0 114 30 140 72c17 29 22 59 22 128v409h75v-429c0 -72 -12 -117 -44 -158c-44 -57 -117 -92 -193 -92c-77 0 -151 35 -194 92c-32 41 -44 85 -44 158v429h75zM230 835c28 0 51 -23 51 -51s-23 -51 -51 -51
s-51 23 -51 51s23 51 51 51zM420 835c28 0 51 -23 51 -51s-23 -51 -51 -51s-51 23 -51 51s23 51 51 51z" />
    <glyph glyph-name="aacute" unicode="&#xe1;" horiz-adv-x="524" 
d="M385 415h71v-415h-71v58c-40 -49 -84 -70 -144 -70c-114 0 -199 94 -199 220s84 217 199 217c59 0 103 -21 144 -69v59zM250 360c-76 0 -135 -65 -135 -149c0 -92 57 -158 136 -158c83 0 139 64 139 157c0 88 -58 150 -140 150zM398 633l-135 -136l-44 25l105 144z" />
    <glyph glyph-name="agrave" unicode="&#xe0;" horiz-adv-x="524" 
d="M385 415h71v-415h-71v58c-40 -49 -84 -70 -144 -70c-114 0 -199 94 -199 220s84 217 199 217c59 0 103 -21 144 -69v59zM250 360c-76 0 -135 -65 -135 -149c0 -92 57 -158 136 -158c83 0 139 64 139 157c0 88 -58 150 -140 150zM112 633l74 33l105 -144l-44 -25z" />
    <glyph glyph-name="acircumflex" unicode="&#xe2;" horiz-adv-x="524" 
d="M385 415h71v-415h-71v58c-40 -49 -84 -70 -144 -70c-114 0 -199 94 -199 220s84 217 199 217c59 0 103 -21 144 -69v59zM250 360c-76 0 -135 -65 -135 -149c0 -92 57 -158 136 -158c83 0 139 64 139 157c0 88 -58 150 -140 150zM110 536l138 118l139 -118l-52 -39l-87 75
l-88 -75z" />
    <glyph glyph-name="adieresis" unicode="&#xe4;" horiz-adv-x="524" 
d="M385 415h71v-415h-71v58c-40 -49 -84 -70 -144 -70c-114 0 -199 94 -199 220s84 217 199 217c59 0 103 -21 144 -69v59zM250 360c-76 0 -135 -65 -135 -149c0 -92 57 -158 136 -158c83 0 139 64 139 157c0 88 -58 150 -140 150zM168 600c28 0 50 -22 50 -50
s-23 -50 -50 -50s-50 23 -50 50c0 28 22 50 50 50zM342 600c28 0 50 -22 50 -50s-23 -50 -50 -50s-50 23 -50 50c0 28 22 50 50 50z" />
    <glyph glyph-name="atilde" unicode="&#xe3;" horiz-adv-x="524" 
d="M385 415h71v-415h-71v58c-40 -49 -84 -70 -144 -70c-114 0 -199 94 -199 220s84 217 199 217c59 0 103 -21 144 -69v59zM250 360c-76 0 -135 -65 -135 -149c0 -92 57 -158 136 -158c83 0 139 64 139 157c0 88 -58 150 -140 150zM137 497l-43 34c32 53 54 70 90 70
c21 0 39 -5 71 -20c37 -17 46 -20 57 -20c19 0 32 11 49 42l42 -34c-21 -47 -53 -71 -94 -71c-18 0 -30 4 -68 21c-30 13 -48 19 -60 19c-19 0 -30 -10 -44 -41z" />
    <glyph glyph-name="aring" unicode="&#xe5;" horiz-adv-x="524" 
d="M385 415h71v-415h-71v58c-40 -49 -84 -70 -144 -70c-114 0 -199 94 -199 220s84 217 199 217c59 0 103 -21 144 -69v59zM250 360c-76 0 -135 -65 -135 -149c0 -92 57 -158 136 -158c83 0 139 64 139 157c0 88 -58 150 -140 150zM248 669c48 0 86 -38 86 -86
c0 -47 -39 -86 -86 -86s-86 39 -86 86s39 86 86 86zM248 625c-23 0 -42 -18 -42 -41s19 -42 42 -42s42 19 42 42c0 22 -19 41 -42 41z" />
    <glyph glyph-name="eacute" unicode="&#xe9;" horiz-adv-x="481" 
d="M440 193h-324c4 -85 57 -140 132 -140c55 0 88 23 128 87l60 -34c-46 -81 -107 -118 -192 -118c-120 0 -203 90 -203 220c0 127 84 216 202 216s197 -87 197 -217v-14zM121 253h244c-13 65 -61 107 -122 107c-60 0 -112 -45 -122 -107zM376 633l-135 -136l-44 25l105 144
z" />
    <glyph glyph-name="egrave" unicode="&#xe8;" horiz-adv-x="481" 
d="M440 193h-324c4 -85 57 -140 132 -140c55 0 88 23 128 87l60 -34c-46 -81 -107 -118 -192 -118c-120 0 -203 90 -203 220c0 127 84 216 202 216s197 -87 197 -217v-14zM121 253h244c-13 65 -61 107 -122 107c-60 0 -112 -45 -122 -107zM104 633l74 33l105 -144l-44 -25z
" />
    <glyph glyph-name="ecircumflex" unicode="&#xea;" horiz-adv-x="481" 
d="M440 193h-324c4 -85 57 -140 132 -140c55 0 88 23 128 87l60 -34c-46 -81 -107 -118 -192 -118c-120 0 -203 90 -203 220c0 127 84 216 202 216s197 -87 197 -217v-14zM121 253h244c-13 65 -61 107 -122 107c-60 0 -112 -45 -122 -107zM102 536l138 118l139 -118l-52 -39
l-87 75l-88 -75z" />
    <glyph glyph-name="edieresis" unicode="&#xeb;" horiz-adv-x="481" 
d="M440 193h-324c4 -85 57 -140 132 -140c55 0 88 23 128 87l60 -34c-46 -81 -107 -118 -192 -118c-120 0 -203 90 -203 220c0 127 84 216 202 216s197 -87 197 -217v-14zM121 253h244c-13 65 -61 107 -122 107c-60 0 -112 -45 -122 -107zM153 600c28 0 50 -22 50 -50
s-23 -50 -50 -50s-50 23 -50 50c0 28 22 50 50 50zM327 600c28 0 50 -22 50 -50s-23 -50 -50 -50s-50 23 -50 50c0 28 22 50 50 50z" />
    <glyph glyph-name="iacute" unicode="&#xed;" horiz-adv-x="229" 
d="M150 415v-415h-71v415h71zM251 633l-135 -136l-44 25l105 144z" />
    <glyph glyph-name="igrave" unicode="&#xec;" horiz-adv-x="229" 
d="M150 415v-415h-71v415h71zM-22 633l74 33l105 -144l-44 -25z" />
    <glyph glyph-name="icircumflex" unicode="&#xee;" horiz-adv-x="229" 
d="M150 415v-415h-71v415h71zM-24 536l138 118l139 -118l-52 -39l-87 75l-88 -75z" />
    <glyph glyph-name="idieresis" unicode="&#xef;" horiz-adv-x="229" 
d="M150 415v-415h-71v415h71zM44 600c28 0 50 -22 50 -50s-23 -50 -50 -50s-50 23 -50 50c0 28 22 50 50 50zM185 600c28 0 50 -22 50 -50s-23 -50 -50 -50s-50 23 -50 50c0 28 22 50 50 50z" />
    <glyph glyph-name="ntilde" unicode="&#xf1;" horiz-adv-x="469" 
d="M68 415h71v-50c36 44 68 60 120 60c50 0 96 -22 119 -57c16 -26 23 -57 23 -111v-257h-71v245c0 85 -23 116 -88 116c-72 0 -103 -46 -103 -154v-207h-71v415zM123 497l-43 34c32 53 54 70 90 70c21 0 39 -5 71 -20c37 -17 46 -20 57 -20c19 0 32 11 49 42l42 -34
c-21 -47 -53 -71 -94 -71c-18 0 -30 4 -68 21c-30 13 -48 19 -60 19c-19 0 -30 -10 -44 -41z" />
    <glyph glyph-name="oacute" unicode="&#xf3;" horiz-adv-x="521" 
d="M260 424c124 0 220 -95 220 -218s-96 -218 -220 -218c-122 0 -219 97 -219 218s97 218 219 218zM259 359c-84 0 -145 -65 -145 -153s62 -153 145 -153c86 0 148 64 148 153c0 90 -61 153 -148 153zM396 633l-135 -136l-44 25l105 144z" />
    <glyph glyph-name="ograve" unicode="&#xf2;" horiz-adv-x="521" 
d="M260 424c124 0 220 -95 220 -218s-96 -218 -220 -218c-122 0 -219 97 -219 218s97 218 219 218zM259 359c-84 0 -145 -65 -145 -153s62 -153 145 -153c86 0 148 64 148 153c0 90 -61 153 -148 153zM124 633l74 33l105 -144l-44 -25z" />
    <glyph glyph-name="ocircumflex" unicode="&#xf4;" horiz-adv-x="521" 
d="M260 424c124 0 220 -95 220 -218s-96 -218 -220 -218c-122 0 -219 97 -219 218s97 218 219 218zM259 359c-84 0 -145 -65 -145 -153s62 -153 145 -153c86 0 148 64 148 153c0 90 -61 153 -148 153zM122 536l138 118l139 -118l-52 -39l-87 75l-88 -75z" />
    <glyph glyph-name="odieresis" unicode="&#xf6;" horiz-adv-x="521" 
d="M260 424c124 0 220 -95 220 -218s-96 -218 -220 -218c-122 0 -219 97 -219 218s97 218 219 218zM259 359c-84 0 -145 -65 -145 -153s62 -153 145 -153c86 0 148 64 148 153c0 90 -61 153 -148 153zM173 600c28 0 50 -22 50 -50s-23 -50 -50 -50s-50 23 -50 50
c0 28 22 50 50 50zM347 600c28 0 50 -22 50 -50s-23 -50 -50 -50s-50 23 -50 50c0 28 22 50 50 50z" />
    <glyph glyph-name="otilde" unicode="&#xf5;" horiz-adv-x="521" 
d="M260 424c124 0 220 -95 220 -218s-96 -218 -220 -218c-122 0 -219 97 -219 218s97 218 219 218zM259 359c-84 0 -145 -65 -145 -153s62 -153 145 -153c86 0 148 64 148 153c0 90 -61 153 -148 153zM149 497l-43 34c32 53 54 70 90 70c21 0 39 -5 71 -20
c37 -17 46 -20 57 -20c19 0 32 11 49 42l42 -34c-21 -47 -53 -71 -94 -71c-18 0 -30 4 -68 21c-30 13 -48 19 -60 19c-19 0 -30 -10 -44 -41z" />
    <glyph glyph-name="uacute" unicode="&#xfa;" horiz-adv-x="465" 
d="M139 415v-242c0 -84 28 -120 94 -120c65 0 93 36 93 120v242h71v-250c0 -61 -10 -94 -38 -125c-30 -34 -75 -52 -126 -52c-52 0 -97 18 -127 52c-28 31 -38 64 -38 125v250h71zM369 633l-135 -136l-44 25l105 144z" />
    <glyph glyph-name="ugrave" unicode="&#xf9;" horiz-adv-x="465" 
d="M139 415v-242c0 -84 28 -120 94 -120c65 0 93 36 93 120v242h71v-250c0 -61 -10 -94 -38 -125c-30 -34 -75 -52 -126 -52c-52 0 -97 18 -127 52c-28 31 -38 64 -38 125v250h71zM96 633l74 33l105 -144l-44 -25z" />
    <glyph glyph-name="ucircumflex" unicode="&#xfb;" horiz-adv-x="465" 
d="M139 415v-242c0 -84 28 -120 94 -120c65 0 93 36 93 120v242h71v-250c0 -61 -10 -94 -38 -125c-30 -34 -75 -52 -126 -52c-52 0 -97 18 -127 52c-28 31 -38 64 -38 125v250h71zM94 536l138 118l139 -118l-52 -39l-87 75l-88 -75z" />
    <glyph glyph-name="udieresis" unicode="&#xfc;" horiz-adv-x="465" 
d="M139 415v-242c0 -84 28 -120 94 -120c65 0 93 36 93 120v242h71v-250c0 -61 -10 -94 -38 -125c-30 -34 -75 -52 -126 -52c-52 0 -97 18 -127 52c-28 31 -38 64 -38 125v250h71zM145 600c28 0 50 -22 50 -50s-23 -50 -50 -50s-50 23 -50 50c0 28 22 50 50 50zM319 600
c28 0 50 -22 50 -50s-23 -50 -50 -50s-50 23 -50 50c0 28 22 50 50 50z" />
    <glyph glyph-name="Aacute" unicode="&#xc1;" horiz-adv-x="620" 
d="M453 189h-285l-80 -189h-81l307 699l300 -699h-82zM424 258l-111 267l-114 -267h225zM468 837l-153 -117l-43 32l126 130z" />
    <glyph glyph-name="Agrave" unicode="&#xc0;" horiz-adv-x="620" 
d="M453 189h-285l-80 -189h-81l307 699l300 -699h-82zM424 258l-111 267l-114 -267h225zM159 837l70 45l127 -130l-43 -32z" />
    <glyph glyph-name="Atilde" unicode="&#xc3;" horiz-adv-x="620" 
d="M453 189h-285l-80 -189h-81l307 699l300 -699h-82zM424 258l-111 267l-114 -267h225zM199 733l-44 36c33 55 55 72 91 72c22 0 40 -5 72 -20c36 -18 45 -21 56 -21c19 0 32 11 49 42l43 -35c-21 -47 -53 -72 -95 -72c-19 0 -29 3 -68 21c-29 13 -48 19 -60 19
c-19 0 -29 -10 -44 -42z" />
    <glyph glyph-name="Edieresis" unicode="&#xcb;" horiz-adv-x="482" 
d="M432 598h-270v-199h263v-69h-263v-261h270v-69h-345v667h345v-69zM166 835c28 0 51 -23 51 -51s-23 -51 -51 -51s-51 23 -51 51s23 51 51 51zM356 835c28 0 51 -23 51 -51s-23 -51 -51 -51s-51 23 -51 51s23 51 51 51z" />
    <glyph glyph-name="Egrave" unicode="&#xc8;" horiz-adv-x="482" 
d="M432 598h-270v-199h263v-69h-263v-261h270v-69h-345v667h345v-69zM103 837l70 45l127 -130l-43 -32z" />
    <glyph glyph-name="Iacute" unicode="&#xcd;" horiz-adv-x="248" 
d="M162 667v-667h-75v667h75zM282 837l-153 -117l-43 32l126 130z" />
    <glyph glyph-name="Icircumflex" unicode="&#xce;" horiz-adv-x="248" 
d="M162 667v-667h-75v667h75zM-16 762l139 119l141 -119l-53 -41l-88 76l-87 -76z" />
    <glyph glyph-name="ydieresis" unicode="&#xff;" horiz-adv-x="460" 
d="M199 39l-191 376h82l147 -297l134 297h81l-307 -649h-80zM143 600c28 0 50 -22 50 -50s-23 -50 -50 -50s-50 23 -50 50c0 28 22 50 50 50zM317 600c28 0 50 -22 50 -50s-23 -50 -50 -50s-50 23 -50 50c0 28 22 50 50 50z" />
    <glyph glyph-name="Ydieresis" unicode="&#x178;" horiz-adv-x="528" 
d="M225 287l-218 380h86l170 -298l172 298h87l-222 -380v-287h-75v287zM169 835c28 0 51 -23 51 -51s-23 -51 -51 -51s-51 23 -51 51s23 51 51 51zM359 835c28 0 51 -23 51 -51s-23 -51 -51 -51s-51 23 -51 51s23 51 51 51z" />
    <glyph glyph-name="Ograve" unicode="&#xd2;" horiz-adv-x="794" 
d="M398 678c189 0 346 -156 346 -345s-157 -345 -346 -345c-192 0 -348 154 -348 344s157 346 348 346zM397 608c-151 0 -272 -122 -272 -276c0 -151 122 -274 272 -274s272 123 272 274c0 153 -121 276 -272 276zM245 837l70 45l127 -130l-43 -32z" />
    <glyph glyph-name="Otilde" unicode="&#xd5;" horiz-adv-x="794" 
d="M398 678c189 0 346 -156 346 -345s-157 -345 -346 -345c-192 0 -348 154 -348 344s157 346 348 346zM397 608c-151 0 -272 -122 -272 -276c0 -151 122 -274 272 -274s272 123 272 274c0 153 -121 276 -272 276zM286 733l-44 36c33 55 55 72 91 72c22 0 40 -5 72 -20
c36 -18 45 -21 56 -21c19 0 32 11 49 42l43 -35c-21 -47 -53 -72 -95 -72c-19 0 -29 3 -68 21c-29 13 -48 19 -60 19c-19 0 -29 -10 -44 -42z" />
    <glyph glyph-name="Scaron" unicode="&#x160;" horiz-adv-x="517" 
d="M443 574l-59 -38c-34 54 -63 72 -115 72c-62 0 -110 -44 -110 -103c0 -29 14 -53 42 -72c16 -10 33 -20 52 -28l21 -10l21 -9l21 -9c107 -47 151 -100 151 -183c0 -115 -92 -206 -210 -206c-107 0 -181 62 -207 172l72 20c18 -80 64 -122 134 -122c77 0 136 57 136 131
c0 41 -18 72 -55 95c-17 11 -36 21 -58 30l-20 10l-20 9l-20 9c-96 43 -135 90 -135 165c0 97 81 171 187 171c75 0 132 -35 172 -104zM419 840l-139 -119l-141 119l53 41l88 -75l87 75z" />
    <glyph glyph-name="Zcaron" unicode="&#x17d;" horiz-adv-x="534" 
d="M147 69h354v-69h-478l364 598h-317v69h440zM417 840l-139 -119l-141 119l53 41l88 -75l87 75z" />
    <glyph glyph-name="scaron" unicode="&#x161;" horiz-adv-x="350" 
d="M297 349l-59 -31c-15 28 -33 41 -57 41c-28 0 -51 -20 -51 -45s13 -38 67 -60c100 -42 125 -68 125 -131c0 -76 -62 -135 -141 -135c-70 0 -119 35 -146 106l63 26c24 -51 44 -67 84 -67c38 0 67 28 67 65c0 32 -15 47 -67 69c-96 42 -120 66 -120 121
c0 67 52 116 124 116c48 0 86 -25 111 -75zM327 615l-138 -118l-139 118l51 39l88 -75l88 75z" />
    <glyph glyph-name="zcaron" unicode="&#x17e;" horiz-adv-x="460" 
d="M152 66h286v-66h-430l301 349h-245v66h387zM389 615l-138 -118l-139 118l51 39l88 -75l88 75z" />
    <glyph glyph-name="Acircumflex" unicode="&#xc2;" horiz-adv-x="620" 
d="M453 189h-285l-80 -189h-81l307 699l300 -699h-82zM424 258l-111 267l-114 -267h225zM177 762l139 119l141 -119l-53 -41l-88 76l-87 -76z" />
    <glyph glyph-name="Ecircumflex" unicode="&#xca;" horiz-adv-x="482" 
d="M432 598h-270v-199h263v-69h-263v-261h270v-69h-345v667h345v-69zM120 762l139 119l141 -119l-53 -41l-88 76l-87 -76z" />
    <glyph glyph-name="Idieresis" unicode="&#xcf;" horiz-adv-x="248" 
d="M161 667v-667h-75v667h75zM52 835c28 0 51 -23 51 -51s-23 -51 -51 -51s-51 23 -51 51s23 51 51 51zM195 835c28 0 51 -23 51 -51s-23 -51 -51 -51s-51 23 -51 51s23 51 51 51z" />
    <glyph glyph-name="Igrave" unicode="&#xcc;" horiz-adv-x="248" 
d="M161 667v-667h-75v667h75zM-28 837l70 45l127 -130l-43 -32z" />
    <glyph glyph-name="Oacute" unicode="&#xd3;" horiz-adv-x="794" 
d="M398 678c189 0 346 -156 346 -345s-157 -345 -346 -345c-192 0 -348 154 -348 344s157 346 348 346zM397 608c-151 0 -272 -122 -272 -276c0 -151 122 -274 272 -274s272 123 272 274c0 153 -121 276 -272 276zM555 837l-153 -117l-43 32l126 130z" />
    <glyph glyph-name="Ocircumflex" unicode="&#xd4;" horiz-adv-x="794" 
d="M398 678c189 0 346 -156 346 -345s-157 -345 -346 -345c-192 0 -348 154 -348 344s157 346 348 346zM397 608c-151 0 -272 -122 -272 -276c0 -151 122 -274 272 -274s272 123 272 274c0 153 -121 276 -272 276zM257 762l139 119l141 -119l-53 -41l-88 76l-87 -76z" />
    <glyph glyph-name="Uacute" unicode="&#xda;" horiz-adv-x="649" 
d="M162 667v-409c0 -69 5 -99 22 -128c26 -42 83 -72 141 -72c57 0 114 30 140 72c17 29 22 59 22 128v409h75v-429c0 -72 -12 -117 -44 -158c-44 -57 -117 -92 -193 -92c-77 0 -151 35 -194 92c-32 41 -44 85 -44 158v429h75zM482 837l-153 -117l-43 32l126 130z" />
    <glyph glyph-name="Ucircumflex" unicode="&#xdb;" horiz-adv-x="649" 
d="M162 667v-409c0 -69 5 -99 22 -128c26 -42 83 -72 141 -72c57 0 114 30 140 72c17 29 22 59 22 128v409h75v-429c0 -72 -12 -117 -44 -158c-44 -57 -117 -92 -193 -92c-77 0 -151 35 -194 92c-32 41 -44 85 -44 158v429h75zM185 762l139 119l141 -119l-53 -41l-88 76
l-87 -76z" />
    <glyph glyph-name="Ugrave" unicode="&#xd9;" horiz-adv-x="649" 
d="M162 667v-409c0 -69 5 -99 22 -128c26 -42 83 -72 141 -72c57 0 114 30 140 72c17 29 22 59 22 128v409h75v-429c0 -72 -12 -117 -44 -158c-44 -57 -117 -92 -193 -92c-77 0 -151 35 -194 92c-32 41 -44 85 -44 158v429h75zM173 837l70 45l127 -130l-43 -32z" />
    <glyph glyph-name="exclam" unicode="!" horiz-adv-x="279" 
d="M139 89c28 0 50 -22 50 -49c0 -28 -22 -50 -50 -50c-27 0 -49 22 -49 50c0 27 22 49 49 49zM103 135v532h73v-532h-73z" />
    <glyph glyph-name="quotedbl" unicode="&#x22;" horiz-adv-x="329" 
d="M120 399h-54l-13 268h81zM263 399h-54l-13 268h80z" />
    <glyph glyph-name="numbersign" unicode="#" horiz-adv-x="600" 
d="M559 471v-60h-110l-18 -139h103v-60h-110l-27 -215l-62 9l25 206h-141l-27 -215l-62 9l25 206h-106v60h114l17 139h-106v60h114l24 201l63 -8l-24 -193h141l25 201l62 -8l-24 -193h104zM384 411h-140l-17 -139h140z" />
    <glyph glyph-name="dollar" unicode="$" 
d="M327 763v-91c61 -9 106 -41 140 -101l-58 -38c-28 44 -47 61 -82 69v-219c122 -54 164 -101 164 -188c0 -99 -64 -176 -164 -199v-97h-59v93c-99 5 -167 66 -191 170l72 20c17 -75 56 -115 119 -120v269c-114 47 -157 95 -157 174c0 87 61 153 157 168v90h59zM327 304
v-237c56 22 89 67 89 124c0 50 -25 82 -89 113zM268 409v194c-51 -13 -82 -51 -82 -100c0 -39 25 -68 82 -94z" />
    <glyph glyph-name="percent" unicode="%" horiz-adv-x="715" 
d="M182 674c82 0 148 -65 148 -146c0 -80 -67 -145 -148 -145c-82 0 -149 65 -149 145c0 81 66 146 149 146zM182 619c-50 0 -90 -40 -90 -90s40 -90 90 -90c49 0 89 40 89 90s-40 90 -89 90zM532 680l38 -22l-388 -671l-38 23zM534 284c82 0 148 -65 148 -146
c0 -80 -67 -145 -148 -145c-83 0 -149 65 -149 145c0 81 66 146 149 146zM534 229c-50 0 -90 -40 -90 -90s40 -90 90 -90c49 0 89 40 89 90s-40 90 -89 90z" />
    <glyph glyph-name="ampersand" unicode="&#x26;" horiz-adv-x="636" 
d="M328 380l140 -179c25 26 49 54 76 88l53 -45c-25 -34 -52 -66 -85 -99l114 -145h-93l-73 93c-80 -74 -145 -106 -212 -106c-111 0 -195 81 -195 189c0 61 31 115 93 164c17 13 33 24 79 54c-52 69 -67 101 -67 143c0 81 62 141 146 141c80 0 142 -58 142 -132
c0 -61 -24 -95 -118 -166zM416 148l-148 192c-12 -9 -1 -1 -36 -25c-79 -53 -106 -89 -106 -140c0 -64 56 -120 119 -120c48 0 100 28 171 93zM284 437l1 -3c80 59 90 71 90 112c0 39 -31 68 -73 68c-41 0 -73 -32 -73 -73c0 -28 4 -36 51 -100c0 0 1 0 2 -2z" />
    <glyph glyph-name="quoteright" unicode="&#x2019;" horiz-adv-x="252" 
d="M129 700l65 -24l-100 -225l-48 19z" />
    <glyph glyph-name="parenleft" unicode="(" horiz-adv-x="294" 
d="M166 733l64 -29c-51 -130 -75 -268 -75 -427s24 -297 75 -428l-64 -29c-26 56 -38 96 -54 171c-19 97 -29 192 -29 286c0 93 10 188 29 285c16 75 28 115 54 171z" />
    <glyph glyph-name="parenright" unicode=")" horiz-adv-x="294" 
d="M126 -180l-63 29c51 131 75 268 75 428c0 159 -24 296 -75 427l63 29c27 -56 39 -96 55 -171c19 -97 29 -192 29 -285c0 -94 -10 -189 -29 -286c-16 -75 -28 -115 -55 -171z" />
    <glyph glyph-name="asterisk" unicode="*" 
d="M255 605l-5 124h67l-5 -124l116 43l21 -63l-120 -34l77 -97l-54 -40l-69 104l-68 -104l-54 40l77 97l-120 34l21 63z" />
    <glyph glyph-name="plus" unicode="+" 
d="M48 310v61h205v201h61v-201h205v-61h-205v-202h-61v202h-205z" />
    <glyph glyph-name="comma" unicode="," horiz-adv-x="227" 
d="M107 98l65 -24l-100 -226l-48 19z" />
    <glyph glyph-name="hyphen" unicode="-" horiz-adv-x="181" 
d="M0 245h181v-64h-181v64z" />
    <glyph glyph-name="period" unicode="." horiz-adv-x="227" 
d="M113 89c28 0 50 -22 50 -50c0 -27 -22 -49 -50 -49c-27 0 -49 22 -49 49c0 28 22 50 49 50z" />
    <glyph glyph-name="slash" unicode="/" horiz-adv-x="485" 
d="M422 733l58 -26l-436 -887l-58 27z" />
    <glyph glyph-name="zero" unicode="0" 
d="M284 677c136 0 238 -147 238 -344c0 -195 -104 -344 -239 -344c-134 0 -238 150 -238 344s104 344 239 344zM283 609c-93 0 -165 -120 -165 -274c0 -159 70 -277 164 -277c95 0 167 120 167 276s-72 275 -166 275z" />
    <glyph glyph-name="one" unicode="1" 
d="M264 598h-110l39 69h146v-667h-75v598z" />
    <glyph glyph-name="two" unicode="2" 
d="M201 69h279v-69h-430l242 281c89 103 116 149 116 199c0 72 -58 129 -134 129c-79 0 -125 -47 -133 -137h-75c6 59 14 87 36 119c37 53 101 86 170 86c117 0 209 -86 209 -196c0 -75 -26 -121 -144 -256z" />
    <glyph glyph-name="three" unicode="3" 
d="M254 317v65c87 2 132 41 132 114c0 64 -48 113 -112 113c-69 0 -101 -29 -115 -107h-73c18 119 77 175 185 175c109 0 188 -76 188 -179c0 -65 -30 -117 -85 -148c61 -29 95 -87 95 -163c0 -113 -89 -198 -207 -198c-75 0 -143 37 -175 97c-14 25 -19 46 -22 87h72
c11 -74 57 -115 128 -115c73 0 131 58 131 133c0 82 -47 124 -142 126z" />
    <glyph glyph-name="four" unicode="4" 
d="M435 176h82v-67h-82v-109h-74v109h-342l416 594v-527zM361 176v301l-211 -301h211z" />
    <glyph glyph-name="five" unicode="5" 
d="M477 598h-213l-44 -143c16 3 24 4 38 4c129 0 224 -98 224 -232c0 -136 -105 -238 -245 -238c-87 0 -155 40 -204 119l59 42c40 -63 87 -92 151 -92c94 0 166 74 166 171c0 92 -73 164 -165 164c-42 0 -75 -11 -129 -45l97 319h265v-69z" />
    <glyph glyph-name="six" unicode="6" 
d="M335 684l56 -42l-154 -214c25 8 40 10 60 10c120 0 215 -97 215 -221c0 -126 -103 -228 -229 -228c-127 0 -230 102 -230 228c0 48 20 103 55 151zM283 372c-87 0 -157 -70 -157 -157s70 -157 157 -157c86 0 156 70 156 157s-70 157 -156 157z" />
    <glyph glyph-name="seven" unicode="7" 
d="M437 598h-364v69h491l-447 -683l-58 39z" />
    <glyph glyph-name="eight" unicode="8" 
d="M184 347c-52 31 -82 85 -82 146c0 105 80 184 188 184c105 0 186 -79 186 -183c0 -60 -33 -118 -84 -147c61 -30 97 -89 97 -161c0 -114 -85 -197 -202 -197c-116 0 -202 84 -202 197c0 72 34 127 99 161zM289 609c-64 0 -116 -52 -116 -116s52 -116 116 -116
s116 52 116 116s-52 116 -116 116zM287 313c-71 0 -129 -57 -129 -127c0 -71 58 -128 129 -128s129 57 129 128c0 70 -58 127 -129 127z" />
    <glyph glyph-name="nine" unicode="9" 
d="M231 -16l-55 41l153 214c-25 -7 -39 -9 -59 -9c-121 0 -216 97 -216 220c0 125 103 227 230 227s230 -102 230 -227c0 -48 -19 -101 -55 -151zM284 609c-87 0 -157 -70 -157 -156c0 -87 70 -157 157 -157s157 70 157 157c0 86 -70 156 -157 156z" />
    <glyph glyph-name="colon" unicode=":" horiz-adv-x="227" 
d="M113 89c28 0 50 -22 50 -50c0 -27 -22 -49 -50 -49c-27 0 -49 22 -49 49c0 28 22 50 49 50zM113 424c27 0 49 -22 49 -49s-22 -49 -49 -49s-49 22 -49 49s22 49 49 49z" />
    <glyph glyph-name="semicolon" unicode=";" horiz-adv-x="227" 
d="M107 98l65 -24l-100 -226l-48 19zM129 424c27 0 49 -22 49 -49s-22 -49 -49 -49s-49 22 -49 49s22 49 49 49z" />
    <glyph glyph-name="less" unicode="&#x3c;" horiz-adv-x="500" 
d="M466 573v-75l-353 -161l353 -162v-74l-433 203v65z" />
    <glyph glyph-name="equal" unicode="=" 
d="M48 373v58h471v-58h-471zM48 249v58h471v-58h-471z" />
    <glyph glyph-name="greater" unicode="&#x3e;" horiz-adv-x="500" 
d="M34 101v74l353 162l-353 161v75l433 -204v-65z" />
    <glyph glyph-name="question" unicode="?" horiz-adv-x="436" 
d="M289 286h72c-2 -94 -58 -153 -143 -153c-82 0 -144 62 -144 144c0 67 37 108 121 135c63 20 66 22 83 35c18 14 29 39 29 67c0 54 -38 92 -91 92c-49 0 -88 -37 -88 -85c0 -14 1 -22 6 -44h-73c-4 25 -4 32 -4 50c0 83 71 148 163 148c91 0 160 -69 160 -160
c0 -53 -24 -103 -63 -129c-23 -16 -37 -21 -103 -41c-47 -13 -68 -36 -68 -73c0 -41 31 -72 72 -72c44 0 67 28 71 86zM218 89c28 0 50 -22 50 -49c0 -28 -22 -50 -50 -50c-27 0 -49 22 -49 50c0 27 22 49 49 49z" />
    <glyph glyph-name="at" unicode="@" horiz-adv-x="720" 
d="M542 508l-27 -227c-3 -18 -3 -25 -3 -48c0 -18 10 -29 26 -29c48 0 92 83 92 171c0 144 -107 244 -260 244c-157 0 -280 -126 -280 -287c0 -167 121 -283 296 -283c82 0 127 11 219 55l21 -58c-86 -42 -151 -58 -240 -58c-211 0 -361 143 -361 345c0 195 151 346 347 346
c182 0 318 -128 318 -299c0 -129 -74 -239 -162 -239c-34 0 -59 20 -71 58c-41 -44 -73 -60 -123 -60c-97 0 -168 77 -168 181c0 114 80 196 190 196c48 0 84 -18 115 -56l5 48h66zM358 451c-66 0 -116 -58 -116 -133c0 -66 40 -114 96 -114c64 0 119 66 119 143
c0 61 -41 104 -99 104z" />
    <glyph glyph-name="A" unicode="A" horiz-adv-x="620" 
d="M453 189h-285l-80 -189h-81l307 699l300 -699h-82zM424 258l-111 267l-114 -267h225z" />
    <glyph glyph-name="B" unicode="B" horiz-adv-x="530" 
d="M87 0v667h121c70 0 116 -13 151 -42c39 -31 62 -84 62 -138c0 -58 -20 -97 -66 -130c79 -23 126 -86 126 -169c0 -57 -24 -108 -67 -143c-41 -33 -85 -45 -161 -45h-166zM162 373h56c88 0 130 37 130 114c0 74 -43 111 -128 111h-58v-225zM162 69h85c62 0 89 7 117 29
c27 23 43 56 43 93c0 40 -23 80 -56 98c-26 15 -60 21 -114 21h-75v-241z" />
    <glyph glyph-name="C" unicode="C" horiz-adv-x="646" 
d="M596 612v-92c-65 62 -126 88 -203 88c-145 0 -268 -126 -268 -275c0 -152 121 -275 270 -275c74 0 137 27 201 87v-92c-65 -44 -128 -65 -199 -65c-191 0 -347 155 -347 343c0 190 157 347 348 347c75 0 130 -18 198 -66z" />
    <glyph glyph-name="D" unicode="D" horiz-adv-x="633" 
d="M87 0v667h137c108 0 181 -23 245 -77c75 -62 115 -152 115 -258c0 -103 -41 -192 -117 -255c-66 -55 -136 -77 -244 -77h-136zM162 69h65c170 0 282 105 282 264c0 161 -111 265 -282 265h-65v-529z" />
    <glyph glyph-name="E" unicode="E" horiz-adv-x="482" 
d="M432 598h-270v-199h263v-69h-263v-261h270v-69h-345v667h345v-69z" />
    <glyph glyph-name="F" unicode="F" horiz-adv-x="433" 
d="M390 598h-228v-199h221v-69h-221v-330h-75v667h303v-69z" />
    <glyph glyph-name="G" unicode="G" horiz-adv-x="758" 
d="M430 335h278v-17c0 -95 -17 -154 -62 -210c-60 -75 -155 -120 -254 -120c-187 0 -342 156 -342 344c0 193 156 346 352 346c109 0 192 -44 277 -145l-55 -50c-65 86 -134 125 -222 125c-155 0 -277 -122 -277 -277c0 -150 123 -273 271 -273c80 0 165 47 205 114
c17 27 24 53 27 94h-198v69z" />
    <glyph glyph-name="H" unicode="H" horiz-adv-x="663" 
d="M162 395h340v272h75v-667h-75v326h-340v-326h-75v667h75v-272z" />
    <glyph glyph-name="I" unicode="I" horiz-adv-x="248" 
d="M162 667v-667h-75v667h75z" />
    <glyph glyph-name="J" unicode="J" horiz-adv-x="307" 
d="M220 667v-539c0 -84 -13 -126 -50 -159c-25 -24 -61 -38 -95 -38c-44 0 -80 15 -122 49l41 58c33 -29 49 -37 77 -37c52 0 74 39 74 127v539h75z" />
    <glyph glyph-name="K" unicode="K" horiz-adv-x="569" 
d="M162 381l284 286h100l-313 -311l323 -356h-102l-273 306l-19 -19v-287h-75v667h75v-286z" />
    <glyph glyph-name="L" unicode="L" horiz-adv-x="358" 
d="M162 667v-598h183v-69h-258v667h75z" />
    <glyph glyph-name="M" unicode="M" horiz-adv-x="863" 
d="M63 0l110 704l256 -563l262 564l103 -705h-76l-62 464l-227 -492l-224 492l-66 -464h-76z" />
    <glyph glyph-name="N" unicode="N" horiz-adv-x="767" 
d="M87 0v695l519 -545v517h75v-697l-519 544v-514h-75z" />
    <glyph glyph-name="O" unicode="O" horiz-adv-x="794" 
d="M398 678c189 0 346 -156 346 -345s-157 -345 -346 -345c-192 0 -348 154 -348 344s157 346 348 346zM397 608c-151 0 -272 -122 -272 -276c0 -151 122 -274 272 -274s272 123 272 274c0 153 -121 276 -272 276z" />
    <glyph glyph-name="P" unicode="P" horiz-adv-x="457" 
d="M162 292v-292h-75v667h121c82 0 129 -13 168 -47c39 -33 62 -85 62 -141c0 -116 -81 -187 -211 -187h-65zM162 360h60c92 0 143 44 143 121s-50 117 -148 117h-55v-238z" />
    <glyph glyph-name="Q" unicode="Q" horiz-adv-x="794" 
d="M748 -7h-95l-56 60c-59 -42 -129 -65 -201 -65c-191 0 -346 154 -346 344c0 191 156 346 348 346c190 0 346 -157 346 -349c0 -90 -27 -157 -96 -234zM481 268l115 -120c53 59 73 109 73 185c0 153 -121 275 -272 275c-152 0 -272 -121 -272 -276
c0 -153 120 -274 270 -274c55 0 106 16 150 48l-161 162h97z" />
    <glyph glyph-name="R" unicode="R" horiz-adv-x="502" 
d="M261 298l212 -298h-91l-201 292h-19v-292h-75v667h108c76 0 122 -10 160 -36c45 -31 74 -88 74 -148c0 -104 -65 -175 -168 -185zM162 358h47c96 0 147 43 147 125c0 75 -52 115 -150 115h-44v-240z" />
    <glyph glyph-name="S" unicode="S" horiz-adv-x="517" 
d="M443 574l-59 -38c-34 54 -63 72 -115 72c-62 0 -110 -44 -110 -103c0 -29 14 -53 42 -72c16 -10 33 -20 52 -28l21 -10l21 -9l21 -9c107 -47 151 -100 151 -183c0 -115 -92 -206 -210 -206c-107 0 -181 62 -207 172l72 20c18 -80 64 -122 134 -122c77 0 136 57 136 131
c0 41 -18 72 -55 95c-17 11 -36 21 -58 30l-20 10l-20 9l-20 9c-96 43 -135 90 -135 165c0 97 81 171 187 171c75 0 132 -35 172 -104z" />
    <glyph glyph-name="T" unicode="T" horiz-adv-x="425" 
d="M249 598v-598h-75v598h-161v69h398v-69h-162z" />
    <glyph glyph-name="U" unicode="U" horiz-adv-x="649" 
d="M162 667v-409c0 -69 5 -99 22 -128c26 -42 83 -72 141 -72c57 0 114 30 140 72c17 29 22 59 22 128v409h75v-429c0 -72 -12 -117 -44 -158c-44 -57 -117 -92 -193 -92c-77 0 -151 35 -194 92c-32 41 -44 85 -44 158v429h75z" />
    <glyph glyph-name="V" unicode="V" horiz-adv-x="554" 
d="M89 667l189 -508l189 508h81l-271 -706l-270 706h82z" />
    <glyph glyph-name="W" unicode="W" horiz-adv-x="955" 
d="M88 667l178 -500l209 534l197 -534l196 500h81l-279 -701l-197 533l-210 -533l-256 701h81z" />
    <glyph glyph-name="X" unicode="X" horiz-adv-x="502" 
d="M210 345l-180 322h85l138 -251l141 251h85l-184 -322l193 -345h-83l-153 274l-155 -274h-84z" />
    <glyph glyph-name="Y" unicode="Y" horiz-adv-x="528" 
d="M225 287l-218 380h86l170 -298l172 298h87l-222 -380v-287h-75v287z" />
    <glyph glyph-name="Z" unicode="Z" horiz-adv-x="534" 
d="M147 69h354v-69h-478l364 598h-317v69h440z" />
    <glyph glyph-name="bracketleft" unicode="[" horiz-adv-x="291" 
d="M153 662v-771h95v-67h-168v905h168v-67h-95z" />
    <glyph glyph-name="backslash" unicode="\" horiz-adv-x="485" 
d="M63 733l436 -886l-58 -27l-436 887z" />
    <glyph glyph-name="bracketright" unicode="]" horiz-adv-x="291" 
d="M138 -109v771h-95v67h168v-905h-168v67h95z" />
    <glyph glyph-name="asciicircum" unicode="^" horiz-adv-x="500" 
d="M105 364h-81l176 305h99l176 -305h-81l-145 245z" />
    <glyph glyph-name="underscore" unicode="_" horiz-adv-x="500" 
d="M0 -64h500v-69h-500v69z" />
    <glyph glyph-name="quoteleft" unicode="&#x2018;" horiz-adv-x="261" 
d="M122 451l-65 24l100 225l48 -19z" />
    <glyph glyph-name="a" unicode="a" horiz-adv-x="524" 
d="M385 415h71v-415h-71v58c-40 -49 -84 -70 -144 -70c-114 0 -199 94 -199 220s84 217 199 217c59 0 103 -21 144 -69v59zM250 360c-76 0 -135 -65 -135 -149c0 -92 57 -158 136 -158c83 0 139 64 139 157c0 88 -58 150 -140 150z" />
    <glyph glyph-name="b" unicode="b" horiz-adv-x="524" 
d="M139 729v-373c41 47 85 68 144 68c115 0 199 -91 199 -216c0 -126 -85 -220 -198 -220c-60 0 -106 22 -145 69v-57h-71v729h71zM274 359c-82 0 -140 -62 -140 -149c0 -94 56 -157 139 -157c79 0 136 65 136 157c0 84 -59 149 -135 149z" />
    <glyph glyph-name="c" unicode="c" horiz-adv-x="435" 
d="M391 385v-94c-46 50 -80 68 -131 68c-83 0 -146 -66 -146 -153c0 -86 63 -153 143 -153c55 0 89 18 137 72v-94c-51 -32 -85 -43 -133 -43c-124 0 -220 95 -220 217c0 124 96 219 222 219c48 0 85 -11 128 -39z" />
    <glyph glyph-name="d" unicode="d" horiz-adv-x="524" 
d="M385 729h71v-729h-72v57c-34 -45 -83 -69 -143 -69c-114 0 -199 94 -199 220c0 125 84 216 199 216c58 0 103 -21 144 -68v373zM250 359c-76 0 -135 -65 -135 -149c0 -92 57 -157 136 -157c84 0 138 62 138 157c0 89 -56 149 -139 149z" />
    <glyph glyph-name="e" unicode="e" horiz-adv-x="481" 
d="M440 193h-324c4 -85 57 -140 132 -140c55 0 88 23 128 87l60 -34c-46 -81 -107 -118 -192 -118c-120 0 -203 90 -203 220c0 127 84 216 202 216s197 -87 197 -217v-14zM121 253h244c-13 65 -61 107 -122 107c-60 0 -112 -45 -122 -107z" />
    <glyph glyph-name="f" unicode="f" horiz-adv-x="239" 
d="M139 349v-349h-71v349h-39v66h39v177c0 100 40 149 121 149c21 0 31 -2 55 -9v-72c-22 8 -32 10 -48 10c-45 0 -57 -20 -57 -95v-160h105v-66h-105z" />
    <glyph glyph-name="g" unicode="g" horiz-adv-x="525" 
d="M456 415v-406c0 -82 -10 -122 -40 -163c-36 -49 -96 -77 -165 -77c-120 0 -198 73 -202 190h70c7 -81 53 -125 133 -125c87 0 133 56 133 163v61c-40 -46 -90 -69 -146 -69c-113 0 -198 93 -198 217c0 126 85 219 201 219c58 0 103 -22 143 -69v59h71zM250 360
c-79 0 -136 -64 -136 -153c0 -90 56 -153 136 -153s138 64 138 153c0 90 -57 153 -138 153z" />
    <glyph glyph-name="h" unicode="h" horiz-adv-x="469" 
d="M68 729h71v-363c36 42 69 58 120 58c49 0 94 -22 118 -57c17 -25 24 -56 24 -110v-257h-71v252c0 76 -25 107 -86 107c-74 0 -105 -45 -105 -152v-207h-71v729z" />
    <glyph glyph-name="i" unicode="i" horiz-adv-x="208" 
d="M139 415v-415h-71v415h71zM104 623c28 0 51 -23 51 -51s-23 -51 -51 -51s-51 23 -51 51s23 51 51 51z" />
    <glyph glyph-name="j" unicode="j" horiz-adv-x="208" 
d="M139 415v-649h-71v649h71zM104 623c28 0 51 -23 51 -51s-23 -51 -51 -51s-51 23 -51 51s23 51 51 51z" />
    <glyph glyph-name="k" unicode="k" horiz-adv-x="421" 
d="M139 729v-467l150 153h95l-177 -177l211 -238h-94l-167 189l-18 -18v-171h-71v729h71z" />
    <glyph glyph-name="l" unicode="l" horiz-adv-x="207" 
d="M139 729v-729h-71v729h71z" />
    <glyph glyph-name="m" unicode="m" horiz-adv-x="680" 
d="M68 415h71v-45c29 39 59 55 103 55c50 0 90 -24 114 -67c25 44 68 67 123 67c90 0 136 -55 136 -162v-263h-71v252c0 76 -23 108 -76 108c-61 0 -91 -43 -91 -130v-230h-71v246c0 75 -26 114 -75 114c-62 0 -92 -44 -92 -134v-226h-71v415z" />
    <glyph glyph-name="n" unicode="n" horiz-adv-x="469" 
d="M68 415h71v-50c36 44 68 60 120 60c50 0 96 -22 119 -57c16 -26 23 -57 23 -111v-257h-71v245c0 85 -23 116 -88 116c-72 0 -103 -46 -103 -154v-207h-71v415z" />
    <glyph glyph-name="o" unicode="o" horiz-adv-x="521" 
d="M260 424c124 0 220 -95 220 -218s-96 -218 -220 -218c-122 0 -219 97 -219 218s97 218 219 218zM259 359c-84 0 -145 -65 -145 -153s62 -153 145 -153c86 0 148 64 148 153c0 90 -61 153 -148 153z" />
    <glyph glyph-name="p" unicode="p" horiz-adv-x="524" 
d="M139 -234h-71v649h71v-59c40 48 85 69 145 69c116 0 199 -93 199 -224c0 -122 -86 -213 -200 -213c-58 0 -102 21 -144 70v-292zM274 360c-82 0 -139 -64 -139 -157c0 -87 59 -150 140 -150c76 0 135 66 135 149c0 93 -57 158 -136 158z" />
    <glyph glyph-name="q" unicode="q" horiz-adv-x="524" 
d="M385 -234v292c-41 -48 -86 -70 -144 -70c-114 0 -199 91 -199 213c0 131 83 224 198 224c61 0 110 -23 144 -69v59h72v-649h-71zM251 360c-79 0 -136 -65 -136 -158c0 -83 59 -149 135 -149c83 0 139 61 139 150c0 95 -54 157 -138 157z" />
    <glyph glyph-name="r" unicode="r" horiz-adv-x="295" 
d="M68 415h71v-45c37 44 55 55 94 55c23 0 38 -4 63 -18l-33 -64c-18 11 -27 14 -42 14c-58 0 -82 -41 -82 -138v-219h-71v415z" />
    <glyph glyph-name="s" unicode="s" horiz-adv-x="350" 
d="M297 349l-59 -31c-15 28 -33 41 -57 41c-28 0 -51 -20 -51 -45s13 -38 67 -60c100 -42 125 -68 125 -131c0 -76 -62 -135 -141 -135c-70 0 -119 35 -146 106l63 26c24 -51 44 -67 84 -67c38 0 67 28 67 65c0 32 -15 47 -67 69c-96 42 -120 66 -120 121
c0 67 52 116 124 116c48 0 86 -25 111 -75z" />
    <glyph glyph-name="t" unicode="t" horiz-adv-x="214" 
d="M139 349v-349h-71v349h-43v66h43v150h71v-150h74v-66h-74z" />
    <glyph glyph-name="u" unicode="u" horiz-adv-x="465" 
d="M139 415v-242c0 -84 28 -120 94 -120c65 0 93 36 93 120v242h71v-250c0 -61 -10 -94 -38 -125c-30 -34 -75 -52 -126 -52c-52 0 -97 18 -127 52c-28 31 -38 64 -38 125v250h71z" />
    <glyph glyph-name="v" unicode="v" horiz-adv-x="423" 
d="M88 415l124 -279l123 279h80l-203 -443l-204 443h80z" />
    <glyph glyph-name="w" unicode="w" horiz-adv-x="682" 
d="M88 415l123 -281l130 313l129 -313l124 281h80l-206 -444l-128 309l-128 -309l-204 444h80z" />
    <glyph glyph-name="x" unicode="x" horiz-adv-x="454" 
d="M185 221l-151 194h87l108 -141l109 141h88l-152 -194l172 -221h-86l-131 169l-132 -169h-89z" />
    <glyph glyph-name="y" unicode="y" horiz-adv-x="460" 
d="M199 39l-191 376h82l147 -297l134 297h81l-307 -649h-80z" />
    <glyph glyph-name="z" unicode="z" horiz-adv-x="460" 
d="M152 66h286v-66h-430l301 349h-245v66h387z" />
    <glyph glyph-name="braceleft" unicode="{" horiz-adv-x="291" 
d="M181 580v-187c0 -65 -14 -92 -61 -117c45 -25 61 -55 61 -118v-181c0 -78 11 -90 79 -90v-62c-12 -1 -22 -1 -27 -1c-90 0 -125 41 -125 148v184c0 57 -15 82 -57 93v59c41 11 57 37 57 89v195c0 98 37 138 126 138c5 0 14 0 26 -1v-62h-7c-60 0 -72 -15 -72 -87z" />
    <glyph glyph-name="bar" unicode="|" horiz-adv-x="500" 
d="M213 667h75v-834h-75v834z" />
    <glyph glyph-name="braceright" unicode="}" horiz-adv-x="291" 
d="M110 -26v187c0 65 14 92 61 116c-45 25 -61 55 -61 118v181c0 79 -11 91 -79 90v63h27c90 0 125 -41 125 -147v-184c0 -57 15 -82 57 -94v-59c-41 -10 -57 -36 -57 -88v-196c0 -97 -37 -137 -126 -137h-26v63h7c60 0 72 15 72 87z" />
    <glyph glyph-name="asciitilde" unicode="~" horiz-adv-x="667" 
d="M136 582l-43 29c42 85 78 115 137 115c27 0 57 -9 112 -34c60 -28 73 -32 98 -32c37 0 59 17 89 68l45 -26c-38 -77 -83 -113 -141 -113c-16 0 -46 7 -74 17c-8 4 14 -6 -69 31c-26 12 -49 18 -65 18c-35 0 -61 -21 -89 -73z" />
    <glyph glyph-name="exclamdown" unicode="&#xa1;" horiz-adv-x="277" 
d="M139 520c27 0 49 -22 49 -49s-22 -49 -49 -49s-49 22 -49 49s22 49 49 49zM175 375v-531h-72v531h72z" />
    <glyph glyph-name="cent" unicode="&#xa2;" 
d="M342 650v-93c41 -4 68 -14 106 -38v-94c-39 43 -65 60 -106 67v-304c41 7 69 25 109 71v-94c-43 -28 -74 -40 -109 -42v-99h-58v100c-107 14 -186 105 -186 215c0 111 79 203 186 217v94h58zM284 189v301c-66 -13 -113 -76 -113 -150c0 -75 46 -137 113 -151z" />
    <glyph glyph-name="sterling" unicode="&#xa3;" 
d="M261 293h126v-57h-106c5 -18 6 -26 6 -40c0 -29 -10 -59 -29 -95c33 -11 43 -15 58 -20c44 -16 58 -20 75 -20c31 0 51 17 80 67l60 -36c-35 -70 -79 -103 -136 -103c-28 0 -58 7 -111 26c-57 21 -73 25 -94 25c-32 0 -54 -14 -80 -53l-57 39c38 57 76 82 129 85
c21 32 29 54 29 84c0 13 -2 22 -7 41h-112v57h88c-17 33 -24 46 -29 57c-36 68 -44 95 -44 140c0 104 87 186 197 186c114 0 189 -76 194 -198l-73 -20c-3 38 -5 52 -11 72c-15 45 -57 74 -108 74c-71 0 -124 -51 -124 -119c0 -35 12 -67 54 -144c18 -31 19 -34 25 -48z" />
    <glyph glyph-name="fraction" unicode="&#x2044;" horiz-adv-x="140" 
d="M245 680l39 -21l-388 -672l-39 23z" />
    <glyph glyph-name="yen" unicode="&#xa5;" 
d="M375 383l-50 -87h192v-57h-198v-239h-75v239h-194v57h188l-49 87h-139v57h106l-130 227h86l170 -298l172 298h87l-133 -227h109v-57h-142z" />
    <glyph glyph-name="florin" unicode="&#x192;" 
d="M331 403h107l-10 -60h-108l-52 -288c-20 -108 -36 -147 -74 -178c-31 -26 -78 -42 -124 -42c-11 0 -30 2 -51 4l14 67c11 -1 25 -2 30 -2c80 0 111 36 132 154l52 285h-72l9 60h74l27 150c18 102 63 147 146 147c20 0 33 -2 60 -11l-14 -67c-20 9 -29 11 -47 11
c-43 0 -60 -22 -74 -100z" />
    <glyph glyph-name="section" unicode="&#xa7;" 
d="M103 2h72c5 -83 35 -117 102 -117c63 0 100 38 100 102c0 36 -14 63 -43 81c-21 13 -20 12 -90 40c-106 41 -143 85 -143 170c0 74 34 128 100 157c-59 34 -84 74 -84 136c0 95 76 166 177 166c61 0 118 -31 143 -78c16 -29 24 -63 26 -111h-70c-3 81 -35 121 -99 121
c-63 0 -105 -42 -105 -104c0 -30 11 -53 34 -70c21 -15 24 -16 88 -38c114 -40 155 -87 155 -178c0 -70 -29 -115 -100 -157c62 -36 84 -72 84 -139c0 -100 -70 -167 -175 -167c-110 0 -167 61 -172 186zM283 389c-60 0 -108 -49 -108 -109s49 -109 108 -109
c60 0 108 49 108 109s-48 109 -108 109z" />
    <glyph glyph-name="currency" unicode="&#xa4;" horiz-adv-x="667" 
d="M55 123l95 94c-39 55 -52 92 -52 142c0 53 12 88 50 142l-95 95l41 42l96 -95c61 41 91 52 145 52c52 0 84 -12 142 -51l95 94l41 -42l-94 -94c38 -57 50 -91 50 -143c0 -51 -11 -81 -50 -140l95 -96l-40 -41l-96 95c-55 -38 -90 -51 -144 -51c-49 0 -84 12 -143 50
l-95 -94zM334 529c-93 0 -168 -76 -168 -169s76 -168 168 -168s168 75 168 168s-75 169 -168 169z" />
    <glyph glyph-name="quotesingle" unicode="'" horiz-adv-x="187" 
d="M120 399h-54l-13 268h81z" />
    <glyph glyph-name="quotedblleft" unicode="&#x201c;" horiz-adv-x="408" 
d="M269 451l-66 24l101 225l48 -19zM122 451l-65 24l100 225l48 -19z" />
    <glyph glyph-name="guillemotleft" unicode="&#xab;" horiz-adv-x="431" 
d="M262 213l119 -147l-46 -37l-149 184l149 187l46 -36zM114 213l119 -147l-47 -37l-149 184l149 187l47 -36z" />
    <glyph glyph-name="guilsinglleft" unicode="&#x2039;" horiz-adv-x="282" 
d="M114 213l119 -147l-47 -37l-149 184l149 187l47 -36z" />
    <glyph glyph-name="guilsinglright" unicode="&#x203a;" horiz-adv-x="282" 
d="M169 213l-119 151l47 36l149 -187l-150 -184l-46 37z" />
    <glyph glyph-name="uniFB01" unicode="&#xfb01;" horiz-adv-x="447" 
d="M139 349v-349h-71v349h-39v66h39v177c0 100 40 149 121 149c21 0 31 -2 55 -9v-72c-22 8 -32 10 -48 10c-45 0 -57 -20 -57 -95v-160h105v-66h-105zM379 415v-415h-71v415h71zM343 623c28 0 51 -23 51 -51s-23 -51 -51 -51s-51 23 -51 51s23 51 51 51z" />
    <glyph glyph-name="uniFB02" unicode="&#xfb02;" horiz-adv-x="447" 
d="M139 349v-349h-71v349h-39v66h39v177c0 100 40 149 121 149c21 0 31 -2 55 -9v-72c-22 8 -32 10 -48 10c-45 0 -57 -20 -57 -95v-160h105v-66h-105zM379 729v-729h-71v729h71z" />
    <glyph glyph-name="endash" unicode="&#x2013;" 
d="M117 245h333v-64h-333v64z" />
    <glyph glyph-name="dagger" unicode="&#x2020;" 
d="M247 729h72v-164h148v-69h-148v-672h-72v672h-147v69h147v164z" />
    <glyph glyph-name="daggerdbl" unicode="&#x2021;" 
d="M247 729h73v-164h147v-69h-147v-302h147v-69h-147v-301h-73v301h-147v69h147v302h-147v69h147v164z" />
    <glyph glyph-name="periodcentered" unicode="&#xb7;" horiz-adv-x="225" 
d="M112 263c28 0 50 -22 50 -50c0 -27 -22 -49 -50 -49c-27 0 -49 22 -49 49c0 28 22 50 49 50z" />
    <glyph glyph-name="paragraph" unicode="&#xb6;" 
d="M212 -99v427h-15c-92 0 -156 69 -156 167c0 111 69 172 193 172h287l-33 -58h-44v-708h-63v708h-106v-708h-63z" />
    <glyph glyph-name="bullet" unicode="&#x2022;" horiz-adv-x="667" 
d="M336 477c75 0 137 -62 137 -138c0 -77 -62 -139 -137 -139c-78 0 -140 62 -140 139c0 76 62 138 140 138z" />
    <glyph glyph-name="quotesinglbase" unicode="&#x201a;" horiz-adv-x="252" 
d="M129 100l65 -24l-100 -225l-48 19z" />
    <glyph glyph-name="quotedblbase" unicode="&#x201e;" horiz-adv-x="408" 
d="M140 98l65 -24l-100 -226l-48 19zM286 98l66 -24l-101 -226l-48 19z" />
    <glyph glyph-name="quotedblright" unicode="&#x201d;" horiz-adv-x="408" 
d="M140 700l65 -24l-100 -225l-48 19zM286 700l66 -24l-101 -225l-48 19z" />
    <glyph glyph-name="guillemotright" unicode="&#xbb;" horiz-adv-x="431" 
d="M169 213l-119 151l47 36l149 -187l-149 -184l-47 37zM318 213l-119 151l46 36l149 -187l-149 -184l-46 37z" />
    <glyph glyph-name="ellipsis" unicode="&#x2026;" horiz-adv-x="746" 
d="M124 88c27 0 49 -22 49 -49s-22 -49 -49 -49s-49 22 -49 49s22 49 49 49zM373 88c27 0 49 -22 49 -49s-22 -49 -49 -49s-49 22 -49 49s22 49 49 49zM621 88c27 0 49 -22 49 -49s-22 -49 -49 -49s-49 22 -49 49s22 49 49 49z" />
    <glyph glyph-name="perthousand" unicode="&#x2030;" horiz-adv-x="1078" 
d="M182 674c82 0 148 -65 148 -146c0 -80 -66 -145 -148 -145s-149 65 -149 145c0 81 66 146 149 146zM182 619c-50 0 -90 -40 -90 -90s40 -90 90 -90c49 0 89 40 89 90s-40 90 -89 90zM532 680l39 -22l-389 -671l-38 23zM534 284c82 0 148 -65 148 -146
c0 -80 -67 -145 -148 -145c-83 0 -149 65 -149 145c0 81 66 146 149 146zM534 229c-50 0 -90 -40 -90 -90s40 -90 90 -90c49 0 89 40 89 90s-40 90 -89 90zM896 284c82 0 148 -65 148 -146c0 -80 -67 -145 -148 -145c-82 0 -149 65 -149 145c0 81 66 146 149 146zM896 229
c-50 0 -90 -40 -90 -90s40 -90 90 -90c49 0 89 40 89 90s-40 90 -89 90z" />
    <glyph glyph-name="questiondown" unicode="&#xbf;" horiz-adv-x="436" 
d="M147 223h-72c3 94 58 153 144 153c82 0 144 -62 144 -144c0 -67 -37 -108 -121 -135c-62 -20 -66 -21 -83 -34c-18 -15 -29 -39 -29 -68c0 -53 38 -92 91 -92c49 0 87 37 87 85c0 15 -1 23 -6 45h73c4 -25 5 -31 5 -50c0 -84 -71 -149 -163 -149c-91 0 -160 70 -160 160
c0 54 24 104 62 130c23 15 36 20 104 40c46 13 67 36 67 73c0 41 -31 72 -72 72c-44 0 -67 -28 -71 -86zM219 519c27 0 49 -22 49 -50c0 -27 -22 -49 -49 -49c-28 0 -50 22 -50 49c0 28 22 50 50 50z" />
    <glyph glyph-name="grave" unicode="`" horiz-adv-x="500" 
d="M114 633l74 33l105 -144l-44 -25z" />
    <glyph glyph-name="acute" unicode="&#xb4;" horiz-adv-x="500" 
d="M386 633l-135 -136l-44 25l105 144z" />
    <glyph glyph-name="circumflex" unicode="&#x2c6;" horiz-adv-x="500" 
d="M112 536l138 118l139 -118l-52 -39l-87 75l-88 -75z" />
    <glyph glyph-name="tilde" unicode="&#x2dc;" horiz-adv-x="500" 
d="M139 497l-43 34c32 53 54 70 90 70c21 0 39 -5 71 -20c37 -17 46 -20 57 -20c19 0 32 11 49 42l42 -34c-21 -47 -53 -71 -94 -71c-18 0 -30 4 -68 21c-30 13 -48 19 -60 19c-19 0 -30 -10 -44 -41z" />
    <glyph glyph-name="macron" unicode="&#xaf;" horiz-adv-x="500" 
d="M99 573h302v-60h-302v60z" />
    <glyph glyph-name="breve" unicode="&#x2d8;" horiz-adv-x="500" 
d="M105 617h61c18 -44 41 -60 84 -60c42 0 65 16 84 60h61c-15 -75 -69 -120 -145 -120c-77 0 -131 45 -145 120z" />
    <glyph glyph-name="dotaccent" unicode="&#x2d9;" horiz-adv-x="500" 
d="M250 605c30 0 53 -23 53 -52s-24 -53 -53 -53c-28 0 -52 24 -52 53c0 28 24 52 52 52z" />
    <glyph glyph-name="dieresis" unicode="&#xa8;" horiz-adv-x="500" 
d="M163 600c28 0 50 -22 50 -50s-23 -50 -50 -50s-50 23 -50 50c0 28 22 50 50 50zM337 600c28 0 50 -22 50 -50s-23 -50 -50 -50s-50 23 -50 50c0 28 22 50 50 50z" />
    <glyph glyph-name="ring" unicode="&#x2da;" horiz-adv-x="500" 
d="M250 669c48 0 86 -38 86 -86c0 -47 -39 -86 -86 -86s-86 39 -86 86s39 86 86 86zM250 625c-23 0 -42 -18 -42 -41s19 -42 42 -42s42 19 42 42c0 22 -19 41 -42 41z" />
    <glyph glyph-name="cedilla" unicode="&#xb8;" horiz-adv-x="500" 
d="M332 -79l-101 -128l-49 24l84 131z" />
    <glyph glyph-name="hungarumlaut" unicode="&#x2dd;" horiz-adv-x="500" 
d="M321 634l-135 -136l-41 24l105 144zM454 634l-135 -136l-41 24l106 144z" />
    <glyph glyph-name="ogonek" unicode="&#x2db;" horiz-adv-x="500" 
d="M276 0h56c-49 -36 -70 -62 -70 -90c0 -25 19 -41 48 -41c19 0 33 3 53 13l-9 -54c-21 -11 -35 -14 -57 -14c-53 0 -94 36 -94 83c0 38 21 69 73 103z" />
    <glyph glyph-name="caron" unicode="&#x2c7;" horiz-adv-x="500" 
d="M389 615l-138 -118l-139 118l51 39l88 -75l88 75z" />
    <glyph glyph-name="emdash" unicode="&#x2014;" horiz-adv-x="544" 
d="M0 245h544v-64h-544v64z" />
    <glyph glyph-name="AE" unicode="&#xc6;" horiz-adv-x="898" 
d="M458 187h-284l-79 -187h-82l297 667h293l29 -69h-269l83 -200h263l30 -69h-263l108 -260h271l30 -69h-349zM429 256l-111 263l-112 -263h223z" />
    <glyph glyph-name="ordfeminine" unicode="&#xaa;" horiz-adv-x="358" 
d="M27 300v47h287v-47h-287zM253 664h47v-250h-47v31c-24 -26 -51 -38 -88 -38c-73 0 -125 56 -125 135c0 73 54 128 126 128c34 0 64 -13 87 -38v32zM171 628c-47 0 -83 -38 -83 -87c0 -54 35 -92 83 -92c51 0 85 37 85 92c0 51 -35 87 -85 87z" />
    <glyph glyph-name="Lslash" unicode="&#x141;" horiz-adv-x="359" 
d="M162 400l114 80v-77l-114 -80v-254h183v-69h-258v284l-67 -47v77l67 47v306h75v-267z" />
    <glyph glyph-name="Oslash" unicode="&#xd8;" horiz-adv-x="800" 
d="M50 37l81 80c-51 66 -75 135 -75 215c0 190 157 346 348 346c79 0 146 -24 214 -75l81 80l49 -50l-79 -79c55 -69 81 -139 81 -221c0 -189 -157 -345 -346 -345c-82 0 -155 26 -223 80l-81 -81zM185 168l381 386c-53 37 -102 54 -163 54c-151 0 -272 -123 -272 -276
c0 -60 18 -116 54 -164zM617 504l-382 -387c47 -37 110 -59 168 -59c150 0 272 123 272 274c0 64 -18 117 -58 172z" />
    <glyph glyph-name="OE" unicode="&#x152;" horiz-adv-x="1056" 
d="M1006 598h-266v-199h259v-69h-259v-261h266v-69h-341v128c-68 -94 -156 -140 -270 -140c-187 0 -345 157 -345 344c0 190 155 346 343 346c115 0 200 -44 272 -142v131h341v-69zM393 608c-144 0 -268 -126 -268 -273c0 -153 121 -277 269 -277c149 0 271 124 271 273
c0 154 -121 277 -272 277z" />
    <glyph glyph-name="ordmasculine" unicode="&#xba;" horiz-adv-x="358" 
d="M179 670c78 0 138 -58 138 -132s-60 -132 -138 -132c-76 0 -137 59 -137 132s61 132 137 132zM178 629c-51 0 -88 -38 -88 -91c0 -52 38 -90 88 -90c53 0 91 37 91 90c0 54 -37 91 -91 91zM36 300v47h287v-47h-287z" />
    <glyph glyph-name="ae" unicode="&#xe6;" horiz-adv-x="772" 
d="M730 193h-325c6 -85 58 -140 134 -140c52 0 90 26 126 87l60 -35c-49 -82 -106 -117 -187 -117c-70 0 -127 29 -163 83c-35 -58 -81 -83 -156 -83c-107 0 -178 54 -178 134c0 83 70 139 173 139c47 0 76 -9 118 -36c-1 94 -38 136 -118 136c-39 0 -72 -7 -128 -25v66
c63 18 92 23 132 23c73 0 130 -31 154 -84c31 52 92 84 160 84c124 0 199 -88 198 -232zM411 254h243c-12 67 -58 107 -120 107c-66 0 -107 -36 -123 -107zM222 196c-67 0 -111 -28 -111 -72c0 -42 43 -71 106 -71c66 0 111 31 111 75c0 38 -46 68 -106 68z" />
    <glyph glyph-name="dotlessi" unicode="&#x131;" horiz-adv-x="229" 
d="M150 415v-415h-71v415h71z" />
    <glyph glyph-name="lslash" unicode="&#x142;" horiz-adv-x="228" 
d="M156 410l64 47v-78l-64 -47v-332h-71v293l-65 -47v78l65 47v358h71v-319z" />
    <glyph glyph-name="oslash" unicode="&#xf8;" horiz-adv-x="559" 
d="M41 15l62 62c-27 38 -41 83 -41 129c0 122 97 218 218 218c50 0 87 -11 131 -41l61 61l45 -44l-61 -61c30 -40 44 -83 44 -133c0 -123 -96 -218 -220 -218c-47 0 -88 13 -131 43l-62 -61zM154 125l208 212c-30 17 -51 22 -82 22c-84 0 -145 -65 -145 -154
c0 -28 6 -53 19 -80zM406 292l-209 -215c26 -16 52 -24 82 -24c86 0 148 64 148 153c0 34 -6 57 -21 86z" />
    <glyph glyph-name="oe" unicode="&#x153;" horiz-adv-x="851" 
d="M809 194h-327c4 -82 59 -141 133 -141c57 0 96 27 128 88l60 -35c-45 -79 -109 -118 -190 -118c-74 0 -142 39 -172 99c-39 -62 -106 -99 -183 -99c-120 0 -217 97 -217 217c0 123 98 219 223 219c74 0 142 -38 177 -98c31 62 94 98 169 98c120 0 199 -86 199 -215v-15z
M488 254h246c-14 68 -58 105 -123 105s-106 -34 -123 -105zM262 359c-88 0 -148 -63 -148 -154c0 -89 61 -152 148 -152c82 0 144 64 144 151c0 90 -60 155 -144 155z" />
    <glyph glyph-name="germandbls" unicode="&#xdf;" horiz-adv-x="524" 
d="M68 0v349h-39v66h39v138c0 120 64 188 175 188c99 0 171 -71 171 -167c0 -57 -26 -103 -74 -129c87 -33 142 -116 142 -213c0 -134 -106 -236 -253 -244v70c109 8 180 78 180 177c0 58 -30 113 -76 140c-29 17 -53 24 -104 31v64c73 4 112 42 112 108
c0 57 -42 98 -100 98c-41 0 -76 -20 -89 -50c-10 -20 -13 -49 -13 -105v-521h-71z" />
    <glyph glyph-name="Ccedilla" unicode="&#xc7;" horiz-adv-x="646" 
d="M596 612v-92c-65 62 -126 88 -203 88c-145 0 -268 -126 -268 -275c0 -152 121 -275 270 -275c74 0 136 27 201 87v-92c-65 -44 -128 -65 -199 -65c-191 0 -347 155 -347 343c0 190 157 347 348 347c75 0 129 -18 198 -66zM433 -84l-110 -130l-51 26l90 136z" />
    <glyph glyph-name="ccedilla" unicode="&#xe7;" horiz-adv-x="435" 
d="M391 385v-94c-46 50 -80 68 -131 68c-83 0 -146 -66 -146 -153c0 -86 63 -153 143 -153c55 0 89 18 137 72v-94c-51 -32 -85 -43 -133 -43c-124 0 -220 95 -220 217c0 124 96 219 222 219c48 0 85 -11 128 -39zM299 -79l-100 -128l-50 24l84 131z" />
    <glyph glyph-name="infinity" unicode="&#x221e;" horiz-adv-x="713" 
d="M357 302c56 75 119 112 189 112c83 0 143 -61 143 -147c0 -92 -56 -153 -141 -153c-63 0 -133 41 -191 113c-70 -83 -118 -112 -188 -112c-86 0 -144 60 -144 149c0 86 61 150 145 150c64 0 129 -39 187 -112zM391 264c70 -77 104 -98 159 -98c54 0 89 39 89 99
c0 57 -39 97 -95 97c-31 0 -70 -16 -103 -44c-17 -14 -32 -29 -44 -47c-4 -4 -6 -7 -6 -7zM324 266c-66 71 -106 96 -156 96c-57 0 -93 -38 -93 -98c0 -57 36 -97 88 -97c44 0 87 22 134 68c9 9 16 17 22 24c3 4 5 7 5 7z" />
    <glyph glyph-name="mu" unicode="&#x3bc;" horiz-adv-x="576" 
d="M442 500v-369c0 -54 20 -90 49 -90c24 0 46 30 49 68l27 -1c-14 -78 -56 -121 -120 -121c-50 0 -77 27 -93 93c-53 -62 -104 -93 -155 -93c-34 0 -56 11 -98 46c0 -37 1 -48 12 -86c17 -59 19 -71 19 -92c0 -45 -20 -74 -50 -74c-28 0 -49 30 -49 69c0 27 0 30 17 94
c8 30 12 54 12 76v480h88v-331c0 -70 34 -111 91 -111c43 0 77 22 112 73v369h89z" />
    <glyph glyph-name="apple" horiz-adv-x="790" 
d="M570 698v-11c0 -87 -86 -165 -181 -164c2 97 70 163 181 175zM714 461c-59 -45 -81 -84 -81 -141c0 -67 37 -123 100 -150c-59 -122 -134 -197 -198 -197c-18 0 -39 5 -65 17c-25 11 -30 12 -66 12c-25 0 -35 -2 -56 -12c-31 -13 -47 -17 -67 -17
c-102 0 -225 185 -225 339c0 122 93 221 207 221c25 0 52 -6 90 -20c23 -8 41 -12 51 -12s23 3 41 10c48 18 63 22 92 22c76 0 133 -23 177 -72z" />
    <glyph glyph-name="Eth" unicode="&#xd0;" horiz-adv-x="633" 
d="M87 0v306h-67v69h67v292h136c107 0 180 -23 244 -77c75 -62 115 -152 115 -258c0 -103 -41 -192 -117 -255c-66 -55 -135 -77 -243 -77h-135zM162 69h64c169 0 281 106 281 265s-111 264 -281 264h-64v-223h145v-69h-145v-237z" />
    <glyph glyph-name="eth" unicode="&#xf0;" horiz-adv-x="522" 
d="M49 688l28 43c62 -17 101 -34 153 -67l143 73l23 -44l-120 -61c134 -116 204 -258 204 -416c0 -133 -91 -228 -220 -228c-124 0 -219 95 -219 218c0 122 97 219 219 219c44 0 81 -10 113 -32c-35 87 -71 136 -151 205l-144 -73l-22 44l118 62c-42 27 -69 40 -125 57z
M259 360c-84 0 -145 -65 -145 -154c0 -88 62 -153 145 -153c86 0 148 64 148 153c0 90 -61 154 -148 154z" />
    <glyph glyph-name="Thorn" unicode="&#xde;" horiz-adv-x="457" 
d="M162 199v-199h-75v667h75v-94h46c82 0 130 -13 168 -46c39 -34 62 -86 62 -142c0 -115 -81 -186 -211 -186h-65zM162 267h60c92 0 143 43 143 120s-51 117 -148 117h-55v-237z" />
    <glyph glyph-name="thorn" unicode="&#xfe;" horiz-adv-x="524" 
d="M139 -234h-71v963h71v-373c39 47 85 68 145 68c115 0 198 -93 198 -224c0 -121 -85 -212 -199 -212c-58 0 -103 22 -144 70v-292zM273 359c-82 0 -138 -63 -138 -156c0 -88 58 -150 139 -150c76 0 135 65 135 149c0 92 -56 157 -136 157z" />
    <glyph glyph-name="Yacute" unicode="&#xdd;" horiz-adv-x="528" 
d="M225 287l-218 380h86l170 -298l172 298h87l-222 -380v-287h-75v287zM423 837l-154 -117l-43 32l126 130z" />
    <glyph glyph-name="yacute" unicode="&#xfd;" horiz-adv-x="460" 
d="M199 39l-191 376h82l147 -297l134 297h81l-307 -649h-80zM366 633l-135 -136l-44 25l105 144z" />
    <glyph glyph-name="trademark" unicode="&#x2122;" horiz-adv-x="721" 
d="M142 622v-335h-48v335h-90v45h230v-45h-92zM270 287l65 405l143 -316l147 316l61 -405h-47l-34 258l-127 -277l-125 277l-37 -258h-46z" />
    <glyph glyph-name="copyright" unicode="&#xa9;" horiz-adv-x="740" 
d="M523 478v-85c-31 37 -33 39 -43 48c-24 23 -63 38 -97 38c-79 0 -149 -70 -149 -150c0 -82 68 -150 152 -150c30 0 70 16 94 37c9 7 11 9 43 46v-84c-49 -39 -88 -54 -139 -54c-114 0 -208 94 -208 208c0 110 96 203 208 203c52 0 91 -16 139 -57zM370 678
c190 0 344 -154 344 -344c0 -191 -154 -345 -344 -345c-191 0 -345 154 -345 345c0 189 155 344 345 344zM370 622c-160 0 -289 -129 -289 -288c0 -160 129 -289 289 -289c159 0 288 129 288 289c0 159 -129 288 -288 288z" />
    <glyph glyph-name="registered" unicode="&#xae;" horiz-adv-x="740" 
d="M390 307l122 -177h-70l-103 151v-151h-57v400h68c86 0 132 -40 132 -114c0 -60 -34 -99 -92 -109zM339 359h18c44 0 67 20 67 58c0 40 -22 58 -72 58h-13v-116zM370 678c190 0 344 -154 344 -344c0 -191 -154 -345 -344 -345c-191 0 -345 154 -345 345
c0 189 155 344 345 344zM370 622c-160 0 -289 -129 -289 -288c0 -160 129 -289 289 -289c159 0 288 129 288 289c0 159 -129 288 -288 288z" />
    <glyph glyph-name="onequarter" unicode="&#xbc;" horiz-adv-x="860" 
d="M165 620h-71l28 47h96v-400h-53v353zM604 680l39 -21l-388 -672l-39 23zM778 112h50v-47h-50v-65h-53v65h-215l268 364v-317zM725 112v164l-121 -164h121z" />
    <glyph glyph-name="onehalf" unicode="&#xbd;" horiz-adv-x="860" 
d="M165 620h-71l28 47h96v-400h-53v353zM604 680l39 -21l-388 -672l-39 23zM636 47h169v-47h-278l156 171c53 59 71 88 71 116c0 41 -35 73 -80 73c-48 0 -75 -27 -80 -81h-53c4 39 9 55 24 75c24 32 64 52 108 52c75 0 133 -52 133 -118c0 -46 -16 -73 -91 -154z" />
    <glyph glyph-name="threequarters" unicode="&#xbe;" horiz-adv-x="860" 
d="M159 454v45c56 1 82 21 82 66c0 34 -29 61 -66 61c-43 0 -60 -16 -69 -63h-52c12 76 49 110 119 110c68 0 120 -46 120 -107c0 -40 -12 -63 -48 -89c38 -25 54 -53 54 -97c0 -69 -56 -120 -132 -120c-74 0 -120 42 -126 115h51c7 -44 34 -68 77 -68c44 0 78 33 78 75
c0 48 -28 71 -88 72zM605 680l38 -21l-388 -672l-38 23zM778 112h50v-47h-50v-65h-53v65h-215l268 364v-317zM725 112v164l-121 -164h121z" />
    <glyph glyph-name="minus" unicode="&#x2212;" 
d="M48 310v61h471v-61h-471z" />
    <glyph glyph-name="multiply" unicode="&#xd7;" 
d="M87 495l42 42l155 -155l155 155l42 -42l-155 -155l155 -155l-42 -42l-155 155l-155 -155l-42 42l155 155z" />
    <glyph glyph-name="plusminus" unicode="&#xb1;" horiz-adv-x="549" 
d="M302 662v-245h237v-55h-237v-233h-55v233h-237v55h237v245h55zM11 55h524v-55h-524v55z" />
    <glyph glyph-name="divide" unicode="&#xf7;" horiz-adv-x="549" 
d="M273 120c34 0 62 -28 62 -62s-28 -62 -62 -62s-62 28 -62 62s28 62 62 62zM273 519c34 0 62 -28 62 -62s-28 -62 -62 -62s-62 28 -62 62s28 62 62 62zM10 288h526v-55h-526v55z" />
    <glyph glyph-name="logicalnot" unicode="&#xac;" horiz-adv-x="500" 
d="M391 0v197h-358v70h433v-267h-75z" />
    <glyph glyph-name="degree" unicode="&#xb0;" horiz-adv-x="400" 
d="M201 686c85 0 149 -65 149 -152c0 -86 -66 -153 -150 -153s-150 67 -150 154c0 83 68 151 151 151zM199 629c-52 0 -93 -43 -93 -98c0 -49 43 -93 91 -93c55 0 96 41 96 94c0 55 -40 97 -94 97z" />
    <glyph glyph-name="brokenbar" unicode="&#xa6;" horiz-adv-x="500" 
d="M213 667h75v-334h-75v334zM213 153h75v-320h-75v320z" />
    <glyph glyph-name="uni00B9" unicode="&#xb9;" horiz-adv-x="387" 
d="M179 620h-71l28 47h96v-400h-53v353z" />
    <glyph glyph-name="uni00B2" unicode="&#xb2;" horiz-adv-x="387" 
d="M150 314h169v-47h-278l156 171c54 60 71 87 71 115c0 41 -35 73 -80 73c-48 0 -75 -27 -80 -81h-53c4 40 9 56 24 76c24 32 64 52 108 52c75 0 133 -52 133 -119c0 -46 -15 -72 -91 -154z" />
    <glyph glyph-name="uni00B3" unicode="&#xb3;" horiz-adv-x="387" 
d="M172 454v45c56 1 82 21 82 66c0 34 -29 61 -66 61c-43 0 -60 -16 -69 -63h-52c12 76 49 110 119 110c68 0 120 -46 120 -107c0 -40 -12 -63 -48 -89c38 -25 54 -53 54 -97c0 -69 -56 -120 -132 -120c-74 0 -120 42 -126 115h51c7 -44 34 -68 77 -68c44 0 78 33 78 75
c0 48 -28 71 -88 72z" />
    <glyph glyph-name="notequal" unicode="&#x2260;" horiz-adv-x="549" 
d="M187 141h-172v55h199l70 139h-269v55h297l80 159l47 -24l-68 -135h169v-55h-197l-70 -139h267v-55h-295l-84 -166l-46 24z" />
    <glyph glyph-name="lessequal" unicode="&#x2264;" horiz-adv-x="549" 
d="M526 55v-55h-497v55h497zM526 639v-62l-418 -199l418 -199v-62l-497 233v55z" />
    <glyph glyph-name="greaterequal" unicode="&#x2265;" horiz-adv-x="549" 
d="M526 55v-55h-497v55h497zM29 639l497 -234v-55l-497 -233v62l418 199l-418 199v62z" />
    <glyph glyph-name="partialdiff" unicode="&#x2202;" horiz-adv-x="494" 
d="M107 673l-41 51c55 21 90 29 129 29c153 0 267 -150 267 -352c0 -121 -36 -258 -85 -325c-41 -56 -98 -86 -163 -86c-107 0 -188 85 -188 198c0 117 92 224 193 224c54 0 88 -15 153 -66c6 50 7 71 7 105c0 162 -59 255 -162 255c-33 0 -66 -10 -110 -33zM366 312
c-42 42 -67 55 -105 55c-81 0 -148 -94 -148 -208c0 -87 33 -138 90 -138c41 0 86 34 111 85c16 33 28 69 35 106c12 57 18 98 17 100z" />
    <glyph glyph-name="summation" unicode="&#x2211;" horiz-adv-x="713" 
d="M176 711l188 -370l-201 -352h328c116 0 146 17 178 98h26l-54 -210h-627l242 408l-233 467h599l10 -165h-26c-17 101 -47 124 -162 124h-268z" />
    <glyph glyph-name="product" unicode="&#x220f;" horiz-adv-x="823" 
d="M25 -124v26h3c33 0 60 12 74 31c11 17 14 33 14 85v591c0 52 -3 68 -14 85c-14 19 -41 31 -74 31h-3v26h778v-26h-3c-33 0 -60 -12 -74 -31c-11 -17 -14 -33 -14 -85v-591c0 -52 3 -68 14 -85c14 -19 41 -31 74 -31h3v-26h-290v26h3c33 0 60 12 74 31c11 17 14 33 14 85
v576c0 62 -4 83 -18 96c-11 10 -28 15 -59 17c-9 1 -19 1 -48 1h-67c-106 0 -116 0 -139 -4c-41 -7 -49 -26 -49 -110v-576c0 -52 3 -68 14 -85c14 -19 41 -31 74 -31h3v-26h-290z" />
    <glyph glyph-name="pi" unicode="&#x3c0;" horiz-adv-x="549" 
d="M30 348h-20c17 60 33 89 61 117c29 28 48 35 102 35h350v-89h-126c-7 -54 -12 -147 -12 -221c0 -68 22 -105 64 -105c33 0 52 25 57 73h24c-3 -51 -7 -72 -23 -101c-24 -45 -58 -70 -96 -70c-63 0 -99 67 -99 184c0 55 9 161 21 240h-109l-12 -129c-3 -36 -2 -27 -9 -79
c-10 -86 -14 -116 -18 -133c-13 -55 -38 -83 -74 -83c-30 0 -54 24 -54 56c0 21 10 37 40 65c34 32 48 53 51 81l26 222h-46c-48 0 -64 -11 -98 -63z" />
    <glyph glyph-name="integral" unicode="&#x222b;" horiz-adv-x="274" 
d="M180 576v-344c0 -107 -10 -207 -25 -261c-14 -49 -48 -78 -92 -78c-37 0 -61 17 -61 44c0 19 15 33 36 33c13 0 21 -6 30 -22c6 -13 13 -18 21 -18c19 0 31 23 31 60c0 14 -1 45 -3 73c-3 62 -4 100 -4 169v345c0 105 10 207 25 261c14 49 49 78 92 78
c38 0 61 -17 61 -46c0 -18 -16 -31 -36 -31c-16 0 -23 6 -40 33c-2 4 -7 6 -13 6c-19 0 -29 -23 -29 -65c0 -13 1 -39 3 -67c3 -51 4 -101 4 -170z" />
    <glyph glyph-name="Omega" unicode="&#x3a9;" horiz-adv-x="768" 
d="M326 0h-292v153h24c7 -44 29 -63 69 -63h146l-3 38c-129 46 -202 138 -202 254c0 165 145 304 317 304s317 -139 317 -304c0 -116 -73 -208 -202 -254l-3 -38h146c40 0 62 19 69 63h24v-153h-292l18 155c78 44 128 133 128 227c0 146 -90 260 -205 260
s-205 -114 -205 -260c0 -94 50 -183 128 -227z" />
    <glyph glyph-name="radical" unicode="&#x221a;" horiz-adv-x="549" 
d="M363 -35l-242 496l-95 -47l-16 35l146 71l195 -394l127 787l37 -5z" />
    <glyph glyph-name="approxequal" unicode="&#x2248;" horiz-adv-x="549" 
d="M489 251l38 -34c-30 -56 -78 -85 -141 -85c-23 0 -43 3 -66 10l-16 5c-44 14 -17 6 -81 25c-35 10 -46 12 -63 12c-41 0 -56 -10 -103 -63l-43 34c40 57 87 84 146 84c28 0 53 -5 125 -28c72 -22 80 -24 101 -24c37 0 59 13 103 64zM489 408l38 -34
c-30 -56 -78 -85 -141 -85c-23 0 -43 3 -66 10c-65 20 -33 11 -97 30c-35 10 -46 12 -63 12c-41 0 -56 -10 -103 -63l-43 34c40 57 87 84 146 84c28 0 53 -6 125 -28s80 -24 101 -24c37 0 58 13 103 64z" />
    <glyph glyph-name="Delta" unicode="&#x394;" horiz-adv-x="612" 
d="M6 0l321 688l281 -688h-602zM77 51h402l-189 458z" />
    <glyph glyph-name="lozenge" unicode="&#x25ca;" horiz-adv-x="494" 
d="M209 0l-191 377l196 363h63l189 -366l-197 -374h-60zM240 58l162 316l-157 309l-164 -306z" />
  </font>
</defs>
</svg>
