<?xml version="1.0" standalone="no"?>
<!DOCTYPE svg PUBLIC "-//W3C//DTD SVG 1.1//EN" "http://www.w3.org/Graphics/SVG/1.1/DTD/svg11.dtd" >
<svg>
<metadata>
Created by FontForge 20120731 at Tue May  7 12:51:06 2013
 By Michael Sachs
Copyright URW Software, Copyright 1992 by URW
</metadata>
<defs>
<font id="FuturaT-Demi" horiz-adv-x="567" >
  <font-face 
    font-family="FuturTDem"
    font-weight="600"
    font-stretch="normal"
    units-per-em="1000"
    panose-1="2 0 7 3 0 0 0 0 0 0"
    ascent="800"
    descent="-200"
    x-height="433"
    cap-height="667"
    bbox="-153 -232 1139 926"
    underline-thickness="117"
    underline-position="-104"
    stemh="110"
    stemv="122"
    unicode-range="U+0020-FB02"
  />
    <missing-glyph />
    <glyph glyph-name="space" unicode=" " horiz-adv-x="250" 
 />
    <glyph glyph-name="Adieresis" unicode="&#xc4;" horiz-adv-x="670" 
d="M472 141h-273l-60 -141h-138l289 681h98l280 -681h-139zM431 246l-93 240l-97 -240h190zM229 884c40 0 72 -32 72 -72s-32 -72 -72 -72s-72 32 -72 72s32 72 72 72zM440 884c40 0 72 -32 72 -72s-32 -72 -72 -72s-72 32 -72 72s32 72 72 72z" />
    <glyph glyph-name="Aring" unicode="&#xc5;" horiz-adv-x="670" 
d="M472 141h-273l-60 -141h-138l289 681h98l280 -681h-139zM431 246l-93 240l-97 -240h190zM335 921c52 0 94 -42 94 -94c0 -53 -42 -95 -95 -95c-51 0 -94 43 -94 95s42 94 95 94zM335 864c-21 0 -38 -17 -38 -37c0 -21 17 -38 38 -38c20 0 37 17 37 38s-16 37 -37 37z" />
    <glyph glyph-name="Eacute" unicode="&#xc9;" horiz-adv-x="495" 
d="M446 554h-239v-148h230v-113h-230v-180h239v-113h-369v667h369v-113zM418 842l-167 -114l-53 49l137 133z" />
    <glyph glyph-name="Ntilde" unicode="&#xd1;" horiz-adv-x="779" 
d="M77 0v682h90l406 -464v449h130v-680h-90l-406 464v-451h-130zM287 742h-68c11 78 52 126 108 126c18 0 44 -7 79 -20c47 -17 50 -18 62 -18c20 0 29 7 45 37h69c-16 -80 -59 -127 -118 -127c-19 0 -33 4 -70 19s-51 19 -68 19s-29 -11 -39 -36z" />
    <glyph glyph-name="Odieresis" unicode="&#xd6;" horiz-adv-x="799" 
d="M400 682c200 0 356 -153 356 -348c0 -196 -157 -349 -356 -349c-202 0 -357 151 -357 347s157 350 357 350zM400 563c-123 0 -223 -103 -223 -229c0 -127 100 -230 223 -230c122 0 222 103 222 230c0 126 -99 229 -222 229zM294 884c40 0 72 -32 72 -72s-32 -72 -72 -72
s-72 32 -72 72s32 72 72 72zM505 884c40 0 72 -32 72 -72s-32 -72 -72 -72s-72 32 -72 72s32 72 72 72z" />
    <glyph glyph-name="Udieresis" unicode="&#xdc;" horiz-adv-x="689" 
d="M207 667v-382c0 -68 4 -90 21 -119c22 -38 67 -62 117 -62s95 24 117 62c17 29 21 51 21 119v382h130v-408c0 -78 -15 -133 -49 -178c-46 -60 -128 -96 -219 -96s-173 36 -219 96c-34 45 -49 100 -49 178v408h130zM240 884c40 0 72 -32 72 -72s-32 -72 -72 -72
s-72 32 -72 72s32 72 72 72zM451 884c40 0 72 -32 72 -72s-32 -72 -72 -72s-72 32 -72 72s32 72 72 72z" />
    <glyph glyph-name="aacute" unicode="&#xe1;" horiz-adv-x="569" 
d="M390 433h121v-433h-121v56c-39 -48 -82 -70 -141 -70c-123 0 -214 99 -214 232c0 130 92 229 212 229c58 0 101 -21 143 -70v56zM282 338c-68 0 -122 -54 -122 -121s55 -122 122 -122s121 54 121 121c0 68 -54 122 -121 122zM436 644l-150 -135l-58 40l119 151z" />
    <glyph glyph-name="agrave" unicode="&#xe0;" horiz-adv-x="569" 
d="M390 433h121v-433h-121v56c-39 -48 -82 -70 -141 -70c-123 0 -214 99 -214 232c0 130 92 229 212 229c58 0 101 -21 143 -70v56zM282 338c-68 0 -122 -54 -122 -121s55 -122 122 -122s121 54 121 121c0 68 -54 122 -121 122zM154 644l88 56l120 -151l-58 -40z" />
    <glyph glyph-name="acircumflex" unicode="&#xe2;" horiz-adv-x="569" 
d="M390 433h121v-433h-121v56c-39 -48 -82 -70 -141 -70c-123 0 -214 99 -214 232c0 130 92 229 212 229c58 0 101 -21 143 -70v56zM282 338c-68 0 -122 -54 -122 -121s55 -122 122 -122s121 54 121 121c0 68 -54 122 -121 122zM121 569l169 138l172 -138l-62 -60l-110 92
l-109 -92z" />
    <glyph glyph-name="adieresis" unicode="&#xe4;" horiz-adv-x="569" 
d="M390 433h121v-433h-121v56c-39 -48 -82 -70 -141 -70c-123 0 -214 99 -214 232c0 130 92 229 212 229c58 0 101 -21 143 -70v56zM282 338c-68 0 -122 -54 -122 -121s55 -122 122 -122s121 54 121 121c0 68 -54 122 -121 122zM191 658c40 0 72 -32 72 -72s-32 -72 -72 -72
c-39 0 -72 32 -72 72s32 72 72 72zM398 658c40 0 72 -32 72 -72s-32 -72 -72 -72c-39 0 -72 32 -72 72s32 72 72 72z" />
    <glyph glyph-name="atilde" unicode="&#xe3;" horiz-adv-x="569" 
d="M390 433h121v-433h-121v56c-39 -48 -82 -70 -141 -70c-123 0 -214 99 -214 232c0 130 92 229 212 229c58 0 101 -21 143 -70v56zM282 338c-68 0 -122 -54 -122 -121s55 -122 122 -122s121 54 121 121c0 68 -54 122 -121 122zM178 523h-68c11 78 52 125 108 125
c18 0 44 -6 79 -20c46 -17 50 -18 63 -18c19 0 28 7 44 37h69c-16 -79 -59 -126 -118 -126c-19 0 -32 3 -70 19c-36 14 -52 18 -68 18c-17 0 -29 -10 -39 -35z" />
    <glyph glyph-name="aring" unicode="&#xe5;" horiz-adv-x="569" 
d="M390 433h121v-433h-121v56c-39 -48 -82 -70 -141 -70c-123 0 -214 99 -214 232c0 130 92 229 212 229c58 0 101 -21 143 -70v56zM282 338c-68 0 -122 -54 -122 -121s55 -122 122 -122s121 54 121 121c0 68 -54 122 -121 122zM290 693c51 0 92 -41 92 -92s-41 -92 -92 -92
s-92 41 -92 92s41 92 92 92zM290 636c-19 0 -35 -16 -35 -35s16 -35 35 -35s35 16 35 35c0 20 -15 35 -35 35z" />
    <glyph glyph-name="eacute" unicode="&#xe9;" horiz-adv-x="518" 
d="M484 197h-325c3 -75 40 -116 107 -116c45 0 75 17 102 58l112 -18c-36 -88 -110 -135 -211 -135c-142 0 -234 90 -234 230s89 231 227 231c137 0 222 -89 222 -232v-18zM164 274h204c-13 56 -49 86 -102 86c-55 0 -91 -31 -102 -86zM400 644l-150 -135l-58 40l119 151z
" />
    <glyph glyph-name="egrave" unicode="&#xe8;" horiz-adv-x="518" 
d="M484 197h-325c3 -75 40 -116 107 -116c45 0 75 17 102 58l112 -18c-36 -88 -110 -135 -211 -135c-142 0 -234 90 -234 230s89 231 227 231c137 0 222 -89 222 -232v-18zM164 274h204c-13 56 -49 86 -102 86c-55 0 -91 -31 -102 -86zM122 644l88 56l120 -151l-58 -40z" />
    <glyph glyph-name="ecircumflex" unicode="&#xea;" horiz-adv-x="518" 
d="M484 197h-325c3 -75 40 -116 107 -116c45 0 75 17 102 58l112 -18c-36 -88 -110 -135 -211 -135c-142 0 -234 90 -234 230s89 231 227 231c137 0 222 -89 222 -232v-18zM164 274h204c-13 56 -49 86 -102 86c-55 0 -91 -31 -102 -86zM96 569l169 138l172 -138l-62 -60
l-110 92l-109 -92z" />
    <glyph glyph-name="edieresis" unicode="&#xeb;" horiz-adv-x="518" 
d="M484 197h-325c3 -75 40 -116 107 -116c45 0 75 17 102 58l112 -18c-36 -88 -110 -135 -211 -135c-142 0 -234 90 -234 230s89 231 227 231c137 0 222 -89 222 -232v-18zM164 274h204c-13 56 -49 86 -102 86c-55 0 -91 -31 -102 -86zM162 658c40 0 72 -32 72 -72
s-32 -72 -72 -72c-39 0 -72 32 -72 72s32 72 72 72zM369 658c40 0 72 -32 72 -72s-32 -72 -72 -72c-39 0 -72 32 -72 72s32 72 72 72z" />
    <glyph glyph-name="iacute" unicode="&#xed;" horiz-adv-x="234" 
d="M178 433v-433h-121v433h121zM255 644l-150 -135l-58 40l119 151z" />
    <glyph glyph-name="igrave" unicode="&#xec;" horiz-adv-x="234" 
d="M178 433v-433h-121v433h121zM-20 644l88 56l120 -151l-58 -40z" />
    <glyph glyph-name="icircumflex" unicode="&#xee;" horiz-adv-x="234" 
d="M178 433v-433h-121v433h121zM-33 569l149 138l152 -138l-62 -60l-90 92l-89 -92z" />
    <glyph glyph-name="idieresis" unicode="&#xef;" horiz-adv-x="234" 
d="M178 433v-433h-121v433h121zM29 658c40 0 72 -32 72 -72s-32 -72 -72 -72c-39 0 -72 32 -72 72s32 72 72 72zM206 658c40 0 72 -32 72 -72s-32 -72 -72 -72c-39 0 -72 32 -72 72s32 72 72 72z" />
    <glyph glyph-name="ntilde" unicode="&#xf1;" horiz-adv-x="533" 
d="M58 433h121v-54c38 49 77 68 137 68c50 0 96 -19 125 -52c25 -29 34 -61 34 -120v-275h-121v240c0 75 -23 104 -83 104c-62 0 -92 -38 -92 -120v-224h-121v433zM160 523h-68c11 78 52 125 108 125c18 0 44 -6 79 -20c46 -17 50 -18 63 -18c19 0 28 7 44 37h69
c-16 -79 -59 -126 -118 -126c-19 0 -32 3 -70 19c-36 14 -52 18 -68 18c-17 0 -29 -10 -39 -35z" />
    <glyph glyph-name="oacute" unicode="&#xf3;" horiz-adv-x="565" 
d="M283 447c146 0 247 -94 247 -230s-102 -231 -248 -231c-145 0 -247 95 -247 230c0 136 102 231 248 231zM283 338c-68 0 -123 -55 -123 -122c0 -66 55 -121 123 -121c67 0 122 54 122 121c0 68 -55 122 -122 122zM427 644l-150 -135l-58 40l119 151z" />
    <glyph glyph-name="ograve" unicode="&#xf2;" horiz-adv-x="565" 
d="M283 447c146 0 247 -94 247 -230s-102 -231 -248 -231c-145 0 -247 95 -247 230c0 136 102 231 248 231zM283 338c-68 0 -123 -55 -123 -122c0 -66 55 -121 123 -121c67 0 122 54 122 121c0 68 -55 122 -122 122zM145 644l88 56l120 -151l-58 -40z" />
    <glyph glyph-name="ocircumflex" unicode="&#xf4;" horiz-adv-x="565" 
d="M283 447c146 0 247 -94 247 -230s-102 -231 -248 -231c-145 0 -247 95 -247 230c0 136 102 231 248 231zM283 338c-68 0 -123 -55 -123 -122c0 -66 55 -121 123 -121c67 0 122 54 122 121c0 68 -55 122 -122 122zM112 569l169 138l172 -138l-62 -60l-110 92l-109 -92z
" />
    <glyph glyph-name="odieresis" unicode="&#xf6;" horiz-adv-x="565" 
d="M283 447c146 0 247 -94 247 -230s-102 -231 -248 -231c-145 0 -247 95 -247 230c0 136 102 231 248 231zM283 338c-68 0 -123 -55 -123 -122c0 -66 55 -121 123 -121c67 0 122 54 122 121c0 68 -55 122 -122 122zM179 658c40 0 72 -32 72 -72s-32 -72 -72 -72
c-39 0 -72 32 -72 72s32 72 72 72zM386 658c40 0 72 -32 72 -72s-32 -72 -72 -72c-39 0 -72 32 -72 72s32 72 72 72z" />
    <glyph glyph-name="otilde" unicode="&#xf5;" horiz-adv-x="565" 
d="M283 447c146 0 247 -94 247 -230s-102 -231 -248 -231c-145 0 -247 95 -247 230c0 136 102 231 248 231zM283 338c-68 0 -123 -55 -123 -122c0 -66 55 -121 123 -121c67 0 122 54 122 121c0 68 -55 122 -122 122zM176 523h-68c11 78 52 125 108 125c18 0 44 -6 79 -20
c46 -17 50 -18 63 -18c19 0 28 7 44 37h69c-16 -79 -59 -126 -118 -126c-19 0 -32 3 -70 19c-36 14 -52 18 -68 18c-17 0 -29 -10 -39 -35z" />
    <glyph glyph-name="uacute" unicode="&#xfa;" horiz-adv-x="535" 
d="M179 433v-245c0 -65 30 -99 89 -99c58 0 88 34 88 99v245h121v-265c0 -117 -75 -182 -209 -182c-135 0 -210 65 -210 182v265h121zM415 644l-150 -135l-58 40l119 151z" />
    <glyph glyph-name="ugrave" unicode="&#xf9;" horiz-adv-x="535" 
d="M179 433v-245c0 -65 30 -99 89 -99c58 0 88 34 88 99v245h121v-265c0 -117 -75 -182 -209 -182c-135 0 -210 65 -210 182v265h121zM130 644l88 56l120 -151l-58 -40z" />
    <glyph glyph-name="ucircumflex" unicode="&#xfb;" horiz-adv-x="535" 
d="M179 433v-245c0 -65 30 -99 89 -99c58 0 88 34 88 99v245h121v-265c0 -117 -75 -182 -209 -182c-135 0 -210 65 -210 182v265h121zM97 569l169 138l172 -138l-62 -60l-110 92l-109 -92z" />
    <glyph glyph-name="udieresis" unicode="&#xfc;" horiz-adv-x="535" 
d="M179 433v-245c0 -65 30 -99 89 -99c58 0 88 34 88 99v245h121v-265c0 -117 -75 -182 -209 -182c-135 0 -210 65 -210 182v265h121zM164 658c40 0 72 -32 72 -72s-32 -72 -72 -72c-39 0 -72 32 -72 72s32 72 72 72zM371 658c40 0 72 -32 72 -72s-32 -72 -72 -72
c-39 0 -72 32 -72 72s32 72 72 72z" />
    <glyph glyph-name="Aacute" unicode="&#xc1;" horiz-adv-x="670" 
d="M472 141h-273l-60 -141h-138l289 681h98l280 -681h-139zM431 246l-93 240l-97 -240h190zM485 842l-167 -114l-53 49l137 133z" />
    <glyph glyph-name="Agrave" unicode="&#xc0;" horiz-adv-x="670" 
d="M472 141h-273l-60 -141h-138l289 681h98l280 -681h-139zM431 246l-93 240l-97 -240h190zM191 842l83 68l137 -133l-53 -49z" />
    <glyph glyph-name="Atilde" unicode="&#xc3;" horiz-adv-x="670" 
d="M472 141h-273l-60 -141h-138l289 681h98l280 -681h-139zM431 246l-93 240l-97 -240h190zM231 742h-68c11 78 52 126 108 126c18 0 44 -7 79 -20c47 -17 50 -18 62 -18c20 0 29 7 45 37h69c-16 -80 -59 -127 -118 -127c-19 0 -33 4 -70 19s-51 19 -68 19s-29 -11 -39 -36z
" />
    <glyph glyph-name="Edieresis" unicode="&#xcb;" horiz-adv-x="495" 
d="M446 554h-239v-148h230v-113h-230v-180h239v-113h-369v667h369v-113zM156 884c40 0 72 -32 72 -72s-32 -72 -72 -72s-72 32 -72 72s32 72 72 72zM367 884c40 0 72 -32 72 -72s-32 -72 -72 -72s-72 32 -72 72s32 72 72 72z" />
    <glyph glyph-name="Egrave" unicode="&#xc8;" horiz-adv-x="495" 
d="M446 554h-239v-148h230v-113h-230v-180h239v-113h-369v667h369v-113zM124 842l83 68l137 -133l-53 -49z" />
    <glyph glyph-name="Iacute" unicode="&#xcd;" horiz-adv-x="283" 
d="M207 667v-667h-130v667h130zM292 842l-167 -114l-53 49l137 133z" />
    <glyph glyph-name="Icircumflex" unicode="&#xce;" horiz-adv-x="283" 
d="M207 667v-667h-130v667h130zM-15 788l156 138l158 -138l-62 -60l-96 90l-96 -90z" />
    <glyph glyph-name="ydieresis" unicode="&#xff;" horiz-adv-x="535" 
d="M206 66l-205 367h141l130 -246l123 246h139l-350 -664h-137zM164 658c40 0 72 -32 72 -72s-32 -72 -72 -72c-39 0 -72 32 -72 72s32 72 72 72zM371 658c40 0 72 -32 72 -72s-32 -72 -72 -72c-39 0 -72 32 -72 72s32 72 72 72z" />
    <glyph glyph-name="Ydieresis" unicode="&#x178;" horiz-adv-x="583" 
d="M225 306l-230 361h154l144 -232l141 232h155l-234 -361v-306h-130v306zM187 884c40 0 72 -32 72 -72s-32 -72 -72 -72s-72 32 -72 72s32 72 72 72zM398 884c40 0 72 -32 72 -72s-32 -72 -72 -72s-72 32 -72 72s32 72 72 72z" />
    <glyph glyph-name="Ograve" unicode="&#xd2;" horiz-adv-x="799" 
d="M400 682c200 0 356 -153 356 -348c0 -196 -157 -349 -356 -349c-202 0 -357 151 -357 347s157 350 357 350zM400 563c-123 0 -223 -103 -223 -229c0 -127 100 -230 223 -230c122 0 222 103 222 230c0 126 -99 229 -222 229zM249 842l83 68l137 -133l-53 -49z" />
    <glyph glyph-name="Otilde" unicode="&#xd5;" horiz-adv-x="799" 
d="M400 682c200 0 356 -153 356 -348c0 -196 -157 -349 -356 -349c-202 0 -357 151 -357 347s157 350 357 350zM400 563c-123 0 -223 -103 -223 -229c0 -127 100 -230 223 -230c122 0 222 103 222 230c0 126 -99 229 -222 229zM296 742h-68c11 78 52 126 108 126
c18 0 44 -7 79 -20c47 -17 50 -18 62 -18c20 0 29 7 45 37h69c-16 -80 -59 -127 -118 -127c-19 0 -33 4 -70 19s-51 19 -68 19s-29 -11 -39 -36z" />
    <glyph glyph-name="Scaron" unicode="&#x160;" horiz-adv-x="532" 
d="M471 604l-68 -89c-34 38 -66 54 -105 54c-56 0 -97 -32 -97 -74c0 -36 23 -55 101 -84c148 -54 192 -102 192 -208c0 -129 -95 -219 -230 -219c-99 0 -171 39 -231 127l84 81c30 -58 80 -89 142 -89c58 0 101 40 101 94c0 28 -13 52 -39 69c-13 8 -39 20 -90 38
c-122 44 -164 91 -164 183c0 109 90 191 208 191c73 0 140 -25 196 -74zM109 867l60 59l109 -89l110 89l62 -59l-172 -139z" />
    <glyph glyph-name="Zcaron" unicode="&#x17d;" horiz-adv-x="584" 
d="M237 113h307v-113h-523l326 554h-275v113h490zM141 867l60 59l109 -89l110 89l62 -59l-172 -139z" />
    <glyph glyph-name="scaron" unicode="&#x161;" horiz-adv-x="405" 
d="M355 403l-60 -71c-26 20 -48 29 -72 29c-27 0 -47 -16 -47 -36c0 -21 12 -29 69 -49c102 -36 132 -67 132 -135c0 -91 -75 -155 -182 -155c-63 0 -122 26 -164 72l63 74c35 -35 67 -51 102 -51c32 0 56 20 56 48c0 25 -12 34 -67 54c-54 20 -64 24 -83 38
c-29 20 -43 50 -43 89c0 81 64 139 152 139c57 0 101 -14 144 -46zM45 648l60 59l109 -91l110 91l62 -59l-172 -139z" />
    <glyph glyph-name="zcaron" unicode="&#x17e;" horiz-adv-x="485" 
d="M227 105h229v-105h-443l246 330h-208v105h421zM89 648l60 59l109 -91l110 91l62 -59l-172 -139z" />
    <glyph glyph-name="Acircumflex" unicode="&#xc2;" horiz-adv-x="670" 
d="M472 141h-273l-60 -141h-138l289 681h98l280 -681h-139zM431 246l-93 240l-97 -240h190zM178 788l169 138l172 -138l-62 -60l-110 90l-109 -90z" />
    <glyph glyph-name="Ecircumflex" unicode="&#xca;" horiz-adv-x="495" 
d="M446 554h-239v-148h230v-113h-230v-180h239v-113h-369v667h369v-113zM98 788l169 138l172 -138l-62 -60l-110 90l-109 -90z" />
    <glyph glyph-name="Idieresis" unicode="&#xcf;" horiz-adv-x="283" 
d="M207 667v-667h-130v667h130zM53 884c40 0 72 -32 72 -72s-32 -72 -72 -72s-72 32 -72 72s32 72 72 72zM230 884c40 0 72 -32 72 -72s-32 -72 -72 -72s-72 32 -72 72s32 72 72 72z" />
    <glyph glyph-name="Igrave" unicode="&#xcc;" horiz-adv-x="283" 
d="M206 667v-667h-130v667h130zM-9 842l83 68l137 -133l-53 -49z" />
    <glyph glyph-name="Oacute" unicode="&#xd3;" horiz-adv-x="799" 
d="M400 682c200 0 356 -153 356 -348c0 -196 -157 -349 -356 -349c-202 0 -357 151 -357 347s157 350 357 350zM400 563c-123 0 -223 -103 -223 -229c0 -127 100 -230 223 -230c122 0 222 103 222 230c0 126 -99 229 -222 229zM549 842l-167 -114l-53 49l137 133z" />
    <glyph glyph-name="Ocircumflex" unicode="&#xd4;" horiz-adv-x="799" 
d="M400 682c200 0 356 -153 356 -348c0 -196 -157 -349 -356 -349c-202 0 -357 151 -357 347s157 350 357 350zM400 563c-123 0 -223 -103 -223 -229c0 -127 100 -230 223 -230c122 0 222 103 222 230c0 126 -99 229 -222 229zM229 788l169 138l172 -138l-62 -60l-110 90
l-109 -90z" />
    <glyph glyph-name="Uacute" unicode="&#xda;" horiz-adv-x="689" 
d="M207 667v-382c0 -68 4 -90 21 -119c22 -38 67 -62 117 -62s95 24 117 62c17 29 21 51 21 119v382h130v-408c0 -78 -15 -133 -49 -178c-46 -60 -128 -96 -219 -96s-173 36 -219 96c-34 45 -49 100 -49 178v408h130zM495 842l-167 -114l-53 49l137 133z" />
    <glyph glyph-name="Ucircumflex" unicode="&#xdb;" horiz-adv-x="689" 
d="M207 667v-382c0 -68 4 -90 21 -119c22 -38 67 -62 117 -62s95 24 117 62c17 29 21 51 21 119v382h130v-408c0 -78 -15 -133 -49 -178c-46 -60 -128 -96 -219 -96s-173 36 -219 96c-34 45 -49 100 -49 178v408h130zM175 788l169 138l172 -138l-62 -60l-110 90l-109 -90z
" />
    <glyph glyph-name="Ugrave" unicode="&#xd9;" horiz-adv-x="689" 
d="M207 667v-382c0 -68 4 -90 21 -119c22 -38 67 -62 117 -62s95 24 117 62c17 29 21 51 21 119v382h130v-408c0 -78 -15 -133 -49 -178c-46 -60 -128 -96 -219 -96s-173 36 -219 96c-34 45 -49 100 -49 178v408h130zM195 842l83 68l137 -133l-53 -49z" />
    <glyph glyph-name="exclam" unicode="!" horiz-adv-x="250" 
d="M126 144c43 0 78 -35 78 -78c0 -44 -35 -79 -78 -79c-44 0 -79 35 -79 79c0 43 35 78 79 78zM63 191v476h125v-476h-125z" />
    <glyph glyph-name="quotedbl" unicode="&#x22;" horiz-adv-x="393" 
d="M59 392l-19 275h126l-19 -275h-88zM245 392l-18 275h126l-19 -275h-89z" />
    <glyph glyph-name="numbersign" unicode="#" horiz-adv-x="545" 
d="M534 485v-94h-104l-13 -102h93v-94h-105l-25 -205l-94 13l24 192h-106l-26 -205l-95 13l24 193h-95v93h108l13 102h-97v94h108l24 192l94 -13l-22 -179h105l24 192l94 -13l-23 -179h94zM333 391h-105l-13 -102h106z" />
    <glyph glyph-name="dollar" unicode="$" 
d="M324 761v-96c67 -8 104 -26 154 -75l-66 -84c-33 37 -67 54 -108 54c-46 0 -84 -31 -84 -69c0 -37 20 -54 109 -90c127 -52 171 -102 171 -193c0 -104 -65 -180 -176 -206v-101h-62v97c-95 6 -156 41 -215 121l74 77c46 -62 90 -88 150 -88c56 0 99 38 99 88
c0 42 -21 63 -93 93c-68 29 -106 48 -127 66c-34 29 -55 75 -55 124c0 98 65 170 167 186v96h62z" />
    <glyph glyph-name="percent" unicode="%" horiz-adv-x="775" 
d="M200 675c98 0 169 -67 169 -158c0 -90 -73 -158 -170 -158s-169 67 -169 158s72 158 170 158zM200 603c-48 0 -87 -39 -87 -87c0 -47 39 -86 87 -86c47 0 86 39 86 86c0 48 -39 87 -86 87zM559 689l53 -30l-397 -687l-53 31zM576 305c98 0 169 -67 169 -158
c0 -89 -73 -157 -169 -157c-98 0 -169 67 -169 158c0 90 72 157 169 157zM576 234c-47 0 -86 -39 -86 -86c0 -48 39 -87 86 -87s86 39 86 87c0 47 -38 86 -86 86z" />
    <glyph glyph-name="ampersand" unicode="&#x26;" horiz-adv-x="710" 
d="M386 358l110 -126c37 36 58 60 82 92l77 -75c-22 -29 -29 -37 -87 -96l135 -153h-161l-66 75c-77 -63 -142 -90 -214 -90c-121 0 -209 81 -209 193c0 43 16 86 45 119c24 27 20 24 96 69c3 2 10 6 18 11c-50 55 -68 93 -68 140c0 96 76 165 182 165
c104 0 182 -68 182 -159c0 -65 -37 -115 -122 -165zM404 157l-126 145c-71 -47 -94 -74 -94 -109c0 -51 45 -93 99 -93c37 0 71 16 121 57zM324 427c57 38 76 62 76 96c0 40 -28 66 -70 66c-36 0 -64 -28 -64 -63c0 -27 7 -39 58 -99z" />
    <glyph glyph-name="quoteright" unicode="&#x2019;" horiz-adv-x="291" 
d="M130 680l111 -13l-141 -266l-77 10z" />
    <glyph glyph-name="parenleft" unicode="(" horiz-adv-x="319" 
d="M166 766l97 -53c-53 -114 -81 -256 -81 -415c0 -156 31 -314 81 -415l-97 -53c-32 61 -48 104 -63 170c-23 94 -36 205 -36 298c0 179 35 346 99 468z" />
    <glyph glyph-name="parenright" unicode=")" horiz-adv-x="319" 
d="M154 -170l-97 53c53 115 81 256 81 415c0 156 -31 313 -81 415l97 53c32 -61 48 -104 63 -170c23 -94 36 -205 36 -298c0 -179 -36 -346 -99 -468z" />
    <glyph glyph-name="asterisk" unicode="*" 
d="M258 622l-21 127h92l-21 -127l114 59l29 -88l-127 -19l91 -90l-74 -55l-58 115l-58 -115l-75 54l92 90l-127 20l29 88z" />
    <glyph glyph-name="plus" unicode="+" 
d="M60 373h183v184h80v-184h184v-80h-184v-183h-80v183h-183v80z" />
    <glyph glyph-name="comma" unicode="," horiz-adv-x="250" 
d="M111 138l111 -13l-141 -265l-77 9z" />
    <glyph glyph-name="hyphen" unicode="-" horiz-adv-x="225" 
d="M0 280h225v-101h-225v101z" />
    <glyph glyph-name="period" unicode="." horiz-adv-x="250" 
d="M126 144c43 0 78 -35 78 -78c0 -44 -35 -79 -78 -79c-44 0 -79 35 -79 79c0 43 35 78 79 78z" />
    <glyph glyph-name="slash" unicode="/" horiz-adv-x="465" 
d="M348 766l84 -33l-378 -903l-83 33z" />
    <glyph glyph-name="zero" unicode="0" 
d="M284 684c152 0 258 -143 258 -350s-106 -351 -258 -351c-153 0 -259 144 -259 351c0 206 106 350 259 350zM284 569c-75 0 -129 -98 -129 -235c0 -138 54 -236 129 -236s128 98 128 236c0 137 -53 235 -128 235z" />
    <glyph glyph-name="one" unicode="1" 
d="M227 554h-96v113h226v-667h-130v554z" />
    <glyph glyph-name="two" unicode="2" 
d="M260 113h242v-113h-485l197 223c120 137 153 189 153 244c0 58 -44 102 -102 102c-59 0 -96 -41 -98 -110h-139c9 139 99 225 236 225c133 0 233 -92 233 -215c0 -74 -36 -143 -121 -233z" />
    <glyph glyph-name="three" unicode="3" 
d="M243 307v93h15c60 0 95 35 95 94c0 48 -38 86 -87 86c-55 0 -85 -28 -92 -87h-123c18 124 95 191 219 191c122 0 206 -74 206 -182c0 -71 -20 -109 -77 -145c68 -28 102 -82 102 -163c0 -126 -97 -211 -240 -211c-130 0 -233 91 -237 209h130c8 -60 48 -94 112 -94
c60 0 105 45 105 105c0 59 -45 106 -100 106c-7 0 -17 -1 -28 -2z" />
    <glyph glyph-name="four" unicode="4" 
d="M468 222h79v-104h-79v-118h-121v118h-326v58l330 503h117v-457zM347 222v265l-172 -265h172z" />
    <glyph glyph-name="five" unicode="5" 
d="M470 554h-220l-26 -104c23 3 34 4 49 4c130 0 227 -99 227 -232c0 -141 -107 -239 -261 -239c-87 0 -153 27 -213 87l43 113c50 -58 103 -85 167 -85c74 0 134 57 134 128c0 75 -67 134 -152 134c-46 0 -87 -14 -128 -43h-7l79 350h308v-113z" />
    <glyph glyph-name="six" unicode="6" 
d="M317 694l92 -69l-158 -203c32 13 49 17 78 17c117 0 207 -96 207 -221c0 -139 -104 -235 -254 -235c-149 0 -252 95 -252 232c0 61 31 137 84 208zM283 335c-68 0 -123 -56 -123 -124c0 -70 54 -125 123 -125s123 55 123 125s-54 124 -123 124z" />
    <glyph glyph-name="seven" unicode="7" 
d="M355 554h-309v113h514l-405 -686l-105 62z" />
    <glyph glyph-name="eight" unicode="8" 
d="M171 349c-63 32 -96 81 -96 145c0 111 88 190 211 190c122 0 208 -78 208 -190c0 -66 -32 -112 -99 -145c79 -30 120 -87 120 -164c0 -119 -95 -202 -230 -202c-134 0 -233 85 -233 199c0 80 39 134 119 167zM285 589c-52 0 -93 -42 -93 -94c0 -51 42 -93 93 -93
s92 41 92 93s-41 94 -92 94zM284 295c-57 0 -102 -46 -102 -104s46 -105 102 -105s101 47 101 105s-45 104 -101 104z" />
    <glyph glyph-name="nine" unicode="9" 
d="M250 -28l-92 70l157 202c-32 -12 -50 -16 -78 -16c-116 0 -207 97 -207 221c0 137 106 235 255 235c146 0 251 -95 251 -228c0 -64 -30 -141 -84 -212zM283 581c-68 0 -123 -56 -123 -124c0 -69 55 -125 123 -125c69 0 123 55 123 125s-53 124 -123 124z" />
    <glyph glyph-name="colon" unicode=":" horiz-adv-x="250" 
d="M126 144c43 0 78 -35 78 -78c0 -44 -35 -79 -78 -79c-44 0 -79 35 -79 79c0 43 35 78 79 78zM126 448c43 0 78 -35 78 -78c0 -44 -35 -79 -78 -79c-44 0 -79 35 -79 79c0 43 35 78 79 78z" />
    <glyph glyph-name="semicolon" unicode=";" horiz-adv-x="250" 
d="M105 138l111 -13l-141 -265l-77 9zM157 447c43 0 78 -35 78 -78c0 -44 -35 -79 -78 -79c-44 0 -79 35 -79 79c0 43 35 78 79 78z" />
    <glyph glyph-name="less" unicode="&#x3c;" horiz-adv-x="500" 
d="M466 609v-128l-296 -147l296 -148v-128l-433 222v109z" />
    <glyph glyph-name="equal" unicode="=" 
d="M60 449h447v-80h-447v80zM60 297h447v-80h-447v80z" />
    <glyph glyph-name="greater" unicode="&#x3e;" horiz-adv-x="500" 
d="M33 58v129l296 147l-296 147v128l433 -221v-109z" />
    <glyph glyph-name="question" unicode="?" horiz-adv-x="489" 
d="M160 223v176c16 -3 30 -4 39 -4c69 0 121 43 121 99c0 44 -33 78 -75 78c-41 0 -73 -30 -73 -70c0 -3 0 -7 1 -13h-129c-1 6 -1 11 -1 13c0 100 91 178 207 178c108 0 198 -84 198 -185c0 -94 -59 -162 -165 -187v-85h-123zM224 144c43 0 78 -35 78 -78
c0 -44 -35 -79 -78 -79c-44 0 -79 35 -79 79c0 43 35 78 79 78z" />
    <glyph glyph-name="at" unicode="@" horiz-adv-x="764" 
d="M573 508l-27 -227c-2 -16 -3 -35 -3 -46c0 -17 5 -26 16 -26c49 0 94 82 94 169c0 135 -108 232 -259 232c-152 0 -271 -122 -271 -277c0 -161 115 -271 284 -271c74 0 130 14 203 49l2 1c3 1 4 2 4 2l4 2l3 1l3 2l29 -73c-94 -46 -155 -61 -248 -61
c-217 0 -371 144 -371 348c0 197 157 349 360 349c190 0 332 -130 332 -304c0 -132 -82 -244 -178 -244c-34 0 -63 19 -76 51c-34 -37 -69 -53 -114 -53c-95 0 -165 80 -165 188c0 112 78 196 182 196c45 0 88 -17 108 -42l4 34h84zM381 429c-53 0 -92 -48 -92 -115
c0 -55 32 -96 76 -96c58 0 109 58 109 123c0 51 -39 88 -93 88z" />
    <glyph glyph-name="A" unicode="A" horiz-adv-x="670" 
d="M472 141h-273l-60 -141h-138l289 681h98l280 -681h-139zM431 246l-93 240l-97 -240h190z" />
    <glyph glyph-name="B" unicode="B" horiz-adv-x="570" 
d="M77 0v667h165c77 0 129 -13 163 -40c37 -29 60 -81 60 -136c0 -66 -20 -104 -73 -135c89 -19 135 -77 135 -167c0 -118 -85 -189 -225 -189h-225zM207 389h37c67 0 101 29 101 87c0 56 -34 86 -99 86h-39v-173zM207 105h56c87 0 130 30 130 90c0 67 -40 95 -137 95h-49
v-185z" />
    <glyph glyph-name="C" unicode="C" horiz-adv-x="602" 
d="M558 641v-153c-54 53 -101 75 -163 75c-122 0 -218 -101 -218 -229c0 -135 93 -230 224 -230c59 0 105 21 157 73v-153c-59 -28 -107 -39 -163 -39c-198 0 -352 152 -352 348c0 194 158 349 355 349c56 0 103 -12 160 -41z" />
    <glyph glyph-name="D" unicode="D" horiz-adv-x="669" 
d="M77 0v667h191c211 0 358 -137 358 -334c0 -98 -45 -194 -121 -256c-64 -54 -137 -77 -238 -77h-190zM207 113h35c84 0 137 16 178 53c45 40 72 104 72 168s-27 126 -72 166c-43 39 -94 54 -178 54h-35v-441z" />
    <glyph glyph-name="E" unicode="E" horiz-adv-x="495" 
d="M446 554h-239v-148h230v-113h-230v-180h239v-113h-369v667h369v-113z" />
    <glyph glyph-name="F" unicode="F" horiz-adv-x="467" 
d="M430 554h-223v-148h209v-113h-209v-293h-130v667h353v-113z" />
    <glyph glyph-name="G" unicode="G" horiz-adv-x="762" 
d="M413 357h305v-21c0 -215 -126 -351 -325 -351c-202 0 -350 145 -350 345c0 204 149 352 354 352c124 0 223 -54 286 -157l-114 -61c-40 66 -98 99 -175 99c-124 0 -217 -100 -217 -233c0 -130 93 -227 218 -227c95 0 165 56 175 141h-157v113z" />
    <glyph glyph-name="H" unicode="H" horiz-adv-x="695" 
d="M207 409h282v258h130v-667h-130v296h-282v-296h-130v667h130v-258z" />
    <glyph glyph-name="I" unicode="I" horiz-adv-x="283" 
d="M207 667v-667h-130v667h130z" />
    <glyph glyph-name="J" unicode="J" horiz-adv-x="390" 
d="M313 667v-450c0 -152 -64 -233 -184 -233c-60 0 -110 20 -156 63l78 95c17 -25 39 -38 65 -38c28 0 50 15 59 42c6 19 8 38 8 92v429h130z" />
    <glyph glyph-name="K" unicode="K" horiz-adv-x="637" 
d="M207 385l245 282h164l-282 -308l297 -359h-171l-237 300l-16 -16v-284h-130v667h130v-282z" />
    <glyph glyph-name="L" unicode="L" horiz-adv-x="425" 
d="M207 667v-554h205v-113h-335v667h130z" />
    <glyph glyph-name="M" unicode="M" horiz-adv-x="868" 
d="M41 0l124 679h89l182 -436l189 436h90l111 -679h-131l-60 411l-183 -420h-36l-177 420l-67 -411h-131z" />
    <glyph glyph-name="N" unicode="N" horiz-adv-x="779" 
d="M77 0v682h90l406 -464v449h130v-680h-90l-406 464v-451h-130z" />
    <glyph glyph-name="O" unicode="O" horiz-adv-x="799" 
d="M400 682c200 0 356 -153 356 -348c0 -196 -157 -349 -356 -349c-202 0 -357 151 -357 347s157 350 357 350zM400 563c-123 0 -223 -103 -223 -229c0 -127 100 -230 223 -230c122 0 222 103 222 230c0 126 -99 229 -222 229z" />
    <glyph glyph-name="P" unicode="P" horiz-adv-x="535" 
d="M207 247v-247h-130v667h195c87 0 134 -14 176 -51c43 -38 68 -97 68 -158c0 -135 -81 -211 -225 -211h-84zM207 360h53c82 0 122 32 122 98s-41 96 -130 96h-45v-194z" />
    <glyph glyph-name="Q" unicode="Q" horiz-adv-x="796" 
d="M774 -13l-131 -13l-55 61c-59 -36 -113 -50 -187 -50c-202 0 -358 152 -358 349c0 196 157 348 360 348c200 0 357 -153 357 -349c0 -93 -28 -163 -94 -239zM500 268l74 -75c37 40 52 82 52 141c0 127 -100 229 -223 229c-128 0 -226 -99 -226 -228
c0 -133 94 -231 221 -231c40 0 66 7 96 27l-129 126z" />
    <glyph glyph-name="R" unicode="R" horiz-adv-x="575" 
d="M354 281l210 -281h-160l-180 268h-17v-268h-130v667h193c150 0 236 -72 236 -197c0 -102 -54 -169 -152 -189zM207 360h38c83 0 127 36 127 103c0 65 -44 99 -125 99h-40v-202z" />
    <glyph glyph-name="S" unicode="S" horiz-adv-x="532" 
d="M471 604l-68 -89c-34 38 -66 54 -105 54c-56 0 -97 -32 -97 -74c0 -36 23 -55 101 -84c148 -54 192 -102 192 -208c0 -129 -95 -219 -230 -219c-99 0 -171 39 -231 127l84 81c30 -58 80 -89 142 -89c58 0 101 40 101 94c0 28 -13 52 -39 69c-13 8 -39 20 -90 38
c-122 44 -164 91 -164 183c0 109 90 191 208 191c73 0 140 -25 196 -74z" />
    <glyph glyph-name="T" unicode="T" horiz-adv-x="443" 
d="M286 0h-130v554h-149v113h429v-113h-150v-554z" />
    <glyph glyph-name="U" unicode="U" horiz-adv-x="689" 
d="M207 667v-382c0 -68 4 -90 21 -119c22 -38 67 -62 117 -62s95 24 117 62c17 29 21 51 21 119v382h130v-408c0 -78 -15 -133 -49 -178c-46 -60 -128 -96 -219 -96s-173 36 -219 96c-34 45 -49 100 -49 178v408h130z" />
    <glyph glyph-name="V" unicode="V" horiz-adv-x="644" 
d="M143 667l178 -448l180 448h141l-288 -684h-70l-283 684h142z" />
    <glyph glyph-name="W" unicode="W" horiz-adv-x="976" 
d="M138 667l150 -454l163 460h71l155 -460l160 454h137l-251 -680h-91l-148 436l-156 -436h-91l-236 680h137z" />
    <glyph glyph-name="X" unicode="X" horiz-adv-x="625" 
d="M243 353l-199 314h156l118 -207l123 207h156l-205 -314l227 -353h-153l-150 244l-155 -244h-154z" />
    <glyph glyph-name="Y" unicode="Y" horiz-adv-x="583" 
d="M225 306l-230 361h154l144 -232l141 232h155l-234 -361v-306h-130v306z" />
    <glyph glyph-name="Z" unicode="Z" horiz-adv-x="584" 
d="M237 113h307v-113h-523l326 554h-275v113h490z" />
    <glyph glyph-name="bracketleft" unicode="[" horiz-adv-x="347" 
d="M204 642v-695h90v-107h-207v909h207v-107h-90z" />
    <glyph glyph-name="backslash" unicode="\" horiz-adv-x="465" 
d="M117 766l377 -903l-84 -33l-377 903z" />
    <glyph glyph-name="bracketright" unicode="]" horiz-adv-x="347" 
d="M144 -53v695h-91v107h208v-909h-208v107h91z" />
    <glyph glyph-name="asciicircum" unicode="^" horiz-adv-x="500" 
d="M141 334h-136l160 337h171l160 -337h-136l-109 233z" />
    <glyph glyph-name="underscore" unicode="_" horiz-adv-x="500" 
d="M0 -46h500v-117h-500v117z" />
    <glyph glyph-name="quoteleft" unicode="&#x2018;" horiz-adv-x="305" 
d="M154 401l-111 13l141 266l77 -10z" />
    <glyph glyph-name="a" unicode="a" horiz-adv-x="569" 
d="M390 433h121v-433h-121v56c-39 -48 -82 -70 -141 -70c-123 0 -214 99 -214 232c0 130 92 229 212 229c58 0 101 -21 143 -70v56zM282 338c-68 0 -122 -54 -122 -121s55 -122 122 -122s121 54 121 121c0 68 -54 122 -121 122z" />
    <glyph glyph-name="b" unicode="b" horiz-adv-x="569" 
d="M179 749v-372c43 49 86 70 143 70c120 0 212 -99 212 -229c0 -133 -91 -232 -214 -232c-59 0 -102 21 -141 70v-56h-121v749h121zM287 338c-67 0 -121 -54 -121 -121s55 -122 121 -122c68 0 122 54 122 121c0 68 -54 122 -122 122z" />
    <glyph glyph-name="c" unicode="c" horiz-adv-x="417" 
d="M383 421v-120c-35 27 -62 37 -98 37c-72 0 -125 -52 -125 -122c0 -71 53 -121 127 -121c35 0 64 11 96 36v-118c-40 -20 -70 -27 -114 -27c-131 0 -234 101 -234 228c0 133 103 233 241 233c39 0 73 -8 107 -26z" />
    <glyph glyph-name="d" unicode="d" horiz-adv-x="569" 
d="M390 749h121v-749h-121v56c-39 -48 -82 -70 -141 -70c-123 0 -214 99 -214 232c0 130 92 229 212 229c58 0 101 -21 143 -70v372zM282 338c-68 0 -122 -54 -122 -121s55 -122 122 -122s121 54 121 121c0 68 -54 122 -121 122z" />
    <glyph glyph-name="e" unicode="e" horiz-adv-x="518" 
d="M484 197h-325c3 -75 40 -116 107 -116c45 0 75 17 102 58l112 -18c-36 -88 -110 -135 -211 -135c-142 0 -234 90 -234 230s89 231 227 231c137 0 222 -89 222 -232v-18zM164 274h204c-13 56 -49 86 -102 86c-55 0 -91 -31 -102 -86z" />
    <glyph glyph-name="f" unicode="f" horiz-adv-x="293" 
d="M183 328v-328h-121v328h-47v105h47v139c0 66 11 101 43 135c33 34 78 54 125 54c24 0 38 -3 64 -15v-110c-27 12 -39 16 -55 16c-40 0 -56 -28 -56 -98v-121h111v-105h-111z" />
    <glyph glyph-name="g" unicode="g" 
d="M509 433v-417c0 -89 -11 -129 -49 -172c-42 -50 -106 -76 -183 -76c-124 0 -219 75 -231 181h132c12 -51 47 -78 102 -78c70 0 108 43 108 122v65c-44 -51 -86 -72 -144 -72c-124 0 -209 93 -209 228c0 131 91 233 209 233c63 0 102 -19 144 -70v56h121zM282 338
c-68 0 -122 -54 -122 -121s55 -122 122 -122s121 54 121 121c0 68 -54 122 -121 122z" />
    <glyph glyph-name="h" unicode="h" horiz-adv-x="533" 
d="M58 749h121v-372c38 50 77 70 137 70c50 0 96 -19 125 -53c25 -30 34 -61 34 -122v-272h-121v237c0 77 -23 107 -83 107c-62 0 -92 -39 -92 -122v-222h-121v749z" />
    <glyph glyph-name="i" unicode="i" horiz-adv-x="233" 
d="M177 433v-433h-121v433h121zM117 689c41 0 73 -32 73 -73c0 -40 -33 -73 -73 -73s-73 33 -73 73s33 73 73 73z" />
    <glyph glyph-name="j" unicode="j" horiz-adv-x="233" 
d="M177 433v-664h-121v664h121zM117 689c41 0 73 -32 73 -73c0 -40 -33 -73 -73 -73s-73 33 -73 73s33 73 73 73z" />
    <glyph glyph-name="k" unicode="k" horiz-adv-x="517" 
d="M179 749v-474l162 158h164l-203 -190l219 -243h-167l-162 186l-13 -13v-173h-121v749h121z" />
    <glyph glyph-name="l" unicode="l" horiz-adv-x="237" 
d="M179 749v-749h-121v749h121z" />
    <glyph glyph-name="m" unicode="m" horiz-adv-x="790" 
d="M58 433h121v-50c41 47 78 64 136 64c56 0 98 -25 131 -79c34 53 81 79 142 79c95 0 145 -58 145 -167v-280h-121v237c0 76 -21 107 -73 107c-55 0 -83 -41 -83 -122v-222h-121v230c0 37 -2 56 -9 72c-10 25 -37 42 -65 42c-27 0 -56 -16 -68 -39c-10 -18 -14 -41 -14 -83
v-222h-121v433z" />
    <glyph glyph-name="n" unicode="n" horiz-adv-x="533" 
d="M58 433h121v-54c38 49 77 68 137 68c50 0 96 -19 125 -52c25 -29 34 -61 34 -120v-275h-121v240c0 75 -23 104 -83 104c-62 0 -92 -38 -92 -120v-224h-121v433z" />
    <glyph glyph-name="o" unicode="o" horiz-adv-x="565" 
d="M283 447c146 0 247 -94 247 -230s-102 -231 -248 -231c-145 0 -247 95 -247 230c0 136 102 231 248 231zM283 338c-68 0 -123 -55 -123 -122c0 -66 55 -121 123 -121c67 0 122 54 122 121c0 68 -55 122 -122 122z" />
    <glyph glyph-name="p" unicode="p" horiz-adv-x="569" 
d="M179 -231h-121v664h121v-56c39 49 82 70 141 70c123 0 214 -99 214 -231c0 -131 -92 -230 -212 -230c-57 0 -101 21 -143 70v-287zM287 338c-67 0 -121 -54 -121 -121s55 -122 121 -122c68 0 122 54 122 121c0 68 -54 122 -122 122z" />
    <glyph glyph-name="q" unicode="q" horiz-adv-x="569" 
d="M390 -231v287c-42 -48 -85 -70 -143 -70c-120 0 -212 99 -212 230c0 133 91 231 214 231c59 0 102 -22 141 -70v56h121v-664h-121zM282 338c-68 0 -122 -54 -122 -121s55 -122 122 -122s121 54 121 121c0 68 -54 122 -121 122z" />
    <glyph glyph-name="r" unicode="r" horiz-adv-x="360" 
d="M58 433h121v-66c31 55 71 80 126 80c19 0 31 -2 53 -11l-17 -113c-21 11 -35 15 -57 15c-71 0 -105 -42 -105 -130v-208h-121v433z" />
    <glyph glyph-name="s" unicode="s" horiz-adv-x="405" 
d="M355 403l-60 -71c-26 20 -48 29 -72 29c-27 0 -47 -16 -47 -36c0 -21 12 -29 69 -49c102 -36 132 -67 132 -135c0 -91 -75 -155 -182 -155c-63 0 -122 26 -164 72l63 74c35 -35 67 -51 102 -51c32 0 56 20 56 48c0 25 -12 34 -67 54c-54 20 -64 24 -83 38
c-29 20 -43 50 -43 89c0 81 64 139 152 139c57 0 101 -14 144 -46z" />
    <glyph glyph-name="t" unicode="t" horiz-adv-x="270" 
d="M180 328v-328h-121v328h-48v105h48v148h121v-148h86v-105h-86z" />
    <glyph glyph-name="u" unicode="u" horiz-adv-x="535" 
d="M179 433v-245c0 -65 30 -99 89 -99c58 0 88 34 88 99v245h121v-265c0 -117 -75 -182 -209 -182c-135 0 -210 65 -210 182v265h121z" />
    <glyph glyph-name="v" unicode="v" horiz-adv-x="502" 
d="M137 433l114 -245l113 245h136l-223 -442h-55l-221 442h136z" />
    <glyph glyph-name="w" unicode="w" horiz-adv-x="792" 
d="M137 433l114 -250l118 262h52l118 -266l116 254h135l-224 -442h-55l-117 263l-115 -263h-56l-222 442h136z" />
    <glyph glyph-name="x" unicode="x" horiz-adv-x="562" 
d="M207 235l-167 198h153l90 -112l91 112h154l-170 -198l203 -235h-155l-124 151l-125 -151h-156z" />
    <glyph glyph-name="y" unicode="y" horiz-adv-x="535" 
d="M206 66l-205 367h141l130 -246l123 246h139l-350 -664h-137z" />
    <glyph glyph-name="z" unicode="z" horiz-adv-x="485" 
d="M227 105h229v-105h-443l246 330h-208v105h421z" />
    <glyph glyph-name="braceleft" unicode="{" horiz-adv-x="316" 
d="M197 566v-154c0 -65 -13 -91 -60 -119c39 -23 60 -56 60 -94v-186c0 -65 11 -79 63 -79h11v-102c-11 0 -19 -1 -24 -1c-17 0 -34 -1 -37 -1c-92 0 -126 39 -126 144v211c0 30 -22 55 -56 63v98c40 9 56 32 56 81v192c0 98 34 138 120 138c6 0 23 0 42 -1h17l8 -1v-102
h-11c-55 0 -63 -12 -63 -87z" />
    <glyph glyph-name="bar" unicode="|" horiz-adv-x="500" 
d="M185 667h130v-834h-130v834z" />
    <glyph glyph-name="braceright" unicode="}" horiz-adv-x="316" 
d="M119 21v154c0 66 13 91 60 119c-39 23 -60 56 -60 94v186c0 65 -11 79 -63 79h-11v102c11 1 19 1 24 1c17 1 34 1 37 1c92 0 126 -39 126 -144v-211c0 -30 22 -54 56 -62v-99c-40 -9 -56 -32 -56 -81v-191c0 -99 -34 -139 -120 -139c-5 0 -23 0 -42 1h-8l-9 1h-8v102h11
c55 0 63 12 63 87z" />
    <glyph glyph-name="asciitilde" unicode="~" horiz-adv-x="667" 
d="M161 560l-71 47c3 7 6 13 8 17c40 92 75 122 144 122c23 0 52 -7 103 -26c62 -23 66 -24 88 -24c31 0 47 12 70 52l74 -43c-22 -45 -31 -61 -48 -82c-27 -32 -70 -52 -111 -52c-21 0 -41 5 -103 28c-53 19 -65 22 -80 22c-34 0 -48 -11 -74 -61z" />
    <glyph glyph-name="exclamdown" unicode="&#xa1;" horiz-adv-x="250" 
d="M126 520c43 0 78 -35 78 -78c0 -44 -35 -79 -78 -79c-44 0 -79 35 -79 79c0 43 35 78 79 78zM63 315h125v-475h-125v475z" />
    <glyph glyph-name="cent" unicode="&#xa2;" 
d="M364 639v-79c34 -4 55 -10 79 -20v-124c-34 33 -57 44 -95 44c-70 0 -121 -54 -121 -127c0 -71 51 -124 120 -124c38 0 69 14 96 44v-124c-36 -14 -49 -17 -79 -20v-84h-63v82c-120 15 -204 108 -204 226c0 123 76 208 204 230v76h63z" />
    <glyph glyph-name="sterling" unicode="&#xa3;" 
d="M49 236v91h64c-27 48 -39 92 -39 137c0 122 107 218 244 218c144 0 224 -82 227 -232l-131 -14c2 14 3 22 3 27c0 61 -43 104 -105 104s-108 -48 -108 -112c0 -35 8 -61 37 -117c0 -1 2 -5 5 -11h149v-91h-120c2 -17 3 -31 3 -41c0 -20 -4 -43 -12 -65
c39 -13 46 -15 68 -23c41 -13 58 -17 76 -17c30 0 49 17 61 53l88 -19c-28 -98 -73 -139 -153 -139c-30 0 -53 5 -117 26c-57 18 -87 25 -109 25c-34 0 -55 -14 -68 -45l-94 17c24 56 33 71 56 92c27 25 52 36 89 38c9 22 11 34 11 53c0 16 -2 27 -7 45h-118z" />
    <glyph glyph-name="fraction" unicode="&#x2044;" horiz-adv-x="143" 
d="M244 689l53 -30l-397 -687l-53 31z" />
    <glyph glyph-name="yen" unicode="&#xa5;" 
d="M187 363h-127v91h73l-126 213h143l133 -232l132 232h144l-128 -213h75v-91h-130l-35 -63h165v-91h-165v-209h-120v209h-161v91h161z" />
    <glyph glyph-name="florin" unicode="&#x192;" 
d="M362 445h106l-11 -64h-106l-48 -267c-35 -197 -98 -261 -253 -261c-10 0 -28 1 -51 3l20 112c15 -1 29 -2 38 -2c76 0 102 35 126 166l44 249h-59l9 64h62l20 112c21 119 83 177 186 177c34 0 52 -4 83 -18l-19 -108c-21 11 -38 15 -57 15c-40 0 -60 -25 -74 -94z" />
    <glyph glyph-name="section" unicode="&#xa7;" 
d="M473 577h-121c-4 51 -29 81 -68 81s-69 -29 -69 -66c0 -36 20 -52 106 -89c76 -32 101 -47 128 -75c30 -31 45 -70 45 -119c0 -74 -40 -132 -117 -169c62 -28 91 -72 91 -137c0 -98 -82 -173 -188 -173c-118 0 -188 68 -193 190h123c1 -54 28 -87 73 -87
c40 0 72 32 72 74c0 45 -23 65 -107 94c-73 25 -100 39 -127 67c-31 31 -48 77 -48 127c0 84 43 146 114 165c-59 27 -89 72 -89 137c0 95 73 160 181 160c122 0 190 -63 194 -180zM283 386c-47 0 -84 -39 -84 -87s38 -87 84 -87s83 39 83 87s-37 87 -83 87z" />
    <glyph glyph-name="currency" unicode="&#xa4;" horiz-adv-x="667" 
d="M20 137l103 103c-29 43 -44 89 -44 137c0 51 13 92 44 138l-104 104l71 71l104 -104c48 31 88 44 142 44c48 0 90 -13 135 -43l103 102l70 -70l-102 -102c33 -52 45 -90 45 -139c0 -50 -13 -90 -43 -137l103 -103l-70 -71l-103 103c-45 -31 -91 -45 -141 -45
s-89 12 -140 44l-103 -102zM333 514c-75 0 -136 -61 -136 -136c0 -76 61 -137 136 -137s136 61 136 137c0 75 -61 136 -136 136z" />
    <glyph glyph-name="quotesingle" unicode="'" horiz-adv-x="206" 
d="M59 392l-19 275h126l-19 -275h-88z" />
    <glyph glyph-name="quotedblleft" unicode="&#x201c;" horiz-adv-x="493" 
d="M343 401l-112 13l141 266l77 -10zM154 401l-111 13l141 266l77 -10z" />
    <glyph glyph-name="guillemotleft" unicode="&#xab;" horiz-adv-x="513" 
d="M341 217l122 -161l-71 -51l-156 212l156 214l70 -49zM145 217l122 -161l-71 -51l-156 212l156 214l70 -49z" />
    <glyph glyph-name="guilsinglleft" unicode="&#x2039;" horiz-adv-x="317" 
d="M145 217l122 -161l-71 -51l-156 212l156 214l70 -49z" />
    <glyph glyph-name="guilsinglright" unicode="&#x203a;" horiz-adv-x="317" 
d="M173 217l-122 165l70 49l156 -214l-156 -212l-71 51z" />
    <glyph glyph-name="uniFB01" unicode="&#xfb01;" horiz-adv-x="518" 
d="M183 328v-328h-121v328h-47v105h47v139c0 66 11 101 43 135c33 34 78 54 125 54c24 0 38 -3 64 -15v-110c-27 12 -39 16 -55 16c-41 0 -56 -26 -56 -98v-121h111v-105h-111zM462 433v-433h-121v433h121zM402 689c40 0 73 -33 73 -73s-33 -73 -73 -73s-73 33 -73 73
s33 73 73 73z" />
    <glyph glyph-name="uniFB02" unicode="&#xfb02;" horiz-adv-x="521" 
d="M183 328v-328h-121v328h-47v105h47v139c0 65 11 101 43 134c33 34 78 54 126 54c23 0 37 -3 63 -14v-110c-27 12 -39 15 -55 15c-41 0 -56 -26 -56 -97v-121h111v-105h-111zM462 749v-749h-121v749h121z" />
    <glyph glyph-name="endash" unicode="&#x2013;" 
d="M75 280h416v-101h-416v101z" />
    <glyph glyph-name="dagger" unicode="&#x2020;" 
d="M226 749h115v-160h158v-103h-158v-646h-115v646h-158v103h158v160z" />
    <glyph glyph-name="daggerdbl" unicode="&#x2021;" 
d="M226 729h115v-160h158v-103h-158v-214h158v-103h-158v-329h-115v329h-158v103h158v214h-158v103h158v160z" />
    <glyph glyph-name="periodcentered" unicode="&#xb7;" horiz-adv-x="250" 
d="M126 302c43 0 78 -35 78 -79c0 -43 -35 -78 -78 -78c-44 0 -79 35 -79 78c0 44 35 79 79 79z" />
    <glyph glyph-name="paragraph" unicode="&#xb6;" 
d="M167 -92v430h-10c-90 0 -150 64 -150 162c0 111 67 167 201 167h335v-113h-73v-646h-110v646h-83v-646h-110z" />
    <glyph glyph-name="bullet" unicode="&#x2022;" horiz-adv-x="667" 
d="M336 477c75 0 137 -62 137 -138s-62 -139 -137 -139c-78 0 -140 62 -140 139c0 76 62 138 140 138z" />
    <glyph glyph-name="quotesinglbase" unicode="&#x201a;" horiz-adv-x="291" 
d="M130 138l111 -13l-141 -265l-77 9z" />
    <glyph glyph-name="quotedblbase" unicode="&#x201e;" horiz-adv-x="493" 
d="M150 138l111 -13l-141 -265l-77 9zM338 138l111 -13l-141 -265l-77 9z" />
    <glyph glyph-name="quotedblright" unicode="&#x201d;" horiz-adv-x="493" 
d="M150 680l111 -13l-141 -266l-77 10zM338 680l111 -13l-141 -266l-77 10z" />
    <glyph glyph-name="guillemotright" unicode="&#xbb;" horiz-adv-x="513" 
d="M173 217l-122 165l70 49l156 -214l-156 -212l-71 51zM368 217l-121 165l70 49l156 -214l-156 -212l-71 51z" />
    <glyph glyph-name="ellipsis" unicode="&#x2026;" horiz-adv-x="849" 
d="M142 143c43 0 78 -35 78 -78c0 -44 -35 -79 -78 -79c-44 0 -79 35 -79 79c0 43 35 78 79 78zM425 143c43 0 78 -35 78 -78c0 -44 -35 -79 -78 -79c-44 0 -79 35 -79 79c0 43 35 78 79 78zM708 143c43 0 78 -35 78 -78c0 -44 -35 -79 -78 -79c-44 0 -79 35 -79 79
c0 43 35 78 79 78z" />
    <glyph glyph-name="perthousand" unicode="&#x2030;" horiz-adv-x="1169" 
d="M200 675c98 0 169 -67 169 -158c0 -90 -73 -158 -170 -158s-169 67 -169 158s72 158 170 158zM200 603c-48 0 -87 -39 -87 -87c0 -47 39 -86 87 -86c47 0 86 39 86 86c0 48 -39 87 -86 87zM559 689l53 -30l-397 -687l-53 31zM576 305c98 0 169 -67 169 -158
c0 -89 -73 -157 -169 -157c-98 0 -169 67 -169 158c0 90 72 157 169 157zM576 234c-47 0 -86 -39 -86 -86c0 -48 39 -87 86 -87s86 39 86 87c0 47 -38 86 -86 86zM970 305c98 0 169 -67 169 -158c0 -89 -73 -157 -170 -157s-169 67 -169 158c0 90 72 157 170 157zM970 234
c-48 0 -87 -39 -87 -86c0 -48 39 -87 86 -87c48 0 87 39 87 87c0 47 -39 86 -86 86z" />
    <glyph glyph-name="questiondown" unicode="&#xbf;" horiz-adv-x="489" 
d="M328 284v-176c-16 3 -30 4 -39 4c-69 0 -121 -43 -121 -99c0 -44 33 -78 75 -78c41 0 73 30 73 70c0 3 0 7 -1 13h129c1 -6 1 -11 1 -13c0 -100 -91 -178 -207 -178c-108 0 -198 84 -198 185c0 94 59 162 165 187v85h123zM266 520c43 0 78 -35 78 -78
c0 -44 -35 -79 -78 -79c-44 0 -79 35 -79 79c0 43 35 78 79 78z" />
    <glyph glyph-name="grave" unicode="`" horiz-adv-x="500" 
d="M93 644l88 56l120 -151l-58 -40z" />
    <glyph glyph-name="acute" unicode="&#xb4;" horiz-adv-x="500" 
d="M408 644l-150 -135l-58 40l119 151z" />
    <glyph glyph-name="circumflex" unicode="&#x2c6;" horiz-adv-x="500" 
d="M80 569l169 138l172 -138l-62 -60l-110 92l-109 -92z" />
    <glyph glyph-name="tilde" unicode="&#x2dc;" horiz-adv-x="500" 
d="M137 523h-68c11 78 52 125 108 125c18 0 44 -6 79 -20c46 -17 50 -18 63 -18c19 0 28 7 44 37h69c-16 -79 -59 -126 -118 -126c-19 0 -32 3 -70 19c-36 14 -52 18 -68 18c-17 0 -29 -10 -39 -35z" />
    <glyph glyph-name="macron" unicode="&#xaf;" horiz-adv-x="500" 
d="M90 631h320v-80h-320v80z" />
    <glyph glyph-name="breve" unicode="&#x2d8;" horiz-adv-x="500" 
d="M86 650h84c15 -45 38 -63 80 -63s65 18 81 63h84c-11 -87 -74 -141 -165 -141c-90 0 -153 54 -164 141z" />
    <glyph glyph-name="dotaccent" unicode="&#x2d9;" horiz-adv-x="500" 
d="M250 665c41 0 75 -34 75 -75c0 -42 -34 -76 -75 -76c-42 0 -76 34 -76 76c0 41 34 75 76 75z" />
    <glyph glyph-name="dieresis" unicode="&#xa8;" horiz-adv-x="500" 
d="M146 658c40 0 72 -32 72 -72s-32 -72 -72 -72c-39 0 -72 32 -72 72s32 72 72 72zM353 658c40 0 72 -32 72 -72s-32 -72 -72 -72c-39 0 -72 32 -72 72s32 72 72 72z" />
    <glyph glyph-name="ring" unicode="&#x2da;" horiz-adv-x="500" 
d="M250 693c51 0 92 -41 92 -92s-41 -92 -92 -92s-92 41 -92 92s41 92 92 92zM250 636c-19 0 -35 -16 -35 -35s16 -35 35 -35s35 16 35 35c0 20 -15 35 -35 35z" />
    <glyph glyph-name="cedilla" unicode="&#xb8;" horiz-adv-x="500" 
d="M351 -88l-115 -125l-61 35l98 133z" />
    <glyph glyph-name="hungarumlaut" unicode="&#x2dd;" horiz-adv-x="500" 
d="M288 644l-134 -135l-49 40l101 151zM474 644l-133 -135l-49 40l100 151z" />
    <glyph glyph-name="ogonek" unicode="&#x2db;" horiz-adv-x="500" 
d="M281 0h58c-39 -27 -56 -50 -56 -74s18 -40 44 -40c15 0 30 4 47 13l-14 -67c-18 -11 -40 -17 -63 -17c-52 0 -90 33 -90 78c0 40 23 74 74 107z" />
    <glyph glyph-name="caron" unicode="&#x2c7;" horiz-adv-x="500" 
d="M80 648l60 59l109 -91l110 91l62 -59l-172 -139z" />
    <glyph glyph-name="emdash" unicode="&#x2014;" horiz-adv-x="673" 
d="M0 280h673v-101h-673v101z" />
    <glyph glyph-name="AE" unicode="&#xc6;" horiz-adv-x="920" 
d="M475 141h-272l-58 -141h-138l287 667h352l44 -113h-245l60 -149h242l45 -113h-242l74 -179h246l43 -113h-381zM435 246l-92 227l-97 -227h189z" />
    <glyph glyph-name="ordfeminine" unicode="&#xaa;" horiz-adv-x="339" 
d="M233 659h72v-259h-72v34c-23 -30 -49 -43 -84 -43c-74 0 -128 59 -128 139c0 78 55 137 127 137c34 0 60 -13 85 -42v34zM168 602c-40 0 -72 -33 -72 -73s32 -73 72 -73s72 33 72 73c0 41 -32 73 -72 73zM31 362h273v-55h-273v55z" />
    <glyph glyph-name="Lslash" unicode="&#x141;" horiz-adv-x="425" 
d="M205 667v-217l123 83v-115l-123 -82v-223h207v-113h-337v266l-71 -49v115l71 48v287h130z" />
    <glyph glyph-name="Oslash" unicode="&#xd8;" horiz-adv-x="805" 
d="M737 663l-73 -89c24 -29 34 -42 44 -59c32 -52 51 -119 51 -181c0 -191 -157 -349 -347 -349c-48 0 -111 10 -153 25c-18 6 -25 9 -46 23l-74 -87l-69 63l67 86c-67 82 -91 147 -91 237c0 196 157 350 357 350c68 0 124 -15 184 -48l76 91zM580 471l-287 -339
c43 -21 70 -28 109 -28c123 0 223 103 223 230c0 52 -15 96 -45 137zM224 197l282 341c-39 18 -66 25 -104 25c-122 0 -222 -103 -222 -229c0 -51 17 -102 44 -137z" />
    <glyph glyph-name="OE" unicode="&#x152;" horiz-adv-x="1037" 
d="M988 554h-234v-149h224v-113h-224v-179h234v-113h-362v90c-65 -73 -137 -105 -232 -105c-198 0 -351 154 -351 351c0 189 158 346 348 346c96 0 168 -32 235 -105v90h362v-113zM389 563c-117 0 -212 -103 -212 -231c0 -126 95 -228 212 -228c126 0 224 100 224 228
c0 127 -100 231 -224 231z" />
    <glyph glyph-name="ordmasculine" unicode="&#xba;" horiz-adv-x="337" 
d="M169 668c87 0 147 -56 147 -138s-61 -139 -148 -139c-86 0 -147 57 -147 138c0 82 61 139 148 139zM169 602c-40 0 -73 -33 -73 -72c0 -40 33 -73 73 -73c39 0 72 33 72 73s-32 72 -72 72zM36 362h274v-55h-274v55z" />
    <glyph glyph-name="ae" unicode="&#xe6;" horiz-adv-x="807" 
d="M773 197h-327c4 -73 46 -117 111 -117c45 0 80 21 98 59l113 -18c-35 -86 -112 -135 -213 -135c-75 0 -131 27 -169 82c-41 -54 -99 -82 -172 -82c-108 0 -179 56 -179 143c0 85 70 142 175 142c46 0 80 -9 119 -31c1 8 1 17 1 22c0 58 -40 90 -111 90
c-38 0 -77 -6 -118 -18v97c46 11 87 16 124 16c79 0 127 -22 161 -74c38 49 94 74 163 74c139 0 224 -89 224 -234v-16zM450 274h206c-15 57 -48 86 -101 86c-56 0 -88 -26 -105 -86zM239 185c-55 0 -87 -20 -87 -53c0 -35 36 -59 88 -59c49 0 89 28 89 61
c0 29 -38 51 -90 51z" />
    <glyph glyph-name="dotlessi" unicode="&#x131;" horiz-adv-x="234" 
d="M178 433v-433h-121v433h121z" />
    <glyph glyph-name="lslash" unicode="&#x142;" horiz-adv-x="269" 
d="M194 749v-249l75 55v-112l-75 -52v-391h-121v335l-73 -52v111l73 49v306h121z" />
    <glyph glyph-name="oslash" unicode="&#xf8;" horiz-adv-x="566" 
d="M520 443l-54 -64c42 -45 64 -99 64 -162c0 -136 -102 -231 -248 -231c-43 0 -83 9 -124 27l-59 -69l-52 46l52 63c-42 44 -64 98 -64 163c0 136 102 231 248 231c45 0 83 -8 124 -27l57 69zM385 283l-150 -178c18 -7 30 -10 47 -10c68 0 123 54 123 121
c0 25 -6 43 -20 67zM180 150l150 178c-17 7 -31 10 -48 10c-67 0 -122 -55 -122 -122c0 -24 6 -42 20 -66z" />
    <glyph glyph-name="oe" unicode="&#x153;" horiz-adv-x="884" 
d="M848 197h-329c5 -73 46 -117 110 -117c45 0 79 20 101 60l113 -19c-35 -88 -111 -135 -216 -135c-74 0 -131 28 -171 84c-55 -62 -103 -84 -183 -84c-138 0 -239 96 -239 229c0 136 102 232 246 232c70 0 130 -27 176 -79c41 55 93 79 172 79c142 0 221 -89 220 -250z
M524 274h207c-15 58 -48 86 -103 86s-88 -28 -104 -86zM279 337c-67 0 -119 -51 -119 -118c0 -71 51 -124 118 -124c66 0 117 54 117 124c0 65 -52 118 -116 118z" />
    <glyph glyph-name="germandbls" unicode="&#xdf;" horiz-adv-x="566" 
d="M58 0v545c0 138 76 216 211 216c125 0 209 -78 209 -195c0 -60 -24 -102 -81 -142c91 -39 135 -103 135 -199c0 -149 -100 -239 -263 -239h-12v109c92 3 150 55 150 135s-54 127 -150 133v105c67 2 104 37 104 95c0 53 -37 89 -93 89c-37 0 -69 -21 -79 -52
c-8 -23 -10 -45 -10 -107v-493h-121z" />
    <glyph glyph-name="Ccedilla" unicode="&#xc7;" horiz-adv-x="602" 
d="M558 641v-153c-47 49 -100 73 -163 73c-122 0 -218 -100 -218 -226c0 -132 93 -231 217 -231c62 0 115 24 164 73v-153c-69 -29 -111 -39 -163 -39c-198 0 -352 152 -352 348c0 193 158 347 355 347c56 0 103 -12 160 -39zM446 -93l-121 -128l-63 40l100 139z" />
    <glyph glyph-name="ccedilla" unicode="&#xe7;" horiz-adv-x="417" 
d="M383 421v-120c-35 30 -62 41 -99 41c-71 0 -124 -54 -124 -126c0 -73 53 -125 127 -125c35 0 64 12 96 40v-118c-40 -20 -70 -27 -114 -27c-131 0 -234 101 -234 228c0 133 103 233 241 233c39 0 72 -8 107 -26zM324 -88l-116 -125l-60 35l98 133z" />
    <glyph glyph-name="infinity" unicode="&#x221e;" horiz-adv-x="713" 
d="M357 302c56 75 119 112 189 112c83 0 143 -61 143 -147c0 -92 -56 -153 -141 -153c-63 0 -133 41 -191 113c-70 -83 -118 -112 -188 -112c-86 0 -144 60 -144 149c0 86 61 150 145 150c64 0 129 -39 187 -112zM391 264c70 -77 104 -98 159 -98c54 0 89 39 89 99
c0 57 -39 97 -95 97c-31 0 -70 -16 -103 -44c-17 -14 -32 -29 -44 -47c-4 -4 -6 -7 -6 -7zM324 266c-66 71 -106 96 -156 96c-57 0 -93 -38 -93 -98c0 -57 36 -97 88 -97c44 0 87 22 134 68c9 9 16 17 22 24c3 4 5 7 5 7z" />
    <glyph glyph-name="mu" unicode="&#x3bc;" horiz-adv-x="576" 
d="M442 500v-369c0 -54 20 -90 49 -90c24 0 46 30 49 68l27 -1c-14 -78 -56 -121 -120 -121c-50 0 -77 27 -93 93c-53 -62 -104 -93 -155 -93c-34 0 -56 11 -98 46c0 -37 1 -48 12 -86c16 -58 19 -71 19 -92c0 -45 -20 -74 -50 -74c-28 0 -49 30 -49 69c0 27 0 30 17 94
c8 30 12 54 12 76v480h88v-331c0 -70 34 -111 91 -111c43 0 77 22 112 73v369h89z" />
    <glyph glyph-name="apple" horiz-adv-x="790" 
d="M570 698v-11c0 -87 -86 -165 -181 -164c2 97 70 163 181 175zM714 461c-59 -45 -81 -84 -81 -141c0 -67 37 -123 100 -150c-59 -122 -134 -197 -198 -197c-18 0 -39 5 -65 17c-25 11 -30 12 -66 12c-25 0 -35 -2 -56 -12c-31 -13 -47 -17 -67 -17
c-102 0 -225 185 -225 339c0 122 93 221 207 221c25 0 52 -6 90 -20c23 -8 41 -12 51 -12s23 3 41 10c48 18 63 22 92 22c76 0 133 -23 177 -72z" />
    <glyph glyph-name="Eth" unicode="&#xd0;" horiz-adv-x="669" 
d="M77 383v284h191c211 0 358 -137 358 -335c0 -98 -45 -193 -121 -255c-65 -54 -137 -77 -238 -77h-190v283h-56v100h56zM207 383h142v-100h-142v-170h35c84 0 137 16 178 53c45 40 72 103 72 167c0 65 -27 126 -72 167c-44 39 -93 54 -178 54h-35v-171z" />
    <glyph glyph-name="eth" unicode="&#xf0;" horiz-adv-x="565" 
d="M367 732l41 -82l-74 -38c124 -114 196 -256 196 -388c0 -143 -97 -238 -244 -238c-149 0 -251 95 -251 233c0 135 104 228 255 228c2 0 9 0 17 -1c-26 49 -47 79 -78 115l-93 -47l-39 80l72 37c-19 15 -23 17 -66 37c-5 2 -12 6 -21 10l36 72c52 -20 104 -48 136 -74z
M283 338c-68 0 -123 -55 -123 -122c0 -66 55 -121 123 -121c67 0 122 54 122 121c0 69 -53 122 -122 122z" />
    <glyph glyph-name="Thorn" unicode="&#xde;" horiz-adv-x="537" 
d="M207 149v-149h-130v667h130v-94h58c72 0 117 -9 155 -30c61 -35 97 -102 97 -180c0 -135 -84 -214 -227 -214h-83zM207 270h49c80 0 116 29 116 93c0 61 -38 90 -117 90h-48v-183z" />
    <glyph glyph-name="thorn" unicode="&#xfe;" 
d="M183 -228h-125v957h125v-341c40 42 80 60 134 60c126 0 215 -96 215 -233c0 -129 -92 -228 -213 -228c-55 0 -94 17 -136 58v-273zM289 336c-66 0 -111 -49 -111 -120c0 -72 45 -120 111 -120c63 0 109 51 109 120c0 71 -45 120 -109 120z" />
    <glyph glyph-name="Yacute" unicode="&#xdd;" horiz-adv-x="583" 
d="M225 306l-230 361h154l144 -232l141 232h155l-234 -361v-306h-130v306zM442 842l-167 -114l-53 49l137 133z" />
    <glyph glyph-name="yacute" unicode="&#xfd;" horiz-adv-x="535" 
d="M206 66l-205 367h141l130 -246l123 246h139l-350 -664h-137zM411 644l-150 -135l-57 40l119 151z" />
    <glyph glyph-name="trademark" unicode="&#x2122;" horiz-adv-x="721" 
d="M164 592v-305h-85v305h-82v75h249v-75h-82zM260 287l68 387h62l93 -231l98 231h62l61 -387h-85l-29 209l-91 -214h-33l-88 214l-33 -209h-85z" />
    <glyph glyph-name="copyright" unicode="&#xa9;" horiz-adv-x="760" 
d="M511 516v-109c-5 5 -9 8 -11 11c-32 30 -60 42 -97 42c-70 0 -126 -56 -126 -127c0 -74 53 -127 130 -127c40 0 59 9 104 52v-109c-37 -17 -71 -25 -108 -25c-125 0 -222 91 -222 209c0 116 100 209 224 209c37 0 65 -7 106 -26zM382 682c189 0 344 -157 344 -348
c0 -192 -155 -349 -344 -349c-193 0 -349 155 -349 349c0 193 155 348 349 348zM381 619c-155 0 -279 -127 -279 -286c0 -158 125 -286 279 -286c151 0 275 129 275 286s-124 286 -275 286z" />
    <glyph glyph-name="registered" unicode="&#xae;" horiz-adv-x="760" 
d="M426 298l132 -165h-117l-112 155v-155h-94v400h127c97 0 152 -44 152 -123c0 -56 -32 -97 -88 -112zM329 355h17c47 0 72 18 72 53c0 34 -24 51 -71 51h-18v-104zM382 682c189 0 344 -157 344 -348c0 -192 -155 -349 -344 -349c-193 0 -349 155 -349 349
c0 193 155 348 349 348zM381 619c-155 0 -279 -127 -279 -286c0 -158 125 -286 279 -286c151 0 275 129 275 286s-124 286 -275 286z" />
    <glyph glyph-name="onequarter" unicode="&#xbc;" horiz-adv-x="909" 
d="M150 594h-58v73h142v-400h-84v327zM621 689l53 -30l-397 -687l-53 31zM828 138h47v-69h-47v-69h-78v69h-194v37l198 301h74v-269zM750 138v142l-92 -142h92z" />
    <glyph glyph-name="onehalf" unicode="&#xbd;" horiz-adv-x="892" 
d="M150 594h-58v73h142v-400h-84v327zM621 689l53 -30l-397 -687l-53 31zM699 73h138v-73h-297l121 137c64 73 88 112 88 144c0 31 -26 58 -56 58c-32 0 -54 -25 -54 -61v-7h-89c6 88 59 141 143 141c80 0 141 -57 141 -131c0 -46 -21 -87 -72 -141z" />
    <glyph glyph-name="threequarters" unicode="&#xbe;" horiz-adv-x="906" 
d="M160 446v63c5 -1 11 -1 13 -1c33 0 52 19 52 51c0 27 -21 48 -48 48c-31 0 -47 -15 -52 -50h-79c11 80 56 121 133 121c74 0 125 -46 125 -112c0 -38 -13 -66 -42 -86c37 -17 57 -53 57 -101c0 -73 -60 -125 -145 -125c-80 0 -140 55 -144 131h84c4 -38 27 -58 64 -58
c34 0 60 26 60 60s-26 60 -59 60c-5 0 -12 -1 -19 -1zM618 689l53 -30l-397 -687l-53 31zM825 138h47v-69h-47v-69h-78v69h-194v37l198 301h74v-269zM747 138v142l-92 -142h92z" />
    <glyph glyph-name="minus" unicode="&#x2212;" 
d="M60 373h447v-80h-447v80z" />
    <glyph glyph-name="multiply" unicode="&#xd7;" 
d="M145 529l139 -139l139 139l56 -57l-139 -139l139 -139l-56 -56l-139 139l-139 -139l-57 56l139 139l-139 139z" />
    <glyph glyph-name="plusminus" unicode="&#xb1;" horiz-adv-x="549" 
d="M302 662v-245h237v-55h-237v-233h-55v233h-237v55h237v245h55zM11 55h524v-55h-524v55z" />
    <glyph glyph-name="divide" unicode="&#xf7;" horiz-adv-x="549" 
d="M273 120c34 0 62 -28 62 -62s-28 -62 -62 -62s-62 28 -62 62s28 62 62 62zM273 519c34 0 62 -28 62 -62s-28 -62 -62 -62s-62 28 -62 62s28 62 62 62zM10 288h526v-55h-526v55z" />
    <glyph glyph-name="logicalnot" unicode="&#xac;" horiz-adv-x="500" 
d="M336 0v150h-303v117h433v-267h-130z" />
    <glyph glyph-name="degree" unicode="&#xb0;" horiz-adv-x="400" 
d="M201 686c85 0 149 -65 149 -153c0 -86 -66 -153 -150 -153c-85 0 -150 67 -150 154c0 84 68 152 151 152zM199 629c-52 0 -93 -44 -93 -99c0 -49 43 -93 91 -93c55 0 96 41 96 95c0 55 -40 97 -94 97z" />
    <glyph glyph-name="brokenbar" unicode="&#xa6;" horiz-adv-x="500" 
d="M185 667h130v-347h-130v347zM185 153h130v-320h-130v320z" />
    <glyph glyph-name="uni00B9" unicode="&#xb9;" horiz-adv-x="387" 
d="M155 594h-58v73h142v-400h-84v327z" />
    <glyph glyph-name="uni00B2" unicode="&#xb2;" horiz-adv-x="387" 
d="M187 340h138v-73h-297l121 137c64 73 88 112 88 145c0 31 -26 58 -56 58c-32 0 -54 -25 -54 -62v-7h-89c6 89 59 142 143 142c80 0 141 -57 141 -132c0 -45 -21 -87 -72 -141z" />
    <glyph glyph-name="uni00B3" unicode="&#xb3;" horiz-adv-x="387" 
d="M166 446v63c5 -1 11 -1 13 -1c33 0 52 19 52 51c0 27 -21 48 -48 48c-31 0 -47 -15 -52 -50h-79c11 80 56 121 133 121c74 0 125 -46 125 -112c0 -38 -13 -66 -42 -86c37 -17 57 -53 57 -101c0 -73 -60 -125 -145 -125c-80 0 -140 55 -144 131h84c4 -38 27 -58 64 -58
c34 0 60 26 60 60s-26 60 -59 60c-5 0 -12 -1 -19 -1z" />
    <glyph glyph-name="notequal" unicode="&#x2260;" horiz-adv-x="549" 
d="M187 141h-172v55h199l70 139h-269v55h297l80 159l47 -24l-68 -135h169v-55h-197l-70 -139h267v-55h-295l-84 -166l-46 24z" />
    <glyph glyph-name="lessequal" unicode="&#x2264;" horiz-adv-x="549" 
d="M526 55v-55h-497v55h497zM526 639v-62l-418 -199l418 -199v-62l-497 233v55z" />
    <glyph glyph-name="greaterequal" unicode="&#x2265;" horiz-adv-x="549" 
d="M526 55v-55h-497v55h497zM29 639l497 -234v-55l-497 -233v62l418 199l-418 199v62z" />
    <glyph glyph-name="partialdiff" unicode="&#x2202;" horiz-adv-x="494" 
d="M107 674l-41 51c56 21 89 28 129 28c153 0 267 -150 267 -351c0 -122 -36 -259 -85 -325c-41 -57 -98 -87 -163 -87c-107 0 -188 85 -188 198c0 117 92 224 193 224c53 0 88 -15 153 -66c6 50 7 72 7 105c0 162 -59 255 -162 255c-33 0 -66 -10 -110 -32zM366 312
c-42 42 -67 55 -105 55c-81 0 -148 -94 -148 -208c0 -87 33 -138 90 -138c41 0 85 34 111 86c16 33 28 68 35 105c12 57 18 98 17 100z" />
    <glyph glyph-name="summation" unicode="&#x2211;" horiz-adv-x="713" 
d="M176 711l188 -370l-201 -352h328c116 0 146 17 178 98h26l-54 -210h-627l242 408l-233 467h599l10 -165h-26c-17 101 -47 124 -162 124h-268z" />
    <glyph glyph-name="product" unicode="&#x220f;" horiz-adv-x="823" 
d="M25 -124v26h3c33 0 60 12 74 31c11 17 14 33 14 85v591c0 52 -3 68 -14 85c-14 19 -41 31 -74 31h-3v26h778v-26h-3c-33 0 -60 -12 -74 -31c-11 -17 -14 -33 -14 -85v-591c0 -52 3 -68 14 -85c14 -19 41 -31 74 -31h3v-26h-290v26h3c33 0 60 12 74 31c11 17 14 33 14 85
v576c0 62 -4 83 -18 96c-11 10 -28 15 -59 17c-9 1 -19 1 -48 1h-67c-106 0 -116 0 -139 -4c-41 -7 -49 -26 -49 -110v-576c0 -52 3 -68 14 -85c14 -19 41 -31 74 -31h3v-26h-290z" />
    <glyph glyph-name="pi" unicode="&#x3c0;" horiz-adv-x="549" 
d="M30 348h-20c17 60 33 89 61 117c29 28 48 35 102 35h350v-89h-126c-7 -54 -12 -147 -12 -221c0 -68 22 -105 64 -105c33 0 52 25 57 73h24c-3 -51 -7 -72 -23 -101c-24 -45 -58 -70 -96 -70c-63 0 -99 67 -99 184c0 55 9 161 21 240h-109l-12 -129c-3 -36 -2 -27 -9 -79
c-10 -86 -14 -116 -18 -133c-13 -55 -38 -83 -74 -83c-30 0 -54 24 -54 56c0 21 10 37 40 65c34 32 48 53 51 81l26 222h-46c-48 0 -64 -11 -98 -63z" />
    <glyph glyph-name="integral" unicode="&#x222b;" horiz-adv-x="274" 
d="M180 576v-344c0 -107 -10 -207 -25 -261c-14 -49 -48 -78 -92 -78c-37 0 -61 17 -61 44c0 19 15 33 36 33c13 0 21 -6 30 -22c6 -13 13 -18 21 -18c19 0 31 23 31 60c0 14 -1 45 -3 73c-3 62 -4 100 -4 169v345c0 105 10 207 25 261c14 49 49 78 92 78
c38 0 61 -17 61 -46c0 -18 -16 -31 -36 -31c-16 0 -23 6 -40 33c-2 4 -7 6 -13 6c-19 0 -29 -23 -29 -65c0 -13 1 -39 3 -67c3 -51 4 -101 4 -170z" />
    <glyph glyph-name="Omega" unicode="&#x3a9;" horiz-adv-x="768" 
d="M326 0h-292v153h24c7 -44 29 -63 69 -63h146l-3 38c-129 46 -202 138 -202 254c0 165 145 304 317 304s317 -139 317 -304c0 -116 -73 -208 -202 -254l-3 -38h146c40 0 62 19 69 63h24v-153h-292l18 155c78 44 128 133 128 227c0 146 -90 260 -205 260
s-205 -114 -205 -260c0 -94 50 -183 128 -227z" />
    <glyph glyph-name="radical" unicode="&#x221a;" horiz-adv-x="549" 
d="M363 -35l-242 496l-95 -47l-16 35l146 71l195 -394l127 787l37 -5z" />
    <glyph glyph-name="approxequal" unicode="&#x2248;" horiz-adv-x="549" 
d="M489 251l38 -34c-30 -56 -78 -85 -141 -85c-23 0 -43 3 -66 10l-16 5c-44 14 -17 6 -81 25c-35 10 -46 12 -63 12c-41 0 -56 -10 -103 -63l-43 34c40 57 87 84 146 84c28 0 53 -5 125 -28c72 -22 80 -24 101 -24c37 0 59 13 103 64zM489 408l38 -33
c-30 -57 -78 -86 -141 -86c-23 0 -43 3 -66 10c-65 20 -33 11 -97 30c-35 10 -46 12 -63 12c-41 0 -56 -10 -103 -63l-43 34c40 57 87 84 146 84c28 0 53 -5 125 -28c72 -22 80 -24 101 -24c37 0 58 13 103 64z" />
    <glyph glyph-name="Delta" unicode="&#x394;" horiz-adv-x="612" 
d="M6 0l321 688l281 -688h-602zM77 51h402l-189 458z" />
    <glyph glyph-name="lozenge" unicode="&#x25ca;" horiz-adv-x="494" 
d="M209 0l-191 377l196 363h63l189 -366l-197 -374h-60zM240 58l162 316l-157 309l-164 -306z" />
  </font>
</defs>
</svg>
