<?xml version="1.0" standalone="no"?>
<!DOCTYPE svg PUBLIC "-//W3C//DTD SVG 1.1//EN" "http://www.w3.org/Graphics/SVG/1.1/DTD/svg11.dtd" >
<svg>
<metadata>
Created by FontForge 20120731 at Tue May  7 12:52:04 2013
 By Michael Sachs
Copyright URW Software, Copyright 1992 by URW
</metadata>
<defs>
<font id="FuturaT-DemiOblique" horiz-adv-x="567" >
  <font-face 
    font-family="FuturTDemObl"
    font-weight="600"
    font-style="oblique"
    font-stretch="normal"
    units-per-em="1000"
    panose-1="2 0 7 3 0 0 0 0 0 0"
    ascent="800"
    descent="-200"
    x-height="404"
    cap-height="667"
    bbox="-60 -219 1097 916"
    underline-thickness="117"
    underline-position="-104"
    slope="-7"
    stemh="108"
    stemv="132"
    unicode-range="U+0020-FB02"
  />
    <missing-glyph />
    <glyph glyph-name="space" unicode=" " horiz-adv-x="250" 
 />
    <glyph glyph-name="Adieresis" unicode="&#xc4;" horiz-adv-x="620" 
d="M-15 0l336 667h129l142 -667h-138l-22 109h-246l-54 -109h-147zM408 232l-33 166c-7 31 -9 52 -9 73c0 8 0 15 2 34l-9 1c-8 -39 -18 -66 -44 -120l-74 -154h167zM296 860c39 0 70 -31 70 -70s-31 -70 -70 -70s-70 31 -70 70s31 70 70 70zM489 860c39 0 70 -31 70 -70
s-31 -70 -70 -70s-70 31 -70 70s31 70 70 70z" />
    <glyph glyph-name="Aring" unicode="&#xc5;" horiz-adv-x="620" 
d="M-15 0l336 667h129l142 -667h-138l-22 109h-246l-54 -109h-147zM408 232l-33 166c-7 31 -9 52 -9 73c0 8 0 15 2 34l-9 1c-8 -39 -18 -66 -44 -120l-74 -154h167zM395 913c55 0 100 -45 100 -100s-45 -100 -100 -100s-100 45 -100 100s45 100 100 100zM395 851
c-21 0 -38 -17 -38 -38s17 -38 38 -38s38 17 38 38s-17 38 -38 38z" />
    <glyph glyph-name="Eacute" unicode="&#xc9;" horiz-adv-x="469" 
d="M49 0l82 667h345l-15 -123h-212l-18 -148h204l-15 -123h-204l-18 -150h212l-16 -123h-345zM435 792l-160 -75l-52 50l139 108z" />
    <glyph glyph-name="Ntilde" unicode="&#xd1;" horiz-adv-x="749" 
d="M49 0l82 667h134l228 -379c27 -44 35 -62 47 -106l8 2c-3 23 -4 33 -4 51c0 20 1 42 5 68l44 364h134l-82 -667h-134l-222 365c-29 48 -45 84 -54 117l-7 -2c4 -25 5 -37 5 -53c0 -13 -1 -19 -3 -43l-48 -384h-133zM325 722h-67c20 76 67 124 122 124c17 0 42 -6 74 -20
c42 -16 47 -18 59 -18c20 0 29 7 48 37h68c-25 -78 -74 -125 -131 -125c-19 0 -32 4 -66 19s-49 19 -64 19c-18 0 -30 -11 -43 -36z" />
    <glyph glyph-name="Odieresis" unicode="&#xd6;" horiz-adv-x="760" 
d="M414 680c188 0 319 -130 319 -317c0 -215 -151 -376 -352 -376c-196 0 -327 129 -327 322c0 216 150 371 360 371zM411 547c-123 0 -214 -101 -214 -238c0 -112 76 -189 186 -189c118 0 207 102 207 237c0 114 -72 190 -179 190zM352 860c39 0 70 -31 70 -70
s-31 -70 -70 -70s-70 31 -70 70s31 70 70 70zM545 860c39 0 70 -31 70 -70s-31 -70 -70 -70s-70 31 -70 70s31 70 70 70z" />
    <glyph glyph-name="Udieresis" unicode="&#xdc;" horiz-adv-x="664" 
d="M131 667h133l-45 -368c-4 -34 -7 -64 -7 -79c0 -65 39 -100 110 -100c92 0 124 42 141 182l45 365h133l-48 -392c-13 -110 -30 -163 -62 -204c-45 -55 -119 -84 -219 -84c-152 0 -236 71 -236 197c0 28 2 55 8 105zM304 860c39 0 70 -31 70 -70s-31 -70 -70 -70
s-70 31 -70 70s31 70 70 70zM497 860c39 0 70 -31 70 -70s-31 -70 -70 -70s-70 31 -70 70s31 70 70 70z" />
    <glyph glyph-name="aacute" unicode="&#xe1;" horiz-adv-x="535" 
d="M377 404h121l-49 -404h-125l11 57c-48 -51 -85 -70 -139 -70c-98 0 -164 76 -164 188c0 139 87 242 203 242c58 0 91 -17 135 -71zM272 319c-60 0 -107 -56 -107 -128c0 -57 34 -95 85 -95c60 0 105 54 105 126c0 60 -32 97 -83 97zM459 569l-150 -102l-64 44l124 132z
" />
    <glyph glyph-name="agrave" unicode="&#xe0;" horiz-adv-x="535" 
d="M377 404h121l-49 -404h-125l11 57c-48 -51 -85 -70 -139 -70c-98 0 -164 76 -164 188c0 139 87 242 203 242c58 0 91 -17 135 -71zM272 319c-60 0 -107 -56 -107 -128c0 -57 34 -95 85 -95c60 0 105 54 105 126c0 60 -32 97 -83 97zM152 569l89 74l125 -132l-64 -44z" />
    <glyph glyph-name="acircumflex" unicode="&#xe2;" horiz-adv-x="535" 
d="M377 404h121l-49 -404h-125l11 57c-48 -51 -85 -70 -139 -70c-98 0 -164 76 -164 188c0 139 87 242 203 242c58 0 91 -17 135 -71zM272 319c-60 0 -107 -56 -107 -128c0 -57 34 -95 85 -95c60 0 105 54 105 126c0 60 -32 97 -83 97zM155 534l177 111l121 -133l-73 -45
l-66 73l-109 -73z" />
    <glyph glyph-name="adieresis" unicode="&#xe4;" horiz-adv-x="535" 
d="M377 404h121l-49 -404h-125l11 57c-48 -51 -85 -70 -139 -70c-98 0 -164 76 -164 188c0 139 87 242 203 242c58 0 91 -17 135 -71zM272 319c-60 0 -107 -56 -107 -128c0 -57 34 -95 85 -95c60 0 105 54 105 126c0 60 -32 97 -83 97zM213 606c36 0 66 -30 66 -66
c0 -37 -30 -67 -66 -67c-37 0 -67 30 -67 67c0 36 30 66 67 66zM400 606c36 0 66 -30 66 -66c0 -37 -30 -67 -66 -67c-37 0 -67 30 -67 67c0 36 30 66 67 66z" />
    <glyph glyph-name="atilde" unicode="&#xe3;" horiz-adv-x="535" 
d="M377 404h121l-49 -404h-125l11 57c-48 -51 -85 -70 -139 -70c-98 0 -164 76 -164 188c0 139 87 242 203 242c58 0 91 -17 135 -71zM272 319c-60 0 -107 -56 -107 -128c0 -57 34 -95 85 -95c60 0 105 54 105 126c0 60 -32 97 -83 97zM184 475h-68c21 78 68 126 124 126
c18 0 44 -7 76 -20c43 -17 47 -18 61 -18c19 0 29 7 48 37h69c-25 -80 -75 -127 -134 -127c-18 0 -32 4 -67 19s-49 19 -65 19c-18 0 -31 -11 -44 -36z" />
    <glyph glyph-name="aring" unicode="&#xe5;" horiz-adv-x="535" 
d="M377 404h121l-49 -404h-125l11 57c-48 -51 -85 -70 -139 -70c-98 0 -164 76 -164 188c0 139 87 242 203 242c58 0 91 -17 135 -71zM272 319c-60 0 -107 -56 -107 -128c0 -57 34 -95 85 -95c60 0 105 54 105 126c0 60 -32 97 -83 97zM310 667c53 0 96 -43 96 -96
c0 -54 -43 -97 -96 -97c-54 0 -97 43 -97 97c0 53 43 96 97 96zM310 609c-22 0 -39 -17 -39 -38c0 -22 17 -39 39 -39c21 0 38 17 38 39c0 21 -17 38 -38 38z" />
    <glyph glyph-name="eacute" unicode="&#xe9;" horiz-adv-x="483" 
d="M316 121l106 -42c-34 -59 -99 -92 -181 -92c-129 0 -210 79 -210 204c0 134 93 226 228 226c117 0 190 -79 190 -205c0 -12 0 -20 -2 -37h-296c9 -58 36 -82 93 -82c25 0 46 8 72 28zM163 258h175c-5 46 -29 68 -74 68c-48 0 -75 -19 -101 -68zM434 569l-150 -102l-64 44
l124 132z" />
    <glyph glyph-name="egrave" unicode="&#xe8;" horiz-adv-x="483" 
d="M316 121l106 -42c-34 -59 -99 -92 -181 -92c-129 0 -210 79 -210 204c0 134 93 226 228 226c117 0 190 -79 190 -205c0 -12 0 -20 -2 -37h-296c9 -58 36 -82 93 -82c25 0 46 8 72 28zM163 258h175c-5 46 -29 68 -74 68c-48 0 -75 -19 -101 -68zM127 569l89 74l125 -132
l-64 -44z" />
    <glyph glyph-name="ecircumflex" unicode="&#xea;" horiz-adv-x="483" 
d="M316 121l106 -42c-34 -59 -99 -92 -181 -92c-129 0 -210 79 -210 204c0 134 93 226 228 226c117 0 190 -79 190 -205c0 -12 0 -20 -2 -37h-296c9 -58 36 -82 93 -82c25 0 46 8 72 28zM163 258h175c-5 46 -29 68 -74 68c-48 0 -75 -19 -101 -68zM129 534l177 111l121 -133
l-73 -45l-66 73l-109 -73z" />
    <glyph glyph-name="edieresis" unicode="&#xeb;" horiz-adv-x="483" 
d="M316 121l106 -42c-34 -59 -99 -92 -181 -92c-129 0 -210 79 -210 204c0 134 93 226 228 226c117 0 190 -79 190 -205c0 -12 0 -20 -2 -37h-296c9 -58 36 -82 93 -82c25 0 46 8 72 28zM163 258h175c-5 46 -29 68 -74 68c-48 0 -75 -19 -101 -68zM187 606
c36 0 66 -30 66 -66c0 -37 -30 -67 -66 -67c-37 0 -67 30 -67 67c0 36 30 66 67 66zM374 606c36 0 66 -30 66 -66c0 -37 -30 -67 -66 -67c-37 0 -67 30 -67 67c0 36 30 66 67 66z" />
    <glyph glyph-name="iacute" unicode="&#xed;" horiz-adv-x="239" 
d="M202 404l-49 -404h-123l50 404h122zM311 569l-150 -102l-64 44l124 132z" />
    <glyph glyph-name="igrave" unicode="&#xec;" horiz-adv-x="239" 
d="M202 404l-49 -404h-123l50 404h122zM4 569l89 74l125 -132l-64 -44z" />
    <glyph glyph-name="icircumflex" unicode="&#xee;" horiz-adv-x="239" 
d="M202 404l-49 -404h-123l50 404h122zM7 534l177 111l121 -133l-73 -45l-66 73l-109 -73z" />
    <glyph glyph-name="idieresis" unicode="&#xef;" horiz-adv-x="239" 
d="M202 404l-49 -404h-123l50 404h122zM71 606c36 0 66 -30 66 -66c0 -37 -30 -67 -66 -67c-37 0 -67 30 -67 67c0 36 30 66 67 66zM244 606c36 0 66 -30 66 -66c0 -37 -30 -67 -66 -67c-37 0 -67 30 -67 67c0 36 30 66 67 66z" />
    <glyph glyph-name="ntilde" unicode="&#xf1;" horiz-adv-x="500" 
d="M30 0l50 404h122l-7 -61c50 58 81 75 133 75c78 0 121 -38 121 -107c0 -15 -1 -29 -2 -43l-34 -268h-122l27 222c2 12 3 28 3 36c0 33 -19 50 -54 50c-54 0 -79 -31 -88 -108l-25 -200h-124zM167 475h-68c21 78 68 126 124 126c18 0 44 -7 76 -20c43 -17 47 -18 61 -18
c19 0 29 7 48 37h69c-25 -80 -75 -127 -134 -127c-18 0 -32 4 -67 19s-49 19 -65 19c-18 0 -31 -11 -44 -36z" />
    <glyph glyph-name="oacute" unicode="&#xf3;" horiz-adv-x="513" 
d="M260 417c127 0 216 -86 216 -207c0 -126 -97 -223 -222 -223c-132 0 -223 83 -223 203c0 129 99 227 229 227zM258 308c-55 0 -95 -48 -95 -116c0 -57 35 -96 85 -96c55 0 96 49 96 115c0 60 -33 97 -86 97zM449 569l-150 -102l-64 44l124 132z" />
    <glyph glyph-name="ograve" unicode="&#xf2;" horiz-adv-x="513" 
d="M260 417c127 0 216 -86 216 -207c0 -126 -97 -223 -222 -223c-132 0 -223 83 -223 203c0 129 99 227 229 227zM258 308c-55 0 -95 -48 -95 -116c0 -57 35 -96 85 -96c55 0 96 49 96 115c0 60 -33 97 -86 97zM142 569l89 74l125 -132l-64 -44z" />
    <glyph glyph-name="ocircumflex" unicode="&#xf4;" horiz-adv-x="513" 
d="M260 417c127 0 216 -86 216 -207c0 -126 -97 -223 -222 -223c-132 0 -223 83 -223 203c0 129 99 227 229 227zM258 308c-55 0 -95 -48 -95 -116c0 -57 35 -96 85 -96c55 0 96 49 96 115c0 60 -33 97 -86 97zM144 534l177 111l121 -133l-73 -45l-66 73l-109 -73z" />
    <glyph glyph-name="odieresis" unicode="&#xf6;" horiz-adv-x="513" 
d="M260 417c127 0 216 -86 216 -207c0 -126 -97 -223 -222 -223c-132 0 -223 83 -223 203c0 129 99 227 229 227zM258 308c-55 0 -95 -48 -95 -116c0 -57 35 -96 85 -96c55 0 96 49 96 115c0 60 -33 97 -86 97zM202 606c36 0 66 -30 66 -66c0 -37 -30 -67 -66 -67
c-37 0 -67 30 -67 67c0 36 30 66 67 66zM389 606c36 0 66 -30 66 -66c0 -37 -30 -67 -66 -67c-37 0 -67 30 -67 67c0 36 30 66 67 66z" />
    <glyph glyph-name="otilde" unicode="&#xf5;" horiz-adv-x="513" 
d="M260 417c127 0 216 -86 216 -207c0 -126 -97 -223 -222 -223c-132 0 -223 83 -223 203c0 129 99 227 229 227zM258 308c-55 0 -95 -48 -95 -116c0 -57 35 -96 85 -96c55 0 96 49 96 115c0 60 -33 97 -86 97zM174 475h-68c21 78 68 126 124 126c18 0 44 -7 76 -20
c43 -17 47 -18 61 -18c19 0 29 7 48 37h69c-25 -80 -75 -127 -134 -127c-18 0 -32 4 -67 19s-49 19 -65 19c-18 0 -31 -11 -44 -36z" />
    <glyph glyph-name="uacute" unicode="&#xfa;" horiz-adv-x="505" 
d="M80 404h122l-26 -215c-2 -14 -3 -29 -3 -36c0 -35 27 -59 68 -59c50 0 70 26 80 102l25 208h123l-26 -211c-19 -155 -70 -206 -208 -206c-118 0 -184 57 -184 158c0 16 2 38 4 59zM445 569l-150 -102l-64 44l124 132z" />
    <glyph glyph-name="ugrave" unicode="&#xf9;" horiz-adv-x="505" 
d="M80 404h122l-26 -215c-2 -14 -3 -29 -3 -36c0 -35 27 -59 68 -59c50 0 70 26 80 102l25 208h123l-26 -211c-19 -155 -70 -206 -208 -206c-118 0 -184 57 -184 158c0 16 2 38 4 59zM138 569l89 74l125 -132l-64 -44z" />
    <glyph glyph-name="ucircumflex" unicode="&#xfb;" horiz-adv-x="505" 
d="M80 404h122l-26 -215c-2 -14 -3 -29 -3 -36c0 -35 27 -59 68 -59c50 0 70 26 80 102l25 208h123l-26 -211c-19 -155 -70 -206 -208 -206c-118 0 -184 57 -184 158c0 16 2 38 4 59zM140 534l177 111l121 -133l-73 -45l-66 73l-109 -73z" />
    <glyph glyph-name="udieresis" unicode="&#xfc;" horiz-adv-x="505" 
d="M80 404h122l-26 -215c-2 -14 -3 -29 -3 -36c0 -35 27 -59 68 -59c50 0 70 26 80 102l25 208h123l-26 -211c-19 -155 -70 -206 -208 -206c-118 0 -184 57 -184 158c0 16 2 38 4 59zM198 606c36 0 66 -30 66 -66c0 -37 -30 -67 -66 -67c-37 0 -67 30 -67 67
c0 36 30 66 67 66zM385 606c36 0 66 -30 66 -66c0 -37 -30 -67 -66 -67c-37 0 -67 30 -67 67c0 36 30 66 67 66z" />
    <glyph glyph-name="Aacute" unicode="&#xc1;" horiz-adv-x="620" 
d="M-15 0l336 667h129l142 -667h-138l-22 109h-246l-54 -109h-147zM408 232l-33 166c-7 31 -9 52 -9 73c0 8 0 15 2 34l-9 1c-8 -39 -18 -66 -44 -120l-74 -154h167zM557 792l-160 -75l-52 50l139 108z" />
    <glyph glyph-name="Agrave" unicode="&#xc0;" horiz-adv-x="620" 
d="M-15 0l336 667h129l142 -667h-138l-22 109h-246l-54 -109h-147zM408 232l-33 166c-7 31 -9 52 -9 73c0 8 0 15 2 34l-9 1c-8 -39 -18 -66 -44 -120l-74 -154h167zM225 792l73 83l139 -108l-52 -50z" />
    <glyph glyph-name="Atilde" unicode="&#xc3;" horiz-adv-x="620" 
d="M-15 0l336 667h129l142 -667h-138l-22 109h-246l-54 -109h-147zM408 232l-33 166c-7 31 -9 52 -9 73c0 8 0 15 2 34l-9 1c-8 -39 -18 -66 -44 -120l-74 -154h167zM273 722h-67c20 76 67 124 122 124c17 0 42 -6 74 -20c42 -16 47 -18 59 -18c20 0 29 7 48 37h68
c-25 -78 -74 -125 -131 -125c-19 0 -32 4 -66 19s-49 19 -64 19c-18 0 -30 -11 -43 -36z" />
    <glyph glyph-name="Edieresis" unicode="&#xcb;" horiz-adv-x="469" 
d="M49 0l82 667h345l-15 -123h-212l-18 -148h204l-15 -123h-204l-18 -150h212l-16 -123h-345zM220 860c39 0 70 -31 70 -70s-31 -70 -70 -70s-70 31 -70 70s31 70 70 70zM413 860c39 0 70 -31 70 -70s-31 -70 -70 -70s-70 31 -70 70s31 70 70 70z" />
    <glyph glyph-name="Egrave" unicode="&#xc8;" horiz-adv-x="469" 
d="M49 0l82 667h345l-15 -123h-212l-18 -148h204l-15 -123h-204l-18 -150h212l-16 -123h-345zM150 792l73 83l139 -108l-52 -50z" />
    <glyph glyph-name="Iacute" unicode="&#xcd;" horiz-adv-x="287" 
d="M49 0l82 667h134l-82 -667h-134zM364 792l-160 -75l-52 50l139 108z" />
    <glyph glyph-name="Icircumflex" unicode="&#xce;" horiz-adv-x="287" 
d="M49 0l82 667h134l-82 -667h-134zM58 778l177 95l129 -104l-60 -52l-84 62l-120 -62z" />
    <glyph glyph-name="ydieresis" unicode="&#xff;" horiz-adv-x="440" 
d="M13 404h131l73 -253l118 253h130l-290 -588h-129l96 198zM165 606c36 0 66 -30 66 -66c0 -37 -30 -67 -66 -67c-37 0 -67 30 -67 67c0 36 30 66 67 66zM352 606c36 0 66 -30 66 -66c0 -37 -30 -67 -66 -67c-37 0 -67 30 -67 67c0 36 30 66 67 66z" />
    <glyph glyph-name="Ydieresis" unicode="&#x178;" horiz-adv-x="560" 
d="M189 0l36 293l-178 374h152l100 -229l153 229h162l-256 -374l-36 -293h-133zM252 860c39 0 70 -31 70 -70s-31 -70 -70 -70s-70 31 -70 70s31 70 70 70zM445 860c39 0 70 -31 70 -70s-31 -70 -70 -70s-70 31 -70 70s31 70 70 70z" />
    <glyph glyph-name="Ograve" unicode="&#xd2;" horiz-adv-x="760" 
d="M414 680c188 0 319 -130 319 -317c0 -215 -151 -376 -352 -376c-196 0 -327 129 -327 322c0 216 150 371 360 371zM411 547c-123 0 -214 -101 -214 -238c0 -112 76 -189 186 -189c118 0 207 102 207 237c0 114 -72 190 -179 190zM295 792l73 83l139 -108l-52 -50z" />
    <glyph glyph-name="Otilde" unicode="&#xd5;" horiz-adv-x="760" 
d="M414 680c188 0 319 -130 319 -317c0 -215 -151 -376 -352 -376c-196 0 -327 129 -327 322c0 216 150 371 360 371zM411 547c-123 0 -214 -101 -214 -238c0 -112 76 -189 186 -189c118 0 207 102 207 237c0 114 -72 190 -179 190zM330 722h-67c20 76 67 124 122 124
c17 0 42 -6 74 -20c42 -16 47 -18 59 -18c20 0 29 7 48 37h68c-25 -78 -74 -125 -131 -125c-19 0 -32 4 -66 19s-49 19 -64 19c-18 0 -30 -11 -43 -36z" />
    <glyph glyph-name="Scaron" unicode="&#x160;" horiz-adv-x="477" 
d="M11 50l69 112c56 -30 93 -42 134 -42c50 0 84 29 84 72c0 30 -12 44 -79 91c-118 84 -140 113 -140 191c0 118 92 206 214 206c66 0 125 -19 177 -58l-60 -119c-41 28 -84 44 -118 44c-42 0 -70 -24 -70 -60c0 -31 11 -42 80 -86c107 -68 140 -113 140 -193
c0 -124 -102 -221 -232 -221c-65 0 -106 13 -199 63zM480 812l-178 -95l-128 105l60 51l84 -62l120 62z" />
    <glyph glyph-name="Zcaron" unicode="&#x17d;" horiz-adv-x="549" 
d="M19 0l306 544h-253l15 123h465l-308 -544h272l-16 -123h-481zM499 812l-178 -95l-128 105l60 51l84 -62l120 62z" />
    <glyph glyph-name="scaron" unicode="&#x161;" horiz-adv-x="374" 
d="M9 27l30 97c63 -33 88 -42 123 -42c33 0 51 12 51 34c0 21 -4 24 -73 48c-75 26 -99 52 -99 110c0 90 61 143 165 143c46 0 87 -11 140 -38l-43 -86c-36 22 -68 33 -100 33c-29 0 -48 -13 -48 -32c0 -23 2 -25 82 -48c71 -21 97 -51 97 -112c0 -92 -61 -147 -163 -147
c-57 0 -109 13 -162 40zM397 559l-177 -111l-121 133l73 46l66 -74l109 73z" />
    <glyph glyph-name="zcaron" unicode="&#x17e;" horiz-adv-x="386" 
d="M1 0l187 306h-156l12 98h333l-186 -306h161l-12 -98h-339zM403 559l-177 -111l-121 133l73 46l66 -74l109 73z" />
    <glyph glyph-name="Acircumflex" unicode="&#xc2;" horiz-adv-x="620" 
d="M-15 0l336 667h129l142 -667h-138l-22 109h-246l-54 -109h-147zM408 232l-33 166c-7 31 -9 52 -9 73c0 8 0 15 2 34l-9 1c-8 -39 -18 -66 -44 -120l-74 -154h167zM237 778l177 95l129 -104l-60 -52l-84 62l-120 -62z" />
    <glyph glyph-name="Ecircumflex" unicode="&#xca;" horiz-adv-x="469" 
d="M49 0l82 667h345l-15 -123h-212l-18 -148h204l-15 -123h-204l-18 -150h212l-16 -123h-345zM162 778l177 95l129 -104l-60 -52l-84 62l-120 -62z" />
    <glyph glyph-name="Idieresis" unicode="&#xcf;" horiz-adv-x="287" 
d="M49 0l82 667h134l-82 -667h-134zM123 860c39 0 70 -31 70 -70s-31 -70 -70 -70s-70 31 -70 70s31 70 70 70zM303 860c39 0 70 -31 70 -70s-31 -70 -70 -70s-70 31 -70 70s31 70 70 70z" />
    <glyph glyph-name="Igrave" unicode="&#xcc;" horiz-adv-x="287" 
d="M49 0l82 667h134l-82 -667h-134zM59 792l73 83l139 -108l-52 -50z" />
    <glyph glyph-name="Oacute" unicode="&#xd3;" horiz-adv-x="760" 
d="M414 680c188 0 319 -130 319 -317c0 -215 -151 -376 -352 -376c-196 0 -327 129 -327 322c0 216 150 371 360 371zM411 547c-123 0 -214 -101 -214 -238c0 -112 76 -189 186 -189c118 0 207 102 207 237c0 114 -72 190 -179 190zM600 792l-160 -75l-52 50l139 108z" />
    <glyph glyph-name="Ocircumflex" unicode="&#xd4;" horiz-adv-x="760" 
d="M414 680c188 0 319 -130 319 -317c0 -215 -151 -376 -352 -376c-196 0 -327 129 -327 322c0 216 150 371 360 371zM411 547c-123 0 -214 -101 -214 -238c0 -112 76 -189 186 -189c118 0 207 102 207 237c0 114 -72 190 -179 190zM294 778l177 95l129 -104l-60 -52l-84 62
l-120 -62z" />
    <glyph glyph-name="Uacute" unicode="&#xda;" horiz-adv-x="664" 
d="M131 667h133l-45 -368c-4 -34 -7 -64 -7 -79c0 -65 39 -100 110 -100c92 0 124 42 141 182l45 365h133l-48 -392c-13 -110 -30 -163 -62 -204c-45 -55 -119 -84 -219 -84c-152 0 -236 71 -236 197c0 28 2 55 8 105zM553 792l-160 -75l-52 50l139 108z" />
    <glyph glyph-name="Ucircumflex" unicode="&#xdb;" horiz-adv-x="664" 
d="M131 667h133l-45 -368c-4 -34 -7 -64 -7 -79c0 -65 39 -100 110 -100c92 0 124 42 141 182l45 365h133l-48 -392c-13 -110 -30 -163 -62 -204c-45 -55 -119 -84 -219 -84c-152 0 -236 71 -236 197c0 28 2 55 8 105zM246 778l177 95l129 -104l-60 -52l-84 62l-120 -62z
" />
    <glyph glyph-name="Ugrave" unicode="&#xd9;" horiz-adv-x="664" 
d="M131 667h133l-45 -368c-4 -34 -7 -64 -7 -79c0 -65 39 -100 110 -100c92 0 124 42 141 182l45 365h133l-48 -392c-13 -110 -30 -163 -62 -204c-45 -55 -119 -84 -219 -84c-152 0 -236 71 -236 197c0 28 2 55 8 105zM247 792l73 83l139 -108l-52 -50z" />
    <glyph glyph-name="exclam" unicode="!" horiz-adv-x="273" 
d="M80 208l56 459h109l-56 -459h-109zM117 140c42 0 76 -34 76 -76c0 -43 -34 -77 -76 -77c-43 0 -77 34 -77 77c0 42 34 76 77 76z" />
    <glyph glyph-name="quotedbl" unicode="&#x22;" horiz-adv-x="380" 
d="M79 392l15 275h118l-52 -275h-81zM261 392l15 275h118l-52 -275h-81z" />
    <glyph glyph-name="numbersign" unicode="#" 
d="M558 485l-11 -94h-99l-19 -102h93l-11 -94h-99l-38 -205l-93 13l35 192h-89l-38 -205l-94 13l36 193h-96l11 93h103l19 102h-96l11 94h103l35 192l93 -13l-33 -179h88l36 192l93 -13l-33 -179h93zM352 391h-89l-18 -102h88z" />
    <glyph glyph-name="dollar" unicode="$" 
d="M28 54l47 125c72 -43 128 -61 196 -61c79 0 123 27 123 75c0 38 -17 50 -100 71c-80 20 -107 29 -134 42c-62 29 -93 80 -93 154c0 124 82 200 229 210l12 95h79l-11 -95c58 -11 96 -24 142 -51l-41 -120c-63 33 -118 48 -172 48c-71 0 -114 -28 -114 -74
c0 -38 27 -57 105 -75c72 -17 84 -20 109 -29c82 -30 121 -84 121 -168c0 -74 -39 -139 -103 -173c-38 -20 -69 -27 -130 -31l-13 -110h-80l14 110c-79 11 -117 23 -186 57z" />
    <glyph glyph-name="percent" unicode="%" horiz-adv-x="788" 
d="M206 673c70 0 115 -56 115 -140c0 -126 -57 -207 -144 -207c-77 0 -120 52 -120 145c0 120 61 202 149 202zM201 613c-41 2 -74 -61 -74 -141c0 -59 16 -86 51 -86c43 0 73 59 73 144c0 50 -19 82 -50 83zM257 11l246 663l53 -18l-245 -663zM641 340
c70 0 115 -55 115 -140c0 -125 -57 -206 -144 -206c-77 0 -120 52 -120 144c0 120 61 202 149 202zM636 280c-41 2 -74 -61 -74 -141c0 -58 16 -85 51 -85c43 0 73 59 73 144c0 49 -19 81 -50 82z" />
    <glyph glyph-name="ampersand" unicode="&#x26;" horiz-adv-x="613" 
d="M500 304l71 -97l-77 -62l97 -145h-143l-48 70c-82 -64 -116 -80 -174 -80c-107 0 -184 71 -184 171c0 86 44 148 154 215c-42 61 -53 89 -53 133c0 97 75 168 178 168c91 0 158 -65 158 -153c0 -77 -24 -111 -123 -174l74 -109zM338 163l-85 126
c-79 -57 -93 -74 -93 -110c0 -38 30 -66 69 -66c33 0 61 13 109 50zM299 427c49 35 70 64 70 95c0 33 -23 55 -57 55c-35 0 -58 -22 -58 -55c0 -25 15 -57 45 -95z" />
    <glyph glyph-name="quoteright" unicode="&#x2019;" horiz-adv-x="235" 
d="M253 680l-117 -276h-68l59 276h126z" />
    <glyph glyph-name="parenleft" unicode="(" horiz-adv-x="326" 
d="M245 -118l-81 -52c-71 120 -103 231 -103 362c0 197 64 361 211 547l77 -53c-122 -187 -170 -331 -170 -507c0 -108 18 -190 66 -297z" />
    <glyph glyph-name="parenright" unicode=")" horiz-adv-x="326" 
d="M95 686l81 53c71 -120 103 -231 103 -362c0 -197 -64 -362 -211 -547l-77 53c121 186 170 331 170 507c0 107 -18 190 -66 296z" />
    <glyph glyph-name="asterisk" unicode="*" 
d="M286 602l9 134l100 -12l-23 -132l130 32l19 -98l-133 -19l71 -114l-88 -48l-59 120l-86 -103l-73 68l96 94l-124 50l42 91z" />
    <glyph glyph-name="plus" unicode="+" 
d="M54 294v93h196v190h95v-190h196v-93h-196v-196h-95v196h-196z" />
    <glyph glyph-name="comma" unicode="," horiz-adv-x="267" 
d="M-7 -164l68 284h129l-129 -284h-68z" />
    <glyph glyph-name="hyphen" unicode="-" horiz-adv-x="215" 
d="M-9 156l13 102h215l-13 -102h-215z" />
    <glyph glyph-name="period" unicode="." horiz-adv-x="267" 
d="M113 140c42 0 76 -34 76 -76c0 -43 -34 -77 -76 -77c-43 0 -77 34 -77 77c0 42 34 76 77 76z" />
    <glyph glyph-name="slash" unicode="/" horiz-adv-x="379" 
d="M291 739l94 -29l-278 -880l-95 28z" />
    <glyph glyph-name="zero" unicode="0" 
d="M331 680c132 0 216 -109 216 -280c0 -248 -110 -413 -276 -413c-142 0 -226 103 -226 279c0 248 115 414 286 414zM322 569c-85 4 -152 -128 -152 -301c0 -111 35 -170 101 -170c49 0 91 35 115 95c23 60 36 133 36 204c0 105 -37 169 -100 172z" />
    <glyph glyph-name="one" unicode="1" 
d="M203 0l68 556h-86l14 111h211l-82 -667h-125z" />
    <glyph glyph-name="two" unicode="2" 
d="M498 111l-14 -111h-471l227 238c128 135 156 179 156 245c0 54 -32 86 -86 86c-65 0 -98 -37 -108 -120h-122c15 152 95 231 234 231c121 0 207 -84 207 -204c0 -98 -58 -180 -258 -365h235z" />
    <glyph glyph-name="three" unicode="3" 
d="M61 192h123c4 -67 33 -98 90 -98c62 0 101 41 101 106s-36 92 -123 92l13 101h22c71 0 108 33 108 95c0 52 -32 84 -82 84c-54 0 -82 -28 -94 -94h-123c19 131 96 202 220 202c120 0 197 -68 197 -174c0 -77 -30 -120 -111 -156c69 -32 97 -75 97 -149
c0 -66 -30 -131 -78 -170c-35 -28 -90 -44 -155 -44c-141 0 -203 62 -205 205z" />
    <glyph glyph-name="four" unicode="4" 
d="M300 0l18 142h-290l14 112l324 413h140l-53 -429h76l-11 -96h-77l-17 -142h-124zM329 238l36 289l-220 -289h184z" />
    <glyph glyph-name="five" unicode="5" 
d="M514 667l-14 -111h-217l-28 -128c25 2 38 3 50 3c125 0 200 -73 200 -195c0 -153 -103 -249 -266 -249c-78 0 -138 18 -213 65l34 110c80 -47 129 -64 187 -64c79 0 133 50 133 124c0 72 -59 121 -146 121c-35 0 -59 -4 -110 -19l75 343h315z" />
    <glyph glyph-name="six" unicode="6" 
d="M358 667h153l-211 -248h33c116 0 191 -75 191 -193c0 -140 -105 -239 -253 -239c-133 0 -231 88 -231 207c0 60 21 113 70 180c15 19 -5 -5 60 72zM287 332c-71 0 -122 -52 -122 -126c0 -66 42 -108 109 -108c75 0 125 50 125 125c0 65 -45 109 -112 109z" />
    <glyph glyph-name="seven" unicode="7" 
d="M66 0l327 556h-275l14 111h461l-384 -667h-143z" />
    <glyph glyph-name="eight" unicode="8" 
d="M213 358c-65 32 -92 73 -92 140c0 107 89 182 215 182c114 0 192 -71 192 -173c0 -81 -34 -127 -116 -158c68 -36 98 -83 98 -152c0 -118 -98 -210 -225 -210c-140 0 -231 75 -231 192c0 64 28 121 75 150c22 14 40 20 84 29zM288 300c-63 0 -109 -45 -109 -105
s40 -100 102 -100c60 0 105 47 105 110c0 57 -39 95 -98 95zM328 578c-54 0 -92 -39 -92 -96c0 -56 33 -89 88 -89c52 0 89 40 89 97c0 54 -33 88 -85 88z" />
    <glyph glyph-name="nine" unicode="9" 
d="M235 0h-153l211 248h-33c-117 0 -191 75 -191 193c0 140 105 239 253 239c133 0 231 -88 231 -207c0 -60 -21 -114 -70 -180c-8 -10 -15 -19 -23 -28l-13 -15l-12 -14l-13 -15zM319 569c-75 0 -125 -50 -125 -125c0 -65 45 -109 112 -109c71 0 122 53 122 126
c0 66 -42 108 -109 108z" />
    <glyph glyph-name="colon" unicode=":" horiz-adv-x="267" 
d="M113 140c42 0 76 -34 76 -76c0 -43 -34 -77 -76 -77c-43 0 -77 34 -77 77c0 42 34 76 77 76zM147 417c42 0 76 -34 76 -76c0 -43 -34 -77 -76 -77c-43 0 -77 34 -77 77c0 42 34 76 77 76z" />
    <glyph glyph-name="semicolon" unicode=";" horiz-adv-x="267" 
d="M-7 -164l68 284h129l-129 -284h-68zM159 370c42 0 76 -34 76 -76c0 -43 -34 -77 -76 -77c-43 0 -77 34 -77 77c0 42 34 76 77 76z" />
    <glyph glyph-name="less" unicode="&#x3c;" horiz-adv-x="500" 
d="M478 609v-128l-296 -147l296 -148v-128l-433 222v109z" />
    <glyph glyph-name="equal" unicode="=" 
d="M54 376v89h487v-89h-487zM54 215v89h487v-89h-487z" />
    <glyph glyph-name="greater" unicode="&#x3e;" horiz-adv-x="500" 
d="M45 58v129l296 147l-296 147v128l433 -221v-109z" />
    <glyph glyph-name="question" unicode="?" horiz-adv-x="470" 
d="M285 202h-122l23 187c18 -3 23 -3 41 -3c75 0 114 33 114 98c0 48 -32 79 -83 79c-49 0 -78 -30 -85 -87h-109c8 69 21 105 47 136c37 44 92 68 158 68c119 0 199 -77 199 -193c0 -114 -68 -193 -172 -200zM208 140c42 0 76 -34 76 -76c0 -43 -34 -77 -76 -77
c-43 0 -77 34 -77 77c0 42 34 76 77 76z" />
    <glyph glyph-name="at" unicode="@" horiz-adv-x="764" 
d="M585 508l-27 -227c-2 -16 -3 -31 -3 -46c0 -17 6 -26 19 -26c50 0 97 82 97 169c0 137 -110 235 -262 235c-154 0 -275 -123 -275 -281c0 -163 117 -274 288 -274c74 0 127 13 203 50c8 4 4 1 16 8l29 -70c-88 -44 -157 -61 -248 -61c-217 0 -371 144 -371 348
c0 197 157 349 360 349c190 0 332 -130 332 -303c0 -131 -82 -241 -178 -241c-34 0 -63 21 -75 54c-34 -39 -70 -56 -116 -56c-96 0 -164 79 -164 189c0 107 80 191 182 191c45 0 88 -17 108 -42l4 34h81zM396 436c-57 0 -99 -51 -99 -121c0 -58 35 -102 81 -102
c59 0 110 60 110 130c0 54 -38 93 -92 93z" />
    <glyph glyph-name="A" unicode="A" horiz-adv-x="620" 
d="M-15 0l336 667h129l142 -667h-138l-22 109h-246l-54 -109h-147zM408 232l-33 166c-7 31 -9 52 -9 73c0 8 0 15 2 34l-9 1c-8 -39 -18 -66 -44 -120l-74 -154h167z" />
    <glyph glyph-name="B" unicode="B" horiz-adv-x="572" 
d="M49 0l82 667h148c65 0 106 -5 144 -19c56 -20 91 -75 91 -144c0 -84 -38 -133 -119 -155c98 -22 137 -63 137 -147c0 -89 -46 -159 -121 -183c-43 -14 -86 -19 -167 -19h-195zM196 113h57c49 0 68 3 90 14c28 14 46 46 46 80c0 58 -31 77 -124 77h-48zM230 388h33
c40 0 54 2 73 10c29 13 47 45 47 83c0 55 -24 73 -98 73h-35z" />
    <glyph glyph-name="C" unicode="C" horiz-adv-x="593" 
d="M544 186l-19 -155c-45 -29 -99 -44 -159 -44c-182 0 -312 134 -312 323c0 214 149 370 355 370c73 0 131 -16 189 -53l-18 -147c-61 48 -110 67 -169 67c-121 0 -214 -102 -214 -236c0 -113 73 -191 179 -191c56 0 104 19 168 66z" />
    <glyph glyph-name="D" unicode="D" horiz-adv-x="652" 
d="M49 0l82 667h170c111 0 167 -12 218 -47c68 -46 106 -137 106 -253c0 -150 -62 -275 -162 -326c-56 -28 -126 -41 -229 -41h-185zM197 120h30c73 0 115 8 152 28c65 36 103 119 103 225c0 131 -49 174 -196 174h-36z" />
    <glyph glyph-name="E" unicode="E" horiz-adv-x="469" 
d="M49 0l82 667h345l-15 -123h-212l-18 -148h204l-15 -123h-204l-18 -150h212l-16 -123h-345z" />
    <glyph glyph-name="F" unicode="F" horiz-adv-x="426" 
d="M49 0l82 667h315l-15 -123h-182l-18 -148h182l-15 -123h-182l-33 -273h-134z" />
    <glyph glyph-name="G" unicode="G" horiz-adv-x="720" 
d="M369 347h321c-5 -104 -23 -172 -61 -228c-57 -84 -153 -132 -262 -132c-184 0 -313 133 -313 321c0 214 148 372 349 372c119 0 211 -54 267 -158l-115 -65c-41 64 -86 90 -155 90c-114 0 -203 -104 -203 -236c0 -114 73 -192 179 -192c80 0 131 36 147 105h-170z" />
    <glyph glyph-name="H" unicode="H" horiz-adv-x="664" 
d="M49 0l82 667h133l-32 -267h243l33 267h133l-82 -667h-133l34 277h-243l-35 -277h-133z" />
    <glyph glyph-name="I" unicode="I" horiz-adv-x="287" 
d="M49 0l82 667h134l-82 -667h-134z" />
    <glyph glyph-name="J" unicode="J" horiz-adv-x="420" 
d="M262 667h136l-61 -493c-16 -133 -66 -187 -172 -187c-91 0 -143 41 -171 137l103 54c17 -48 26 -58 55 -58c34 0 46 18 54 83z" />
    <glyph glyph-name="K" unicode="K" horiz-adv-x="593" 
d="M49 0l82 667h133l-37 -301l222 301h154l-244 -331l207 -336h-166l-178 322l-40 -322h-133z" />
    <glyph glyph-name="L" unicode="L" horiz-adv-x="424" 
d="M49 0l82 667h133l-66 -544h200l-15 -123h-334z" />
    <glyph glyph-name="M" unicode="M" horiz-adv-x="835" 
d="M19 0l205 667h125l63 -348c4 -21 7 -52 7 -69c0 -6 0 -15 -2 -36l8 -1c5 33 10 50 30 91l172 363h127l12 -667h-134l-6 307v22c0 31 2 51 10 90l-8 2c-9 -39 -15 -57 -27 -83l-161 -338h-91l-61 326c-7 39 -8 47 -8 77c0 5 0 16 1 28h-8c-6 -54 -9 -66 -21 -107
l-100 -324h-133z" />
    <glyph glyph-name="N" unicode="N" horiz-adv-x="749" 
d="M49 0l82 667h134l228 -379c27 -44 35 -62 47 -106l8 2c-3 23 -4 33 -4 51c0 20 1 42 5 68l44 364h134l-82 -667h-134l-222 365c-29 48 -45 84 -54 117l-7 -2c4 -25 5 -37 5 -53c0 -13 -1 -19 -3 -43l-48 -384h-133z" />
    <glyph glyph-name="O" unicode="O" horiz-adv-x="760" 
d="M414 680c188 0 319 -130 319 -317c0 -215 -151 -376 -352 -376c-196 0 -327 129 -327 322c0 216 150 371 360 371zM411 547c-123 0 -214 -101 -214 -238c0 -112 76 -189 186 -189c118 0 207 102 207 237c0 114 -72 190 -179 190z" />
    <glyph glyph-name="P" unicode="P" horiz-adv-x="535" 
d="M49 0l82 667h155c83 0 131 -8 169 -29c52 -27 83 -92 83 -171c0 -86 -35 -153 -97 -185c-45 -24 -87 -32 -169 -32h-59l-31 -250h-133zM227 365h40c90 0 128 31 128 106c0 56 -24 73 -105 73h-41z" />
    <glyph glyph-name="Q" unicode="Q" horiz-adv-x="760" 
d="M591 -46l-53 69c-50 -25 -100 -36 -157 -36c-196 0 -327 129 -327 322c0 216 150 371 360 371c187 0 319 -131 319 -317c0 -110 -35 -200 -109 -277l73 -94zM453 132l-72 93l105 38l51 -66c36 49 53 100 53 160c0 114 -72 190 -179 190c-121 0 -214 -101 -214 -233
c0 -117 74 -194 186 -194c31 0 44 2 70 12z" />
    <glyph glyph-name="R" unicode="R" horiz-adv-x="574" 
d="M49 0l82 667h163c83 0 127 -8 164 -31c46 -28 71 -81 71 -149c0 -111 -58 -185 -161 -204l167 -283h-155l-164 276l-34 -276h-133zM249 544l-22 -179h42c78 0 116 35 116 106c0 53 -24 73 -89 73h-47z" />
    <glyph glyph-name="S" unicode="S" horiz-adv-x="477" 
d="M11 50l69 112c56 -30 93 -42 134 -42c50 0 84 29 84 72c0 30 -12 44 -79 91c-118 84 -140 113 -140 191c0 118 92 206 214 206c66 0 125 -19 177 -58l-60 -119c-41 28 -84 44 -118 44c-42 0 -70 -24 -70 -60c0 -31 11 -42 80 -86c107 -68 140 -113 140 -193
c0 -124 -102 -221 -232 -221c-65 0 -106 13 -199 63z" />
    <glyph glyph-name="T" unicode="T" horiz-adv-x="411" 
d="M115 0l67 544h-137l15 123h397l-15 -123h-127l-67 -544h-133z" />
    <glyph glyph-name="U" unicode="U" horiz-adv-x="664" 
d="M131 667h133l-45 -368c-4 -34 -7 -64 -7 -79c0 -65 39 -100 110 -100c92 0 124 42 141 182l45 365h133l-48 -392c-13 -110 -30 -163 -62 -204c-45 -55 -119 -84 -219 -84c-152 0 -236 71 -236 197c0 28 2 55 8 105z" />
    <glyph glyph-name="V" unicode="V" horiz-adv-x="595" 
d="M54 667h136l80 -353c6 -29 11 -63 11 -84c0 -7 0 -15 -1 -26l6 -2c15 51 24 75 52 130l168 335h143l-338 -667h-107z" />
    <glyph glyph-name="W" unicode="W" horiz-adv-x="878" 
d="M54 667h134l47 -340c6 -37 6 -42 6 -66c0 -16 -1 -27 -3 -46l8 -2c8 43 13 58 31 99l153 355h121l48 -343c4 -27 5 -46 5 -68c0 -15 -1 -24 -3 -45l9 -1c8 41 15 64 35 109l148 348h139l-287 -667h-123l-51 356c-5 36 -6 51 -6 75c0 11 1 21 3 38l-8 2
c-8 -41 -14 -61 -28 -94l-163 -377h-122z" />
    <glyph glyph-name="X" unicode="X" horiz-adv-x="592" 
d="M-4 0l233 345l-176 322h153l62 -115c32 -58 39 -78 42 -119l7 -1c16 50 22 62 60 119l76 116h154l-222 -328l186 -339h-152l-76 138c-27 49 -33 67 -39 112l-7 1c-8 -37 -22 -65 -53 -110l-96 -141h-152z" />
    <glyph glyph-name="Y" unicode="Y" horiz-adv-x="560" 
d="M189 0l36 293l-178 374h152l100 -229l153 229h162l-256 -374l-36 -293h-133z" />
    <glyph glyph-name="Z" unicode="Z" horiz-adv-x="549" 
d="M19 0l306 544h-253l15 123h465l-308 -544h272l-16 -123h-481z" />
    <glyph glyph-name="bracketleft" unicode="[" horiz-adv-x="337" 
d="M26 -160l109 889h237l-10 -83h-120l-89 -723h120l-10 -83h-237z" />
    <glyph glyph-name="backslash" unicode="\" horiz-adv-x="379" 
d="M214 739l62 -901l-102 -8l-62 900z" />
    <glyph glyph-name="bracketright" unicode="]" horiz-adv-x="337" 
d="M325 729l-109 -889h-237l10 83h120l89 723h-120l10 83h237z" />
    <glyph glyph-name="asciicircum" unicode="^" horiz-adv-x="500" 
d="M153 334h-136l160 337h171l160 -337h-136l-109 233z" />
    <glyph glyph-name="underscore" unicode="_" horiz-adv-x="500" 
d="M12 -46h500v-117h-500v117z" />
    <glyph glyph-name="quoteleft" unicode="&#x2018;" horiz-adv-x="242" 
d="M58 404l118 276h67l-59 -276h-126z" />
    <glyph glyph-name="a" unicode="a" horiz-adv-x="535" 
d="M377 404h121l-49 -404h-125l11 57c-48 -51 -85 -70 -139 -70c-98 0 -164 76 -164 188c0 139 87 242 203 242c58 0 91 -17 135 -71zM272 319c-60 0 -107 -56 -107 -128c0 -57 34 -95 85 -95c60 0 105 54 105 126c0 60 -32 97 -83 97z" />
    <glyph glyph-name="b" unicode="b" horiz-adv-x="528" 
d="M30 0l90 729h123l-48 -388c50 57 85 76 138 76c98 0 160 -76 160 -195c0 -137 -84 -235 -203 -235c-54 0 -90 20 -130 70l-7 -57h-123zM278 311c-62 0 -107 -54 -107 -127c0 -57 34 -96 84 -96c58 0 105 57 105 127c0 58 -32 96 -82 96z" />
    <glyph glyph-name="c" unicode="c" horiz-adv-x="376" 
d="M335 128l-23 -126c-38 -11 -63 -15 -94 -15c-116 0 -188 76 -188 198c0 138 88 232 218 232c43 0 75 -7 120 -25l-21 -112c-32 14 -59 20 -86 20c-60 0 -99 -42 -99 -107c0 -56 30 -87 86 -87c29 0 51 6 87 22z" />
    <glyph glyph-name="d" unicode="d" horiz-adv-x="534" 
d="M537 729l-90 -729h-122l8 61c-42 -53 -80 -74 -137 -74c-102 0 -167 74 -167 190c0 137 86 240 202 240c60 0 98 -20 136 -72l48 384h122zM269 317c-62 0 -107 -54 -107 -127c0 -57 34 -96 84 -96c58 0 105 57 105 127c0 58 -32 96 -82 96z" />
    <glyph glyph-name="e" unicode="e" horiz-adv-x="483" 
d="M316 121l106 -42c-34 -59 -99 -92 -181 -92c-129 0 -210 79 -210 204c0 134 93 226 228 226c117 0 190 -79 190 -205c0 -12 0 -20 -2 -37h-296c9 -58 36 -82 93 -82c25 0 46 8 72 28zM163 258h175c-5 46 -29 68 -74 68c-48 0 -75 -19 -101 -68z" />
    <glyph glyph-name="f" unicode="f" horiz-adv-x="287" 
d="M42 0l38 310h-50l12 94h50l18 149c17 140 53 183 153 183c24 0 43 -2 73 -9l-13 -106c-13 3 -20 4 -31 4c-43 0 -52 -13 -61 -85l-17 -136h86l-12 -94h-85l-39 -310h-122z" />
    <glyph glyph-name="g" unicode="g" horiz-adv-x="531" 
d="M371 404h123l-47 -383c-11 -90 -24 -125 -62 -162c-40 -39 -106 -63 -176 -63c-114 0 -177 49 -185 143h123c7 -35 31 -51 76 -51c42 0 70 21 87 65c6 19 10 39 17 92c-42 -38 -70 -49 -124 -49c-110 0 -175 66 -175 177c0 137 89 244 202 244c61 0 95 -23 132 -87z
M267 306c-62 0 -107 -54 -107 -127c0 -57 34 -96 84 -96c58 0 105 57 105 127c0 58 -33 96 -82 96z" />
    <glyph glyph-name="h" unicode="h" horiz-adv-x="499" 
d="M30 0l90 729h122l-46 -377c57 51 86 65 134 65c75 0 119 -39 119 -106c0 -10 -1 -29 -4 -46l-32 -265h-123l25 203c6 42 6 44 6 53c0 34 -19 51 -55 51c-56 0 -79 -33 -91 -127l-22 -180h-123z" />
    <glyph glyph-name="i" unicode="i" horiz-adv-x="239" 
d="M202 404l-49 -404h-123l50 404h122zM159 630c41 0 74 -33 74 -73c0 -41 -33 -74 -73 -74c-41 0 -74 33 -74 74c0 40 33 73 73 73z" />
    <glyph glyph-name="j" unicode="j" horiz-adv-x="239" 
d="M202 404l-72 -591h-123l72 591h123zM160 630c40 0 73 -33 73 -73c0 -41 -33 -74 -73 -74c-41 0 -74 33 -74 74c0 40 33 73 74 73z" />
    <glyph glyph-name="k" unicode="k" horiz-adv-x="461" 
d="M30 0l90 729h122l-59 -486l132 161h147l-163 -193l140 -211h-148l-113 207l-25 -207h-123z" />
    <glyph glyph-name="l" unicode="l" horiz-adv-x="239" 
d="M30 0l90 729h123l-90 -729h-123z" />
    <glyph glyph-name="m" unicode="m" horiz-adv-x="761" 
d="M30 0l50 404h123l-8 -60c46 54 82 73 140 73c53 0 85 -20 108 -68c47 52 79 68 137 68c83 0 130 -41 130 -113c0 -11 -1 -30 -3 -46l-32 -258h-123l28 223c1 12 2 24 2 33c0 33 -20 51 -57 51c-53 0 -78 -31 -88 -110l-24 -197h-123l28 221c1 13 2 26 2 34
c0 33 -20 52 -54 52c-55 0 -79 -31 -89 -114l-24 -193h-123z" />
    <glyph glyph-name="n" unicode="n" horiz-adv-x="500" 
d="M30 0l50 404h122l-7 -61c50 58 81 75 133 75c78 0 121 -38 121 -107c0 -15 -1 -29 -2 -43l-34 -268h-122l27 222c2 12 3 28 3 36c0 33 -19 50 -54 50c-54 0 -79 -31 -88 -108l-25 -200h-124z" />
    <glyph glyph-name="o" unicode="o" horiz-adv-x="513" 
d="M260 417c127 0 216 -86 216 -207c0 -126 -97 -223 -222 -223c-132 0 -223 83 -223 203c0 129 99 227 229 227zM258 308c-55 0 -95 -48 -95 -116c0 -57 35 -96 85 -96c55 0 96 49 96 115c0 60 -33 97 -86 97z" />
    <glyph glyph-name="p" unicode="p" horiz-adv-x="534" 
d="M7 -187l73 591h122l-7 -61c46 52 86 74 136 74c102 0 167 -74 167 -190c0 -138 -86 -241 -202 -241c-55 0 -86 16 -136 73l-30 -246h-123zM282 313c-58 0 -105 -57 -105 -127c0 -59 32 -97 82 -97c60 0 106 54 106 124c0 61 -33 100 -83 100z" />
    <glyph glyph-name="q" unicode="q" horiz-adv-x="533" 
d="M374 404h123l-72 -589h-123l31 252c-45 -59 -81 -80 -141 -80c-98 0 -162 76 -162 192c0 136 86 238 202 238c63 0 101 -20 135 -72zM270 322c-60 0 -107 -56 -107 -128c0 -58 34 -96 86 -96c60 0 104 54 104 127c0 60 -31 97 -83 97z" />
    <glyph glyph-name="r" unicode="r" horiz-adv-x="332" 
d="M30 0l50 404h122l-9 -78c50 73 77 92 129 92c4 0 13 -1 21 -1l-15 -126c-18 5 -30 7 -43 7c-71 0 -99 -30 -110 -116l-22 -182h-123z" />
    <glyph glyph-name="s" unicode="s" horiz-adv-x="374" 
d="M9 27l30 97c63 -33 88 -42 123 -42c33 0 51 12 51 34c0 21 -4 24 -73 48c-75 26 -99 52 -99 110c0 90 61 143 165 143c46 0 87 -11 140 -38l-43 -86c-36 22 -68 33 -100 33c-29 0 -48 -13 -48 -32c0 -23 2 -25 82 -48c71 -21 97 -51 97 -112c0 -92 -61 -147 -163 -147
c-57 0 -109 13 -162 40z" />
    <glyph glyph-name="t" unicode="t" horiz-adv-x="257" 
d="M36 0l38 310h-51l12 94h51l17 137h122l-16 -137h54l-11 -94h-55l-38 -310h-123z" />
    <glyph glyph-name="u" unicode="u" horiz-adv-x="505" 
d="M80 404h122l-26 -215c-2 -14 -3 -29 -3 -36c0 -35 27 -59 68 -59c50 0 70 26 80 102l25 208h123l-26 -211c-19 -155 -70 -206 -208 -206c-118 0 -184 57 -184 158c0 16 2 38 4 59z" />
    <glyph glyph-name="v" unicode="v" horiz-adv-x="451" 
d="M13 404h124l49 -166c15 -48 18 -66 18 -98v-9l6 -1c12 46 18 59 45 107l94 167h127l-230 -404h-109z" />
    <glyph glyph-name="w" unicode="w" horiz-adv-x="735" 
d="M13 404h121l41 -157c10 -37 14 -63 14 -86c0 -12 0 -16 -2 -27l8 -2c13 46 18 59 44 104l96 168h98l41 -157c7 -27 12 -64 12 -90v-24l8 -1c7 31 19 61 47 110l93 162h126l-232 -404h-98l-42 162c-12 48 -16 71 -16 102c0 2 1 10 1 19l-8 1c-11 -43 -19 -63 -45 -107
l-102 -177h-98z" />
    <glyph glyph-name="x" unicode="x" horiz-adv-x="434" 
d="M-27 0l168 215l-118 189h141l53 -109l74 109h148l-157 -197l132 -207h-142l-70 123l-88 -123h-141z" />
    <glyph glyph-name="y" unicode="y" horiz-adv-x="440" 
d="M13 404h131l73 -253l118 253h130l-290 -588h-129l96 198z" />
    <glyph glyph-name="z" unicode="z" horiz-adv-x="386" 
d="M1 0l187 306h-156l12 98h333l-186 -306h161l-12 -98h-339z" />
    <glyph glyph-name="braceleft" unicode="{" horiz-adv-x="316" 
d="M321 635h-11c-53 0 -65 -13 -73 -77l-20 -168c-8 -59 -23 -81 -74 -106c36 -27 53 -64 47 -108l-21 -173c-1 -11 -2 -21 -2 -28c0 -30 14 -41 57 -41h11l-13 -103h-24c-17 -1 -33 -1 -37 -1c-80 0 -110 30 -110 108c0 15 1 33 3 49l24 195c3 27 -16 49 -49 56l12 99
c42 10 60 36 67 91l23 185c11 90 50 126 135 126c6 0 24 0 43 -1h16l9 -1z" />
    <glyph glyph-name="bar" unicode="|" horiz-adv-x="500" 
d="M197 667h130v-834h-130v834z" />
    <glyph glyph-name="braceright" unicode="}" horiz-adv-x="316" 
d="M10 -66h10c53 0 65 13 73 77l21 168c7 58 23 81 73 106c-36 26 -52 64 -47 107l21 174c2 11 2 15 2 28c0 30 -15 41 -56 41h-11l12 102c11 1 19 1 25 1c16 1 33 1 36 1c80 0 110 -30 110 -109c0 -20 -1 -34 -3 -48l-24 -196c-3 -26 17 -49 50 -56l-13 -98
c-41 -11 -60 -37 -67 -92l-22 -185c-11 -89 -50 -125 -135 -125c-11 0 -19 0 -68 1z" />
    <glyph glyph-name="asciitilde" unicode="~" horiz-adv-x="667" 
d="M173 560l-71 47c3 7 6 13 8 17c40 92 75 122 144 122c23 0 52 -7 103 -26c62 -23 66 -24 88 -24c31 0 47 12 70 52l74 -43c-22 -45 -31 -61 -48 -82c-27 -32 -70 -52 -111 -52c-21 0 -41 5 -103 28c-53 19 -65 22 -80 22c-34 0 -48 -11 -74 -61z" />
    <glyph glyph-name="exclamdown" unicode="&#xa1;" horiz-adv-x="273" 
d="M200 299l-56 -459h-109l56 459h109zM164 520c42 0 76 -34 76 -76c0 -43 -34 -77 -76 -77c-43 0 -77 34 -77 77c0 42 34 76 77 76z" />
    <glyph glyph-name="cent" unicode="&#xa2;" 
d="M418 258l-15 -123c-21 -7 -29 -8 -63 -12l-13 -107h-77l13 112c-92 28 -138 92 -138 195c0 130 71 217 191 233l12 95h76l-11 -95c26 -4 34 -7 59 -17l-14 -116c-45 14 -62 18 -83 18c-66 0 -107 -41 -107 -109c0 -57 33 -89 92 -89c28 0 51 4 78 15z" />
    <glyph glyph-name="sterling" unicode="&#xa3;" 
d="M17 1l14 113c95 30 151 82 151 143c0 5 -1 13 -2 23h-133l11 85h88c-31 59 -39 85 -39 125c0 109 103 190 243 190c105 0 186 -51 226 -143l-109 -59c-29 65 -59 86 -118 86c-61 0 -98 -34 -98 -89c0 -21 5 -38 21 -71c9 -18 10 -23 14 -39h167l-11 -85h-138
c1 -10 2 -20 2 -24c0 -49 -26 -88 -85 -130c32 -3 35 -3 82 -12c28 -5 47 -7 64 -7c44 0 71 7 110 28l31 -118c-46 -21 -83 -30 -126 -30c-22 0 -53 4 -94 11c-13 3 -12 3 -59 13c-36 7 -74 12 -96 12c-33 0 -62 -5 -116 -22z" />
    <glyph glyph-name="fraction" unicode="&#x2044;" horiz-adv-x="165" 
d="M-60 11l249 665l62 -20l-248 -665z" />
    <glyph glyph-name="yen" unicode="&#xa5;" 
d="M77 363l11 91h62l-101 213h148l100 -229l153 229h158l-145 -213h71l-11 -91h-123l-42 -63h157l-11 -91h-162l-26 -209h-125l26 209h-159l11 91h154l-29 63h-117z" />
    <glyph glyph-name="florin" unicode="&#x192;" 
d="M371 362l-45 -255c-19 -109 -31 -149 -54 -183c-33 -49 -81 -72 -147 -72c-27 0 -41 1 -71 7l17 98c20 -3 26 -3 40 -3c38 0 64 19 77 56c8 23 11 34 24 108l43 244h-63l15 85h63l20 114c25 139 61 179 161 179c23 0 42 -2 70 -8l-18 -99c-10 2 -17 3 -27 3
c-48 0 -59 -14 -72 -88l-18 -101h84l-14 -85h-85z" />
    <glyph glyph-name="section" unicode="&#xa7;" 
d="M52 33h120c4 -48 5 -56 14 -69c13 -18 37 -28 70 -28c52 0 81 26 81 73c0 40 -7 47 -85 74c-129 47 -167 89 -167 185c0 85 31 134 118 184c-38 44 -51 75 -51 120c0 98 81 168 195 168c121 0 174 -58 174 -191v-18h-103l-1 5v6v5c0 63 -22 91 -71 91
c-46 0 -78 -33 -78 -79c0 -23 10 -41 29 -53c16 -10 23 -13 72 -31c50 -18 69 -28 88 -45c31 -28 49 -75 49 -127c0 -77 -34 -130 -111 -176c41 -34 58 -70 58 -121c0 -108 -80 -176 -205 -176c-79 0 -150 35 -177 88c-13 27 -18 57 -19 115zM295 385
c-55 0 -98 -44 -98 -101s41 -99 97 -99c57 0 100 43 100 101c0 57 -42 99 -99 99z" />
    <glyph glyph-name="currency" unicode="&#xa4;" horiz-adv-x="667" 
d="M20 137l103 103c-29 43 -44 89 -44 137c0 51 13 92 44 138l-104 104l71 71l104 -104c48 31 88 44 142 44c48 0 90 -13 135 -43l103 102l70 -70l-102 -102c33 -52 45 -90 45 -139c0 -50 -13 -90 -43 -137l103 -103l-70 -71l-103 103c-45 -31 -91 -45 -141 -45
s-89 12 -140 44l-103 -102zM333 514c-75 0 -136 -61 -136 -136c0 -76 61 -137 136 -137s136 61 136 137c0 75 -61 136 -136 136z" />
    <glyph glyph-name="quotesingle" unicode="'" horiz-adv-x="198" 
d="M79 392l15 275h118l-52 -275h-81z" />
    <glyph glyph-name="quotedblleft" unicode="&#x201c;" horiz-adv-x="435" 
d="M252 404l117 276h68l-59 -276h-126zM58 404l118 276h67l-59 -276h-126z" />
    <glyph glyph-name="guillemotleft" unicode="&#xab;" horiz-adv-x="455" 
d="M430 348l-121 -145l83 -135l-67 -44l-114 183l158 194zM250 348l-121 -145l84 -135l-68 -44l-114 183l158 194z" />
    <glyph glyph-name="guilsinglleft" unicode="&#x2039;" horiz-adv-x="275" 
d="M250 348l-121 -145l84 -135l-68 -44l-114 183l158 194z" />
    <glyph glyph-name="guilsinglright" unicode="&#x203a;" horiz-adv-x="275" 
d="M20 65l121 146l-83 135l67 43l114 -182l-158 -195z" />
    <glyph glyph-name="uniFB01" unicode="&#xfb01;" horiz-adv-x="524" 
d="M42 0l38 310h-50l12 94h50l18 149c17 140 53 183 153 183c24 0 43 -2 73 -9l-13 -106c-13 3 -20 4 -31 4c-43 0 -52 -13 -61 -85l-17 -136h86l-12 -94h-85l-39 -310h-122zM487 404l-49 -404h-123l50 404h122zM445 630c40 0 73 -33 73 -73c0 -41 -33 -74 -73 -74
c-41 0 -74 33 -74 74c0 40 33 73 74 73z" />
    <glyph glyph-name="uniFB02" unicode="&#xfb02;" horiz-adv-x="524" 
d="M42 0l38 310h-50l12 94h50l18 149c17 140 53 183 153 183c24 0 43 -2 73 -9l-13 -106c-13 3 -20 4 -31 4c-43 0 -52 -13 -61 -85l-17 -136h86l-12 -94h-85l-39 -310h-122zM315 0l90 729h123l-90 -729h-123z" />
    <glyph glyph-name="endash" unicode="&#x2013;" 
d="M29 156l13 102h491l-12 -102h-492z" />
    <glyph glyph-name="dagger" unicode="&#x2020;" 
d="M400 729l-21 -167h149l-13 -102h-148l-76 -620h-107l77 620h-153l13 102h152l21 167h106z" />
    <glyph glyph-name="daggerdbl" unicode="&#x2021;" 
d="M400 729l-20 -167h148l-13 -102h-148l-31 -250h149l-13 -102h-148l-33 -268h-106l33 268h-153l13 102h152l31 250h-153l13 102h152l21 167h106z" />
    <glyph glyph-name="periodcentered" unicode="&#xb7;" horiz-adv-x="267" 
d="M131 283c42 0 76 -34 76 -76c0 -43 -34 -77 -76 -77c-43 0 -77 34 -77 77c0 42 34 76 77 76z" />
    <glyph glyph-name="paragraph" unicode="&#xb6;" 
d="M128 -92l53 430h-10c-75 0 -123 59 -123 151c0 120 69 178 214 178h326l-14 -113h-73l-80 -646h-103l79 646h-86l-79 -646h-104z" />
    <glyph glyph-name="bullet" unicode="&#x2022;" horiz-adv-x="667" 
d="M348 477c75 0 137 -62 137 -138s-62 -139 -137 -139c-78 0 -140 62 -140 139c0 76 62 138 140 138z" />
    <glyph glyph-name="quotesinglbase" unicode="&#x201a;" horiz-adv-x="235" 
d="M175 120l-117 -275h-68l59 275h126z" />
    <glyph glyph-name="quotedblbase" unicode="&#x201e;" horiz-adv-x="429" 
d="M175 120l-117 -275h-68l59 275h126zM369 120l-118 -275h-67l59 275h126z" />
    <glyph glyph-name="quotedblright" unicode="&#x201d;" horiz-adv-x="429" 
d="M253 680l-117 -276h-68l59 276h126zM447 680l-118 -276h-67l59 276h126z" />
    <glyph glyph-name="guillemotright" unicode="&#xbb;" horiz-adv-x="455" 
d="M20 65l121 146l-83 135l67 43l114 -182l-158 -195zM200 65l121 146l-84 135l67 43l115 -182l-159 -195z" />
    <glyph glyph-name="ellipsis" unicode="&#x2026;" horiz-adv-x="800" 
d="M113 140c42 0 76 -34 76 -76c0 -43 -34 -77 -76 -77c-43 0 -77 34 -77 77c0 42 34 76 77 76zM380 140c42 0 76 -34 76 -76c0 -43 -34 -77 -76 -77c-43 0 -77 34 -77 77c0 42 34 76 77 76zM646 140c42 0 76 -34 76 -76c0 -43 -34 -77 -76 -77c-43 0 -77 34 -77 77
c0 42 34 76 77 76z" />
    <glyph glyph-name="perthousand" unicode="&#x2030;" horiz-adv-x="1129" 
d="M206 673c70 0 115 -56 115 -140c0 -126 -57 -207 -144 -207c-77 0 -120 52 -120 145c0 120 61 202 149 202zM201 613c-41 2 -74 -61 -74 -141c0 -59 16 -86 51 -86c43 0 73 59 73 144c0 50 -19 82 -50 83zM257 11l246 663l53 -18l-245 -663zM641 340
c70 0 115 -55 115 -140c0 -125 -57 -206 -144 -206c-77 0 -120 52 -120 144c0 120 61 202 149 202zM636 280c-41 2 -74 -61 -74 -141c0 -58 16 -85 51 -85c43 0 73 59 73 144c0 49 -19 81 -50 82zM982 340c69 0 115 -55 115 -140c0 -125 -57 -206 -145 -206
c-77 0 -120 52 -120 144c0 120 61 202 150 202zM977 280c-42 2 -75 -61 -75 -141c0 -58 17 -85 52 -85c43 0 73 59 73 144c0 49 -19 81 -50 82z" />
    <glyph glyph-name="questiondown" unicode="&#xbf;" horiz-adv-x="470" 
d="M191 305h122l-23 -187c-18 3 -23 3 -41 3c-74 0 -114 -34 -114 -98c0 -49 32 -80 84 -80c48 0 77 30 84 88h109c-8 -70 -20 -105 -47 -137c-37 -44 -92 -68 -158 -68c-120 0 -199 77 -199 194c0 113 69 193 173 200zM269 520c42 0 76 -34 76 -76c0 -43 -34 -77 -76 -77
c-43 0 -77 34 -77 77c0 42 34 76 77 76z" />
    <glyph glyph-name="grave" unicode="`" horiz-adv-x="500" 
d="M135 569l89 74l125 -132l-64 -44z" />
    <glyph glyph-name="acute" unicode="&#xb4;" horiz-adv-x="500" 
d="M442 569l-150 -102l-64 44l124 132z" />
    <glyph glyph-name="circumflex" unicode="&#x2c6;" horiz-adv-x="500" 
d="M137 534l177 111l121 -133l-73 -45l-66 73l-109 -73z" />
    <glyph glyph-name="tilde" unicode="&#x2dc;" horiz-adv-x="500" 
d="M167 475h-68c21 78 68 126 124 126c18 0 44 -7 76 -20c43 -17 47 -18 61 -18c19 0 29 7 48 37h69c-25 -80 -75 -127 -134 -127c-18 0 -32 4 -67 19s-49 19 -65 19c-18 0 -31 -11 -44 -36z" />
    <glyph glyph-name="macron" unicode="&#xaf;" horiz-adv-x="500" 
d="M109 564h364l-10 -80h-364z" />
    <glyph glyph-name="breve" unicode="&#x2d8;" horiz-adv-x="500" 
d="M138 614h81c10 -47 32 -66 75 -66c39 0 62 19 82 66h81c-20 -87 -84 -141 -165 -141c-95 0 -153 54 -154 141z" />
    <glyph glyph-name="dotaccent" unicode="&#x2d9;" horiz-adv-x="500" 
d="M289 613c39 0 70 -31 70 -70s-31 -70 -70 -70s-70 31 -70 70s31 70 70 70z" />
    <glyph glyph-name="dieresis" unicode="&#xa8;" horiz-adv-x="500" 
d="M195 606c36 0 66 -30 66 -66c0 -37 -30 -67 -66 -67c-37 0 -67 30 -67 67c0 36 30 66 67 66zM382 606c36 0 66 -30 66 -66c0 -37 -30 -67 -66 -67c-37 0 -67 30 -67 67c0 36 30 66 67 66z" />
    <glyph glyph-name="ring" unicode="&#x2da;" horiz-adv-x="500" 
d="M292 667c53 0 96 -43 96 -96c0 -54 -43 -97 -96 -97c-54 0 -97 43 -97 97c0 53 43 96 97 96zM292 609c-22 0 -39 -17 -39 -38c0 -22 17 -39 39 -39c21 0 38 17 38 39c0 21 -17 38 -38 38z" />
    <glyph glyph-name="cedilla" unicode="&#xb8;" horiz-adv-x="500" 
d="M156 -162l85 108l69 -45l-94 -101z" />
    <glyph glyph-name="hungarumlaut" unicode="&#x2dd;" horiz-adv-x="500" 
d="M355 587l-133 -125l-59 32l102 149zM508 587l-133 -125l-59 32l102 149z" />
    <glyph glyph-name="ogonek" unicode="&#x2db;" horiz-adv-x="500" 
d="M253 0h58c-48 -29 -72 -56 -72 -81c0 -19 18 -33 44 -33c17 0 31 4 51 13l-23 -67c-16 -11 -36 -17 -56 -17c-51 0 -89 32 -89 75c0 42 27 77 87 110z" />
    <glyph glyph-name="caron" unicode="&#x2c7;" horiz-adv-x="500" 
d="M460 559l-177 -111l-121 133l73 46l66 -74l109 73z" />
    <glyph glyph-name="emdash" unicode="&#x2014;" horiz-adv-x="645" 
d="M-9 156l13 102h644l-12 -102h-645z" />
    <glyph glyph-name="AE" unicode="&#xc6;" horiz-adv-x="894" 
d="M-15 0l345 667h352l31 -123h-221l33 -149h224l30 -123h-225l34 -149h228l30 -123h-368l-24 107h-267l-57 -107h-145zM427 230l-41 186c-6 26 -8 44 -8 68c0 13 0 16 1 30l-7 1c-5 -34 -10 -48 -32 -92l-96 -193h183z" />
    <glyph glyph-name="ordfeminine" unicode="&#xaa;" horiz-adv-x="339" 
d="M47 362h279l-7 -55h-279zM275 667h89l-31 -248h-91l2 19c-30 -21 -46 -27 -75 -27c-65 0 -108 47 -108 119c0 82 57 145 132 145c32 0 48 -6 77 -31zM215 605c-33 0 -58 -29 -58 -68c0 -30 19 -50 47 -50c33 0 57 28 57 67c0 31 -18 51 -46 51z" />
    <glyph glyph-name="Lslash" unicode="&#x141;" horiz-adv-x="424" 
d="M264 667l-25 -207l111 73l-14 -119l-112 -70l-27 -221h201l-15 -123h-334l33 270l-78 -53l15 119l77 48l35 283h133z" />
    <glyph glyph-name="Oslash" unicode="&#xd8;" horiz-adv-x="787" 
d="M22 54l90 83c-32 61 -42 103 -42 171c0 217 150 372 359 372c78 0 149 -23 208 -67l88 79l67 -76l-89 -79c34 -64 46 -109 46 -174c0 -215 -151 -376 -352 -376c-90 0 -151 20 -220 74l-88 -81zM226 235l303 285c-35 20 -60 27 -102 27c-123 0 -214 -101 -214 -238
c0 -29 3 -46 13 -74zM590 439l-304 -285c30 -22 68 -34 113 -34c118 0 207 102 207 238c0 29 -4 50 -16 81z" />
    <glyph glyph-name="OE" unicode="&#x152;" horiz-adv-x="970" 
d="M624 611l7 56h345l-15 -123h-212l-18 -148h204l-15 -123h-204l-18 -150h212l-16 -123h-345l7 60c-62 -57 -106 -74 -188 -74c-183 0 -314 134 -314 322c0 214 150 372 354 372c83 0 159 -24 216 -69zM411 547c-123 0 -214 -101 -214 -239c0 -112 76 -189 186 -189
c118 0 207 102 207 238c0 114 -72 190 -179 190z" />
    <glyph glyph-name="ordmasculine" unicode="&#xba;" horiz-adv-x="339" 
d="M47 362h279l-7 -55h-279zM210 675c81 0 140 -53 140 -127c0 -78 -62 -137 -144 -137c-87 0 -145 51 -145 128c0 76 65 136 149 136zM207 598c-30 0 -51 -24 -51 -60c0 -30 19 -51 47 -51c31 0 52 25 52 60c0 31 -18 51 -48 51z" />
    <glyph glyph-name="ae" unicode="&#xe6;" horiz-adv-x="753" 
d="M608 131l90 -34c-47 -76 -103 -110 -184 -110c-68 0 -116 20 -156 65c-52 -48 -95 -65 -165 -65c-106 0 -176 56 -176 140c0 83 69 140 168 140c57 0 97 -17 137 -56c1 13 1 15 1 32c0 56 -43 89 -117 89c-33 0 -57 -6 -121 -29l11 91c47 16 83 23 125 23
c83 0 132 -23 164 -77c47 56 89 77 152 77c111 0 182 -76 182 -197c0 -12 0 -21 -2 -43h-296c3 -71 29 -100 90 -100c40 0 65 14 97 54zM442 252h162c-1 55 -19 77 -65 77s-71 -20 -97 -77zM215 176c-54 0 -89 -20 -89 -51c0 -28 36 -48 85 -48c52 0 90 22 90 51
c0 30 -33 48 -86 48z" />
    <glyph glyph-name="dotlessi" unicode="&#x131;" horiz-adv-x="239" 
d="M202 404l-49 -404h-123l50 404h122z" />
    <glyph glyph-name="lslash" unicode="&#x142;" horiz-adv-x="239" 
d="M242 729l-26 -215l81 54l-14 -115l-81 -52l-49 -401h-123l41 335l-79 -52l14 114l79 50l34 282h123z" />
    <glyph glyph-name="oslash" unicode="&#xf8;" horiz-adv-x="559" 
d="M11 32l69 59c-17 35 -24 63 -24 99c0 129 99 227 228 227c51 0 96 -12 133 -37l69 59l57 -65l-68 -58c19 -37 27 -69 27 -106c0 -126 -97 -223 -223 -223c-55 0 -100 13 -141 41l-71 -61zM192 163l143 130c-17 11 -30 15 -51 15c-56 0 -96 -49 -96 -116c0 -9 1 -16 4 -29
zM365 247l-146 -132c19 -14 33 -19 55 -19c55 0 96 49 96 115c0 15 -1 21 -5 36z" />
    <glyph glyph-name="oe" unicode="&#x153;" horiz-adv-x="789" 
d="M645 135l96 -42c-45 -73 -104 -106 -189 -106c-70 0 -114 20 -154 72c-45 -52 -89 -72 -156 -72c-124 0 -212 85 -212 205c0 126 99 225 226 225c64 0 108 -24 153 -81c65 62 104 81 167 81c112 0 177 -76 177 -206v-20v-14h-295c3 -69 31 -100 90 -100c39 0 66 16 97 58
zM255 311c-62 0 -107 -50 -107 -120c0 -60 36 -98 95 -98c64 0 106 47 106 117c0 61 -37 101 -94 101zM470 254h172c-3 56 -24 78 -74 78c-45 0 -76 -24 -98 -78z" />
    <glyph glyph-name="germandbls" unicode="&#xdf;" horiz-adv-x="527" 
d="M30 0l58 473c14 110 27 156 56 193c37 48 98 75 169 75c114 0 184 -65 184 -172c0 -89 -33 -137 -115 -166c81 -41 112 -87 112 -168c0 -104 -51 -187 -135 -217c-33 -13 -70 -17 -148 -18l14 117h20c73 0 117 47 117 125c0 70 -33 101 -109 101l14 115h9
c62 0 101 41 101 106c0 50 -25 79 -67 79c-60 0 -83 -41 -100 -181l-57 -462h-123z" />
    <glyph glyph-name="Ccedilla" unicode="&#xc7;" horiz-adv-x="593" 
d="M544 186l-19 -155c-45 -29 -99 -44 -159 -44c-182 0 -312 134 -312 323c0 214 149 370 355 370c73 0 131 -16 189 -53l-18 -147c-61 48 -110 67 -169 67c-121 0 -214 -102 -214 -236c0 -113 73 -191 179 -191c56 0 104 19 168 66zM215 -160l106 106l78 -52l-117 -99z" />
    <glyph glyph-name="ccedilla" unicode="&#xe7;" horiz-adv-x="376" 
d="M335 128l-23 -126c-38 -11 -63 -15 -94 -15c-116 0 -188 76 -188 198c0 138 88 232 218 232c43 0 75 -7 120 -25l-21 -112c-32 14 -59 20 -86 20c-60 0 -99 -42 -99 -107c0 -56 30 -87 86 -87c29 0 51 6 87 22zM93 -162l85 108l70 -45l-95 -101z" />
    <glyph glyph-name="infinity" unicode="&#x221e;" horiz-adv-x="713" 
d="M357 303c56 74 119 111 189 111c83 0 143 -61 143 -146c0 -92 -56 -153 -141 -153c-63 0 -133 42 -191 112c-17 -20 -22 -26 -30 -35c-44 -49 -103 -77 -158 -77c-86 0 -144 60 -144 149c0 86 61 150 145 150c64 0 129 -39 187 -111zM391 264c71 -76 104 -97 159 -97
c54 0 89 39 89 99c0 56 -39 96 -95 96c-31 0 -70 -16 -103 -44c-17 -13 -32 -29 -44 -46c-4 -5 -6 -8 -6 -8zM324 266c-65 71 -106 96 -156 96c-57 0 -93 -38 -93 -98c0 -57 36 -97 88 -97c44 0 87 22 134 68c9 9 16 17 22 24c3 4 5 7 5 7z" />
    <glyph glyph-name="mu" unicode="&#x3bc;" horiz-adv-x="576" 
d="M442 500v-369c0 -54 20 -90 49 -90c24 0 46 30 49 68l27 -1c-14 -78 -56 -121 -120 -121c-50 0 -77 27 -93 93c-53 -62 -104 -93 -155 -93c-34 0 -56 11 -98 46c0 -37 1 -48 12 -86c17 -59 19 -71 19 -92c0 -45 -20 -74 -50 -74c-28 0 -49 30 -49 69c0 27 0 30 17 94
c8 30 12 54 12 76v480h88v-331c0 -70 34 -111 91 -111c43 0 77 22 112 73v369h89z" />
    <glyph glyph-name="apple" horiz-adv-x="790" 
d="M570 698v-11c0 -87 -86 -165 -181 -164c2 97 70 163 181 175zM714 461c-59 -45 -81 -84 -81 -141c0 -67 37 -123 100 -150c-59 -122 -134 -197 -198 -197c-18 0 -39 5 -65 17c-25 11 -30 12 -66 12c-25 0 -35 -2 -56 -12c-31 -13 -47 -17 -67 -17
c-102 0 -225 185 -225 339c0 122 93 221 207 221c25 0 52 -6 90 -20c23 -8 41 -12 51 -12s23 3 41 10c48 18 63 22 92 22c76 0 133 -23 177 -72z" />
    <glyph glyph-name="Eth" unicode="&#xd0;" horiz-adv-x="652" 
d="M49 0l35 284h-55l14 113h55l33 270h170c111 0 167 -12 218 -47c68 -46 106 -137 106 -253c0 -150 -62 -275 -162 -326c-56 -28 -126 -41 -229 -41h-185zM197 120h30c73 0 115 8 152 28c64 36 103 120 103 225c0 131 -49 174 -196 174h-36l-19 -150h133l-13 -113h-134z
" />
    <glyph glyph-name="eth" unicode="&#xf0;" horiz-adv-x="512" 
d="M89 675l61 50c51 -25 82 -43 124 -74l125 72l36 -63l-104 -60c93 -89 149 -224 149 -354c0 -160 -86 -259 -226 -259c-133 0 -222 82 -222 203c0 128 99 227 228 227c23 0 38 -2 66 -9c-20 55 -39 89 -80 139l-117 -68l-37 63l102 58c-31 30 -48 42 -105 75zM260 308
c-56 0 -96 -49 -96 -117c0 -57 35 -96 85 -96c56 0 97 49 97 115c0 61 -33 98 -86 98z" />
    <glyph glyph-name="Thorn" unicode="&#xde;" horiz-adv-x="535" 
d="M49 0l82 667h134l-12 -94h22c82 0 130 -8 169 -29c52 -27 83 -92 83 -170c0 -86 -35 -153 -97 -185c-45 -24 -87 -32 -170 -32h-58l-20 -157h-133zM216 272h40c90 0 128 31 128 105c0 56 -24 73 -105 73h-41z" />
    <glyph glyph-name="thorn" unicode="&#xfe;" horiz-adv-x="534" 
d="M7 -187l113 916h122l-47 -386c46 52 86 74 136 74c102 0 167 -74 167 -190c0 -138 -86 -241 -202 -241c-55 0 -86 16 -136 73l-30 -246h-123zM282 313c-58 0 -105 -57 -105 -127c0 -59 32 -97 82 -97c60 0 106 54 106 124c0 61 -33 100 -83 100z" />
    <glyph glyph-name="Yacute" unicode="&#xdd;" horiz-adv-x="560" 
d="M189 0l36 293l-178 374h152l100 -229l153 229h162l-256 -374l-36 -293h-133zM500 792l-159 -75l-53 50l139 108z" />
    <glyph glyph-name="yacute" unicode="&#xfd;" horiz-adv-x="440" 
d="M13 404h131l73 -253l118 253h130l-290 -588h-129l96 198zM412 569l-150 -102l-64 44l124 132z" />
    <glyph glyph-name="trademark" unicode="&#x2122;" horiz-adv-x="748" 
d="M86 287l37 299h-82l10 81h252l-10 -81h-77l-36 -299h-94zM273 287l124 380h84l42 -196c1 -5 2 -10 4 -27c3 8 3 7 9 19l103 204h87l12 -380h-95l-5 196l-99 -196h-64l-43 201l-65 -201h-94z" />
    <glyph glyph-name="copyright" unicode="&#xa9;" horiz-adv-x="733" 
d="M504 261l-13 -106c-33 -21 -64 -29 -105 -29c-118 0 -201 81 -201 197c0 125 96 218 225 218c48 0 87 -11 124 -34l-12 -101c-48 35 -72 45 -111 45c-70 0 -124 -55 -124 -127c0 -65 43 -108 106 -108c37 0 62 10 111 45zM382 682c189 0 344 -157 344 -348
c0 -192 -155 -349 -344 -349c-193 0 -349 155 -349 349c0 193 155 348 349 348zM381 619c-155 0 -279 -127 -279 -286c0 -158 125 -286 279 -286c151 0 275 129 275 286s-124 286 -275 286z" />
    <glyph glyph-name="registered" unicode="&#xae;" horiz-adv-x="733" 
d="M214 133l50 400h107c107 0 152 -33 152 -111c0 -63 -36 -110 -94 -123l107 -166h-113l-95 147l-18 -147h-96zM350 452l-12 -97h19c46 0 67 18 67 57c0 30 -13 40 -52 40h-22zM382 682c189 0 344 -157 344 -348c0 -192 -155 -349 -344 -349c-193 0 -349 155 -349 349
c0 193 155 348 349 348zM381 619c-155 0 -279 -127 -279 -286c0 -158 125 -286 279 -286c151 0 275 129 275 286s-124 286 -275 286z" />
    <glyph glyph-name="onequarter" unicode="&#xbc;" horiz-adv-x="925" 
d="M172 267l40 328h-53l9 72h138l-50 -400h-84zM320 11l249 665l62 -20l-248 -665zM731 0l11 84h-180l9 70l201 246h92l-31 -253h47l-8 -63h-47l-10 -84h-84zM750 147l19 156l-124 -156h105z" />
    <glyph glyph-name="onehalf" unicode="&#xbd;" horiz-adv-x="925" 
d="M172 267l40 328h-53l9 72h138l-50 -400h-84zM320 11l249 665l62 -20l-248 -665zM861 72l-10 -72h-302l145 146c77 78 95 104 95 141c0 32 -18 49 -52 49c-38 0 -57 -22 -62 -71h-82c9 95 58 143 148 143c77 0 132 -52 132 -123c0 -59 -32 -104 -154 -213h142z" />
    <glyph glyph-name="threequarters" unicode="&#xbe;" horiz-adv-x="925" 
d="M70 387h83c2 -42 18 -58 55 -58c34 0 56 23 56 59c0 37 -21 51 -76 51l8 67c7 -1 16 -1 17 -1c42 0 63 18 63 53c0 29 -18 47 -48 47c-33 0 -48 -15 -55 -56h-83c11 82 60 126 139 126c77 0 127 -41 127 -106c0 -45 -19 -72 -63 -92c38 -18 55 -46 55 -87
c0 -81 -57 -131 -147 -131c-91 0 -130 38 -131 128zM320 11l248 665l62 -20l-247 -665zM731 0l10 84h-179l9 70l201 246h92l-31 -253h47l-8 -63h-47l-11 -84h-83zM749 147l19 156l-124 -156h105z" />
    <glyph glyph-name="minus" unicode="&#x2212;" 
d="M54 294v93h487v-93h-487z" />
    <glyph glyph-name="multiply" unicode="&#xd7;" 
d="M82 187l153 156l-158 159l61 59l156 -157l156 158l69 -67l-157 -158l156 -157l-61 -59l-155 154l-153 -154z" />
    <glyph glyph-name="plusminus" unicode="&#xb1;" horiz-adv-x="549" 
d="M302 662v-245h237v-55h-237v-233h-55v233h-237v55h237v245h55zM11 55h524v-55h-524v55z" />
    <glyph glyph-name="divide" unicode="&#xf7;" horiz-adv-x="549" 
d="M273 120c34 0 62 -28 62 -62s-28 -62 -62 -62s-62 28 -62 62s28 62 62 62zM273 519c34 0 62 -28 62 -62s-28 -62 -62 -62s-62 28 -62 62s28 62 62 62zM10 288h526v-55h-526v55z" />
    <glyph glyph-name="logicalnot" unicode="&#xac;" horiz-adv-x="500" 
d="M348 0v150h-303v117h433v-267h-130z" />
    <glyph glyph-name="degree" unicode="&#xb0;" horiz-adv-x="400" 
d="M201 686c85 0 149 -65 149 -152c0 -86 -66 -153 -150 -153s-150 67 -150 154c0 83 68 151 151 151zM199 629c-52 0 -93 -43 -93 -98c0 -49 43 -93 91 -93c55 0 96 41 96 94c0 55 -40 97 -94 97z" />
    <glyph glyph-name="brokenbar" unicode="&#xa6;" horiz-adv-x="500" 
d="M197 667h130v-347h-130v347zM197 153h130v-320h-130v320z" />
    <glyph glyph-name="uni00B9" unicode="&#xb9;" horiz-adv-x="387" 
d="M175 267l40 328h-53l9 72h138l-50 -400h-84z" />
    <glyph glyph-name="uni00B2" unicode="&#xb2;" horiz-adv-x="387" 
d="M352 339l-9 -72h-303l145 145c77 78 95 104 95 141c0 33 -18 50 -52 50c-38 0 -56 -22 -62 -72h-82c9 96 59 144 148 144c77 0 132 -52 132 -124c0 -59 -33 -104 -153 -212h141z" />
    <glyph glyph-name="uni00B3" unicode="&#xb3;" horiz-adv-x="387" 
d="M74 387h83c2 -42 18 -58 55 -58c34 0 56 23 56 59c0 37 -21 51 -76 51l8 67c7 -1 16 -1 17 -1c42 0 63 18 63 53c0 29 -18 47 -48 47c-33 0 -48 -15 -55 -56h-83c11 82 60 126 139 126c77 0 127 -41 127 -106c0 -45 -19 -72 -63 -92c38 -18 55 -46 55 -87
c0 -81 -57 -131 -147 -131c-91 0 -130 38 -131 128z" />
    <glyph glyph-name="notequal" unicode="&#x2260;" horiz-adv-x="549" 
d="M187 141h-172v55h199l70 139h-269v55h297l80 159l47 -24l-68 -135h169v-55h-197l-70 -139h267v-55h-295l-84 -166l-46 24z" />
    <glyph glyph-name="lessequal" unicode="&#x2264;" horiz-adv-x="549" 
d="M526 55v-55h-497v55h497zM526 639v-62l-418 -199l418 -199v-62l-497 233v55z" />
    <glyph glyph-name="greaterequal" unicode="&#x2265;" horiz-adv-x="549" 
d="M526 55v-55h-497v55h497zM29 639l497 -234v-55l-497 -233v62l418 199l-418 199v62z" />
    <glyph glyph-name="partialdiff" unicode="&#x2202;" horiz-adv-x="494" 
d="M107 674l-41 51c56 21 89 28 129 28c153 0 267 -150 267 -351c0 -122 -36 -259 -85 -325c-41 -57 -98 -87 -163 -87c-107 0 -188 85 -188 198c0 117 92 224 193 224c53 0 88 -15 153 -66c6 50 7 72 7 105c0 162 -59 255 -162 255c-33 0 -66 -10 -110 -32zM366 312
c-42 42 -67 55 -105 55c-81 0 -148 -94 -148 -208c0 -87 33 -138 90 -138c41 0 85 34 111 86c16 33 28 68 35 105c12 57 18 98 17 100z" />
    <glyph glyph-name="summation" unicode="&#x2211;" horiz-adv-x="713" 
d="M176 711l188 -370l-201 -352h328c116 0 146 17 178 98h26l-54 -210h-627l242 408l-233 467h599l10 -165h-26c-17 101 -47 124 -162 124h-268z" />
    <glyph glyph-name="product" unicode="&#x220f;" horiz-adv-x="823" 
d="M25 -124v26h3c33 0 60 12 74 31c11 17 14 33 14 85v591c0 52 -3 68 -14 85c-14 19 -41 31 -74 31h-3v26h778v-26h-3c-33 0 -60 -12 -74 -31c-11 -17 -14 -33 -14 -85v-591c0 -52 3 -68 14 -85c14 -19 41 -31 74 -31h3v-26h-290v26h3c33 0 60 12 74 31c11 17 14 33 14 85
v576c0 62 -4 83 -18 96c-11 10 -28 15 -59 17c-9 1 -19 1 -48 1h-67c-106 0 -116 0 -139 -4c-41 -7 -49 -26 -49 -110v-576c0 -52 3 -68 14 -85c14 -19 41 -31 74 -31h3v-26h-290z" />
    <glyph glyph-name="pi" unicode="&#x3c0;" horiz-adv-x="549" 
d="M30 348h-20c17 60 33 89 61 117c29 28 48 35 102 35h350v-89h-126c-7 -54 -12 -147 -12 -221c0 -68 22 -105 64 -105c33 0 52 25 57 73h24c-3 -51 -7 -72 -23 -101c-24 -45 -58 -70 -96 -70c-63 0 -99 67 -99 184c0 55 9 161 21 240h-109l-12 -129c-3 -36 -2 -27 -9 -79
c-10 -86 -14 -116 -18 -133c-13 -55 -38 -83 -74 -83c-30 0 -54 24 -54 56c0 21 10 37 40 65c34 32 48 53 51 81l26 222h-46c-48 0 -64 -11 -98 -63z" />
    <glyph glyph-name="integral" unicode="&#x222b;" horiz-adv-x="274" 
d="M180 576v-344c0 -107 -10 -207 -25 -261c-14 -49 -48 -78 -92 -78c-37 0 -61 17 -61 44c0 19 15 33 36 33c13 0 21 -6 30 -22c6 -13 13 -18 21 -18c19 0 31 23 31 60c0 14 -1 45 -3 73c-3 62 -4 100 -4 169v345c0 105 10 207 25 261c14 49 49 78 92 78
c38 0 61 -17 61 -46c0 -18 -16 -31 -36 -31c-16 0 -23 6 -40 33c-2 4 -7 6 -13 6c-19 0 -29 -23 -29 -65c0 -13 1 -39 3 -67c3 -51 4 -101 4 -170z" />
    <glyph glyph-name="Omega" unicode="&#x3a9;" horiz-adv-x="768" 
d="M326 0h-292v153h24c7 -44 29 -63 69 -63h146l-3 38c-129 46 -202 138 -202 254c0 165 145 304 317 304s317 -139 317 -304c0 -116 -73 -208 -202 -254l-3 -38h146c40 0 62 19 69 63h24v-153h-292l18 155c78 44 128 133 128 227c0 146 -90 260 -205 260
s-205 -114 -205 -260c0 -94 50 -183 128 -227z" />
    <glyph glyph-name="radical" unicode="&#x221a;" horiz-adv-x="549" 
d="M363 -35l-242 496l-95 -47l-16 35l146 71l195 -394l127 787l37 -5z" />
    <glyph glyph-name="approxequal" unicode="&#x2248;" horiz-adv-x="549" 
d="M489 251l38 -34c-30 -56 -78 -85 -141 -85c-23 0 -43 3 -66 10l-16 5c-44 14 -17 6 -81 25c-35 10 -46 12 -63 12c-41 0 -56 -10 -103 -63l-43 34c40 57 87 84 146 84c28 0 53 -5 125 -28c72 -22 80 -24 101 -24c37 0 59 13 103 64zM489 408l38 -33
c-30 -57 -78 -86 -141 -86c-23 0 -43 3 -66 10c-65 20 -33 11 -97 30c-35 10 -46 12 -63 12c-41 0 -56 -10 -103 -63l-43 34c40 57 87 84 146 84c28 0 53 -5 125 -28c72 -22 80 -24 101 -24c37 0 58 13 103 64z" />
    <glyph glyph-name="Delta" unicode="&#x394;" horiz-adv-x="612" 
d="M6 0l321 688l281 -688h-602zM77 51h402l-189 458z" />
    <glyph glyph-name="lozenge" unicode="&#x25ca;" horiz-adv-x="494" 
d="M209 0l-191 377l196 363h63l189 -366l-197 -374h-60zM240 58l162 316l-157 309l-164 -306z" />
  </font>
</defs>
</svg>
